<svg xmlns="http://www.w3.org/2000/svg" width="87.539" height="87.539" viewBox="0 0 87.539 87.539">
  <g id="Group_1201719" data-name="Group 1201719" transform="translate(-746.051 -1843)">
    <g id="Group_1201627" data-name="Group 1201627" transform="translate(-275.916 -1249.655)">
      <g id="Group_1200255" data-name="Group 1200255" transform="translate(1021.967 3092.655)">
        <g id="Group_1187152" data-name="Group 1187152">
          <g id="Group_1185946" data-name="Group 1185946">
            <g id="Group_1184280" data-name="Group 1184280">
              <g id="Group_1182168" data-name="Group 1182168">
                <g id="Group_1178877" data-name="Group 1178877">
                  <g id="Group_1111311" data-name="Group 1111311">
                    <g id="Group_1098742" data-name="Group 1098742" transform="translate(0 0)">
                      <g id="Rectangle_400898" data-name="Rectangle 400898" transform="translate(0.001 0)" fill="#ffe9b5" stroke="#b18c32" stroke-width="1" opacity="0.859">
                        <rect width="87.539" height="87.539" rx="43.769" stroke="none"/>
                        <rect x="0.5" y="0.5" width="86.539" height="86.539" rx="43.269" fill="none"/>
                      </g>
                      <g id="Rectangle_400907" data-name="Rectangle 400907" transform="translate(0 0)" fill="none" stroke="#b18c32" stroke-width="1">
                        <rect width="87.539" height="87.539" rx="43.769" stroke="none"/>
                        <rect x="0.5" y="0.5" width="86.539" height="86.539" rx="43.269" fill="none"/>
                      </g>
                    </g>
                  </g>
                </g>
              </g>
            </g>
          </g>
        </g>
      </g>
    </g>
    <g id="conversacion" transform="translate(760.105 1858.977)">
      <g id="Group_1201635" data-name="Group 1201635" transform="translate(39.007 44.562)">
        <path id="Path_1247604" data-name="Path 1247604" d="M83.772,79.9H75.743A5.735,5.735,0,0,0,70,85.643v4.293H89.516V85.643A5.735,5.735,0,0,0,83.772,79.9Z" transform="translate(-70 -79.9)" fill="#a1c6f1"/>
      </g>
      <g id="Group_1201636" data-name="Group 1201636" transform="translate(49.434 44.562)">
        <path id="Path_1247605" data-name="Path 1247605" d="M97.789,85.643v4.293H94.443V85.643A5.735,5.735,0,0,0,88.7,79.9h3.346A5.735,5.735,0,0,1,97.789,85.643Z" transform="translate(-88.7 -79.9)" fill="#49bbce"/>
      </g>
      <g id="Group_1201637" data-name="Group 1201637" transform="translate(38.449 44.004)">
        <path id="Path_1247606" data-name="Path 1247606" d="M89.073,90.052H69.558A.527.527,0,0,1,69,89.494V85.2a6.893,6.893,0,0,1,.558-2.621.549.549,0,0,1,1,.446,4.968,4.968,0,0,0-.5,2.175v3.736h18.4V85.2a5.212,5.212,0,0,0-5.186-5.186H75.3a4.828,4.828,0,0,0-2.9.892.565.565,0,1,1-.613-.948A6.5,6.5,0,0,1,75.3,78.9H83.33a6.33,6.33,0,0,1,6.3,6.3v4.293a.527.527,0,0,1-.558.558Z" transform="translate(-69 -78.9)"/>
      </g>
      <g id="Group_1201638" data-name="Group 1201638" transform="translate(46.813 41.216)">
        <path id="Path_1247607" data-name="Path 1247607" d="M84,73.9h3.346v6.133H84Z" transform="translate(-84 -73.9)" fill="#fccab1"/>
      </g>
      <g id="Group_1201639" data-name="Group 1201639" transform="translate(46.256 40.658)">
        <path id="Path_1247608" data-name="Path 1247608" d="M86.9,80.149H83.558A.527.527,0,0,1,83,79.591V73.458a.527.527,0,0,1,.558-.558H86.9a.527.527,0,0,1,.558.558v6.133A.527.527,0,0,1,86.9,80.149Zm-2.788-1.115h2.23V74.015h-2.23Z" transform="translate(-83 -72.9)"/>
      </g>
      <g id="Group_1201640" data-name="Group 1201640" transform="translate(40.452 25.389)">
        <path id="Path_1247609" data-name="Path 1247609" d="M85.644,47.4s5.018,3.9,1.115,8.921L83.971,58,75.05,59.669s-3.346-5.018-2.23-10.037,5.018-2.23,5.018-2.23C78.953,45.172,82.3,44.614,85.644,47.4Z" transform="translate(-72.592 -45.515)" fill="#464045"/>
      </g>
      <g id="Group_1201641" data-name="Group 1201641" transform="translate(47.427 25.355)">
        <path id="Path_1247610" data-name="Path 1247610" d="M92.293,56.3,89.5,57.97l-1.171.223a7.992,7.992,0,0,0,1.729-4.963A8.147,8.147,0,0,0,85.1,45.759c1.561-.669,3.792-.279,6.078,1.617C91.178,47.376,96.2,51.279,92.293,56.3Z" transform="translate(-85.1 -45.455)" fill="#282628"/>
      </g>
      <g id="Group_1201642" data-name="Group 1201642" transform="translate(39.892 24.886)">
        <path id="Path_1247611" data-name="Path 1247611" d="M74.605,59.828a.688.688,0,0,1-.446-.223c-.167-.223-3.457-5.3-2.342-10.483.39-1.729,1.115-2.844,2.23-3.234a3.837,3.837,0,0,1,3.122.39,3.865,3.865,0,0,1,2.453-1.561,7.168,7.168,0,0,1,5.855,1.9A8.566,8.566,0,0,1,87.653,49.4a6.245,6.245,0,0,1-.948,6.914c-.056.056-.112.112-.167.112L83.75,58.1a.2.2,0,0,1-.167.056l-8.921,1.673Zm.5-13.048a2.8,2.8,0,0,0-.669.112c-.725.279-1.227,1.115-1.561,2.453-.892,4.015,1.282,8.141,1.952,9.312L83.3,57.1l2.621-1.561c3.4-4.461-.892-7.918-1.059-8.085-1.673-1.394-3.457-2.007-4.907-1.673a2.8,2.8,0,0,0-2.007,1.505.419.419,0,0,1-.39.279.434.434,0,0,1-.446-.112,4.542,4.542,0,0,0-2.007-.669Z" transform="translate(-71.587 -44.613)"/>
      </g>
      <g id="Group_1201643" data-name="Group 1201643" transform="translate(42.408 30.064)">
        <path id="Path_1247612" data-name="Path 1247612" d="M83.795,66.167H80.616A4.5,4.5,0,0,1,76.1,61.65V53.9H88.367v7.75a4.581,4.581,0,0,1-4.572,4.516Z" transform="translate(-76.1 -53.9)" fill="#fccab1"/>
      </g>
      <g id="Group_1201644" data-name="Group 1201644" transform="translate(47.873 30.064)">
        <path id="Path_1247613" data-name="Path 1247613" d="M92.647,53.9v7.75a4.5,4.5,0,0,1-4.516,4.516H85.9a4.5,4.5,0,0,0,4.516-4.516V53.9Z" transform="translate(-85.9 -53.9)" fill="#ea9e7d"/>
      </g>
      <g id="Group_1201645" data-name="Group 1201645" transform="translate(3.879 26.474)">
        <path id="Path_1247614" data-name="Path 1247614" d="M13.691,49.379s-4.461,0-4.461,4.461C10.9,63.319,7,67.779,7,67.779c4.126,6.245,13.382,5.576,19.516-.558A14.9,14.9,0,0,1,23.17,55.512c1.115-3.9.725-5.966-2.23-7.249A5.771,5.771,0,0,0,13.691,49.379Z" transform="translate(-7 -47.462)" fill="#464045"/>
      </g>
      <g id="Group_1201646" data-name="Group 1201646" transform="translate(5.273 27.276)">
        <path id="Path_1247615" data-name="Path 1247615" d="M27.622,67.858c-5.52,5.52-13.549,6.635-18.122,2.23h3.178a9.352,9.352,0,0,0,9.367-9.367V48.9c2.955,1.282,3.346,3.346,2.23,7.249A14.9,14.9,0,0,0,27.622,67.858Z" transform="translate(-9.5 -48.9)" fill="#282628"/>
      </g>
      <g id="Group_1201647" data-name="Group 1201647" transform="translate(15.086 8.318)">
        <path id="Path_1247616" data-name="Path 1247616" d="M48.233,14.9H28.717A1.618,1.618,0,0,0,27.1,16.517v8.475a1.618,1.618,0,0,0,1.617,1.617H31.17l.279,3.067a1.05,1.05,0,0,0,1.9.558l2.788-3.624h12.1a1.618,1.618,0,0,0,1.617-1.617V16.517A1.618,1.618,0,0,0,48.233,14.9Z" transform="translate(-27.1 -14.9)" fill="#d5fbff"/>
      </g>
      <g id="Group_1201648" data-name="Group 1201648" transform="translate(33.989 8.318)">
        <path id="Path_1247617" data-name="Path 1247617" d="M64.847,16.517v8.475a1.618,1.618,0,0,1-1.617,1.617H61V14.9h2.23a1.618,1.618,0,0,1,1.617,1.617Z" transform="translate(-61 -14.9)" fill="#64d7dd"/>
      </g>
      <g id="Group_1201651" data-name="Group 1201651" transform="translate(20.049 10.828)">
        <g id="Group_1201649" data-name="Group 1201649">
          <path id="Path_1247618" data-name="Path 1247618" d="M45.479,20.515H36.558A.559.559,0,0,1,36,19.958a.527.527,0,0,1,.558-.558h8.921a.559.559,0,0,1,.558.558A.6.6,0,0,1,45.479,20.515Z" transform="translate(-36 -19.4)"/>
        </g>
        <g id="Group_1201650" data-name="Group 1201650" transform="translate(0 3.346)">
          <path id="Path_1247619" data-name="Path 1247619" d="M48.267,26.515H36.558A.559.559,0,0,1,36,25.958a.527.527,0,0,1,.558-.558H48.267a.559.559,0,0,1,.558.558A.6.6,0,0,1,48.267,26.515Z" transform="translate(-36 -25.4)"/>
        </g>
      </g>
      <g id="Group_1201652" data-name="Group 1201652" transform="translate(14.529 7.761)">
        <path id="Path_1247620" data-name="Path 1247620" d="M32.066,30.795a1.087,1.087,0,0,1-.446-.056,1.609,1.609,0,0,1-1.171-1.45l-.223-2.565H28.275A2.177,2.177,0,0,1,26.1,24.55V16.075A2.177,2.177,0,0,1,28.275,13.9h1.84a.558.558,0,0,1,0,1.115h-1.84a1.059,1.059,0,0,0-1.059,1.059V24.55a1.059,1.059,0,0,0,1.059,1.059h2.453a.55.55,0,0,1,.558.5l.279,3.067a.428.428,0,0,0,.39.446.662.662,0,0,0,.558-.167L35.3,25.832a.688.688,0,0,1,.446-.223H47.79A1.059,1.059,0,0,0,48.85,24.55V16.075a1.059,1.059,0,0,0-1.059-1.059H33.014a.558.558,0,0,1,0-1.115H47.79a2.177,2.177,0,0,1,2.175,2.175V24.55a2.177,2.177,0,0,1-2.175,2.175H35.969l-2.621,3.4A1.562,1.562,0,0,1,32.066,30.795Z" transform="translate(-26.1 -13.9)"/>
      </g>
      <g id="Group_1201653" data-name="Group 1201653" transform="translate(22.837 13.894)">
        <path id="Path_1247621" data-name="Path 1247621" d="M60.014,24.9h-17.4A1.618,1.618,0,0,0,41,26.517v6.8a1.618,1.618,0,0,0,1.617,1.617H54.438l2.4,3.122a.945.945,0,0,0,1.673-.5l.223-2.676h1.282a1.618,1.618,0,0,0,1.617-1.617V26.517A1.618,1.618,0,0,0,60.014,24.9Z" transform="translate(-41 -24.9)" fill="#ffc94a"/>
      </g>
      <g id="Group_1201654" data-name="Group 1201654" transform="translate(39.063 13.894)">
        <path id="Path_1247622" data-name="Path 1247622" d="M74.5,26.517v6.8a1.618,1.618,0,0,1-1.617,1.617H71.717v-.558h-.39a1.76,1.76,0,0,0,.39-1.059v-6.8A1.618,1.618,0,0,0,70.1,24.9h2.788A1.618,1.618,0,0,1,74.5,26.517Z" transform="translate(-70.1 -24.9)" fill="#ffe9b5"/>
      </g>
      <g id="Group_1201657" data-name="Group 1201657" transform="translate(26.74 16.682)">
        <g id="Group_1201655" data-name="Group 1201655">
          <path id="Path_1247623" data-name="Path 1247623" d="M57.479,31.015H48.558A.559.559,0,0,1,48,30.458a.527.527,0,0,1,.558-.558h8.921a.558.558,0,1,1,0,1.115Z" transform="translate(-48 -29.9)"/>
        </g>
        <g id="Group_1201656" data-name="Group 1201656" transform="translate(0 3.346)">
          <path id="Path_1247624" data-name="Path 1247624" d="M60.267,37.015H48.558A.559.559,0,0,1,48,36.458a.527.527,0,0,1,.558-.558H60.267a.558.558,0,0,1,0,1.115Z" transform="translate(-48 -35.9)"/>
        </g>
      </g>
      <g id="Group_1201658" data-name="Group 1201658" transform="translate(22.279 13.337)">
        <path id="Path_1247625" data-name="Path 1247625" d="M57.118,38.565a1.569,1.569,0,0,1-1.171-.558l-2.23-2.9H52.1a.558.558,0,1,1,0-1.115H54a.507.507,0,0,1,.446.223l2.4,3.122a.3.3,0,0,0,.39.112.436.436,0,0,0,.279-.335l.223-2.676a.55.55,0,0,1,.558-.5h1.282a1.059,1.059,0,0,0,1.059-1.059v-6.8a1.059,1.059,0,0,0-1.059-1.059h-17.4a1.059,1.059,0,0,0-1.059,1.059v6.8a1.059,1.059,0,0,0,1.059,1.059h7.081a.558.558,0,0,1,0,1.115H42.175A2.177,2.177,0,0,1,40,32.877v-6.8A2.177,2.177,0,0,1,42.175,23.9h17.4a2.177,2.177,0,0,1,2.175,2.175v6.8a2.177,2.177,0,0,1-2.175,2.175h-.781l-.167,2.119a1.426,1.426,0,0,1-1.059,1.282A1.724,1.724,0,0,1,57.118,38.565Z" transform="translate(-40 -23.9)"/>
      </g>
      <g id="Group_1201659" data-name="Group 1201659" transform="translate(41.851 29.507)">
        <path id="Path_1247626" data-name="Path 1247626" d="M83.352,66.282H80.174A5.093,5.093,0,0,1,75.1,61.208v-7.75a.527.527,0,0,1,.558-.558H87.925a.527.527,0,0,1,.558.558v7.75A5.178,5.178,0,0,1,83.352,66.282ZM76.159,54.015v7.193a3.974,3.974,0,0,0,3.959,3.959H83.3a3.974,3.974,0,0,0,3.959-3.959V54.015Z" transform="translate(-75.1 -52.9)"/>
      </g>
      <g id="Group_1201660" data-name="Group 1201660" transform="translate(46.813 38.986)">
        <path id="Path_1247627" data-name="Path 1247627" d="M85.673,71.573a2.125,2.125,0,0,1-1.505-.725.552.552,0,0,1,.781-.781c.5.5.892.5,1.45,0a.552.552,0,0,1,.781.781,2.125,2.125,0,0,1-1.505.725Z" transform="translate(-84 -69.9)"/>
      </g>
      <g id="Group_1201661" data-name="Group 1201661" transform="translate(45.14 34.525)">
        <path id="Path_1247628" data-name="Path 1247628" d="M81.558,64.13A.527.527,0,0,1,81,63.573V62.458a.558.558,0,0,1,1.115,0v1.115A.527.527,0,0,1,81.558,64.13Z" transform="translate(-81 -61.9)"/>
      </g>
      <g id="Group_1201662" data-name="Group 1201662" transform="translate(44.015 33.068)">
        <path id="Path_1247629" data-name="Path 1247629" d="M79.549,60.744a.587.587,0,0,1-.558-.446.573.573,0,0,1,.39-.669c.112-.056.223-.056.335-.112a2.378,2.378,0,0,1,2.342.167.558.558,0,0,1-.669.892c-.39-.279-.725-.167-1.394,0-.112.056-.279.056-.39.112C79.661,60.744,79.6,60.744,79.549,60.744Z" transform="translate(-78.981 -59.287)"/>
      </g>
      <g id="Group_1201663" data-name="Group 1201663" transform="translate(50.716 34.525)">
        <path id="Path_1247630" data-name="Path 1247630" d="M91.558,64.13A.527.527,0,0,1,91,63.573V62.458a.558.558,0,0,1,1.115,0v1.115A.527.527,0,0,1,91.558,64.13Z" transform="translate(-91 -61.9)"/>
      </g>
      <g id="Group_1201664" data-name="Group 1201664" transform="translate(49.615 33.124)">
        <path id="Path_1247631" data-name="Path 1247631" d="M91.8,60.788h-.112c-.112-.056-.279-.056-.39-.112-.613-.167-1-.279-1.394,0a.558.558,0,1,1-.669-.892,2.378,2.378,0,0,1,2.342-.167c.112.056.223.056.335.112a.529.529,0,0,1,.39.669c0,.223-.279.39-.5.39Z" transform="translate(-89.026 -59.387)"/>
      </g>
      <g id="Group_1201665" data-name="Group 1201665" transform="translate(48.486 44.004)">
        <path id="Path_1247632" data-name="Path 1247632" d="M87,82.8l2.23-3.9,1.115,3.9C89.509,81.911,88.282,82.246,87,82.8Z" transform="translate(-87 -78.9)" fill="#0189ef"/>
      </g>
      <g id="Group_1201666" data-name="Group 1201666" transform="translate(47.962 43.446)">
        <path id="Path_1247633" data-name="Path 1247633" d="M86.584,82.918a.506.506,0,0,1-.39-.167.584.584,0,0,1-.056-.669l2.23-3.9a.686.686,0,0,1,.558-.279.473.473,0,0,1,.446.39l1.115,3.9a.561.561,0,0,1-.279.613.593.593,0,0,1-.669-.112c-.5-.558-1.227-.5-2.732.112a.223.223,0,0,1-.223.112Zm2.063-3.011-.836,1.45a3.039,3.039,0,0,1,1.227-.056Z" transform="translate(-86.061 -77.9)"/>
      </g>
      <g id="Group_1201667" data-name="Group 1201667" transform="translate(45.14 44.004)">
        <path id="Path_1247634" data-name="Path 1247634" d="M84.346,82.8l-2.23-3.9L81,82.8C81.836,81.911,83.063,82.246,84.346,82.8Z" transform="translate(-81 -78.9)" fill="#0189ef"/>
      </g>
      <g id="Group_1201668" data-name="Group 1201668" transform="translate(44.569 43.502)">
        <path id="Path_1247635" data-name="Path 1247635" d="M83.892,82.963a.335.335,0,0,1-.223-.056c-1.45-.669-2.23-.669-2.732-.112a.593.593,0,0,1-.669.112.561.561,0,0,1-.279-.613l1.115-3.9A.473.473,0,0,1,81.55,78a.566.566,0,0,1,.558.279l2.23,3.9a.593.593,0,0,1-.056.669A.806.806,0,0,1,83.892,82.963ZM81.885,81.29a3.291,3.291,0,0,1,.781.112l-.836-1.45-.39,1.394a1.228,1.228,0,0,1,.446-.056Z" transform="translate(-79.975 -78)"/>
      </g>
      <g id="Group_1201669" data-name="Group 1201669" transform="translate(53.504 50.695)">
        <path id="Path_1247636" data-name="Path 1247636" d="M96.558,95.361A.527.527,0,0,1,96,94.8V91.458a.558.558,0,0,1,1.115,0V94.8A.527.527,0,0,1,96.558,95.361Z" transform="translate(-96 -90.9)"/>
      </g>
      <g id="Group_1201670" data-name="Group 1201670" transform="translate(43.468 50.695)">
        <path id="Path_1247637" data-name="Path 1247637" d="M78.558,95.361A.527.527,0,0,1,78,94.8V91.458a.558.558,0,0,1,1.115,0V94.8A.527.527,0,0,1,78.558,95.361Z" transform="translate(-78 -90.9)"/>
      </g>
      <g id="Group_1201671" data-name="Group 1201671" transform="translate(3.299 25.895)">
        <path id="Path_1247638" data-name="Path 1247638" d="M15.015,72.282a9.871,9.871,0,0,1-1.282-.056,10.278,10.278,0,0,1-7.695-4.572.584.584,0,0,1,.056-.669c.056-.056,3.68-4.4,2.119-13.494V53.38a4.839,4.839,0,0,1,4.8-5.018,6.251,6.251,0,0,1,7.75-1.059c3.513,1.561,3.569,4.126,2.509,7.862A14.285,14.285,0,0,0,26.5,66.427a.6.6,0,0,1-.056.781A16.769,16.769,0,0,1,15.015,72.282ZM7.209,67.319a9,9,0,0,0,6.635,3.736,14.874,14.874,0,0,0,11.431-4.349C22.71,63.472,21.707,59.68,22.153,55v-.112c1.115-3.847.613-5.464-1.9-6.58a5.2,5.2,0,0,0-6.635,1,.506.506,0,0,1-.39.167,3.8,3.8,0,0,0-3.9,3.847C10.778,61.576,8.1,66.093,7.209,67.319Z" transform="translate(-5.961 -46.422)"/>
      </g>
      <g id="Group_1201672" data-name="Group 1201672" transform="translate(3.879 45.119)">
        <path id="Path_1247639" data-name="Path 1247639" d="M14.137,80.9H19.88a7.115,7.115,0,0,1,7.137,7.137v2.342H7V88.037A7.151,7.151,0,0,1,14.137,80.9Z" transform="translate(-7 -80.9)" fill="#bccdb2"/>
      </g>
      <g id="Group_1201673" data-name="Group 1201673" transform="translate(3.879 45.119)">
        <path id="Path_1247640" data-name="Path 1247640" d="M16.925,80.9a7.151,7.151,0,0,0-7.137,7.137v2.342H7V88.037A7.151,7.151,0,0,1,14.137,80.9Z" transform="translate(-7 -80.9)" fill="#dde6d8"/>
      </g>
      <g id="Group_1201674" data-name="Group 1201674" transform="translate(14.027 45.174)">
        <path id="Path_1247641" data-name="Path 1247641" d="M35.125,88.137v2.342H32.337V88.137A7.151,7.151,0,0,0,25.2,81h2.788A7.115,7.115,0,0,1,35.125,88.137Z" transform="translate(-25.2 -80.999)" fill="#5a8441"/>
      </g>
      <g id="Group_1201675" data-name="Group 1201675" transform="translate(3.321 44.506)">
        <path id="Path_1247642" data-name="Path 1247642" d="M26.631,90.45H6.558A.527.527,0,0,1,6,89.892v-2.23a.558.558,0,1,1,1.115,0v1.673H26.073V87.55a6.732,6.732,0,0,0-5.13-6.468c-.167-.056-.279-.056-.446-.112h-.056a5.735,5.735,0,0,0-.948-.056H18.267a.558.558,0,1,1,0-1.115h1.227a7.472,7.472,0,0,1,1.115.056,1.65,1.65,0,0,1,.558.112,7.922,7.922,0,0,1,6.022,7.639v2.342a.515.515,0,0,1-.558.5Z" transform="translate(-6 -79.8)"/>
      </g>
      <g id="Group_1201676" data-name="Group 1201676" transform="translate(3.645 44.617)">
        <path id="Path_1247643" data-name="Path 1247643" d="M7.149,86.133H6.982a.639.639,0,0,1-.39-.725A7.662,7.662,0,0,1,13.952,80h1.784a.558.558,0,0,1,0,1.115H13.952a6.524,6.524,0,0,0-6.3,4.628A.536.536,0,0,1,7.149,86.133Z" transform="translate(-6.581 -80)"/>
      </g>
      <g id="Group_1201679" data-name="Group 1201679" transform="translate(29.164 37.116)">
        <g id="Group_1201677" data-name="Group 1201677" transform="translate(1.561)">
          <path id="Path_1247644" data-name="Path 1247644" d="M55.734,71.93h-.167a.529.529,0,0,1-.39-.669l1.115-4.293a.548.548,0,1,1,1.059.279l-1.115,4.293A.536.536,0,0,1,55.734,71.93Z" transform="translate(-55.147 -66.547)"/>
        </g>
        <g id="Group_1201678" data-name="Group 1201678" transform="translate(0 1.561)">
          <path id="Path_1247645" data-name="Path 1247645" d="M57.228,71.551H57.06l-4.293-1.115a.548.548,0,1,1,.279-1.059l4.293,1.115a.529.529,0,0,1,.39.669A.536.536,0,0,1,57.228,71.551Z" transform="translate(-52.347 -69.347)"/>
        </g>
      </g>
      <g id="Group_1201680" data-name="Group 1201680" transform="translate(8.328 1.059)">
        <path id="Path_1247646" data-name="Path 1247646" d="M18.615,4.066a1.867,1.867,0,0,1-2.007,1.729A1.949,1.949,0,0,1,14.991,3.62,1.867,1.867,0,0,1,17,1.892,1.982,1.982,0,0,1,18.615,4.066Z" transform="translate(-14.98 -1.881)" fill="#efc206"/>
      </g>
      <g id="Group_1201681" data-name="Group 1201681" transform="translate(7.773 0.503)">
        <path id="Path_1247647" data-name="Path 1247647" d="M16.5,5.911h-.279a2.552,2.552,0,0,1-2.23-2.788A2.552,2.552,0,0,1,16.781.893a2.8,2.8,0,0,1,1.84,1.115.6.6,0,0,1-.167.781.558.558,0,0,1-.781-.167,1.479,1.479,0,0,0-1-.613,1.388,1.388,0,0,0-1.561,1.227A1.428,1.428,0,0,0,16.335,4.8h.446a.578.578,0,0,1,.669.446A.611.611,0,0,1,17,5.911h-.5Z" transform="translate(-13.984 -0.884)"/>
      </g>
      <g id="Group_1201682" data-name="Group 1201682" transform="translate(15.031 44.617)">
        <path id="Path_1247648" data-name="Path 1247648" d="M27.558,81.171A.559.559,0,0,1,27,80.613a.527.527,0,0,1,.558-.558L29.788,80v1.115Z" transform="translate(-27 -80)"/>
      </g>
      <g id="Group_1201687" data-name="Group 1201687" transform="translate(47.371 8.889)">
        <g id="Group_1201683" data-name="Group 1201683" transform="translate(5.756)">
          <path id="Path_1247649" data-name="Path 1247649" d="M95.868,21.709a.335.335,0,0,1-.223-.056.553.553,0,0,1-.279-.725l2.063-4.684a.549.549,0,0,1,1,.446L96.37,21.375A.536.536,0,0,1,95.868,21.709Z" transform="translate(-95.323 -15.923)"/>
        </g>
        <g id="Group_1201684" data-name="Group 1201684" transform="translate(3.359 6.914)">
          <path id="Path_1247650" data-name="Path 1247650" d="M91.568,32.548a.335.335,0,0,1-.223-.056.553.553,0,0,1-.279-.725l1.394-3.122a.549.549,0,1,1,1,.446L92.07,32.213A.536.536,0,0,1,91.568,32.548Z" transform="translate(-91.023 -28.323)"/>
        </g>
        <g id="Group_1201685" data-name="Group 1201685" transform="translate(5.545 7.261)">
          <path id="Path_1247651" data-name="Path 1247651" d="M95.533,33.938a.633.633,0,0,1-.446-.167.542.542,0,0,1,.056-.781l4.461-3.9a.553.553,0,1,1,.725.836l-4.461,3.9A.6.6,0,0,1,95.533,33.938Z" transform="translate(-94.945 -28.945)"/>
        </g>
        <g id="Group_1201686" data-name="Group 1201686" transform="translate(0 2.775)">
          <path id="Path_1247652" data-name="Path 1247652" d="M85.558,28.706A.527.527,0,0,1,85,28.149V21.458a.558.558,0,1,1,1.115,0v6.691A.527.527,0,0,1,85.558,28.706Z" transform="translate(-85 -20.9)"/>
        </g>
      </g>
      <g id="Group_1201692" data-name="Group 1201692" transform="translate(-0.055 8.889)">
        <g id="Group_1201688" data-name="Group 1201688" transform="translate(2.274)">
          <path id="Path_1247653" data-name="Path 1247653" d="M6.631,21.653a.536.536,0,0,1-.5-.335L4.066,16.691a.549.549,0,0,1,1-.446l2.063,4.628a.553.553,0,0,1-.279.725c-.112,0-.167.056-.223.056Z" transform="translate(-4.023 -15.923)"/>
        </g>
        <g id="Group_1201689" data-name="Group 1201689" transform="translate(5.229 6.691)">
          <path id="Path_1247654" data-name="Path 1247654" d="M11.373,32.371a.536.536,0,0,1-.5-.335L9.366,28.691a.549.549,0,1,1,1-.446l1.505,3.346a.553.553,0,0,1-.279.725A.335.335,0,0,1,11.373,32.371Z" transform="translate(-9.323 -27.923)"/>
        </g>
        <g id="Group_1201690" data-name="Group 1201690" transform="translate(0 7.261)">
          <path id="Path_1247655" data-name="Path 1247655" d="M4.994,33.938a1.034,1.034,0,0,1-.39-.112l-4.461-3.9a.542.542,0,0,1-.056-.781.542.542,0,0,1,.781-.056l4.461,3.9a.542.542,0,0,1,.056.781.434.434,0,0,1-.39.167Z" transform="translate(0.055 -28.945)"/>
        </g>
        <g id="Group_1201691" data-name="Group 1201691" transform="translate(10.067 2.775)">
          <path id="Path_1247656" data-name="Path 1247656" d="M18.558,28.706A.527.527,0,0,1,18,28.149V21.458a.558.558,0,1,1,1.115,0v6.691A.527.527,0,0,1,18.558,28.706Z" transform="translate(-18 -20.9)"/>
        </g>
      </g>
      <g id="Group_1201693" data-name="Group 1201693" transform="translate(10.012 43.446)">
        <path id="Path_1247657" data-name="Path 1247657" d="M26.364,79.74v.112c0,1.394-1.9,2.509-4.182,2.509S18,81.246,18,79.852V79.74l2.788-.056V77.9h2.788v1.673h2.788Z" transform="translate(-18 -77.9)" fill="#fccab1"/>
      </g>
      <g id="Group_1201694" data-name="Group 1201694" transform="translate(9.455 42.889)">
        <path id="Path_1247658" data-name="Path 1247658" d="M21.739,82.476c-2.676,0-4.739-1.338-4.739-3.067a.606.606,0,0,1,.056-.279.536.536,0,0,1,.5-.39h2.23V77.458a.527.527,0,0,1,.558-.558h2.788a.527.527,0,0,1,.558.558v1.115h2.23a.506.506,0,0,1,.39.167.6.6,0,0,1,.167.39v.279C26.479,81.138,24.416,82.476,21.739,82.476Zm-3.513-2.621c.39.836,1.84,1.505,3.513,1.505,1.784,0,3.346-.725,3.569-1.673H23.133a.527.527,0,0,1-.558-.558V78.015H20.9v1.227a.559.559,0,0,1-.558.558Z" transform="translate(-17 -76.9)"/>
      </g>
      <g id="Group_1201695" data-name="Group 1201695" transform="translate(7.838 29.507)">
        <path id="Path_1247659" data-name="Path 1247659" d="M21.795,67.4H18.616A4.5,4.5,0,0,1,14.1,62.881V56.97a4.093,4.093,0,0,1,4.07-4.07H22.3a4.093,4.093,0,0,1,4.07,4.07v5.91A4.581,4.581,0,0,1,21.795,67.4Z" transform="translate(-14.1 -52.9)" fill="#fccab1"/>
      </g>
      <g id="Group_1201696" data-name="Group 1201696" transform="translate(9.789 29.507)">
        <path id="Path_1247660" data-name="Path 1247660" d="M27.86,56.97v5.91A4.5,4.5,0,0,1,23.343,67.4h-.056a4.574,4.574,0,0,0,2.342-3.959v-5.91a4.093,4.093,0,0,0-4.07-4.07H17.6a4.219,4.219,0,0,1,2.063-.558h4.126a4.093,4.093,0,0,1,4.07,4.07Z" transform="translate(-17.6 -52.9)" fill="#ea9e7d"/>
      </g>
      <g id="Group_1201697" data-name="Group 1201697" transform="translate(7.28 28.949)">
        <path id="Path_1247661" data-name="Path 1247661" d="M21.352,67.512H18.174A5.093,5.093,0,0,1,13.1,62.438v-5.91A4.617,4.617,0,0,1,17.728,51.9h4.126a4.617,4.617,0,0,1,4.628,4.628v5.91a5.178,5.178,0,0,1-5.13,5.074Zm-3.68-14.5a3.5,3.5,0,0,0-3.513,3.513v5.91A3.974,3.974,0,0,0,18.118,66.4H21.3a3.974,3.974,0,0,0,3.959-3.959v-5.91a3.5,3.5,0,0,0-3.513-3.513Z" transform="translate(-13.1 -51.9)"/>
      </g>
      <g id="Group_1201698" data-name="Group 1201698" transform="translate(11.685 35.64)">
        <path id="Path_1247662" data-name="Path 1247662" d="M21.558,66.13A.527.527,0,0,1,21,65.573V64.458a.558.558,0,0,1,1.115,0v1.115A.527.527,0,0,1,21.558,66.13Z" transform="translate(-21 -63.9)"/>
      </g>
      <g id="Group_1201699" data-name="Group 1201699" transform="translate(15.588 35.64)">
        <path id="Path_1247663" data-name="Path 1247663" d="M28.558,66.13A.527.527,0,0,1,28,65.573V64.458a.558.558,0,1,1,1.115,0v1.115A.527.527,0,0,1,28.558,66.13Z" transform="translate(-28 -63.9)"/>
      </g>
      <g id="Group_1201700" data-name="Group 1201700" transform="translate(12.243 40.101)">
        <path id="Path_1247664" data-name="Path 1247664" d="M23.673,73.573a2.125,2.125,0,0,1-1.505-.725.552.552,0,0,1,.781-.781c.5.5.892.5,1.45,0a.552.552,0,0,1,.781.781A2.125,2.125,0,0,1,23.673,73.573Z" transform="translate(-22 -71.9)"/>
      </g>
      <g id="Group_1201701" data-name="Group 1201701" transform="translate(6.667 28.392)">
        <path id="Path_1247665" data-name="Path 1247665" d="M25.94,54.246l-2.23-2.788L17.018,50.9l-3.346,1.673L12.558,54.8,12,58.706c3.9,0,3.346-2.788,3.346-2.788,0-3.9,2.23-1.673,2.23-1.673,1.505-2.23,2.955-2.23,4.461,0,.892,1.784,1.561,3.067,3.346,3.067a6.947,6.947,0,0,0,1.673-.279A6.566,6.566,0,0,1,25.94,54.246Z" transform="translate(-12 -50.9)" fill="#464045"/>
      </g>
      <g id="Group_1201702" data-name="Group 1201702" transform="translate(17.819 28.949)">
        <path id="Path_1247666" data-name="Path 1247666" d="M35.9,57.476a7.4,7.4,0,0,1-1.673.279A2.745,2.745,0,0,1,32,56.639V51.9l.558.056,2.23,2.788A6.608,6.608,0,0,0,35.9,57.476Z" transform="translate(-32 -51.9)" fill="#464045"/>
      </g>
      <g id="Group_1201703" data-name="Group 1201703" transform="translate(17.819 28.949)">
        <path id="Path_1247667" data-name="Path 1247667" d="M35.9,57.476a7.4,7.4,0,0,1-1.673.279A2.745,2.745,0,0,1,32,56.639V51.9l.558.056,2.23,2.788A6.608,6.608,0,0,0,35.9,57.476Z" transform="translate(-32 -51.9)" fill="#282628"/>
      </g>
      <g id="Group_1201704" data-name="Group 1201704" transform="translate(19.714 28.838)">
        <path id="Path_1247668" data-name="Path 1247668" d="M35.958,52.815a.558.558,0,1,1,.558-.558A.527.527,0,0,1,35.958,52.815Z" transform="translate(-35.4 -51.7)"/>
      </g>
      <g id="Group_1201705" data-name="Group 1201705" transform="translate(10.01 33.41)">
        <path id="Path_1247669" data-name="Path 1247669" d="M21.343,61.573a.793.793,0,0,1-.335-.112,1.551,1.551,0,0,0-2.119,0,.558.558,0,0,1-.669-.892,2.567,2.567,0,0,1,3.457,0,.6.6,0,0,1,.112.781.507.507,0,0,1-.446.223Z" transform="translate(-17.995 -59.9)"/>
      </g>
      <g id="Group_1201706" data-name="Group 1201706" transform="translate(14.47 33.41)">
        <path id="Path_1247670" data-name="Path 1247670" d="M29.343,61.573a.793.793,0,0,1-.335-.112,1.551,1.551,0,0,0-2.119,0,.558.558,0,0,1-.669-.892,2.567,2.567,0,0,1,3.457,0,.6.6,0,0,1,.112.781.507.507,0,0,1-.446.223Z" transform="translate(-25.995 -59.9)"/>
      </g>
      <g id="Group_1201707" data-name="Group 1201707" transform="translate(5.942 29.451)">
        <path id="Path_1247671" data-name="Path 1247671" d="M11.425,60.1h-.167a.558.558,0,1,1,0-1.115h.167a3.225,3.225,0,0,0,2.453-.781,1.654,1.654,0,0,0,.335-1.338v-.112c0-1.561.335-2.453,1.059-2.788a1.844,1.844,0,0,1,1.617.279,3.055,3.055,0,0,1,2.342-1.45c.948,0,1.84.613,2.676,1.9a.055.055,0,0,0,.056.056c.892,1.784,1.45,2.732,2.844,2.732a5.56,5.56,0,0,0,.892-.112,18.1,18.1,0,0,1-.781-3.011v-.223a.527.527,0,0,1,.558-.558.586.586,0,0,1,.5.279c0,.056.056.112.056.167v.112a10.985,10.985,0,0,0,1,3.29.542.542,0,0,1,.056.5.59.59,0,0,1-.39.335,4.6,4.6,0,0,1-1.9.446c-2.119,0-2.9-1.561-3.792-3.346-.446-.669-1.059-1.394-1.729-1.394s-1.338.781-1.784,1.45a.564.564,0,0,1-.39.223.633.633,0,0,1-.446-.167c-.279-.279-.725-.558-.892-.446-.112.056-.39.5-.39,1.673a2.968,2.968,0,0,1-.558,2.175,4.231,4.231,0,0,1-3.4,1.227Z" transform="translate(-10.7 -52.8)"/>
      </g>
      <g id="Group_1201709" data-name="Group 1201709" transform="translate(40.512 27.053)">
        <g id="Group_1201708" data-name="Group 1201708">
          <path id="Path_1247672" data-name="Path 1247672" d="M72.7,54.355c1.282.892,3.178.335,4.628-2.286,2.732,2.4,6.133,3.9,8.921,2.23A9.209,9.209,0,0,0,88.2,52.9a21.486,21.486,0,0,0,1.952-1.952A16.466,16.466,0,0,1,85.971,49a5.925,5.925,0,0,1-.613-.5l-.5.558c-5.966.5-11.765,1.115-11.152,2.788C73.425,53.184,74.205,54.355,72.7,54.355Z" transform="translate(-72.7 -48.5)" fill="#464045"/>
        </g>
      </g>
      <g id="Group_1201711" data-name="Group 1201711" transform="translate(50.326 26.998)">
        <g id="Group_1201710" data-name="Group 1201710">
          <path id="Path_1247673" data-name="Path 1247673" d="M97.939,50.909a16.122,16.122,0,0,1-1.952,1.952,10.871,10.871,0,0,1-1.952,1.394,5.087,5.087,0,0,1-1.673.613v-.335A7.9,7.9,0,0,0,90.3,49.181c.781-.056,1.561-.112,2.342-.223l.5-.558a5.927,5.927,0,0,0,.613.5A14.566,14.566,0,0,0,97.939,50.909Z" transform="translate(-90.3 -48.4)" fill="#282628"/>
        </g>
      </g>
      <g id="Group_1201712" data-name="Group 1201712" transform="translate(39.984 26.44)">
        <path id="Path_1247674" data-name="Path 1247674" d="M83.266,55.095a10.1,10.1,0,0,1-6.189-2.676A4.811,4.811,0,0,1,74.233,54.7,2.671,2.671,0,0,1,72,54.258a.558.558,0,1,1,.669-.892,1.843,1.843,0,0,0,1.338.279A4.515,4.515,0,0,0,76.519,51.3c.056-.167.223-.223.39-.279a.434.434,0,0,1,.446.112c1.84,1.561,5.3,3.959,8.252,2.175a12.25,12.25,0,0,0,1.9-1.338c.446-.39.892-.836,1.338-1.282a14.664,14.664,0,0,1-3.513-1.784h-.056a3.536,3.536,0,0,1-.669-.558.552.552,0,0,1,.781-.781c.167.167.335.279.5.446a.055.055,0,0,1,.056.056,15.953,15.953,0,0,0,4.015,1.9.478.478,0,0,1,.335.39.535.535,0,0,1-.112.5,17.055,17.055,0,0,1-2.007,2.007,11.554,11.554,0,0,1-2.063,1.505,6.33,6.33,0,0,1-2.844.725Z" transform="translate(-71.753 -47.4)"/>
      </g>
      <g id="Group_1201716" data-name="Group 1201716" transform="translate(43.815 0.023)">
        <g id="Group_1201714" data-name="Group 1201714">
          <g id="Group_1201713" data-name="Group 1201713">
            <path id="Path_1247675" data-name="Path 1247675" d="M78.666,4.806a.553.553,0,0,1,.279-.725A2.5,2.5,0,0,0,80.283.791a.549.549,0,1,1,1-.446,2.5,2.5,0,0,0,3.29,1.338.549.549,0,1,1,.446,1,2.5,2.5,0,0,0-1.338,3.29.549.549,0,0,1-1,.446,2.5,2.5,0,0,0-3.29-1.338A.553.553,0,0,1,78.666,4.806Z" transform="translate(-78.623 -0.023)" fill="#a8e900"/>
          </g>
        </g>
        <g id="Group_1201715" data-name="Group 1201715" transform="translate(1.561 0.056)">
          <path id="Path_1247676" data-name="Path 1247676" d="M84.31,4.738h-.167a.606.606,0,0,1-.39-.669,3.7,3.7,0,0,1,.5-1.059A3.589,3.589,0,0,1,82.749,2.4a6.092,6.092,0,0,1-.279.948.549.549,0,1,1-1-.446A2.516,2.516,0,0,0,81.522.891a.549.549,0,1,1,1-.446,2.5,2.5,0,0,0,3.29,1.338.549.549,0,0,1,.446,1,2.665,2.665,0,0,0-1.45,1.561.45.45,0,0,1-.5.39Z" transform="translate(-81.423 -0.123)"/>
        </g>
      </g>
      <g id="Group_1201718" data-name="Group 1201718" transform="translate(28.064 1.683)">
        <g id="Group_1201717" data-name="Group 1201717">
          <path id="Path_1247677" data-name="Path 1247677" d="M51.17,4.673A.837.837,0,0,0,51.17,3,.837.837,0,0,0,51.17,4.673Z" transform="translate(-50.375 -3)"/>
        </g>
      </g>
    </g>
  </g>
</svg>
