<svg xmlns="http://www.w3.org/2000/svg" xmlns:xlink="http://www.w3.org/1999/xlink" width="87.539" height="87.539" viewBox="0 0 87.539 87.539">
  <defs>
    <clipPath id="clip-path">
      <path id="path3726" d="M0-682.665H57.365V-625.3H0Z" transform="translate(0 682.665)"/>
    </clipPath>
  </defs>
  <g id="Group_1201814" data-name="Group 1201814" transform="translate(6791 8017)">
    <g id="Group_1201737" data-name="Group 1201737" transform="translate(-7199.051 -9860)">
      <g id="Group_1200255" data-name="Group 1200255" transform="translate(408.051 1843)">
        <g id="Group_1187152" data-name="Group 1187152">
          <g id="Group_1185946" data-name="Group 1185946">
            <g id="Group_1184280" data-name="Group 1184280">
              <g id="Group_1182168" data-name="Group 1182168">
                <g id="Group_1178877" data-name="Group 1178877">
                  <g id="Group_1111311" data-name="Group 1111311">
                    <g id="Group_1098742" data-name="Group 1098742" transform="translate(0 0)">
                      <g id="Rectangle_400898" data-name="Rectangle 400898" transform="translate(0.001 0)" fill="#ffc94a" stroke="#b18c32" stroke-width="1" opacity="0.859">
                        <rect width="87.539" height="87.539" rx="43.769" stroke="none"/>
                        <rect x="0.5" y="0.5" width="86.539" height="86.539" rx="43.269" fill="none"/>
                      </g>
                      <g id="Rectangle_400907" data-name="Rectangle 400907" transform="translate(0 0)" fill="none" stroke="#b18c32" stroke-width="1">
                        <rect width="87.539" height="87.539" rx="43.769" stroke="none"/>
                        <rect x="0.5" y="0.5" width="86.539" height="86.539" rx="43.269" fill="none"/>
                      </g>
                    </g>
                  </g>
                </g>
              </g>
            </g>
          </g>
        </g>
      </g>
    </g>
    <g id="g3720" transform="translate(-6777 -7319.335)">
      <g id="g3722" transform="translate(0 -682.665)">
        <g id="g3724" clip-path="url(#clip-path)">
          <g id="g3730" transform="translate(1.12 1.12)">
            <path id="path3732" d="M-600.874-300.437a27.562,27.562,0,0,1-27.562,27.562A27.562,27.562,0,0,1-656-300.437,27.562,27.562,0,0,1-628.436-328a27.562,27.562,0,0,1,27.562,27.562" transform="translate(655.998 327.999)" fill="#fff"/>
          </g>
          <g id="g3734" transform="translate(18.62 12.925)">
            <path id="path3736" d="M-252.934-182.029a2.706,2.706,0,0,0-3.864.036l-2.58,2.68v-14.979a2.1,2.1,0,0,0-2.1-2.095h0a2.1,2.1,0,0,0-2.095,2.095v-2.341a2.1,2.1,0,0,0-2.1-2.1h0a2.1,2.1,0,0,0-2.095,2.1v2.543a2.1,2.1,0,0,0-2.1-2.1,2.1,2.1,0,0,0-2.095,2.1v3.317a2.1,2.1,0,0,0-2.095-2.1h0a2.1,2.1,0,0,0-2.095,2.1v15.6a8.1,8.1,0,0,0,8.1,8.1h3.277a8.1,8.1,0,0,0,6.689-3.531l5.458-7.99a2.706,2.706,0,0,0-.32-3.439" transform="translate(276.138 198.729)" fill="#ffdb8c"/>
          </g>
          <g id="g3738" transform="translate(25.88 11.804)">
            <path id="path3740" d="M-62.075-108.252a1.12,1.12,0,0,1-1.12-1.12v-11.2a3.219,3.219,0,0,1,3.215-3.215,3.219,3.219,0,0,1,3.215,3.215v7.187a1.12,1.12,0,0,1-1.12,1.12,1.12,1.12,0,0,1-1.12-1.12v-7.187a.976.976,0,0,0-.975-.975.976.976,0,0,0-.975.975v11.2A1.12,1.12,0,0,1-62.075-108.252Z" transform="translate(63.196 123.786)"/>
          </g>
          <g id="g3742" transform="translate(21.69 14.347)">
            <path id="path3744" d="M-62.075-126.818a1.12,1.12,0,0,1-1.12-1.12v-10.109a3.219,3.219,0,0,1,3.215-3.215,3.219,3.219,0,0,1,3.215,3.215v8.655a1.12,1.12,0,0,1-1.12,1.12,1.12,1.12,0,0,1-1.12-1.12v-8.655a.976.976,0,0,0-.975-.975.976.976,0,0,0-.975.975v10.109A1.12,1.12,0,0,1-62.075-126.818Z" transform="translate(63.196 141.264)"/>
          </g>
          <g id="g3746" transform="translate(30.07 14.145)">
            <path id="path3748" d="M-62.075-37.152a1.12,1.12,0,0,1-1.12-1.12v-4.846a3.219,3.219,0,0,1,3.215-3.215,3.219,3.219,0,0,1,3.215,3.215v.678a1.12,1.12,0,0,1-1.12,1.12,1.12,1.12,0,0,1-1.12-1.12v-.678a.976.976,0,0,0-.975-.975.976.976,0,0,0-.975.975v4.846A1.12,1.12,0,0,1-62.075-37.152Z" transform="translate(63.196 46.333)"/>
          </g>
          <g id="g3750" transform="translate(19.017 24.761)">
            <path id="path3752" d="M-2.354-174.747H-5.631a9.249,9.249,0,0,1-7.493-3.846,1.12,1.12,0,0,1,.256-1.564,1.12,1.12,0,0,1,1.564.256,7,7,0,0,0,5.673,2.912h3.277A6.976,6.976,0,0,0,3.41-180.03l5.458-7.99a1.587,1.587,0,0,0-.188-2.015,1.573,1.573,0,0,0-1.136-.465,1.574,1.574,0,0,0-1.128.486l-2.58,2.68a1.12,1.12,0,0,1-1.226.262,1.12,1.12,0,0,1-.7-1.039v-6.459a1.12,1.12,0,0,1,1.12-1.12,1.12,1.12,0,0,1,1.12,1.12v3.679l.653-.678a3.8,3.8,0,0,1,2.721-1.172,3.8,3.8,0,0,1,2.742,1.122,3.829,3.829,0,0,1,.453,4.863l-5.458,7.99A9.216,9.216,0,0,1-2.354-174.747Z" transform="translate(13.334 195.69)"/>
          </g>
          <g id="g3754" transform="translate(17.5 17.664)">
            <path id="path3756" d="M-62.075-132.043a1.12,1.12,0,0,1-1.12-1.12v-13.854a3.219,3.219,0,0,1,3.215-3.215,3.219,3.219,0,0,1,3.215,3.215v9.409a1.12,1.12,0,0,1-1.12,1.12,1.12,1.12,0,0,1-1.12-1.12v-9.409a.976.976,0,0,0-.975-.975.976.976,0,0,0-.975.975v13.854A1.12,1.12,0,0,1-62.075-132.043Z" transform="translate(63.196 150.233)"/>
          </g>
          <g id="g3758" transform="translate(1.12 1.12)">
            <path id="path3760" d="M-300.437-58.622A22.075,22.075,0,0,1-286.774-53.9L-317.9-22.775a22.075,22.075,0,0,1-4.718-13.663,22.209,22.209,0,0,1,22.184-22.184m22.184,22.184a22.209,22.209,0,0,1-22.184,22.184A22.075,22.075,0,0,1-314.1-18.972L-282.971-50.1a22.075,22.075,0,0,1,4.718,13.663M-300.437-8.875a27.562,27.562,0,0,0,27.562-27.562A27.562,27.562,0,0,0-300.437-64,27.562,27.562,0,0,0-328-36.438,27.562,27.562,0,0,0-300.437-8.875" transform="translate(327.999 64)" fill="#ff7e99"/>
          </g>
          <g id="g3762" transform="translate(0 0)">
            <path id="path3764" d="M-312.65-19.968A28.715,28.715,0,0,1-341.332-48.65a28.5,28.5,0,0,1,5.2-16.476,1.12,1.12,0,0,1,1.561-.272,1.12,1.12,0,0,1,.272,1.561,26.273,26.273,0,0,0-4.794,15.187A26.472,26.472,0,0,0-312.65-22.209,26.472,26.472,0,0,0-286.208-48.65,26.472,26.472,0,0,0-312.65-75.092a26.306,26.306,0,0,0-14.794,4.523,1.12,1.12,0,0,1-1.556-.3,1.12,1.12,0,0,1,.3-1.556,28.539,28.539,0,0,1,16.05-4.907A28.715,28.715,0,0,1-283.967-48.65,28.715,28.715,0,0,1-312.65-19.968Zm0-5.378A23.055,23.055,0,0,1-327-30.3a1.12,1.12,0,0,1-.427-.814,1.12,1.12,0,0,1,.326-.86l31.129-31.129a1.12,1.12,0,0,1,.86-.326A1.12,1.12,0,0,1-294.3-63a23.054,23.054,0,0,1,4.957,14.354A23.331,23.331,0,0,1-312.65-25.346Zm-11.95-5.967a20.806,20.806,0,0,0,11.95,3.726A21.088,21.088,0,0,0-291.586-48.65a20.807,20.807,0,0,0-3.726-11.95Zm-5.515-2.554-.068,0A1.12,1.12,0,0,1-331-34.3a23.054,23.054,0,0,1-4.957-14.354,23.331,23.331,0,0,1,23.3-23.3A23.055,23.055,0,0,1-298.3-67a1.12,1.12,0,0,1,.427.814,1.12,1.12,0,0,1-.326.86L-329.323-34.2A1.12,1.12,0,0,1-330.116-33.867Zm17.466-35.847A21.088,21.088,0,0,0-333.714-48.65a20.807,20.807,0,0,0,3.726,11.95L-300.7-65.988A20.807,20.807,0,0,0-312.65-69.714Z" transform="translate(341.332 77.333)"/>
          </g>
          <g id="g3766" transform="translate(9.381 9.008)">
            <path id="path3768"/>
          </g>
        </g>
      </g>
    </g>
  </g>
</svg>
