<svg xmlns="http://www.w3.org/2000/svg" width="76.345" height="76.344" viewBox="0 0 76.345 76.344">
  <g id="Group_1201771" data-name="Group 1201771" transform="translate(-762.051 -1483)">
    <g id="Group_1201316" data-name="Group 1201316" transform="translate(-259.916 -1609.655)">
      <g id="Group_1200255" data-name="Group 1200255">
        <g id="Group_1187152" data-name="Group 1187152">
          <g id="Group_1185946" data-name="Group 1185946" transform="translate(-3.07)">
            <g id="Group_1184280" data-name="Group 1184280">
              <g id="Group_1182168" data-name="Group 1182168">
                <g id="Group_1178877" data-name="Group 1178877">
                  <g id="Group_1111311" data-name="Group 1111311">
                    <g id="Group_1098742" data-name="Group 1098742" transform="translate(1025.482 3093.101)">
                      <g id="Rectangle_400898" data-name="Rectangle 400898" transform="translate(-0.445 -0.445)" fill="#bccdb2" stroke="#5a8441" stroke-width="1" opacity="0.859">
                        <rect width="76.345" height="76.345" rx="38.172" stroke="none"/>
                        <rect x="0.5" y="0.5" width="75.345" height="75.345" rx="37.672" fill="none"/>
                      </g>
                      <g id="Rectangle_400907" data-name="Rectangle 400907" transform="translate(-0.446 -0.445)" fill="none" stroke="#5a8441" stroke-width="1">
                        <rect width="76.345" height="76.345" rx="38.172" stroke="none"/>
                        <rect x="0.5" y="0.5" width="75.345" height="75.345" rx="37.672" fill="none"/>
                      </g>
                    </g>
                  </g>
                </g>
              </g>
            </g>
          </g>
        </g>
      </g>
    </g>
    <g id="idea" transform="translate(727.583 1496.001)">
      <path id="Path_1247791" data-name="Path 1247791" d="M390.956,232.847h-.444l.672-9.118H393.6a3.071,3.071,0,0,1,3.071,3.071v.336A5.711,5.711,0,0,1,390.956,232.847Z" transform="translate(-304.223 -201.346)" fill="#f9a58e"/>
      <path id="Path_1247792" data-name="Path 1247792" d="M65.679,232.847h.444l-.672-9.118H63.039a3.071,3.071,0,0,0-3.071,3.071v.336A5.711,5.711,0,0,0,65.679,232.847Z" transform="translate(-6.75 -201.346)" fill="#eaac9d"/>
      <path id="Path_1247793" data-name="Path 1247793" d="M148.341,424.258v-2.614a14.478,14.478,0,0,1-7.31,2.757,14.477,14.477,0,0,1-7.31-2.757v2.614a3.787,3.787,0,0,1-2.149,3.414l-3.09,1.482a.41.41,0,0,0,.177.779H153.4a.41.41,0,0,0,.177-.779l-3.09-1.482A3.787,3.787,0,0,1,148.341,424.258Z" transform="translate(-68.199 -379.459)" fill="#ffcbbe"/>
      <path id="Path_1247794" data-name="Path 1247794" d="M141.193,59.912a14.354,14.354,0,1,0-28.63,0l.976,13.252c.515,6.987,9.128,11.829,13.339,11.829s12.825-4.842,13.339-11.829Z" transform="translate(-54.046 -40.052)" fill="#ffcbbe"/>
      <path id="Path_1247795" data-name="Path 1247795" d="M196.637,51.145a14.337,14.337,0,0,1,5.98,12.743l-.976,13.252c-.515,6.987-9.128,11.829-13.339,11.829a9.81,9.81,0,0,1-3.079-.6,14.277,14.277,0,0,0,7.081,2.6c4.211,0,12.825-4.842,13.339-11.829l.976-13.252A14.361,14.361,0,0,0,196.637,51.145Z" transform="translate(-119.473 -46.028)" fill="#eaac9d"/>
      <path id="Path_1247796" data-name="Path 1247796" d="M164.513,103.3l-.874-.407a1.251,1.251,0,0,1-.462-1.9,11.707,11.707,0,0,0-2.075-2.137,7.291,7.291,0,0,1-3.4,4.439,1.078,1.078,0,0,0-.507.7l-.214.942a1.045,1.045,0,0,1-1.019.813h-3.786a1.045,1.045,0,0,1-1.019-.813l-.212-.933a1.1,1.1,0,0,0-.514-.71,7.29,7.29,0,0,1-3.4-4.436,11.7,11.7,0,0,0-2.2,2.306c.012.022.023.043.033.066a1.251,1.251,0,0,1-.6,1.662l-.579.27a11.175,11.175,0,0,0-.944,3.82,1.525,1.525,0,0,0,1.522,1.626h19.612a1.525,1.525,0,0,0,1.522-1.626A11.175,11.175,0,0,0,164.513,103.3Z" transform="translate(-81.237 -88.968)" fill="#9dc6fb"/>
      <path id="Path_1247797" data-name="Path 1247797" d="M165.4,106.982a11.175,11.175,0,0,0-.884-3.682l-.874-.407a1.251,1.251,0,0,1-.462-1.9,11.709,11.709,0,0,0-2.075-2.137,7.235,7.235,0,0,1-.826,1.93,11.163,11.163,0,0,1,1.119,4.193,1.525,1.525,0,0,1-1.522,1.626h-17.1q-.019.187-.031.375a1.525,1.525,0,0,0,1.522,1.626h19.612A1.525,1.525,0,0,0,165.4,106.982Z" transform="translate(-81.237 -88.968)" fill="#80b4fb"/>
      <path id="Path_1247798" data-name="Path 1247798" d="M237.115,170.606h-4.724v-2.754a.1.1,0,0,1,.1-.1h4.517a.1.1,0,0,1,.1.1Z" transform="translate(-161.922 -150.966)" fill="#c6c1c8"/>
      <path id="Path_1247799" data-name="Path 1247799" d="M197.835,14.773a7.275,7.275,0,1,0-10.913,6.3,1.1,1.1,0,0,1,.514.71l.212.933a1.045,1.045,0,0,0,1.019.813h3.786a1.045,1.045,0,0,0,1.019-.813l.214-.942a1.079,1.079,0,0,1,.507-.7,7.272,7.272,0,0,0,3.642-6.3Z" transform="translate(-117.728 -6.748)" fill="#f6e781"/>
      <path id="Path_1247800" data-name="Path 1247800" d="M228.179,8.315a7.276,7.276,0,0,1-1.463,11.5,1.078,1.078,0,0,0-.507.7l-.214.942a1.045,1.045,0,0,1-1.019.813h-1.106a1.138,1.138,0,0,1,.091.254l.212.933a1.045,1.045,0,0,0,1.019.813h3.786A1.045,1.045,0,0,0,230,23.453l.214-.942a1.078,1.078,0,0,1,.507-.7,7.277,7.277,0,0,0-2.539-13.5Z" transform="translate(-154.254 -7.484)" fill="#f4dd45"/>
      <path id="Path_1247801" data-name="Path 1247801" d="M358.139,68.918H356.25a1.251,1.251,0,0,1,0-2.5h1.889a1.251,1.251,0,0,1,0,2.5Z" transform="translate(-272.263 -59.773)" fill="#fff9e2"/>
      <path id="Path_1247802" data-name="Path 1247802" d="M347.93,11.882l-1.712.8a1.251,1.251,0,0,1-1.057-2.267l1.712-.8a1.251,1.251,0,1,1,1.057,2.267Z" transform="translate(-262.759 -8.548)" fill="#fff9e2"/>
      <path id="Path_1247803" data-name="Path 1247803" d="M347.93,116.265l-1.712-.8a1.251,1.251,0,0,0-1.057,2.267l1.712.8a1.251,1.251,0,1,0,1.057-2.267Z" transform="translate(-262.759 -103.809)" fill="#fff9e2"/>
      <path id="Path_1247804" data-name="Path 1247804" d="M112.025,68.918h1.889a1.251,1.251,0,1,0,0-2.5h-1.889a1.251,1.251,0,1,0,0,2.5Z" transform="translate(-52.472 -59.773)" fill="#fff9e2"/>
      <path id="Path_1247805" data-name="Path 1247805" d="M123.819,11.882l1.712.8a1.251,1.251,0,0,0,1.057-2.267l-1.712-.8a1.251,1.251,0,1,0-1.057,2.267Z" transform="translate(-63.562 -8.548)" fill="#fff9e2"/>
      <path id="Path_1247806" data-name="Path 1247806" d="M123.819,116.265l1.712-.8a1.251,1.251,0,1,1,1.057,2.267l-1.712.8a1.251,1.251,0,1,1-1.057-2.267Z" transform="translate(-63.562 -103.809)" fill="#fff9e2"/>
      <g id="Group_1201770" data-name="Group 1201770" transform="translate(52.468 -0.001)">
        <path id="Path_1247807" data-name="Path 1247807" d="M89.373,21.633h-1.6l.126-1.718A15.047,15.047,0,0,0,85.029,9.9h.847a2,2,0,1,0,0-4H83.987a2,2,0,0,0-1.773,1.073,15.168,15.168,0,0,0-1.662-1.147A8.028,8.028,0,0,0,72.637,0a7.9,7.9,0,0,0-3.556.933.75.75,0,1,0,.706,1.325A6.405,6.405,0,0,1,72.673,1.5,6.526,6.526,0,0,1,76.089,13.68a1.833,1.833,0,0,0-.863,1.181l-.214.942a.293.293,0,0,1-.287.229h-1.26V13.256a2.768,2.768,0,0,0,2.013-2.66.75.75,0,0,0-1.5,0,1.262,1.262,0,1,1-2.525,0,.75.75,0,1,0-1.5,0,2.768,2.768,0,0,0,2.013,2.66v2.776H70.938a.293.293,0,0,1-.287-.229l-.212-.934a1.852,1.852,0,0,0-.87-1.193,6.515,6.515,0,0,1-2.09-9.37.75.75,0,1,0-1.23-.86,8,8,0,0,0-1.133,2.37A15.147,15.147,0,0,0,63.279,7.1a2,2,0,0,0-1.838-1.209H59.552a2,2,0,0,0,0,4h1.081a15.162,15.162,0,0,0-1.541,2.625,2.025,2.025,0,0,0-.242.557,15.066,15.066,0,0,0-1.083,6.837l.126,1.718h-1.6a3.826,3.826,0,0,0-3.822,3.822v.336a6.469,6.469,0,0,0,6.208,6.456l.068.921a10.345,10.345,0,0,0,1.08,3.85.75.75,0,0,0,1.344-.668,8.853,8.853,0,0,1-.927-3.293l-.976-13.252a13.507,13.507,0,0,1,.438-4.534,2.008,2.008,0,0,0,1.46.283,11.988,11.988,0,0,0-.408,2.41,2.277,2.277,0,0,0,2.271,2.426h14.7a.75.75,0,0,0,0-1.5H75.944V17.059a1.793,1.793,0,0,0,.531-.923l.214-.942a.328.328,0,0,1,.15-.214A8.051,8.051,0,0,0,80.2,11.187a10.98,10.98,0,0,1,.846.921,2,2,0,0,0,1.035,2.5l.609.284a10.431,10.431,0,0,1,.717,3.175.774.774,0,0,1-.773.826H81.226a.75.75,0,1,0,0,1.5h1.411a2.277,2.277,0,0,0,2.271-2.426,11.988,11.988,0,0,0-.4-2.378,2.013,2.013,0,0,0,1.412-.457,13.509,13.509,0,0,1,.478,4.676l-.976,13.252c-.437,5.93-8.017,11.134-12.591,11.134-2.557,0-6.867-1.947-9.728-5.068A.75.75,0,0,0,62,40.138a17.9,17.9,0,0,0,2.774,2.446V44.8a3.052,3.052,0,0,1-1.723,2.738l-3.09,1.483a1.16,1.16,0,0,0,.5,2.206H85.2a1.16,1.16,0,0,0,.5-2.206l-3.09-1.483A3.052,3.052,0,0,1,80.891,44.8V42.571c3.1-2.225,5.74-5.507,6.027-9.4l.068-.921a6.469,6.469,0,0,0,6.208-6.456v-.336A3.826,3.826,0,0,0,89.373,21.633ZM63.522,11.071a2,2,0,0,0-1.774-.136,13.624,13.624,0,0,1,3.061-3.117,8.043,8.043,0,0,0,.155,1.788A12.449,12.449,0,0,0,63.522,11.071ZM59.052,7.9a.5.5,0,0,1,.5-.5h1.889a.5.5,0,1,1,0,1H59.552A.5.5,0,0,1,59.052,7.9Zm-5.083,17.9v-.336a2.323,2.323,0,0,1,2.321-2.321H58l.56,7.6A4.967,4.967,0,0,1,53.969,25.791Zm8.283-7.727a10.419,10.419,0,0,1,.771-3.31l.32-.149a2,2,0,0,0,1.1-2.285,10.971,10.971,0,0,1,1.013-1.131,8.03,8.03,0,0,0,3.361,3.787.347.347,0,0,1,.158.226l.212.933a1.793,1.793,0,0,0,.531.923V18.89H63.025A.774.774,0,0,1,62.252,18.064Zm8.968.826V17.533h3.223V18.89Zm10.746,30,1.74.835H61.957l1.74-.835A4.561,4.561,0,0,0,66.272,44.8V43.555a14.19,14.19,0,0,0,6.56,2.137,14.076,14.076,0,0,0,6.56-2.145V44.8a4.561,4.561,0,0,0,2.574,4.091ZM83.987,7.395h1.889a.5.5,0,0,1,0,1H83.987a.5.5,0,0,1-.333-.127l-.048-.049A.5.5,0,0,1,83.987,7.395ZM85.1,13.8a.5.5,0,0,1-.665.242l-1.712-.8a.5.5,0,0,1,.423-.907l1.712.8a.5.5,0,0,1,.242.665Zm-24.522-.665,1.712-.8a.5.5,0,0,1,.423.907l-1.712.8a.5.5,0,0,1-.423-.907Zm23.2-2.159a1.993,1.993,0,0,0-1.708.008A12.454,12.454,0,0,0,80.7,9.606a7.978,7.978,0,0,0,.156-1.787,13.633,13.633,0,0,1,3.17,3.274Zm7.918,14.813a4.967,4.967,0,0,1-4.6,4.947l.56-7.6h1.715a2.323,2.323,0,0,1,2.321,2.321Z" transform="translate(-52.468 0.001)" fill="#222221"/>
        <path id="Path_1247808" data-name="Path 1247808" d="M175.493,238.286h-5.979a.75.75,0,0,0,0,1.5h5.979a.75.75,0,0,0,0-1.5Z" transform="translate(-157.128 -214.446)" fill="#222221"/>
        <path id="Path_1247809" data-name="Path 1247809" d="M252,244.972v-3.937a1.249,1.249,0,0,1,1.248-1.248h3.981a.75.75,0,0,0,0-1.5h-3.981a2.752,2.752,0,0,0-2.749,2.749v3.937a1.249,1.249,0,0,1-1.248,1.248.75.75,0,1,0,0,1.5A2.752,2.752,0,0,0,252,244.972Z" transform="translate(-228.886 -214.446)" fill="#222221"/>
        <path id="Path_1247810" data-name="Path 1247810" d="M200.679,368.706a.75.75,0,0,0-.673,1.341l.628.315a10.308,10.308,0,0,0,9.2,0l.628-.315a.75.75,0,0,0-.673-1.341l-.628.315a8.8,8.8,0,0,1-7.857,0Z" transform="translate(-184.873 -331.745)" fill="#222221"/>
        <path id="Path_1247811" data-name="Path 1247811" d="M201.532,31.156a.75.75,0,0,0,.77-.73,4.065,4.065,0,0,1,3.923-3.912.75.75,0,0,0-.036-1.5,5.583,5.583,0,0,0-5.387,5.373A.75.75,0,0,0,201.532,31.156Z" transform="translate(-185.961 -22.51)" fill="#222221"/>
        <path id="Path_1247812" data-name="Path 1247812" d="M338.252,6.683a1.988,1.988,0,0,0,1.53-.067l1.712-.8A2,2,0,1,0,339.8,2.191l-1.712.8a2,2,0,0,0,.161,3.694Zm.214-2.051a.5.5,0,0,1,.259-.282l1.712-.8a.5.5,0,1,1,.423.907l-1.712.8a.5.5,0,0,1-.681-.625Z" transform="translate(-308.473 -1.803)" fill="#222221"/>
        <path id="Path_1247813" data-name="Path 1247813" d="M116.748,5.817l1.712.8a2,2,0,1,0,1.691-3.627l-1.712-.8a2,2,0,1,0-1.691,3.627Zm.392-2.025a.5.5,0,0,1,.665-.242l1.712.8a.5.5,0,1,1-.423.907l-1.712-.8a.5.5,0,0,1-.242-.665Z" transform="translate(-109.276 -1.802)" fill="#222221"/>
      </g>
    </g>
  </g>
</svg>
