<svg xmlns="http://www.w3.org/2000/svg" width="76.345" height="76.345" viewBox="0 0 76.345 76.345">
  <g id="Group_1201312" data-name="Group 1201312" transform="translate(-1021.967 -3092.655)">
    <g id="Group_1200255" data-name="Group 1200255">
      <g id="Group_1187152" data-name="Group 1187152">
        <g id="Group_1185946" data-name="Group 1185946" transform="translate(-3.07)">
          <g id="Group_1184280" data-name="Group 1184280">
            <g id="Group_1182168" data-name="Group 1182168">
              <g id="Group_1178877" data-name="Group 1178877">
                <g id="Group_1111311" data-name="Group 1111311">
                  <g id="Group_1098742" data-name="Group 1098742" transform="translate(1025.482 3093.101)">
                    <g id="Rectangle_400898" data-name="Rectangle 400898" transform="translate(-0.445 -0.445)" fill="#ffe9b5" stroke="#b18c32" stroke-width="1" opacity="0.859">
                      <rect width="76.345" height="76.345" rx="38.172" stroke="none"/>
                      <rect x="0.5" y="0.5" width="75.345" height="75.345" rx="37.672" fill="none"/>
                    </g>
                    <g id="Rectangle_400907" data-name="Rectangle 400907" transform="translate(-0.446 -0.445)" fill="none" stroke="#b18c32" stroke-width="1">
                      <rect width="76.345" height="76.345" rx="38.172" stroke="none"/>
                      <rect x="0.5" y="0.5" width="75.345" height="75.345" rx="37.672" fill="none"/>
                    </g>
                  </g>
                </g>
              </g>
            </g>
          </g>
        </g>
      </g>
    </g>
    <g id="location-pin_5333650" transform="translate(1030.494 3096.881)">
      <path id="Path_1243602" data-name="Path 1243602" d="M33.412,29H45.393L56.452,52.961H3L14.059,29H26.039" transform="translate(-0.079 -1.647)" fill="#ebcc90"/>
      <path id="Path_1243603" data-name="Path 1243603" d="M49.216,53.9H59.353L53.4,41H40v5.529h9.216Z" transform="translate(-2.981 -2.588)" fill="#866042"/>
      <path id="Path_1243604" data-name="Path 1243604" d="M46.314,53.588V46.216H22.353V37H10.658L3,53.588Z" transform="translate(-0.079 -2.274)" fill="#c0935b"/>
      <path id="Path_1243605" data-name="Path 1243605" d="M31.372,9a7.474,7.474,0,0,0-6.838,10.266l6.838,17.381L38.21,19.266A7.474,7.474,0,0,0,31.372,9Z" transform="translate(-1.726 -0.078)" fill="#737373"/>
      <circle id="Ellipse_12339" data-name="Ellipse 12339" cx="3.686" cy="3.686" r="3.686" transform="translate(25.96 12.608)" fill="#f0efec"/>
      <path id="Path_1243606" data-name="Path 1243606" d="M46.152,26.966a.922.922,0,0,0-.839-.535H34.623l2.765-6.9a8.506,8.506,0,0,0-.922-7.9,8.22,8.22,0,0,0-13.639,0,8.506,8.506,0,0,0-.922,7.9l2.765,6.9H13.98a.922.922,0,0,0-.839.535L2.082,50.927a.9.9,0,0,0,.839,1.309H56.372a.942.942,0,0,0,.839-1.346Zm-22.486-8.11a6.645,6.645,0,0,1,.691-6.193,6.368,6.368,0,0,1,10.58,0,6.645,6.645,0,0,1,.691,6.193l-5.981,15.2ZM47.156,50.393V48.549H45.313v1.843H4.358l6.857-14.745H14.9V33.8H12.017l2.553-5.529H25.389l3.4,8.635a.922.922,0,0,0,1.714,0l3.4-8.635H44.723L49,37.491H46.235v1.843h3.594l5.106,11.059Z" transform="translate(0)"/>
      <path id="Path_1243607" data-name="Path 1243607" d="M47.49,45.216H39.2V41.529h6.451V39.686H38.275a.922.922,0,0,0-.922.922v4.608h-12.9V36.922A.922.922,0,0,0,23.529,36H18v1.843h4.608v8.294a.922.922,0,0,0,.922.922H46.569V48.9h1.843V46.137A.922.922,0,0,0,47.49,45.216Z" transform="translate(-1.256 -2.196)"/>
      <path id="Path_1243608" data-name="Path 1243608" d="M36.216,16.608a4.608,4.608,0,1,0-4.608,4.608A4.608,4.608,0,0,0,36.216,16.608Zm-7.373,0a2.765,2.765,0,1,1,2.765,2.765A2.765,2.765,0,0,1,28.843,16.608Z" transform="translate(-1.961 -0.314)"/>
    </g>
  </g>
</svg>
