<svg xmlns="http://www.w3.org/2000/svg" width="76.345" height="76.344" viewBox="0 0 76.345 76.344">
  <g id="Group_1201773" data-name="Group 1201773" transform="translate(-972.051 -1483)">
    <g id="Group_1201317" data-name="Group 1201317" transform="translate(-49.916 -1609.655)">
      <g id="Group_1200255" data-name="Group 1200255">
        <g id="Group_1187152" data-name="Group 1187152">
          <g id="Group_1185946" data-name="Group 1185946" transform="translate(-3.07)">
            <g id="Group_1184280" data-name="Group 1184280">
              <g id="Group_1182168" data-name="Group 1182168">
                <g id="Group_1178877" data-name="Group 1178877">
                  <g id="Group_1111311" data-name="Group 1111311">
                    <g id="Group_1098742" data-name="Group 1098742" transform="translate(1025.482 3093.101)">
                      <g id="Rectangle_400898" data-name="Rectangle 400898" transform="translate(-0.445 -0.445)" fill="#bccdb2" stroke="#5a8441" stroke-width="1" opacity="0.859">
                        <rect width="76.345" height="76.345" rx="38.172" stroke="none"/>
                        <rect x="0.5" y="0.5" width="75.345" height="75.345" rx="37.672" fill="none"/>
                      </g>
                      <g id="Rectangle_400907" data-name="Rectangle 400907" transform="translate(-0.446 -0.445)" fill="none" stroke="#5a8441" stroke-width="1">
                        <rect width="76.345" height="76.345" rx="38.172" stroke="none"/>
                        <rect x="0.5" y="0.5" width="75.345" height="75.345" rx="37.672" fill="none"/>
                      </g>
                    </g>
                  </g>
                </g>
              </g>
            </g>
          </g>
        </g>
      </g>
    </g>
    <g id="familia" transform="translate(969.053 1458)">
      <path id="Path_1247814" data-name="Path 1247814" d="M35.323,272H48.617a3.323,3.323,0,0,1,3.323,3.323v11.632H32V275.323A3.323,3.323,0,0,1,35.323,272Z" transform="translate(-14.34 -207.906)" fill="#2d85cc"/>
      <path id="Path_1247815" data-name="Path 1247815" d="M112,272h3.323v3.323H112Z" transform="translate(-86.032 -207.906)" fill="#f0c6a4"/>
      <path id="Path_1247816" data-name="Path 1247816" d="M298.438,50.828A11.442,11.442,0,0,0,290.8,48c-5.965,0-10.8,4.323-10.8,9.656v9.522a4.12,4.12,0,0,0,4.154,4.085h13.293a4.12,4.12,0,0,0,4.154-4.085V57.656a9.144,9.144,0,0,0-3.163-6.828Z" transform="translate(-236.584 -7.169)" fill="#694435"/>
      <path id="Path_1247817" data-name="Path 1247817" d="M291.323,272h13.293a3.323,3.323,0,0,1,3.323,3.323v11.632H288V275.323A3.323,3.323,0,0,1,291.323,272Z" transform="translate(-243.753 -207.906)" fill="#ed6f6d"/>
      <g id="Group_1201772" data-name="Group 1201772" transform="translate(43.416 52.463)">
        <path id="Path_1247818" data-name="Path 1247818" d="M368,272h3.323v3.323H368Z" transform="translate(-358.861 -260.368)" fill="#f0c6a4"/>
        <circle id="Ellipse_12369" data-name="Ellipse 12369" cx="2.493" cy="2.493" r="2.493" transform="translate(0 0)" fill="#f0c6a4"/>
        <circle id="Ellipse_12370" data-name="Ellipse 12370" cx="2.493" cy="2.493" r="2.493" transform="translate(16.617 0)" fill="#f0c6a4"/>
      </g>
      <path id="Path_1247819" data-name="Path 1247819" d="M326.955,116.985s-4.985,0-5.816-4.985c0,0-1.662,4.985-9.139,4.985v4.154a7.478,7.478,0,1,0,14.955,0Z" transform="translate(-265.261 -64.522)" fill="#f7cca9"/>
      <path id="Path_1247820" data-name="Path 1247820" d="M42.438,50.943A11.187,11.187,0,0,0,34.8,48C28.835,48,24,52.5,24,58.047v2.319a4.2,4.2,0,0,0,4.154,4.251H41.448A4.2,4.2,0,0,0,45.6,60.366V58.047A9.678,9.678,0,0,0,42.438,50.943Z" transform="translate(-7.171 -7.169)" fill="#694435"/>
      <circle id="Ellipse_12371" data-name="Ellipse 12371" cx="2.493" cy="2.493" r="2.493" transform="translate(16.829 53.293)" fill="#f0c6a4"/>
      <circle id="Ellipse_12372" data-name="Ellipse 12372" cx="2.493" cy="2.493" r="2.493" transform="translate(33.446 53.293)" fill="#f0c6a4"/>
      <path id="Path_1247821" data-name="Path 1247821" d="M70.955,117.816,67.632,112A15.185,15.185,0,0,1,56,117.816v3.323a7.478,7.478,0,0,0,14.955,0Z" transform="translate(-35.848 -64.522)" fill="#f7cca9"/>
      <circle id="Ellipse_12373" data-name="Ellipse 12373" cx="1.662" cy="1.662" r="1.662" transform="translate(31.784 75.726)" fill="#f0c6a4"/>
      <circle id="Ellipse_12374" data-name="Ellipse 12374" cx="1.662" cy="1.662" r="1.662" transform="translate(46.739 75.726)" fill="#f0c6a4"/>
      <path id="Path_1247822" data-name="Path 1247822" d="M189.816,336h3.323a5.816,5.816,0,0,1,5.816,5.816,7.478,7.478,0,1,1-14.955,0A5.816,5.816,0,0,1,189.816,336Z" transform="translate(-150.554 -265.259)" fill="#f7cca9"/>
      <path id="Path_1247823" data-name="Path 1247823" d="M65.848,60.009V50.487a9.928,9.928,0,0,0-3.441-7.447A12.237,12.237,0,0,0,54.217,40C47.8,40,42.585,44.7,42.585,50.487v9.522a4.9,4.9,0,0,0,2.371,4.183,4.147,4.147,0,0,0-1.54,3.225v2.546a6.668,6.668,0,0,0-.831-.054h-.831V68.249a.831.831,0,0,0-1.662,0V69.91h-.831a6.669,6.669,0,0,0-.831.054V67.418a4.159,4.159,0,0,0-4.154-4.154H32.609a8.322,8.322,0,0,0,3.163-4.989q.083,0,.166,0a3.322,3.322,0,0,0,3.23-4.1,5.219,5.219,0,0,0,.093-.977V50.878a10.465,10.465,0,0,0-3.429-7.713A11.982,11.982,0,0,0,27.63,40C21.216,40,16,44.88,16,50.878V53.2a5.22,5.22,0,0,0,.093.977,3.322,3.322,0,0,0,3.23,4.1q.083,0,.166,0a8.322,8.322,0,0,0,3.163,4.989H20.983a4.159,4.159,0,0,0-4.154,4.154V79.049a.831.831,0,0,0,.831.831H33.311a8.305,8.305,0,0,0,15.225,0H64.187a.831.831,0,0,0,.831-.831V67.418a4.147,4.147,0,0,0-1.54-3.225A4.9,4.9,0,0,0,65.848,60.009Zm-21.6,0V57.832a3.3,3.3,0,0,0,1.662.447c.056,0,.111,0,.166,0a8.323,8.323,0,0,0,3.163,4.99H47.57A3.293,3.293,0,0,1,44.247,60.009Zm0-5.054a1.664,1.664,0,0,1,1.662-1.662v3.323a1.664,1.664,0,0,1-1.662-1.662Zm9.97,8.308a6.654,6.654,0,0,1-6.647-6.647V53.273a10.952,10.952,0,0,0,7.106-2.692,8.528,8.528,0,0,0,.963-1.05,6.248,6.248,0,0,0,3.11,3.063,7.9,7.9,0,0,0,2.114.625v3.4a6.654,6.654,0,0,1-6.647,6.647Zm.831,1.662v1.662H53.386V64.925ZM35.938,56.617V53.293a1.662,1.662,0,1,1,0,3.323Zm-16.617,0a1.662,1.662,0,0,1,0-3.323Zm.558-4.938a3.317,3.317,0,0,0-2.219.4v-1.2c0-5.082,4.473-9.216,9.97-9.216a10.326,10.326,0,0,1,7.072,2.72,8.821,8.821,0,0,1,2.9,6.5v1.2a3.3,3.3,0,0,0-2.034-.426l-3.091-4.637a.831.831,0,0,0-1.329-.071,15.1,15.1,0,0,1-10.994,4.686.827.827,0,0,0-.273.047Zm1.1,4.938V53.272A16.822,16.822,0,0,0,31.664,48.8l2.613,3.918v3.9a6.647,6.647,0,1,1-13.293,0Zm7.478,8.308v1.662H26.8V64.925Zm4.154,13.293a.831.831,0,0,1,0-1.662,8.315,8.315,0,0,0,.164,1.646.831.831,0,0,1-.164.016Zm.208-3.314c-.069-.006-.138-.01-.208-.01a2.492,2.492,0,0,0-2.35,3.323H18.491v-10.8a2.5,2.5,0,0,1,2.493-2.493h4.154v2.493a.831.831,0,0,0,.831.831h3.323a.831.831,0,0,0,.831-.831V64.925h4.154a2.5,2.5,0,0,1,2.493,2.493v2.564l-1.125-1.125a.831.831,0,1,0-1.175,1.175l1.041,1.041A6.669,6.669,0,0,0,32.823,74.9Zm8.1,8.3a6.654,6.654,0,0,1-6.647-6.647,4.991,4.991,0,0,1,4.985-4.985h3.323a4.991,4.991,0,0,1,4.985,4.985A6.654,6.654,0,0,1,40.923,83.2Zm8.308-4.985a.832.832,0,0,1-.164-.017,8.313,8.313,0,0,0,.164-1.645.831.831,0,0,1,0,1.662Zm14.124,0H51.581a2.492,2.492,0,0,0-2.35-3.323c-.07,0-.139,0-.208.01a6.667,6.667,0,0,0-2.659-3.811l1.062-1.062a.831.831,0,0,0-1.175-1.175l-1.175,1.175V67.418a2.5,2.5,0,0,1,2.493-2.493h4.154v2.493a.831.831,0,0,0,.831.831h3.323a.831.831,0,0,0,.831-.831V64.925h4.154a2.5,2.5,0,0,1,2.493,2.493Zm.831-18.21a3.293,3.293,0,0,1-3.323,3.254H59.2a8.323,8.323,0,0,0,3.163-4.99c.055,0,.111,0,.166,0a3.3,3.3,0,0,0,1.662-.447Zm-1.662-3.392V53.293a1.662,1.662,0,1,1,0,3.323Zm1.662-4.538a3.317,3.317,0,0,0-2.219-.4.827.827,0,0,0-.273-.047,6.132,6.132,0,0,1-2.248-.547A4.721,4.721,0,0,1,56.7,47.341a.83.83,0,0,0-1.606-.131c-.063.181-1.614,4.422-8.353,4.422a.827.827,0,0,0-.273.047,3.317,3.317,0,0,0-2.219.4V50.487c0-4.866,4.473-8.825,9.97-8.825A10.579,10.579,0,0,1,61.3,44.278a8.289,8.289,0,0,1,2.886,6.209Z"/>
      <circle id="Ellipse_12375" data-name="Ellipse 12375" cx="0.831" cy="0.831" r="0.831" transform="translate(57.54 54.955)"/>
      <circle id="Ellipse_12376" data-name="Ellipse 12376" cx="0.831" cy="0.831" r="0.831" transform="translate(49.232 54.955)"/>
      <path id="Path_1247824" data-name="Path 1247824" d="M368.831,187.323h1.662a.831.831,0,1,0,0-1.662h-.831v-.831a.831.831,0,1,0-1.662,0v1.662A.831.831,0,0,0,368.831,187.323Z" transform="translate(-315.445 -129.045)"/>
      <circle id="Ellipse_12377" data-name="Ellipse 12377" cx="0.831" cy="0.831" r="0.831" transform="translate(30.953 54.955)"/>
      <circle id="Ellipse_12378" data-name="Ellipse 12378" cx="0.831" cy="0.831" r="0.831" transform="translate(22.645 54.955)"/>
      <path id="Path_1247825" data-name="Path 1247825" d="M112.831,187.323h1.662a.831.831,0,1,0,0-1.662h-.831v-.831a.831.831,0,0,0-1.662,0v1.662A.831.831,0,0,0,112.831,187.323Z" transform="translate(-86.032 -129.045)"/>
      <circle id="Ellipse_12379" data-name="Ellipse 12379" cx="0.831" cy="0.831" r="0.831" transform="translate(36.769 74.895)"/>
      <circle id="Ellipse_12380" data-name="Ellipse 12380" cx="0.831" cy="0.831" r="0.831" transform="translate(43.416 74.895)"/>
      <path id="Path_1247826" data-name="Path 1247826" d="M88.831,216a.829.829,0,0,0-.742,1.2h0l.01.02,0,.008a4.968,4.968,0,0,0,8.1,0l0-.008.01-.02h0a.83.83,0,0,0-1.485-.743h0l.005-.01a3.363,3.363,0,0,1-5.172,0l.006.01h0A.83.83,0,0,0,88.831,216Z" transform="translate(-64.524 -157.722)"/>
      <path id="Path_1247827" data-name="Path 1247827" d="M351.479,216a.83.83,0,0,0-.742.46h0l.006-.01a3.363,3.363,0,0,1-5.172,0l.005.01h0a.83.83,0,0,0-1.485.743h0l.01.02,0,.008a4.968,4.968,0,0,0,8.1,0l0-.008.01-.02h0a.829.829,0,0,0-.743-1.2Z" transform="translate(-293.939 -157.718)"/>
      <path id="Path_1247828" data-name="Path 1247828" d="M223.479,408a.83.83,0,0,0-.742.46h0l.005-.011a3.362,3.362,0,0,1-5.172,0l.005.011h0a.83.83,0,0,0-1.485.743h0l.01.02,0,.008a4.968,4.968,0,0,0,8.1,0l0-.008.01-.02h0a.829.829,0,0,0-.743-1.2Z" transform="translate(-179.232 -329.781)"/>
    </g>
  </g>
</svg>
