<svg xmlns="http://www.w3.org/2000/svg" width="76.345" height="76.345" viewBox="0 0 76.345 76.345">
  <g id="Group_1201768" data-name="Group 1201768" transform="translate(-972.051 -638)">
    <g id="Group_1201314" data-name="Group 1201314" transform="translate(-49.916 -2454.655)">
      <g id="Group_1200255" data-name="Group 1200255">
        <g id="Group_1187152" data-name="Group 1187152">
          <g id="Group_1185946" data-name="Group 1185946" transform="translate(-3.07)">
            <g id="Group_1184280" data-name="Group 1184280">
              <g id="Group_1182168" data-name="Group 1182168">
                <g id="Group_1178877" data-name="Group 1178877">
                  <g id="Group_1111311" data-name="Group 1111311">
                    <g id="Group_1098742" data-name="Group 1098742" transform="translate(1025.482 3093.101)">
                      <g id="Rectangle_400898" data-name="Rectangle 400898" transform="translate(-0.445 -0.445)" fill="#ffe9b5" stroke="#b18c32" stroke-width="1" opacity="0.859">
                        <rect width="76.345" height="76.345" rx="38.172" stroke="none"/>
                        <rect x="0.5" y="0.5" width="75.345" height="75.345" rx="37.672" fill="none"/>
                      </g>
                      <g id="Rectangle_400907" data-name="Rectangle 400907" transform="translate(-0.446 -0.445)" fill="none" stroke="#b18c32" stroke-width="1">
                        <rect width="76.345" height="76.345" rx="38.172" stroke="none"/>
                        <rect x="0.5" y="0.5" width="75.345" height="75.345" rx="37.672" fill="none"/>
                      </g>
                    </g>
                  </g>
                </g>
              </g>
            </g>
          </g>
        </g>
      </g>
    </g>
    <g id="discusion" transform="translate(986.051 652)">
      <path id="Path_1247772" data-name="Path 1247772" d="M26.179,15.354V8H12.206A2.2,2.2,0,0,0,10,10.206V17.56a2.2,2.2,0,0,0,2.206,2.206H19.56v2.942l4.412-2.942h1.471a2.21,2.21,0,0,0,2.184-1.875v-.007A2.923,2.923,0,0,1,26.179,15.354Z" transform="translate(-2.381 -1.852)" fill="#e6e9ed"/>
      <path id="Path_1247773" data-name="Path 1247773" d="M51.121,2H34.942A2.941,2.941,0,0,0,32,4.942v8.825a2.923,2.923,0,0,0,1.449,2.53,2.881,2.881,0,0,0,1.493.412h2.206L41.56,19.65V16.708h9.56a2.941,2.941,0,0,0,2.942-2.942V4.942A2.941,2.941,0,0,0,51.121,2Z" transform="translate(-8.202 -0.265)" fill="#fcd770"/>
      <path id="Path_1247774" data-name="Path 1247774" d="M5.677,53H2V45.65A7.357,7.357,0,0,1,9.354,38.3c0,1.625.985,2.942,2.206,2.942s2.206-1.316,2.206-2.942a1.859,1.859,0,0,0-.007-.206l.287-.044a10.306,10.306,0,0,0,5.824-2.912l6.523-6.523a2.08,2.08,0,1,1,2.942,2.942L18.054,42.833a2.082,2.082,0,0,0-.61,1.471V53Z" transform="translate(-0.265 -7.144)" fill="#fcd770"/>
      <path id="Path_1247775" data-name="Path 1247775" d="M43.56,53.767H35.839a1.839,1.839,0,1,1,0-3.677H43.56l1.2-4.405A5,5,0,0,1,54.592,47v9.707H43.56Z" transform="translate(-8.731 -10.848)" fill="#b4dd7f"/>
      <g id="Group_1201767" data-name="Group 1201767" transform="translate(6.148 20.856)">
        <path id="Path_1247776" data-name="Path 1247776" d="M16.405,41.72a1.86,1.86,0,0,1,.007.206c0,1.625-.985,2.942-2.206,2.942S12,43.551,12,41.926h2.942Z" transform="translate(-9.058 -31.63)" fill="#f0d0b4"/>
        <ellipse id="Ellipse_12367" data-name="Ellipse 12367" cx="5" cy="5.5" rx="5" ry="5.5" transform="translate(-0.148 -0.261)" fill="#f0d0b4"/>
        <circle id="Ellipse_12368" data-name="Ellipse 12368" cx="5.5" cy="5.5" r="5.5" transform="translate(26.852 -0.261)" fill="#f0d0b4"/>
      </g>
      <path id="Path_1247777" data-name="Path 1247777" d="M30.417,29.816a2.815,2.815,0,0,0-4.806-1.991L19.086,34.35a9.608,9.608,0,0,1-3.093,2.062,5.88,5.88,0,1,0-8.41,1.03A8.1,8.1,0,0,0,1,45.385v8.09H17.915V44.04a1.337,1.337,0,0,1,.393-.951L29.592,31.806a2.8,2.8,0,0,0,.824-1.99ZM12.031,38.767l.661-.092c-.189.891-.749,1.563-1.4,1.563-.626,0-1.169-.625-1.377-1.471ZM6.883,32.883A4.412,4.412,0,1,1,11.3,37.3,4.417,4.417,0,0,1,6.883,32.883Zm21.669-2.117L17.268,42.05a2.8,2.8,0,0,0-.824,1.99V52H6.148V43.179H4.677V52H2.471V45.385A6.628,6.628,0,0,1,8.421,38.8,3.19,3.19,0,0,0,11.3,41.708c1.508,0,2.739-1.43,2.908-3.258a11.1,11.1,0,0,0,5.922-3.062l6.525-6.525a1.345,1.345,0,0,1,2.3.952,1.338,1.338,0,0,1-.393.951Z" transform="translate(0 -6.879)"/>
      <path id="Path_1247778" data-name="Path 1247778" d="M50.662,37.46a5.881,5.881,0,1,0-4.979,1.16,5.712,5.712,0,0,0-1.9,2.9l-1.053,3.861h-7.16a2.574,2.574,0,1,0,0,5.148H42.56v2.942h12.5V43.035A5.744,5.744,0,0,0,50.662,37.46Zm-8.1-4.576A4.412,4.412,0,1,1,46.973,37.3,4.417,4.417,0,0,1,42.56,32.883ZM53.592,52h-9.56V50.533h.616a2.937,2.937,0,0,0,2.79-2.011l2.439-7.317-1.394-.466-2.439,7.317a1.47,1.47,0,0,1-1.4,1.006H35.574a1.1,1.1,0,1,1,0-2.206h8.284l1.349-4.945a4.268,4.268,0,0,1,8.385,1.124Z" transform="translate(-8.467 -6.879)"/>
      <path id="Path_1247779" data-name="Path 1247779" d="M13,11h1.471v1.471H13Z" transform="translate(-3.175 -2.646)"/>
      <path id="Path_1247780" data-name="Path 1247780" d="M17,11h8.825v1.471H17Z" transform="translate(-4.233 -2.646)"/>
      <path id="Path_1247781" data-name="Path 1247781" d="M13,15H24.767v1.471H13Z" transform="translate(-3.175 -3.704)"/>
      <path id="Path_1247782" data-name="Path 1247782" d="M13,19H24.767v1.471H13Z" transform="translate(-3.175 -4.763)"/>
      <path id="Path_1247783" data-name="Path 1247783" d="M57,9h1.471v1.471H57Z" transform="translate(-14.817 -2.117)"/>
      <path id="Path_1247784" data-name="Path 1247784" d="M35,9H49.708v1.471H35Z" transform="translate(-8.996 -2.117)"/>
      <path id="Path_1247785" data-name="Path 1247785" d="M35,13H52.65v1.471H35Z" transform="translate(-8.996 -3.175)"/>
      <path id="Path_1247786" data-name="Path 1247786" d="M35,17H52.65v1.471H35Z" transform="translate(-8.996 -4.233)"/>
      <path id="Path_1247787" data-name="Path 1247787" d="M45.035,1H28.856a3.681,3.681,0,0,0-3.677,3.677v.735H11.942A2.945,2.945,0,0,0,9,8.354v7.354a2.945,2.945,0,0,0,2.942,2.942H18.56v3.581l5.371-3.581h1.248a2.954,2.954,0,0,0,2.627-1.642,3.63,3.63,0,0,0,1.05.171H30.84L36.21,20.76V17.179h8.825A3.681,3.681,0,0,0,48.712,13.5V4.677A3.681,3.681,0,0,0,45.035,1ZM25.179,17.179H23.485l-3.454,2.3v-2.3h-8.09a1.472,1.472,0,0,1-1.471-1.471V8.354a1.472,1.472,0,0,1,1.471-1.471H25.179V13.5a3.654,3.654,0,0,0,1.334,2.81A1.475,1.475,0,0,1,25.179,17.179ZM47.242,13.5a2.209,2.209,0,0,1-2.206,2.206H34.74v2.3l-3.454-2.3H28.856A2.209,2.209,0,0,1,26.65,13.5V4.677a2.209,2.209,0,0,1,2.206-2.206H45.035a2.209,2.209,0,0,1,2.206,2.206Z" transform="translate(-2.117)"/>
      <path id="Path_1247788" data-name="Path 1247788" d="M35,5h1.471V6.471H35Z" transform="translate(-8.996 -1.058)"/>
      <path id="Path_1247789" data-name="Path 1247789" d="M39,5h1.471V6.471H39Z" transform="translate(-10.054 -1.058)"/>
      <path id="Path_1247790" data-name="Path 1247790" d="M43,5H54.767V6.471H43Z" transform="translate(-11.113 -1.058)"/>
    </g>
  </g>
</svg>
