<svg xmlns="http://www.w3.org/2000/svg" xmlns:xlink="http://www.w3.org/1999/xlink" width="410" height="301" viewBox="0 0 410 301">
  <defs>
    <clipPath id="clip-path">
      <rect id="Rectangle_410949" data-name="Rectangle 410949" width="300.846" height="263.666" fill="none"/>
    </clipPath>
    <clipPath id="clip-path-3">
      <rect id="Rectangle_410912" data-name="Rectangle 410912" width="28.712" height="28.713" fill="none"/>
    </clipPath>
    <clipPath id="clip-path-4">
      <rect id="Rectangle_410913" data-name="Rectangle 410913" width="32.314" height="32.314" fill="none"/>
    </clipPath>
    <clipPath id="clip-path-5">
      <rect id="Rectangle_410940" data-name="Rectangle 410940" width="32.513" height="11.379" fill="none"/>
    </clipPath>
    <clipPath id="clip-path-6">
      <rect id="Rectangle_410941" data-name="Rectangle 410941" width="6.724" height="7.097" fill="none"/>
    </clipPath>
    <clipPath id="clip-path-7">
      <rect id="Rectangle_410944" data-name="Rectangle 410944" width="3.316" height="3.316" fill="none"/>
    </clipPath>
    <clipPath id="clip-path-8">
      <rect id="Rectangle_410945" data-name="Rectangle 410945" width="1.471" height="3.025" fill="none"/>
    </clipPath>
  </defs>
  <g id="Group_1201796" data-name="Group 1201796" transform="translate(-810.051 -3465)">
    <rect id="Rectangle_410767" data-name="Rectangle 410767" width="410" height="301" transform="translate(810.051 3465)" fill="#bccdb2"/>
    <g id="Group_1201795" data-name="Group 1201795" transform="translate(869.021 3480.812)">
      <g id="Group_1201794" data-name="Group 1201794" clip-path="url(#clip-path)">
        <g id="Group_1201793" data-name="Group 1201793" transform="translate(0 0)">
          <g id="Group_1201792" data-name="Group 1201792" clip-path="url(#clip-path)">
            <path id="Path_1247829" data-name="Path 1247829" d="M1287.944,66.939a15.825,15.825,0,1,1-15.825-15.825,15.825,15.825,0,0,1,15.825,15.825" transform="translate(-1022.422 -41.599)" fill="#ffc94a"/>
            <path id="Path_1247830" data-name="Path 1247830" d="M1315.719,102.668v2.189h-2.782v-2.092a11.6,11.6,0,0,1-5.07-1.381l1.5-3.393a9.473,9.473,0,0,0,4.557,1.263c1.322,0,1.8-.276,1.8-.75,0-1.737-7.635-.336-7.635-5.484,0-2.23,1.618-4.1,4.853-4.557v-2.15h2.782v2.11a10.317,10.317,0,0,1,4,1.145l-1.4,3.373a8.524,8.524,0,0,0-3.847-1.026c-1.362,0-1.8.4-1.8.869,0,1.656,7.635.276,7.635,5.365,0,2.13-1.539,3.986-4.6,4.519" transform="translate(-1064.394 -70.244)" fill="#fff"/>
            <path id="Path_1247831" data-name="Path 1247831" d="M1161.19,209.7a9.587,9.587,0,1,1-9.586-9.587,9.586,9.586,0,0,1,9.586,9.587" transform="translate(-929.419 -162.858)" fill="#ffe9b5"/>
            <path id="Path_1247832" data-name="Path 1247832" d="M1178.017,231.34v1.326h-1.686V231.4a7.029,7.029,0,0,1-3.071-.837l.908-2.055a5.74,5.74,0,0,0,2.761.765c.8,0,1.088-.168,1.088-.455,0-1.052-4.625-.2-4.625-3.322,0-1.351.98-2.486,2.94-2.761v-1.3h1.686v1.278a6.247,6.247,0,0,1,2.426.694l-.849,2.044a5.163,5.163,0,0,0-2.331-.622c-.825,0-1.088.239-1.088.526,0,1,4.625.167,4.625,3.25,0,1.29-.932,2.414-2.784,2.737" transform="translate(-954.845 -180.21)" fill="#fff"/>
            <path id="Path_1247833" data-name="Path 1247833" d="M1306,252.293a7.4,7.4,0,1,1-7.4-7.4,7.4,7.4,0,0,1,7.4,7.4" transform="translate(-1050.831 -199.306)" fill="#ffe9b5"/>
            <path id="Path_1247834" data-name="Path 1247834" d="M1318.979,268.993v1.023h-1.3v-.978a5.423,5.423,0,0,1-2.37-.646l.7-1.586a4.43,4.43,0,0,0,2.13.59c.618,0,.839-.129.839-.351,0-.812-3.569-.157-3.569-2.564,0-1.042.756-1.919,2.268-2.13v-1.005h1.3v.986a4.816,4.816,0,0,1,1.872.535l-.655,1.577a3.986,3.986,0,0,0-1.8-.48c-.637,0-.84.185-.84.406,0,.774,3.569.129,3.569,2.508,0,1-.719,1.863-2.148,2.112" transform="translate(-1070.45 -212.696)" fill="#fff"/>
            <rect id="Rectangle_410906" data-name="Rectangle 410906" width="1.082" height="7.753" transform="translate(216.909 20.748)" fill="#9192ff"/>
            <rect id="Rectangle_410907" data-name="Rectangle 410907" width="7.753" height="1.082" transform="translate(213.573 24.084)" fill="#9192ff"/>
            <rect id="Rectangle_410908" data-name="Rectangle 410908" width="1.625" height="11.645" transform="translate(226.016 0)" fill="#9192ff"/>
            <rect id="Rectangle_410909" data-name="Rectangle 410909" width="11.645" height="1.625" transform="translate(221.006 5.01)" fill="#9192ff"/>
            <rect id="Rectangle_410910" data-name="Rectangle 410910" width="1.23" height="8.818" transform="translate(262.931 59.553)" fill="#9192ff"/>
            <rect id="Rectangle_410911" data-name="Rectangle 410911" width="8.818" height="1.23" transform="translate(259.137 63.346)" fill="#9192ff"/>
            <g id="Group_1201776" data-name="Group 1201776" transform="translate(103.387 14.783)" opacity="0.4">
              <g id="Group_1201775" data-name="Group 1201775">
                <g id="Group_1201774" data-name="Group 1201774" clip-path="url(#clip-path-3)">
                  <path id="Path_1247835" data-name="Path 1247835" d="M584.075,93.767a14.356,14.356,0,1,1-14.356-14.356,14.356,14.356,0,0,1,14.356,14.356" transform="translate(-555.363 -79.411)" fill="#e5e5ff"/>
                </g>
              </g>
            </g>
            <g id="Group_1201779" data-name="Group 1201779" transform="translate(135.848 186.172)" opacity="0.4">
              <g id="Group_1201778" data-name="Group 1201778">
                <g id="Group_1201777" data-name="Group 1201777" clip-path="url(#clip-path-4)">
                  <path id="Path_1247836" data-name="Path 1247836" d="M762.048,1016.219a16.157,16.157,0,1,1-16.157-16.157,16.157,16.157,0,0,1,16.157,16.157" transform="translate(-729.734 -1000.062)" fill="#e5e5ff"/>
                </g>
              </g>
            </g>
            <path id="Path_1247837" data-name="Path 1247837" d="M520.307,943.028q-.255,0-.508,0l.008-.465c.766.012,1.545,0,2.308-.049l.027.465c-.606.035-1.224.053-1.835.053m-2.848-.129c-.776-.071-1.558-.172-2.324-.3l.077-.459c.754.126,1.524.226,2.289.3Zm7.014-.149-.062-.461c.76-.1,1.525-.234,2.274-.393l.1.455c-.76.162-1.537.3-2.309.4m-11.633-.627c-.757-.187-1.514-.405-2.252-.649l.146-.442c.726.24,1.473.455,2.218.639Zm16.213-.346-.131-.446c.735-.216,1.472-.463,2.188-.734l.165.435c-.727.275-1.475.526-2.222.745m-20.663-1.121c-.719-.3-1.435-.63-2.129-.984l.211-.415c.684.348,1.389.674,2.1.969Zm25.042-.535-.2-.421c.694-.325,1.384-.68,2.051-1.056l.228.405c-.677.382-1.378.743-2.082,1.072m-29.219-1.591c-.664-.4-1.322-.839-1.956-1.293l.271-.378c.624.448,1.272.876,1.926,1.274Zm33.3-.709-.259-.387c.638-.426,1.267-.881,1.869-1.353l.287.366c-.612.479-1.25.941-1.9,1.374m-37.1-2.021c-.6-.5-1.182-1.029-1.739-1.572l.325-.333c.549.535,1.125,1.056,1.713,1.548Zm40.791-.865-.313-.344c.566-.516,1.119-1.061,1.646-1.619l.339.319c-.535.567-1.1,1.12-1.671,1.643m-44.146-2.4c-.515-.583-1.014-1.194-1.484-1.814l.371-.281c.462.611.954,1.212,1.461,1.787Zm47.36-1-.362-.293c.484-.6.95-1.219,1.385-1.848l.383.265c-.442.638-.915,1.269-1.406,1.876m-50.186-2.73c-.422-.655-.824-1.333-1.194-2.015l.409-.222c.364.672.76,1.34,1.176,1.985Zm52.853-1.122-.4-.235c.388-.662.755-1.347,1.091-2.036l.418.2c-.341.7-.714,1.394-1.108,2.066m-55.085-2.992c-.318-.709-.612-1.44-.875-2.171l.438-.157c.259.72.549,1.44.862,2.139Zm57.142-1.22-.433-.172c.283-.712.542-1.445.771-2.178l.444.138c-.232.744-.495,1.489-.782,2.212m-58.726-3.185c-.207-.75-.387-1.517-.536-2.281l.457-.089c.147.752.325,1.508.528,2.247Zm60.119-1.288-.454-.1c.171-.746.316-1.509.431-2.267l.46.069c-.116.77-.264,1.545-.437,2.3m-61.017-3.307c-.091-.772-.154-1.557-.186-2.335l.465-.02c.032.766.094,1.54.183,2.3Zm61.717-1.323-.464-.035c.057-.762.086-1.538.086-2.306h.465c0,.78-.029,1.568-.087,2.341m-.38-2.652c-.007-.768-.044-1.544-.109-2.306l.464-.039c.066.774.1,1.561.111,2.341Zm-61.07-.689-.465-.015c.025-.779.08-1.566.163-2.337l.463.05c-.082.76-.136,1.535-.16,2.3m60.679-3.907c-.122-.757-.275-1.519-.454-2.263l.453-.109c.182.756.337,1.529.461,2.3Zm-60.186-.679-.458-.085c.141-.766.314-1.535.513-2.286l.45.119c-.2.74-.366,1.5-.505,2.252m59.106-3.806c-.235-.728-.5-1.458-.792-2.168l.431-.176c.295.721.565,1.461.8,2.2Zm-57.926-.653-.44-.153c.256-.736.544-1.471.855-2.184l.427.186c-.307.7-.59,1.426-.842,2.151m56.18-3.614c-.342-.684-.716-1.364-1.11-2.022l.4-.239c.4.668.78,1.359,1.127,2.053Zm-54.335-.618-.411-.218c.365-.688.76-1.371,1.175-2.029l.394.248c-.409.648-.8,1.321-1.158,2m51.965-3.337c-.443-.626-.914-1.243-1.4-1.833l.359-.3c.5.6.974,1.225,1.424,1.861Zm-49.5-.567-.374-.277c.464-.625.957-1.24,1.467-1.829l.352.3c-.5.579-.988,1.185-1.444,1.8m46.563-2.989c-.531-.552-1.091-1.092-1.662-1.6l.31-.347c.58.519,1.147,1.066,1.687,1.627Zm-43.543-.5-.328-.33c.552-.549,1.132-1.083,1.723-1.588l.3.354c-.583.5-1.154,1.024-1.7,1.564m40.1-2.576c-.608-.466-1.242-.916-1.884-1.336l.255-.389c.652.426,1.3.883,1.912,1.356Zm-36.6-.42-.275-.376c.628-.459,1.281-.9,1.941-1.311l.246.4c-.651.4-1.294.839-1.912,1.292m32.733-2.106c-.673-.37-1.367-.719-2.064-1.037l.193-.424c.708.322,1.413.677,2.1,1.053Zm-28.817-.328-.215-.413c.69-.36,1.4-.7,2.116-1l.183.428c-.7.3-1.4.633-2.084.988m24.616-1.585c-.72-.264-1.458-.5-2.2-.711l.126-.448c.749.211,1.5.454,2.229.722Zm-20.38-.23-.15-.44c.736-.251,1.492-.477,2.245-.672l.116.451c-.742.192-1.486.414-2.211.661m15.941-1.024c-.749-.152-1.515-.276-2.278-.371l.057-.462c.774.1,1.552.222,2.313.376Zm-11.475-.129-.081-.458c.763-.136,1.544-.245,2.32-.324l.047.463c-.765.078-1.534.185-2.286.319m6.9-.44c-.767-.037-1.545-.045-2.308-.025l-.012-.465c.775-.02,1.565-.012,2.343.026Z" transform="translate(-398.223 -717.001)" fill="#9192ff"/>
            <path id="Path_1247838" data-name="Path 1247838" d="M434.006,54.626l0-.465A19.409,19.409,0,0,0,436.293,54l.059.461a19.86,19.86,0,0,1-2.347.16m-2.35-.118a19.649,19.649,0,0,1-2.319-.4l.106-.453a19.135,19.135,0,0,0,2.264.388Zm7.008-.483-.114-.451a19.089,19.089,0,0,0,2.188-.7l.168.434a19.476,19.476,0,0,1-2.242.716m-11.582-.591a19.561,19.561,0,0,1-2.157-.943l.212-.414a19.1,19.1,0,0,0,2.106.92Zm15.962-1.106-.219-.41a19.2,19.2,0,0,0,1.957-1.2l.267.381a19.665,19.665,0,0,1-2,1.23M422.9,51.3a19.718,19.718,0,0,1-1.87-1.429l.3-.352a19.279,19.279,0,0,0,1.826,1.395Zm24-1.66-.31-.347a19.356,19.356,0,0,0,1.617-1.631l.349.307a19.757,19.757,0,0,1-1.656,1.671m-27.551-1.411a19.709,19.709,0,0,1-1.478-1.83l.379-.27a19.313,19.313,0,0,0,1.443,1.787Zm30.653-2.117-.383-.263a19.158,19.158,0,0,0,1.184-1.969l.413.215a19.594,19.594,0,0,1-1.213,2.017M416.615,44.4a19.578,19.578,0,0,1-1-2.128l.433-.172a19.089,19.089,0,0,0,.976,2.078Zm35.555-2.458-.435-.164a19.033,19.033,0,0,0,.679-2.2l.452.11a19.492,19.492,0,0,1-.7,2.249m-37.291-1.9a19.526,19.526,0,0,1-.461-2.307l.461-.063a19.108,19.108,0,0,0,.45,2.252Zm38.406-2.66-.462-.055a19.39,19.39,0,0,0,.136-2.293c0-.231,0-.464-.012-.694l.465-.017c.008.236.013.475.013.711a19.85,19.85,0,0,1-.139,2.348m-39.049-1.992q0-.177,0-.356a19.863,19.863,0,0,1,.1-1.994l.463.047a19.435,19.435,0,0,0-.1,1.948c0,.116,0,.232,0,.348Zm38.492-3.337a19.127,19.127,0,0,0-.491-2.244l.448-.127a19.505,19.505,0,0,1,.5,2.3Zm-37.564-1.234-.454-.1a19.489,19.489,0,0,1,.655-2.262l.438.156a19.054,19.054,0,0,0-.639,2.208m36.314-3.178a19.122,19.122,0,0,0-1.014-2.059l.4-.23a19.581,19.581,0,0,1,1.039,2.11ZM416.7,26.494l-.416-.208a19.726,19.726,0,0,1,1.176-2.038l.389.256a19.211,19.211,0,0,0-1.149,1.99m32.507-2.84a19.35,19.35,0,0,0-1.475-1.761l.338-.319a19.757,19.757,0,0,1,1.511,1.8Zm-29.98-.989-.355-.3a19.838,19.838,0,0,1,1.626-1.7l.317.341a19.375,19.375,0,0,0-1.588,1.66m26.83-2.345a19.246,19.246,0,0,0-1.85-1.362l.253-.391a19.77,19.77,0,0,1,1.9,1.395Zm-23.468-.775-.273-.376A19.725,19.725,0,0,1,424.3,17.9l.227.407a19.209,19.209,0,0,0-1.935,1.236m19.617-1.717a19.078,19.078,0,0,0-2.122-.882l.152-.44a19.529,19.529,0,0,1,2.174.9ZM426.6,17.315l-.176-.431a19.5,19.5,0,0,1,2.228-.757l.123.449a19.043,19.043,0,0,0-2.175.739m11.278-.986a19.109,19.109,0,0,0-2.271-.347l.043-.463a19.685,19.685,0,0,1,2.326.355Zm-6.855-.224-.068-.461a19.869,19.869,0,0,1,2.344-.2l.012.465a19.371,19.371,0,0,0-2.288.2" transform="translate(-337.119 -12.568)" fill="#9192ff"/>
            <path id="Path_1247839" data-name="Path 1247839" d="M70.232,704.643a6.748,6.748,0,1,1,6.748-6.748,6.756,6.756,0,0,1-6.748,6.748m0-12.566a5.818,5.818,0,1,0,5.818,5.818,5.824,5.824,0,0,0-5.818-5.818" transform="translate(-51.666 -562.482)" fill="#9192ff"/>
            <rect id="Rectangle_410914" data-name="Rectangle 410914" width="193.42" height="143.002" transform="translate(50.866 55.472)" fill="#fff"/>
            <path id="Path_1247840" data-name="Path 1247840" d="M465.09,439.415H270.74V295.482H465.09Zm-193.42-.931H464.16V296.413H271.671Z" transform="translate(-220.339 -240.475)" fill="#9192ff"/>
            <rect id="Rectangle_410915" data-name="Rectangle 410915" width="15.824" height="30.622" transform="translate(64.269 152.028)" fill="#9bbf86"/>
            <rect id="Rectangle_410916" data-name="Rectangle 410916" width="15.824" height="45.892" transform="translate(89.401 136.758)" fill="#9bbf86"/>
            <rect id="Rectangle_410917" data-name="Rectangle 410917" width="15.824" height="77.387" transform="translate(114.533 105.263)" fill="#9bbf86"/>
            <rect id="Rectangle_410918" data-name="Rectangle 410918" width="15.824" height="55.027" transform="translate(139.664 127.623)" fill="#9bbf86"/>
            <rect id="Rectangle_410919" data-name="Rectangle 410919" width="15.824" height="79.295" transform="translate(164.796 103.355)" fill="#9bbf86"/>
            <rect id="Rectangle_410920" data-name="Rectangle 410920" width="15.824" height="75.153" transform="translate(189.928 107.497)" fill="#9bbf86"/>
            <rect id="Rectangle_410921" data-name="Rectangle 410921" width="15.824" height="102.612" transform="translate(215.059 80.038)" fill="#9bbf86"/>
            <path id="Path_1247841" data-name="Path 1247841" d="M369.022,581.084l-.422-.83,26.429-13.446,27.256-37.125L447.239,555.8l25.653-25.653,24.879,3.023,24.97-28.669.7.612-25.294,29.041-24.919-3.028-26.006,26.006-24.844-26.005-26.73,36.409Z" transform="translate(-299.981 -410.585)" fill="#ffc94a"/>
            <rect id="Rectangle_410922" data-name="Rectangle 410922" width="77.877" height="0.931" transform="translate(108.638 73.126)" fill="#3335cf"/>
            <rect id="Rectangle_410923" data-name="Rectangle 410923" width="25.303" height="0.931" transform="translate(134.925 83.365)" fill="#3335cf"/>
            <path id="Path_1247842" data-name="Path 1247842" d="M175.721,1032.76a40.575,40.575,0,0,0-2.77-23.886,37.467,37.467,0,0,0-15.7-17.349c3.445,4.369,4.333,10.365,4.682,16.053s.324,11.561,2.387,16.822,6.935,9.815,12.263,9.155Z" transform="translate(-127.98 -806.943)" fill="#ffe9b5"/>
            <path id="Path_1247843" data-name="Path 1247843" d="M253.277,1043.6a40.576,40.576,0,0,1,2.77-23.886,37.467,37.467,0,0,1,15.7-17.349c-3.445,4.369-4.333,10.365-4.682,16.053s-.324,11.561-2.387,16.822-6.935,9.816-12.263,9.156Z" transform="translate(-205.423 -815.76)" fill="#5a8441"/>
            <path id="Path_1247844" data-name="Path 1247844" d="M209.2,1053.974a25.092,25.092,0,0,1-2.5-19.523,23.361,23.361,0,0,1,12.385-14.661c-1.233,8.192,4.855,16.1,3.767,24.32a13.492,13.492,0,0,1-9.617,11.2Z" transform="translate(-167.456 -829.945)" fill="#fff4da"/>
            <path id="Path_1247845" data-name="Path 1247845" d="M232.869,1102.513a37.4,37.4,0,0,1,7.878-22.847,40.011,40.011,0,0,1,20.568-13.745c-4.629,3.568-6.815,9.262-8.353,14.767s-2.709,11.27-6.021,16-9.526,8.181-15.172,6.425Z" transform="translate(-188.622 -867.49)" fill="#ffe9b5"/>
            <path id="Path_1247846" data-name="Path 1247846" d="M137.3,1104.867a39.58,39.58,0,0,0-7.232-22.847,36.732,36.732,0,0,0-18.883-13.745c4.249,3.568,6.256,9.262,7.669,14.768s2.487,11.269,5.528,16,8.745,8.181,13.929,6.425Z" transform="translate(-90.483 -869.405)" fill="#ffc94a"/>
            <path id="Path_1247847" data-name="Path 1247847" d="M173.966,1280.253H144.483l-5.069-30.7h39.621Z" transform="translate(-113.461 -1016.936)" fill="#fff"/>
            <path id="Path_1247848" data-name="Path 1247848" d="M172.464,1279.077H142.388l-5.184-31.4h40.444Zm-29.483-.7h28.891l4.954-30h-38.8Z" transform="translate(-111.662 -1015.411)" fill="#9192ff"/>
            <rect id="Rectangle_410924" data-name="Rectangle 410924" width="89.837" height="70.567" transform="translate(9.72 31.834)" fill="#fff"/>
            <path id="Path_1247849" data-name="Path 1247849" d="M140.481,240H49.713V168.5h90.768Zm-89.837-.931H139.55V169.435H50.644Z" transform="translate(-40.458 -137.136)" fill="#9192ff"/>
            <rect id="Rectangle_410925" data-name="Rectangle 410925" width="20.262" height="11.474" transform="translate(21.924 43.395)" fill="#ffe9b5"/>
            <rect id="Rectangle_410926" data-name="Rectangle 410926" width="36.862" height="0.488" transform="translate(50.731 44.501)" fill="#9192ff"/>
            <rect id="Rectangle_410927" data-name="Rectangle 410927" width="36.862" height="0.488" transform="translate(50.731 48.887)" fill="#d1d1ff"/>
            <rect id="Rectangle_410928" data-name="Rectangle 410928" width="36.862" height="0.488" transform="translate(50.731 53.274)" fill="#d1d1ff"/>
            <rect id="Rectangle_410929" data-name="Rectangle 410929" width="4.231" height="13.109" transform="translate(31.447 77.759)" fill="#ffe9b5"/>
            <rect id="Rectangle_410930" data-name="Rectangle 410930" width="4.231" height="19.488" transform="translate(35.679 71.38)" fill="#9192ff"/>
            <rect id="Rectangle_410931" data-name="Rectangle 410931" width="4.231" height="21.611" transform="translate(47.234 69.175)" fill="#ffe9b5"/>
            <rect id="Rectangle_410932" data-name="Rectangle 410932" width="4.231" height="7.998" transform="translate(51.465 82.788)" fill="#9192ff"/>
            <rect id="Rectangle_410933" data-name="Rectangle 410933" width="4.231" height="14.965" transform="translate(63.02 75.885)" fill="#ffe9b5"/>
            <rect id="Rectangle_410934" data-name="Rectangle 410934" width="4.231" height="18.274" transform="translate(67.252 72.576)" fill="#9192ff"/>
            <rect id="Rectangle_410935" data-name="Rectangle 410935" width="4.231" height="10.437" transform="translate(78.807 80.317)" fill="#d1d1ff"/>
            <rect id="Rectangle_410936" data-name="Rectangle 410936" width="4.231" height="24.9" transform="translate(83.038 65.854)" fill="#ffe9b5"/>
            <path id="Path_1247850" data-name="Path 1247850" d="M184.015,373.914h-65.14V347.63h.488v25.8h64.651Z" transform="translate(-96.745 -282.916)" fill="#9192ff"/>
            <path id="Path_1247851" data-name="Path 1247851" d="M1397.883,1344.227l2.792,12.486-18.965-.036,7.912-6.828-.582-6.2Z" transform="translate(-1124.49 -1093.512)" fill="#1b1b43"/>
            <rect id="Rectangle_410937" data-name="Rectangle 410937" width="0.698" height="4.103" transform="matrix(0.643, -0.766, 0.766, 0.643, 264.907, 256.603)" fill="#ebebff"/>
            <path id="Path_1247852" data-name="Path 1247852" d="M1185.05,1343.68l1.4,12.682h-20.361l9.308-6.865v-6.283Z" transform="translate(-949.006 -1093.161)" fill="#1b1b43"/>
            <rect id="Rectangle_410938" data-name="Rectangle 410938" width="0.698" height="4.103" transform="matrix(0.643, -0.766, 0.766, 0.643, 226.162, 256.603)" fill="#ebebff"/>
            <path id="Path_1247853" data-name="Path 1247853" d="M1315.8,916.44l-3.025.042-8.978.121-4.984.07c-4.887-16.889-9.461-33.444-13.2-49.086q-1.1-4.6-2.1-9.089c-2.462-11.081-4.426-21.622-5.678-31.391q-.405-3.148-.708-6.185-.244-2.422-.419-4.775l22.339,3.723q.335,3.176.712,6.376c3.365,28.841,9.113,59.152,16.042,90.195" transform="translate(-1039.037 -664.212)" fill="#3335cf"/>
            <path id="Path_1247854" data-name="Path 1247854" d="M1220.386,832.4l-.707,7.6-2.853,30.568-.107,1.164-5.408,57.942h-16.675c.33-33.518,1.424-65.38,5.818-88.915q.482-2.6,1.024-5.064l8.856-1.54Z" transform="translate(-972.241 -677.437)" fill="#3335cf"/>
            <rect id="Rectangle_410939" data-name="Rectangle 410939" width="0.465" height="33.345" transform="translate(240.392 172.766) rotate(-10.996)" fill="#1b1b43"/>
            <g id="Group_1201782" data-name="Group 1201782" transform="translate(228.212 151.934)" opacity="0.3">
              <g id="Group_1201781" data-name="Group 1201781">
                <g id="Group_1201780" data-name="Group 1201780" clip-path="url(#clip-path-5)">
                  <path id="Path_1247855" data-name="Path 1247855" d="M1258.4,826.245l-13.287.521-8.638.34-10.588.419q.482-2.6,1.024-5.064l8.857-1.54q-.244-2.422-.419-4.775l22.339,3.723q.335,3.176.712,6.376" transform="translate(-1225.886 -816.146)" fill="#1b1b43"/>
                </g>
              </g>
            </g>
            <path id="Path_1247856" data-name="Path 1247856" d="M1212.767,640.237l8.558-1.07,17.866,3.744.1,32.208a3.2,3.2,0,0,1-3.186,3.207l-29.974.1-5.777-17.438,5.563-16.475Z" transform="translate(-976.898 -520.18)" fill="#ffa121"/>
            <path id="Path_1247857" data-name="Path 1247857" d="M1302.351,673.065a7.279,7.279,0,0,1-5.034-1.97l.239-.254a7.5,7.5,0,0,0,9.932-.009l.219.271a8.541,8.541,0,0,1-5.357,1.961" transform="translate(-1055.808 -545.951)" fill="#1b1b43"/>
            <path id="Path_1247858" data-name="Path 1247858" d="M1350.828,641.2a7.2,7.2,0,0,0-6.046-5.57l-11.406-1.568,6.9,11.79,2.133,7.378,10.749-1.516Z" transform="translate(-1085.155 -516.025)" fill="#ffa121"/>
            <path id="Path_1247859" data-name="Path 1247859" d="M1260.513,741.508c-.27,3.988-2.681,5.687-5.743,6.385-3.193.726-7.088.368-10.016.377-4.812.014-9.624-.2-14.432-.456l-12.217.116-1.4-2.173c1.592-2.248,5.9-5.194,13.417-3.411l19.51-4.421-2.173-7.516,10.751-1.513,2.2,9.927a13.105,13.105,0,0,1,.1,2.685" transform="translate(-990.207 -593.205)" fill="#ffbc96"/>
            <path id="Path_1247860" data-name="Path 1247860" d="M1170.46,731.417l7.679,9.657,1.4.349,1.151-11.24-7.858-3.708Z" transform="translate(-952.567 -591.235)" fill="#ffbc96"/>
            <path id="Path_1247861" data-name="Path 1247861" d="M1206.411,633.646l-11.215,1.775a9.561,9.561,0,0,0-7.127,5.311l-4.886,10.2,7.858,3.708.827-8.075Z" transform="translate(-962.921 -515.687)" fill="#ffa121"/>
            <g id="Group_1201785" data-name="Group 1201785" transform="translate(263.583 147.592)" opacity="0.2">
              <g id="Group_1201784" data-name="Group 1201784">
                <g id="Group_1201783" data-name="Group 1201783" clip-path="url(#clip-path-6)">
                  <path id="Path_1247862" data-name="Path 1247862" d="M1422.61,793.533c-.27,3.988-2.681,5.687-5.743,6.385a4.344,4.344,0,0,1,5.743-6.385" transform="translate(-1415.886 -792.821)" fill="#fe5b52"/>
                </g>
              </g>
            </g>
            <rect id="Rectangle_410942" data-name="Rectangle 410942" width="21.816" height="0.349" transform="matrix(0.113, -0.994, 0.994, 0.113, 226.324, 152.532)" fill="#1b1b43"/>
            <rect id="Rectangle_410943" data-name="Rectangle 410943" width="0.349" height="15.503" transform="translate(254.958 129.876) rotate(-16.123)" fill="#1b1b43"/>
            <path id="Path_1247863" data-name="Path 1247863" d="M1346.859,476.03a6.307,6.307,0,0,1,.219-2.367,3.362,3.362,0,0,1,1.451-1.907,3.414,3.414,0,0,1,1.152-.419,4.271,4.271,0,0,1,1.219-.024,5.329,5.329,0,0,1,2.263.827,4.5,4.5,0,0,1,1.623,1.789,3.358,3.358,0,0,1,.218,2.4,5.023,5.023,0,0,1-1.246,2.048,9.77,9.77,0,0,1-1.867,1.464l-.075-.114a10.364,10.364,0,0,0,1.764-1.516,4.752,4.752,0,0,0,1.13-1.962,3.1,3.1,0,0,0-.222-2.179,4.266,4.266,0,0,0-1.514-1.645,4.994,4.994,0,0,0-2.114-.792,3.555,3.555,0,0,0-2.183.373,3.115,3.115,0,0,0-1.375,1.727,5.306,5.306,0,0,0-.258,1.121,8.994,8.994,0,0,0-.049,1.163Z" transform="translate(-1096.107 -383.548)" fill="#1b1b43"/>
            <path id="Path_1247864" data-name="Path 1247864" d="M1354.848,481.44a3.732,3.732,0,1,1-3.732-3.732,3.732,3.732,0,0,1,3.732,3.732" transform="translate(-1096.555 -388.778)" fill="#1b1b43"/>
            <path id="Path_1247865" data-name="Path 1247865" d="M1283.4,513.943l-2-3.062.772,3.388-6.906,1.824-12.975.526,1.047-10.3c-3.314-1.629-5.664-12.128,6.916-13.9a12.754,12.754,0,0,1,6.753.782c6.469,2.737,8.656,9.992,9.252,19.984Z" transform="translate(-1026.01 -400.637)" fill="#1b1b43"/>
            <path id="Path_1247866" data-name="Path 1247866" d="M1302.53,596.993h0a5.069,5.069,0,0,1-5.069-5.069V580.937H1307.6v10.987a5.069,5.069,0,0,1-5.069,5.069" transform="translate(-1055.925 -472.79)" fill="#ffbc96"/>
            <path id="Path_1247867" data-name="Path 1247867" d="M1304.323,605.729c-1.085,3.2-3.627,4.7-6.865,5.507v-4.77Z" transform="translate(-1055.923 -492.967)" fill="#1b1b43"/>
            <path id="Path_1247868" data-name="Path 1247868" d="M1285.794,523.646l-.327,14.233s-5.983,4.355-10.172,3.1c-1.406-.419-2.36-2.015-3.007-4a23.015,23.015,0,0,1-.731-3.025,47.845,47.845,0,0,1-.624-7.572Z" transform="translate(-1034.336 -426.164)" fill="#ffbc96"/>
            <path id="Path_1247869" data-name="Path 1247869" d="M1280.045,567.318c0,.423-.254.766-.567.766s-.567-.343-.567-.766.254-.766.567-.766.567.343.567.766" transform="translate(-1040.828 -461.083)" fill="#1b1b43"/>
            <path id="Path_1247870" data-name="Path 1247870" d="M1302.937,564.979c0,.49-.286.887-.64.887s-.64-.4-.64-.887.286-.887.64-.887.64.4.64.887" transform="translate(-1059.34 -459.081)" fill="#1b1b43"/>
            <path id="Path_1247871" data-name="Path 1247871" d="M1303.459,555.364c-.023.217-.75.268-1.558.126s-1.5-.1-1.365-.637c.106-.439.744-.4,1.551-.26s1.392.581,1.371.771" transform="translate(-1058.415 -451.272)" fill="#1b1b43"/>
            <path id="Path_1247872" data-name="Path 1247872" d="M1273.892,557.184c.028.214.648.2,1.328,0s1.265-.222,1.134-.746c-.108-.428-.648-.339-1.328-.132s-1.159.692-1.134.879" transform="translate(-1036.743 -452.603)" fill="#1b1b43"/>
            <g id="Group_1201788" data-name="Group 1201788" transform="translate(244.509 106.092)" opacity="0.2">
              <g id="Group_1201787" data-name="Group 1201787">
                <g id="Group_1201786" data-name="Group 1201786" clip-path="url(#clip-path-7)">
                  <path id="Path_1247873" data-name="Path 1247873" d="M1316.746,571.554a1.658,1.658,0,1,1-1.658-1.658,1.658,1.658,0,0,1,1.658,1.658" transform="translate(-1313.43 -569.896)" fill="#fe5b52"/>
                </g>
              </g>
            </g>
            <g id="Group_1201791" data-name="Group 1201791" transform="translate(237.222 107.79)" opacity="0.2">
              <g id="Group_1201790" data-name="Group 1201790">
                <g id="Group_1201789" data-name="Group 1201789" clip-path="url(#clip-path-8)">
                  <path id="Path_1247874" data-name="Path 1247874" d="M1275.756,580.668a1.649,1.649,0,0,1-.74,1.378,22.973,22.973,0,0,1-.731-3.025,1.658,1.658,0,0,1,1.471,1.647" transform="translate(-1274.286 -579.021)" fill="#fe5b52"/>
                </g>
              </g>
            </g>
            <path id="Path_1247875" data-name="Path 1247875" d="M1287.235,574.25a.864.864,0,0,1-.073.433,1.894,1.894,0,0,1-.211.357,1.957,1.957,0,0,0-.34.566.508.508,0,0,0,.007.25.516.516,0,0,0,.131.229,1.511,1.511,0,0,0,.578.337l-.017.181a1.147,1.147,0,0,1-.828-.209.861.861,0,0,1-.3-.4.9.9,0,0,1-.026-.505,1.65,1.65,0,0,1,.485-.708,1.515,1.515,0,0,0,.407-.547Z" transform="translate(-1046.708 -467.338)" fill="#1b1b43"/>
            <path id="Path_1247876" data-name="Path 1247876" d="M1289.679,590.768c.611,1.949,3.229.96,3.432-.872Z" transform="translate(-1049.592 -480.081)" fill="#fff"/>
            <path id="Path_1247877" data-name="Path 1247877" d="M1266.747,522.545c4.38-.008,8.056-.411,11.519-2.094.373,2.858,1.6,4.238,3.258,5l3.49-2.909-1.8-5.876-9.483-.524-7.33,3.665Z" transform="translate(-1030.645 -420.06)" fill="#1b1b43"/>
            <path id="Path_1247878" data-name="Path 1247878" d="M1344.466,560.3c-.943,1.341-2.465,1.9-3.4,1.239s-.925-2.276.018-3.617,2.465-1.9,3.4-1.239.925,2.276-.018,3.617" transform="translate(-1090.849 -452.828)" fill="#ffbc96"/>
            <path id="Path_1247879" data-name="Path 1247879" d="M1348.594,566.722a1.991,1.991,0,0,1-.058-.757,1.635,1.635,0,0,1,.276-.752,1.481,1.481,0,0,1,.633-.509,1.653,1.653,0,0,1,.758-.13l.031.179a4.884,4.884,0,0,0-.6.313,1.67,1.67,0,0,0-.444.414,1.88,1.88,0,0,0-.264.563c-.063.209-.1.435-.15.67Z" transform="translate(-1097.481 -459.471)" fill="#1b1b43"/>
            <path id="Path_1247880" data-name="Path 1247880" d="M1352.261,500.467a11.505,11.505,0,0,1-1.306-.927l-1.18-.973c-.387-.322-.771-.639-1.169-.945s-.809-.6-1.269-.917a3.386,3.386,0,0,1,1.632.281,5.513,5.513,0,0,1,1.4.865,6.839,6.839,0,0,1,1.112,1.184,5.588,5.588,0,0,1,.779,1.432" transform="translate(-1096.515 -404.227)" fill="#ffa121"/>
            <rect id="Rectangle_410946" data-name="Rectangle 410946" width="12.333" height="3.646" transform="translate(226.891 154.648)" fill="#1b1b43"/>
            <path id="Path_1247881" data-name="Path 1247881" d="M1064.39,734.594h-27.924l-12.255-26.471h27.924Z" transform="translate(-833.543 -576.299)" fill="#ebebff"/>
            <path id="Path_1247882" data-name="Path 1247882" d="M1141.235,826.217a1.316,1.316,0,0,0-1.077,1.294v-2.886a1.166,1.166,0,0,0-.993-1.177,1.122,1.122,0,0,0-1.251,1.063v-1.163a1.169,1.169,0,0,0-1.009-1.183,1.125,1.125,0,0,0-1.241,1.119v1.227a1.122,1.122,0,0,0-1.251-1.063,1.166,1.166,0,0,0-.993,1.177v2.29a1.447,1.447,0,0,0-1.085-1.368c-1.251-.116-.975,2.082-.975,2.082.365,2.223,1.022,2.468,2.354,2.564a45.372,45.372,0,0,0,6.316,0c1.34-.091,1.551-.235,2.136-2.23.2-.857.029-1.92-.931-1.745" transform="translate(-920.723 -669.106)" fill="#ffbc96"/>
            <path id="Path_1247883" data-name="Path 1247883" d="M1141.8,839.261a8.918,8.918,0,0,1,.144,1.413c.007.236.008.472,0,.708a5.6,5.6,0,0,1-.066.71l-.136,0a5.6,5.6,0,0,1-.1-.705c-.022-.236-.034-.471-.04-.707a8.945,8.945,0,0,1,.067-1.419Z" transform="translate(-929.076 -683.024)" fill="#d28572"/>
            <path id="Path_1247884" data-name="Path 1247884" d="M1154.074,834.784a10.074,10.074,0,0,1,.147,1.5c.008.25.009.5,0,.752a6.261,6.261,0,0,1-.064.754l-.136,0a6.325,6.325,0,0,1-.106-.749c-.023-.25-.035-.5-.041-.751a10.083,10.083,0,0,1,.064-1.505Z" transform="translate(-939.065 -679.381)" fill="#d28572"/>
            <path id="Path_1247885" data-name="Path 1247885" d="M1166.219,834.779a9.067,9.067,0,0,1,.166,1.42c.011.238.016.475.01.714a5.719,5.719,0,0,1-.055.716l-.136.006a5.68,5.68,0,0,1-.115-.709c-.026-.237-.042-.474-.051-.712a9.025,9.025,0,0,1,.045-1.43Z" transform="translate(-948.961 -679.377)" fill="#d28572"/>
            <path id="Path_1247886" data-name="Path 1247886" d="M1178.216,844.237a2.075,2.075,0,0,0-.249.466c-.069.169-.135.341-.2.516s-.131.35-.2.525a4.735,4.735,0,0,1-.242.521l-.132-.036a3.01,3.01,0,0,1,.081-.577,4.094,4.094,0,0,1,.171-.556,3.122,3.122,0,0,1,.26-.531,1.154,1.154,0,0,1,.435-.439Z" transform="translate(-958.044 -686.983)" fill="#d28572"/>
            <path id="Path_1247887" data-name="Path 1247887" d="M1468.325,523.975v12.781l-5.9,4.188h27.825V523.975Z" transform="translate(-1190.183 -426.432)" fill="#fff"/>
            <path id="Path_1247888" data-name="Path 1247888" d="M1487.3,540.16h-28.786l6.392-4.541V522.725H1487.3Zm-27.328-.465h26.863v-16.5H1465.37v12.668Z" transform="translate(-1186.995 -425.415)" fill="#9192ff"/>
            <path id="Path_1247889" data-name="Path 1247889" d="M1535.734,550.331l-3.581-3.448.646-.671,2.7,2.6,4.595-8.424.817.446Z" transform="translate(-1246.927 -439.791)" fill="#9192ff"/>
            <rect id="Rectangle_410947" data-name="Rectangle 410947" width="300.846" height="0.698" transform="translate(0 262.968)" fill="#1b1b43"/>
          </g>
        </g>
      </g>
    </g>
  </g>
</svg>
