<svg xmlns="http://www.w3.org/2000/svg" width="87.539" height="87.539" viewBox="0 0 87.539 87.539">
  <g id="Group_1201748" data-name="Group 1201748" transform="translate(6458 8017)">
    <g id="Group_1201738" data-name="Group 1201738" transform="translate(-6866.051 -9860)">
      <g id="Group_1200255" data-name="Group 1200255" transform="translate(408.051 1843)">
        <g id="Group_1187152" data-name="Group 1187152">
          <g id="Group_1185946" data-name="Group 1185946">
            <g id="Group_1184280" data-name="Group 1184280">
              <g id="Group_1182168" data-name="Group 1182168">
                <g id="Group_1178877" data-name="Group 1178877">
                  <g id="Group_1111311" data-name="Group 1111311">
                    <g id="Group_1098742" data-name="Group 1098742" transform="translate(0 0)">
                      <g id="Rectangle_400898" data-name="Rectangle 400898" transform="translate(0.001 0)" fill="#ffc94a" stroke="#b18c32" stroke-width="1" opacity="0.859">
                        <rect width="87.539" height="87.539" rx="43.769" stroke="none"/>
                        <rect x="0.5" y="0.5" width="86.539" height="86.539" rx="43.269" fill="none"/>
                      </g>
                      <g id="Rectangle_400907" data-name="Rectangle 400907" transform="translate(0 0)" fill="none" stroke="#b18c32" stroke-width="1">
                        <rect width="87.539" height="87.539" rx="43.769" stroke="none"/>
                        <rect x="0.5" y="0.5" width="86.539" height="86.539" rx="43.269" fill="none"/>
                      </g>
                    </g>
                  </g>
                </g>
              </g>
            </g>
          </g>
        </g>
      </g>
    </g>
    <g id="residuos-toxicos" transform="translate(-6511.317 -8001.999)">
      <path id="Path_1247728" data-name="Path 1247728" d="M122.972,186.7l-2.412-4.177a5.127,5.127,0,0,1-.687-2.564v-19.1a12.932,12.932,0,0,0-12.932-12.932h-5.985a12.932,12.932,0,0,0-12.932,12.932v19.1a5.128,5.128,0,0,1-.687,2.564L84.927,186.7a.7.7,0,0,0,.607,1.051h36.831A.7.7,0,0,0,122.972,186.7Z" transform="translate(-6.675 -131.401)" fill="#bccdb2"/>
      <path id="Path_1247729" data-name="Path 1247729" d="M122.971,190.365l-2.412-4.177a5.127,5.127,0,0,1-.687-2.564v-19.1a12.937,12.937,0,0,0-9.5-12.47,12.91,12.91,0,0,1,5.029,10.236v18.523a7.287,7.287,0,0,0,.976,3.644l.251.435a2.861,2.861,0,0,1-2.478,4.292H85.608l-.683,1.182a.7.7,0,0,0,.607,1.051h36.831A.7.7,0,0,0,122.971,190.365Z" transform="translate(-6.674 -135.071)" fill="#dde6d8"/>
      <path id="Path_1247730" data-name="Path 1247730" d="M211.872,17.468l-2.523-9.416a.277.277,0,0,1,.386-.323l2,.942a.33.33,0,0,0,.282,0l2.419-1.142a.277.277,0,0,1,.237,0l2.419,1.142a.33.33,0,0,0,.282,0l2-.942a.277.277,0,0,1,.386.323l-2.523,9.416Z" transform="translate(-117.277 -6.666)" fill="#ffd064"/>
      <path id="Path_1247731" data-name="Path 1247731" d="M235.943,9.313l-2,.942a.33.33,0,0,1-.282,0L232.51,9.71l-1.515,5.656a2.713,2.713,0,0,1-2.621,2.011H228l.449,1.675h5.357l2.523-9.416A.278.278,0,0,0,235.943,9.313Z" transform="translate(-133.853 -8.25)" fill="#ffc250"/>
      <g id="Group_1201747" data-name="Group 1201747" transform="translate(87.245 28.031)">
        <circle id="Ellipse_12363" data-name="Ellipse 12363" cx="2.828" cy="2.828" r="2.828" transform="translate(7.2 7.201)" fill="#617881"/>
        <path id="Path_1247732" data-name="Path 1247732" d="M216.451,255.32a5.664,5.664,0,0,1,2.75.709.114.114,0,0,0,.155-.042l2.052-3.554a.116.116,0,0,0-.043-.159,10.043,10.043,0,0,0-9.829,0,.116.116,0,0,0-.043.159l2.052,3.554a.114.114,0,0,0,.155.042A5.663,5.663,0,0,1,216.451,255.32Z" transform="translate(-206.422 -250.989)" fill="#617881"/>
        <path id="Path_1247733" data-name="Path 1247733" d="M284.685,340.9a5.7,5.7,0,0,1-2.752,4.763.115.115,0,0,0-.041.155l2.052,3.555a.115.115,0,0,0,.159.041,10.025,10.025,0,0,0,4.912-8.511.116.116,0,0,0-.116-.117h-4.1A.115.115,0,0,0,284.685,340.9Z" transform="translate(-268.959 -330.76)" fill="#617881"/>
        <path id="Path_1247734" data-name="Path 1247734" d="M170.426,340.789h-4.1a.116.116,0,0,0-.116.117,10.025,10.025,0,0,0,4.912,8.511.116.116,0,0,0,.159-.042l2.052-3.554a.114.114,0,0,0-.041-.155,5.7,5.7,0,0,1-2.752-4.763A.115.115,0,0,0,170.426,340.789Z" transform="translate(-166.209 -330.76)" fill="#617881"/>
      </g>
      <path id="Path_1247735" data-name="Path 1247735" d="M215.219,125.331h-8.442a1.437,1.437,0,1,1,0-2.874h8.442a1.437,1.437,0,0,1,0,2.874Z" transform="translate(-113.724 -108.781)" fill="#f1f4f6"/>
      <path id="Path_1247736" data-name="Path 1247736" d="M224.462,99.6h-5.784a1.437,1.437,0,1,1,0-2.874h5.784a1.437,1.437,0,0,1,0,2.874Z" transform="translate(-124.296 -85.923)" fill="#dfeaef"/>
      <path id="Path_1247737" data-name="Path 1247737" d="M230.509,311.63a3.666,3.666,0,1,0-3.666,3.666A3.67,3.67,0,0,0,230.509,311.63Zm-5.657,0a1.991,1.991,0,1,1,1.991,1.991A1.993,1.993,0,0,1,224.852,311.63Z" transform="translate(-129.569 -273.57)"/>
      <path id="Path_1247738" data-name="Path 1247738" d="M207.451,250.1a4.854,4.854,0,0,1,4.689,0,.957.957,0,0,0,1.286-.356l2.052-3.554a.959.959,0,0,0-.357-1.308,10.881,10.881,0,0,0-10.651,0,.959.959,0,0,0-.357,1.307l2.052,3.554A.957.957,0,0,0,207.451,250.1Zm6.2-4.091-1.337,2.315a6.532,6.532,0,0,0-5.031,0l-1.337-2.315A9.213,9.213,0,0,1,213.648,246.009Z" transform="translate(-112.522 -216.297)"/>
      <path id="Path_1247739" data-name="Path 1247739" d="M276.57,343.131a.962.962,0,0,0,1.312.342,10.8,10.8,0,0,0,5.322-9.221.96.96,0,0,0-.953-.964h-4.1a.958.958,0,0,0-.952.934h0a4.843,4.843,0,0,1-2.349,4.064.958.958,0,0,0-.332,1.291Zm2.251-8.168h2.671a9.114,9.114,0,0,1-3.851,6.672l-1.337-2.316a6.5,6.5,0,0,0,2.517-4.356Z" transform="translate(-175.064 -296.065)"/>
      <path id="Path_1247740" data-name="Path 1247740" d="M163.06,340.61a.838.838,0,1,0-1.187,1.182,10.915,10.915,0,0,0,2.155,1.679.963.963,0,0,0,1.313-.343l2.052-3.554a.957.957,0,0,0-.332-1.29,4.843,4.843,0,0,1-2.349-4.063.957.957,0,0,0-.952-.935h-4.1a.96.96,0,0,0-.953.964,10.8,10.8,0,0,0,.832,4.052.838.838,0,0,0,1.546-.645,9.1,9.1,0,0,1-.666-2.7h2.671a6.5,6.5,0,0,0,2.517,4.356l-1.337,2.315A9.223,9.223,0,0,1,163.06,340.61Z" transform="translate(-72.298 -296.063)"/>
      <path id="Path_1247741" data-name="Path 1247741" d="M78.859,57.183h36.831a1.539,1.539,0,0,0,1.332-2.308L114.61,50.7a4.3,4.3,0,0,1-.575-2.145v-19.1a13.658,13.658,0,0,0-2.716-8.213.838.838,0,0,0-1.344,1,11.994,11.994,0,0,1,2.385,7.212v19.1a5.973,5.973,0,0,0,.8,2.982l2.293,3.972H79.1l2.293-3.972a5.972,5.972,0,0,0,.8-2.982v-19.1a12.114,12.114,0,0,1,9.97-11.907A12.267,12.267,0,0,0,89.9,21.651a.838.838,0,1,0,1.582.553c.981-2.809,2.443-4.57,3.968-4.816H99.1c1.525.246,2.987,2.007,3.968,4.816a.838.838,0,0,0,1.582-.553,12.264,12.264,0,0,0-2.263-4.109,11.987,11.987,0,0,1,4.946,2.095.838.838,0,0,0,.98-1.359,13.668,13.668,0,0,0-4.759-2.2,2.274,2.274,0,0,0-1.242-3.086A2.275,2.275,0,0,0,101,10.123l2.283-8.52a1.115,1.115,0,0,0-1.553-1.3l-1.779.84-2.2-1.04a1.111,1.111,0,0,0-.952,0l-2.2,1.04L92.817.306a1.1,1.1,0,0,0-1.191.152A1.119,1.119,0,0,0,91.263,1.6l.824,3.077a.838.838,0,0,0,1.618-.434l-.512-1.909.9.426a1.164,1.164,0,0,0,1,0l2.18-1.029,2.18,1.029a1.163,1.163,0,0,0,1,0l.9-.426L99.31,9.964h-1.2V6.484a.838.838,0,1,0-1.675,0v3.48h-1.2l-.5-1.852a.838.838,0,0,0-1.618.434l.423,1.578a2.275,2.275,0,0,0-1.312,2.867,2.274,2.274,0,0,0-1.241,3.089A13.794,13.794,0,0,0,80.512,29.451v19.1a4.294,4.294,0,0,1-.575,2.145l-2.412,4.177a1.539,1.539,0,0,0,1.333,2.308ZM93.783,12.239a.6.6,0,0,1,.6-.6h5.784a.6.6,0,0,1,0,1.2H94.382A.6.6,0,0,1,93.783,12.239Zm-.73,3.473a.6.6,0,1,1,0-1.2H101.5a.6.6,0,1,1,0,1.2Z" transform="translate(0 0)"/>
    </g>
  </g>
</svg>
