<svg xmlns="http://www.w3.org/2000/svg" width="87.539" height="87.539" viewBox="0 0 87.539 87.539">
  <g id="Group_1201751" data-name="Group 1201751" transform="translate(6130 8017)">
    <g id="Group_1201739" data-name="Group 1201739" transform="translate(-6538.051 -9860)">
      <g id="Group_1200255" data-name="Group 1200255" transform="translate(408.051 1843)">
        <g id="Group_1187152" data-name="Group 1187152">
          <g id="Group_1185946" data-name="Group 1185946">
            <g id="Group_1184280" data-name="Group 1184280">
              <g id="Group_1182168" data-name="Group 1182168">
                <g id="Group_1178877" data-name="Group 1178877">
                  <g id="Group_1111311" data-name="Group 1111311">
                    <g id="Group_1098742" data-name="Group 1098742" transform="translate(0 0)">
                      <g id="Rectangle_400898" data-name="Rectangle 400898" transform="translate(0.001 0)" fill="#ffc94a" stroke="#b18c32" stroke-width="1" opacity="0.859">
                        <rect width="87.539" height="87.539" rx="43.769" stroke="none"/>
                        <rect x="0.5" y="0.5" width="86.539" height="86.539" rx="43.269" fill="none"/>
                      </g>
                      <g id="Rectangle_400907" data-name="Rectangle 400907" transform="translate(0 0)" fill="none" stroke="#b18c32" stroke-width="1">
                        <rect width="87.539" height="87.539" rx="43.769" stroke="none"/>
                        <rect x="0.5" y="0.5" width="86.539" height="86.539" rx="43.269" fill="none"/>
                      </g>
                    </g>
                  </g>
                </g>
              </g>
            </g>
          </g>
        </g>
      </g>
    </g>
    <g id="tapabocas" transform="translate(-6172.13 -8002)">
      <g id="Group_1201749" data-name="Group 1201749" transform="translate(64.964 0.834)">
        <path id="Path_1247742" data-name="Path 1247742" d="M132.974,45.829a43.735,43.735,0,0,0,14.242-2.849,1.787,1.787,0,0,0,1.054-2.257c-.488-1.471-1.034-4.22-1.034-9.156V19.979A12.479,12.479,0,0,0,134.757,7.5h-3.566a12.479,12.479,0,0,0-12.479,12.479V31.567c0,4.936-.547,7.685-1.034,9.156a1.787,1.787,0,0,0,1.054,2.257A43.74,43.74,0,0,0,132.974,45.829Z" transform="translate(-112.472 -7.5)" fill="#845252"/>
        <path id="Path_1247743" data-name="Path 1247743" d="M109.063,290.485l-9.8-3.459a2.674,2.674,0,0,1-1.784-2.522v-4.457h-10.7V284.5A2.674,2.674,0,0,1,85,287.026l-9.8,3.459a5.348,5.348,0,0,0-3.568,5.043v6.8h41v-6.8A5.348,5.348,0,0,0,109.063,290.485Z" transform="translate(-71.628 -249.74)" fill="#ffd18d"/>
        <path id="Path_1247744" data-name="Path 1247744" d="M115.3,280.048V284.5a2.674,2.674,0,0,1-1.784,2.522l-9.8,3.459.889,2.522,9.8-3.459a5.312,5.312,0,0,0,3.013-2.688,2.588,2.588,0,0,1,2.546-1.482A14.186,14.186,0,0,0,126,284.333v-4.285Z" transform="translate(-100.151 -249.741)" fill="#fbbd80"/>
        <path id="Path_1247745" data-name="Path 1247745" d="M154.388,96.576h-.8a1.783,1.783,0,0,1-1.783-1.783V92.119a4.457,4.457,0,0,0-4.457-4.457h-10.7a4.457,4.457,0,0,0-4.457,4.457v2.674a1.783,1.783,0,0,1-1.783,1.783h-.8a1.849,1.849,0,0,0-1.854,1.483,1.784,1.784,0,0,0,1.758,2.082h.891a1.783,1.783,0,0,0,1.783,1.783h19.61a1.783,1.783,0,0,0,1.783-1.783h.891a1.784,1.784,0,0,0,1.758-2.082A1.849,1.849,0,0,0,154.388,96.576Z" transform="translate(-121.502 -78.748)" fill="#ffe09c"/>
        <path id="Path_1247746" data-name="Path 1247746" d="M146.461,87.661h-9.805a4.457,4.457,0,0,0-4.457,4.457v2.674a1.783,1.783,0,0,1-1.783,1.783h-.8a1.849,1.849,0,0,0-1.854,1.483,1.784,1.784,0,0,0,1.758,2.082h1.783a13.837,13.837,0,0,0,.262,1.783h3.3V92.118a1.783,1.783,0,0,1,1.783-1.783h9.805V87.661Z" transform="translate(-121.503 -78.747)" fill="#ffd18d"/>
        <path id="Path_1247747" data-name="Path 1247747" d="M171.934,7.5h-3.566a12.434,12.434,0,0,0-8.958,3.8,34.438,34.438,0,0,0,25,10.46V19.979A12.479,12.479,0,0,0,171.934,7.5Z" transform="translate(-149.65 -7.5)" fill="#a46a5a"/>
        <path id="Path_1247748" data-name="Path 1247748" d="M193.666,186.529H188.43a3.315,3.315,0,0,1-1.839-.557,3.315,3.315,0,0,0-3.678,0,3.315,3.315,0,0,1-1.839.557h-5.236l3.018,7.138,5.9,3.558a11.588,11.588,0,0,0,11.588-11.588v-1.783A2.674,2.674,0,0,1,193.666,186.529Z" transform="translate(-164.25 -164.245)" fill="#7ad7ee"/>
        <path id="Path_1247749" data-name="Path 1247749" d="M151.79,183.855v1.783A11.552,11.552,0,0,0,166.052,196.9a11.579,11.579,0,0,1-8.869-10.374h-2.719A2.674,2.674,0,0,1,151.79,183.855Z" transform="translate(-142.876 -164.245)" fill="#4bc3ef"/>
        <path id="Path_1247750" data-name="Path 1247750" d="M109.063,360.266l-4.838-1.707a21.386,21.386,0,0,1-24.191,0L75.2,360.265a5.348,5.348,0,0,0-3.568,5.044l2.674,9.478h38.329v-9.478A5.348,5.348,0,0,0,109.063,360.266Z" transform="translate(-71.628 -319.521)" fill="#ffc244"/>
        <path id="Path_1247751" data-name="Path 1247751" d="M74.3,365.309a2.676,2.676,0,0,1,1.784-2.521l7.03-2.482a21.4,21.4,0,0,1-3.082-1.748L75.2,360.265a5.348,5.348,0,0,0-3.568,5.044v9.478H74.3Z" transform="translate(-71.629 -319.521)" fill="#ffaa5a"/>
      </g>
      <g id="Group_1201750" data-name="Group 1201750" transform="translate(64.13 0)">
        <path id="Path_1247752" data-name="Path 1247752" d="M201.237,168.339a.834.834,0,0,0-.834.834v.891a.834.834,0,0,0,1.668,0v-.891A.834.834,0,0,0,201.237,168.339Z" transform="translate(-185.25 -149.62)"/>
        <path id="Path_1247753" data-name="Path 1247753" d="M193.221,145.959H195a.834.834,0,0,0,0-1.668h-1.783a.834.834,0,0,0,0,1.668Z" transform="translate(-178.125 -128.246)"/>
        <path id="Path_1247754" data-name="Path 1247754" d="M289.415,145.959H291.2a.834.834,0,0,0,0-1.668h-1.783a.834.834,0,0,0,0,1.668Z" transform="translate(-263.622 -128.246)"/>
        <path id="Path_1247755" data-name="Path 1247755" d="M297.431,168.339a.834.834,0,0,0-.834.834v.891a.834.834,0,0,0,1.668,0v-.891A.834.834,0,0,0,297.431,168.339Z" transform="translate(-270.747 -149.62)"/>
        <path id="Path_1247756" data-name="Path 1247756" d="M102.677,40.792l-6.655-2.349a26.356,26.356,0,0,0,4.064-1.276,2.626,2.626,0,0,0,1.5-3.283c-.466-1.36-1.022-4.022-1.022-8.983V13.313A13.329,13.329,0,0,0,87.248,0H83.683A13.328,13.328,0,0,0,70.37,13.313V24.9c0,4.962-.556,7.624-1.022,8.983a2.626,2.626,0,0,0,1.5,3.283,26.351,26.351,0,0,0,4.063,1.276l-6.655,2.349a6.192,6.192,0,0,0-4.125,5.83V56.1a.834.834,0,1,0,1.668,0V46.622a4.521,4.521,0,0,1,3.012-4.257L73.249,40.8a22.239,22.239,0,0,0,24.433,0l4.44,1.567a4.521,4.521,0,0,1,3.012,4.257V56.1a.834.834,0,0,0,1.668,0V46.622A6.192,6.192,0,0,0,102.677,40.792Zm-3.219-5.17a23.451,23.451,0,0,1-6.733,1.649A1.843,1.843,0,0,1,91.648,35.6V33a12.437,12.437,0,0,0,6.211-9.937h.086a2.615,2.615,0,0,0,.949-.178V24.9c0,5.192.605,8.045,1.113,9.525A.946.946,0,0,1,99.458,35.622ZM72.986,21.393a.95.95,0,0,1-.935-1.114,1.019,1.019,0,0,1,.993-.782v1.9Zm1.725-.949V19.358a2.621,2.621,0,0,0,1.783-2.48V14.2a3.627,3.627,0,0,1,3.623-3.623H80.7c.639.4,1.354.821,2.146,1.24a35.637,35.637,0,0,0,11.59,3.734v1.323a2.621,2.621,0,0,0,1.783,2.48v1.086a1.842,1.842,0,0,1-1.84,1.84H89.144a2.473,2.473,0,0,1-1.376-.417,4.138,4.138,0,0,0-4.6,0,2.473,2.473,0,0,1-1.376.417H76.552a1.842,1.842,0,0,1-1.84-1.84Zm24.182-2.411a2.784,2.784,0,0,0-1.044-.205h-.8a.95.95,0,0,1-.949-.949V15.755c.9.087,1.829.144,2.789.165ZM97.888,19.5a1.019,1.019,0,0,1,.993.782.95.95,0,0,1-.935,1.114h-.057ZM83.683,1.668h3.565A11.658,11.658,0,0,1,98.894,13.313v.938A34.377,34.377,0,0,1,83.688,10.38a25.709,25.709,0,0,1-5.656-3.9.834.834,0,0,0-1.179,1.18A18.157,18.157,0,0,0,78.6,9.136,5.3,5.3,0,0,0,74.827,14.2v2.674a.95.95,0,0,1-.949.949h-.8a2.784,2.784,0,0,0-1.044.205v-4.72A11.658,11.658,0,0,1,83.683,1.668ZM70.925,34.426c.508-1.48,1.113-4.333,1.113-9.525V22.883a2.615,2.615,0,0,0,.949.178h.085a12.329,12.329,0,0,0,.844,3.745.834.834,0,0,0,1.55-.615,10.658,10.658,0,0,1-.68-2.718,3.486,3.486,0,0,0,1.766.479h5.236a4.136,4.136,0,0,0,2.3-.7,2.474,2.474,0,0,1,2.753,0,4.136,4.136,0,0,0,2.3.7h5.236a3.486,3.486,0,0,0,1.768-.48,10.754,10.754,0,0,1-18.828,5.775.834.834,0,1,0-1.263,1.09A12.436,12.436,0,0,0,79.283,33v2.6a1.843,1.843,0,0,1-1.077,1.674,23.445,23.445,0,0,1-6.733-1.649A.946.946,0,0,1,70.925,34.426Zm14.541,8.36a20.451,20.451,0,0,1-10.194-2.7L78.6,38.91h0l.009,0A3.513,3.513,0,0,0,80.951,35.6V33.8a12.422,12.422,0,0,0,9.029,0v1.8a3.512,3.512,0,0,0,2.293,3.289l.035.014.013.005,3.34,1.179a20.458,20.458,0,0,1-10.195,2.7Z" transform="translate(-64.13 0)"/>
      </g>
    </g>
  </g>
</svg>
