<svg xmlns="http://www.w3.org/2000/svg" width="87.539" height="87.539" viewBox="0 0 87.539 87.539">
  <g id="Group_1201740" data-name="Group 1201740" transform="translate(-808.051 -3591)">
    <g id="Group_1201735" data-name="Group 1201735" transform="translate(400 1748)">
      <g id="Group_1200255" data-name="Group 1200255" transform="translate(408.051 1843)">
        <g id="Group_1187152" data-name="Group 1187152">
          <g id="Group_1185946" data-name="Group 1185946">
            <g id="Group_1184280" data-name="Group 1184280">
              <g id="Group_1182168" data-name="Group 1182168">
                <g id="Group_1178877" data-name="Group 1178877">
                  <g id="Group_1111311" data-name="Group 1111311">
                    <g id="Group_1098742" data-name="Group 1098742" transform="translate(0 0)">
                      <g id="Rectangle_400898" data-name="Rectangle 400898" transform="translate(0.001 0)" fill="#ffc94a" stroke="#b18c32" stroke-width="1" opacity="0.859">
                        <rect width="87.539" height="87.539" rx="43.769" stroke="none"/>
                        <rect x="0.5" y="0.5" width="86.539" height="86.539" rx="43.269" fill="none"/>
                      </g>
                      <g id="Rectangle_400907" data-name="Rectangle 400907" transform="translate(0 0)" fill="none" stroke="#b18c32" stroke-width="1">
                        <rect width="87.539" height="87.539" rx="43.769" stroke="none"/>
                        <rect x="0.5" y="0.5" width="86.539" height="86.539" rx="43.269" fill="none"/>
                      </g>
                    </g>
                  </g>
                </g>
              </g>
            </g>
          </g>
        </g>
      </g>
    </g>
    <g id="Layer_8" data-name="Layer 8" transform="translate(824.051 3607)">
      <path id="Path_1247689" data-name="Path 1247689" d="M25,51.053h3.513v5.269a1.756,1.756,0,0,1-1.756,1.756h0A1.756,1.756,0,0,1,25,56.322Z" transform="translate(-3.045 -6.218)" fill="#a7d0e1"/>
      <path id="Path_1247690" data-name="Path 1247690" d="M49.471,37.407l-.682-.351A7.026,7.026,0,0,1,44.978,30.4l.263-4.583h0A3.267,3.267,0,0,0,40.865,28.7l-.14,2.413a1.756,1.756,0,0,1-2.354,1.549L25,27.8a1.822,1.822,0,0,0-2.216.749,1.756,1.756,0,0,0,.926,2.52L22.149,30.5a1.822,1.822,0,0,0-2.217.749,1.756,1.756,0,0,0,.927,2.52l3.3,1.2A1.756,1.756,0,0,0,21.83,36.3a1.822,1.822,0,0,0,1.217,2l4.04,1.469a1.756,1.756,0,0,0-2.329,1.335,1.823,1.823,0,0,0,1.216,2L36.79,47.038a15.9,15.9,0,0,0,3.018.772l3.515.537a15.8,15.8,0,0,1,6.89,2.829l7.512,5.514V43.518L52.355,39.3a15.816,15.816,0,0,0-2.884-1.9Z" transform="translate(-2.4 -3.12)" fill="#ffd3b6"/>
      <path id="Path_1247691" data-name="Path 1247691" d="M49.667,38.116l-.682-.351a7.026,7.026,0,0,1-2.322-1.914,15.8,15.8,0,0,0-2.761-.623l-.761-.095a7.026,7.026,0,0,1-3.735-1.676,1.739,1.739,0,0,1-.84-.088l-5.3-1.928.263.862a1.756,1.756,0,0,1-1.684,2.262H21.312l3.041,1.107a1.756,1.756,0,0,0-2.33,1.336,1.822,1.822,0,0,0,1.217,2l4.04,1.469a1.756,1.756,0,0,0-2.329,1.335,1.823,1.823,0,0,0,1.216,2l10.819,3.938a15.889,15.889,0,0,0,1.7.5l3.185-.637a15.8,15.8,0,0,1,7.446.3l8.606,2.459V44.227l-5.371-4.215a15.816,15.816,0,0,0-2.884-1.9Z" transform="translate(-2.596 -3.829)" fill="#f9b995"/>
      <path id="Path_1247692" data-name="Path 1247692" d="M29.706,27.455A2.635,2.635,0,0,0,27,29.1a1.472,1.472,0,0,1-1.35.977h-.054a1.418,1.418,0,0,1-1.419-1.419V9H18.9V28.658a1.418,1.418,0,0,1-1.419,1.419H17.43a1.472,1.472,0,0,1-1.348-.977,2.635,2.635,0,0,0-2.711-1.646A2.736,2.736,0,0,0,11,30.226V33.59a7.026,7.026,0,0,0,7.026,7.026h7.026a7.026,7.026,0,0,0,7.026-7.026V30.226a2.736,2.736,0,0,0-2.371-2.772Z" transform="translate(-1.34 -1.096)" fill="#a7d0e1"/>
      <path id="Path_1247693" data-name="Path 1247693" d="M16.536,43.443a7.044,7.044,0,0,0,1.733.224h7.026a7.026,7.026,0,0,0,7.026-7.026v-2.59a1.739,1.739,0,0,1-1.482.833H16.611a1.823,1.823,0,0,0-1.827,1.461A1.756,1.756,0,0,0,16.513,38.4H14.85a1.822,1.822,0,0,0-1.827,1.461,1.756,1.756,0,0,0,1.733,2.051h3.513a1.749,1.749,0,0,0-1.733,1.532Z" transform="translate(-1.583 -4.147)" fill="#80bbce"/>
      <path id="Path_1247694" data-name="Path 1247694" d="M33.337,24.145c-.686.686-3.105.621-3.105.621s-.065-2.419.621-3.105a1.757,1.757,0,0,1,2.484,2.484Z" transform="translate(-3.682 -2.576)" fill="#a7d0e1"/>
      <path id="Path_1247695" data-name="Path 1247695" d="M12.745,22.145c.686.686,3.105.621,3.105.621s.065-2.419-.621-3.105a1.757,1.757,0,1,0-2.484,2.484Z" transform="translate(-1.49 -2.332)" fill="#a7d0e1"/>
      <path id="Path_1247696" data-name="Path 1247696" d="M9.937,52.045c.686-.686.621-3.105.621-3.105s-2.419-.065-3.105.621a1.757,1.757,0,0,0,2.484,2.484Z" transform="translate(-0.845 -5.96)" fill="#a7d0e1"/>
      <path id="Path_1247697" data-name="Path 1247697" d="M36.045,57.561c-.686-.686-3.105-.621-3.105-.621s-.065,2.419.621,3.105a1.757,1.757,0,1,0,2.484-2.484Z" transform="translate(-4.012 -6.935)" fill="#a7d0e1"/>
      <path id="Path_1247698" data-name="Path 1247698" d="M1,14.173,13.7,8.615a7.016,7.016,0,0,1,2.816-.589H25.59V4.513A3.513,3.513,0,0,0,22.077,1H1Z" transform="translate(-0.122 -0.122)" fill="#e6e6e6"/>
      <path id="Path_1247699" data-name="Path 1247699" d="M19.155,3.635a7.017,7.017,0,0,0-2.816.59L11.685,6.262A5.744,5.744,0,0,1,3.635,1H1V14.173L13.7,8.615a7.016,7.016,0,0,1,2.816-.589H25.59V4.513a3.493,3.493,0,0,0-.124-.878Z" transform="translate(-0.122 -0.122)" fill="#cecece"/>
      <path id="Path_1247700" data-name="Path 1247700" d="M23.683,12.513H21.342A2.342,2.342,0,0,1,19,10.171V9h7.026v1.171A2.342,2.342,0,0,1,23.683,12.513Z" transform="translate(-2.314 -1.096)" fill="#e6e6e6"/>
      <path id="Path_1247701" data-name="Path 1247701" d="M17,45h3.513V59.051a1.756,1.756,0,0,1-1.756,1.756h0A1.756,1.756,0,0,1,17,59.051Z" transform="translate(-2.071 -5.481)" fill="#a7d0e1"/>
      <path id="Path_1247702" data-name="Path 1247702" d="M42.893,36.445l-.761-.095A7.026,7.026,0,0,1,36.274,31.4L34.955,27h0a3.267,3.267,0,0,0-3.129,4.206l.695,2.315a1.756,1.756,0,0,1-1.683,2.261H16.611a1.822,1.822,0,0,0-1.827,1.461,1.756,1.756,0,0,0,1.728,2.051H14.85a1.822,1.822,0,0,0-1.827,1.461,1.756,1.756,0,0,0,1.733,2.051h3.513a1.756,1.756,0,0,0-1.733,2.051,1.822,1.822,0,0,0,1.827,1.461h3.419a1.756,1.756,0,0,0-1.733,2.051,1.822,1.822,0,0,0,1.827,1.461H34.267a15.77,15.77,0,0,0,3.1-.308l3.488-.7a15.8,15.8,0,0,1,7.446.3L56.91,51.59V41.051L46.25,37.244a15.8,15.8,0,0,0-3.356-.8Z" transform="translate(-1.583 -3.288)" fill="#ffd3b6"/>
      <path id="Path_1247703" data-name="Path 1247703" d="M50.156,50.086a15.8,15.8,0,0,0-7.443-.3l-3.49.7a15.765,15.765,0,0,1-3.1.307H23.729A1.823,1.823,0,0,1,21.9,49.328v-.061a1.75,1.75,0,0,0-.878,1.818,1.823,1.823,0,0,0,1.827,1.46H35.242a15.77,15.77,0,0,0,3.1-.308l3.488-.7a15.8,15.8,0,0,1,7.446.3L57.885,54.3V52.294Z" transform="translate(-2.558 -6.001)" fill="#f9b995"/>
      <path id="Path_1247704" data-name="Path 1247704" d="M29.306,47.878a.878.878,0,0,1-.878.878H18.864a1.849,1.849,0,0,1-1.774-1.238.878.878,0,0,1,.8-.518H28.428A.878.878,0,0,1,29.306,47.878Z" transform="translate(-2.081 -5.724)" fill="#f9b995"/>
      <path id="Path_1247705" data-name="Path 1247705" d="M28.819,43.878a.878.878,0,0,1-.878.878H14.864a1.849,1.849,0,0,1-1.774-1.238.878.878,0,0,1,.8-.518H27.94A.878.878,0,0,1,28.819,43.878Z" transform="translate(-1.594 -5.237)" fill="#f9b995"/>
      <path id="Path_1247706" data-name="Path 1247706" d="M29.062,39.878a.878.878,0,0,1-.878.878H16.864a1.849,1.849,0,0,1-1.774-1.238.878.878,0,0,1,.8-.518H28.184A.878.878,0,0,1,29.062,39.878Z" transform="translate(-1.838 -4.75)" fill="#f9b995"/>
      <path id="Path_1247707" data-name="Path 1247707" d="M25.878,15a.878.878,0,0,0-.878.878v13.51a2.311,2.311,0,0,0,2.352,2.3,2.354,2.354,0,0,0,2.164-1.529,1.756,1.756,0,0,1,1.046-1.006.878.878,0,0,0-.586-1.656,3.513,3.513,0,0,0-2.092,2.011.624.624,0,0,1-.587.423.541.541,0,0,1-.541-.541V15.878A.878.878,0,0,0,25.878,15Z" transform="translate(-3.045 -1.827)"/>
      <path id="Path_1247708" data-name="Path 1247708" d="M13.337,30.154a1.744,1.744,0,0,1,1.809,1.1,2.371,2.371,0,0,0,2.217,1.529,2.3,2.3,0,0,0,2.3-2.3V24.862a.878.878,0,0,0-1.756,0v5.621a.556.556,0,0,1-.6.541.615.615,0,0,1-.532-.423,3.5,3.5,0,0,0-3.609-2.2A3.623,3.623,0,0,0,10,32.051v3.364a7.923,7.923,0,0,0,.248,1.969.878.878,0,0,0,.85.66.893.893,0,0,0,.219-.027.878.878,0,0,0,.632-1.069,6.191,6.191,0,0,1-.192-1.533V32.051a1.856,1.856,0,0,1,1.581-1.9Z" transform="translate(-1.218 -2.921)"/>
      <path id="Path_1247709" data-name="Path 1247709" d="M20.756,15.878a.878.878,0,0,0-1.756,0v4.355a.878.878,0,0,0,1.756,0Z" transform="translate(-2.314 -1.827)"/>
      <path id="Path_1247710" data-name="Path 1247710" d="M29.232,24.67a.878.878,0,0,0,.854.854h.282c.862,0,2.684-.1,3.467-.878h0a2.635,2.635,0,0,0,0-3.726,2.7,2.7,0,0,0-3.726,0C29.225,21.806,29.215,24.014,29.232,24.67Zm2.12-2.507a.878.878,0,1,1,1.242,1.242,3.793,3.793,0,0,1-1.581.342A3.776,3.776,0,0,1,31.352,22.163Z" transform="translate(-3.56 -2.457)"/>
      <path id="Path_1247711" data-name="Path 1247711" d="M15.751,23.522a.878.878,0,0,0,.854-.854c.018-.656.007-2.865-.878-3.749A2.635,2.635,0,1,0,12,22.644c.782.782,2.6.878,3.467.878C15.581,23.525,15.676,23.524,15.751,23.522ZM13.243,21.4a.878.878,0,0,1,1.242-1.243,3.776,3.776,0,0,1,.343,1.581,3.793,3.793,0,0,1-1.585-.338Z" transform="translate(-1.368 -2.21)"/>
      <path id="Path_1247712" data-name="Path 1247712" d="M10.459,47.94c-.653-.012-2.865-.005-3.749.878a2.635,2.635,0,0,0,3.726,3.726h0c.884-.885.895-3.094.878-3.75A.878.878,0,0,0,10.459,47.94ZM9.194,51.3a.9.9,0,0,1-1.242,0,.878.878,0,0,1,0-1.242,3.793,3.793,0,0,1,1.581-.343A3.8,3.8,0,0,1,9.194,51.3Z" transform="translate(-0.723 -5.839)"/>
      <path id="Path_1247713" data-name="Path 1247713" d="M36.544,56.818c-.884-.883-3.094-.894-3.749-.878a.878.878,0,0,0-.854.854c-.018.656-.007,2.866.878,3.75a2.635,2.635,0,1,0,3.726-3.726ZM35.3,59.3a.9.9,0,0,1-1.24,0,3.776,3.776,0,0,1-.343-1.586,3.776,3.776,0,0,1,1.581.343.878.878,0,0,1,0,1.243Z" transform="translate(-3.89 -6.813)"/>
      <path id="Path_1247714" data-name="Path 1247714" d="M15.808,8.812v.263a3.224,3.224,0,0,0,3.22,3.219h2.341a3.224,3.224,0,0,0,3.22-3.22V8.782h.878a.878.878,0,0,0,.878-.878V4.391A4.4,4.4,0,0,0,21.955,0H.878A.878.878,0,0,0,0,.878V14.051a.878.878,0,0,0,1.229.8L13.934,9.3a6.12,6.12,0,0,1,1.873-.486Zm7.026.263a1.466,1.466,0,0,1-1.464,1.463H19.028a1.466,1.466,0,0,1-1.464-1.464V8.782h5.269ZM1.756,12.708V1.756h20.2A2.635,2.635,0,0,1,24.59,4.391V7.026H16.4a7.854,7.854,0,0,0-3.168.663Z"/>
      <path id="Path_1247715" data-name="Path 1247715" d="M20.391,54.555a.878.878,0,0,0-.878.878v4.344a.878.878,0,0,1-1.756,0V51.845a.878.878,0,0,0-1.756,0v7.933a2.635,2.635,0,0,0,5.269,0V55.434A.878.878,0,0,0,20.391,54.555Z" transform="translate(-1.949 -6.208)"/>
      <path id="Path_1247716" data-name="Path 1247716" d="M57.084,39.934l-6.137-2.2c-.025-.022-1.338-.9-2.009-1.239l-.682-.351a6.147,6.147,0,0,1-3.337-5.825l.263-4.583a.878.878,0,0,0-.577-.878,4.146,4.146,0,0,0-5.556,3.664l-.139,2.413a.878.878,0,0,1-1.179.776l-.48-.176a6.042,6.042,0,0,1-.263-.684l-1.317-4.4a.878.878,0,0,0-.838-.627,4.144,4.144,0,0,0-3.97,5.336l.695,2.316a.878.878,0,0,1-.841,1.13H16.49a2.707,2.707,0,0,0-2.693,2.2,2.651,2.651,0,0,0,.157,1.424,2.626,2.626,0,0,0,.681,5.162h1.029a2.661,2.661,0,0,0-.115,1.317,2.707,2.707,0,0,0,2.693,2.2h.935a2.661,2.661,0,0,0-.115,1.317,2.707,2.707,0,0,0,2.693,2.2h4.3V53.1a.878.878,0,0,1-1.756,0v-.925a.878.878,0,0,0-1.756,0V53.1a2.635,2.635,0,0,0,5.269,0V50.421h6.338a16.718,16.718,0,0,0,3.27-.323l3.493-.7a14.767,14.767,0,0,1,1.746-.241l.012,0a15.024,15.024,0,0,1,6.093,2.6l7.51,5.515a.878.878,0,0,0,1.4-.7V40.76A.878.878,0,0,0,57.084,39.934Zm-17.6-6.846A2.612,2.612,0,0,0,40.67,31.04l.139-2.412a2.394,2.394,0,0,1,2.583-2.246l-.221,3.845a7.893,7.893,0,0,0,1.793,5.466,16.6,16.6,0,0,0-2.079-.409l-.762-.1a6.128,6.128,0,0,1-3.544-1.735A2.635,2.635,0,0,0,39.488,33.088Zm1.078,14.588-3.488.7a14.986,14.986,0,0,1-2.929.29H21.755a.954.954,0,0,1-.96-.724.878.878,0,0,1,.866-1.037h7.026a.878.878,0,0,0,0-1.756H18.242a.954.954,0,0,1-.96-.724.878.878,0,0,1,.866-1.033H28.686a.878.878,0,0,0,0-1.756H14.635a.878.878,0,0,1-.866-1.032.953.953,0,0,1,.96-.725H28.686a.878.878,0,0,0,0-1.756H16.391a.878.878,0,0,1-.866-1.032.953.953,0,0,1,.96-.725H30.712a2.635,2.635,0,0,0,2.524-3.391l-.686-2.318a2.39,2.39,0,0,1,1.659-2.993l1.107,3.688A7.909,7.909,0,0,0,41.9,36.928l.762.095a14.95,14.95,0,0,1,3.169.754l10.077,3.6v8.756l-7.49-2.141a16.784,16.784,0,0,0-7.857-.318ZM49.8,50.343c-.105-.076-.215-.146-.322-.22l6.435,1.84v2.872Z" transform="translate(-1.462 -2.998)"/>
      <path id="Path_1247717" data-name="Path 1247717" d="M43.116,39.635a.878.878,0,0,1-.324-.061,9.6,9.6,0,0,1-1.828-.966.878.878,0,0,1,.983-1.456,7.843,7.843,0,0,0,1.493.79.878.878,0,0,1-.325,1.695Z" transform="translate(-4.942 -4.507)" fill="#fff"/>
    </g>
  </g>
</svg>
