<svg xmlns="http://www.w3.org/2000/svg" width="87.539" height="87.539" viewBox="0 0 87.539 87.539">
  <g id="Group_1201733" data-name="Group 1201733" transform="translate(-1086.051 -1843)">
    <g id="Group_1201628" data-name="Group 1201628" transform="translate(64.084 -1249.655)">
      <g id="Group_1200255" data-name="Group 1200255" transform="translate(1021.967 3092.655)">
        <g id="Group_1187152" data-name="Group 1187152">
          <g id="Group_1185946" data-name="Group 1185946">
            <g id="Group_1184280" data-name="Group 1184280">
              <g id="Group_1182168" data-name="Group 1182168">
                <g id="Group_1178877" data-name="Group 1178877">
                  <g id="Group_1111311" data-name="Group 1111311">
                    <g id="Group_1098742" data-name="Group 1098742" transform="translate(0 0)">
                      <g id="Rectangle_400898" data-name="Rectangle 400898" transform="translate(0.001 0)" fill="#ffe9b5" stroke="#b18c32" stroke-width="1" opacity="0.859">
                        <rect width="87.539" height="87.539" rx="43.769" stroke="none"/>
                        <rect x="0.5" y="0.5" width="86.539" height="86.539" rx="43.269" fill="none"/>
                      </g>
                      <g id="Rectangle_400907" data-name="Rectangle 400907" transform="translate(0 0)" fill="none" stroke="#b18c32" stroke-width="1">
                        <rect width="87.539" height="87.539" rx="43.769" stroke="none"/>
                        <rect x="0.5" y="0.5" width="86.539" height="86.539" rx="43.269" fill="none"/>
                      </g>
                    </g>
                  </g>
                </g>
              </g>
            </g>
          </g>
        </g>
      </g>
    </g>
    <g id="mundo" transform="translate(1103.947 1861)">
      <g id="Group_1201720" data-name="Group 1201720" transform="translate(12.411 1.006)">
        <circle id="Ellipse_12360" data-name="Ellipse 12360" cx="13.432" cy="13.432" r="13.432" fill="#ccf5fc"/>
      </g>
      <g id="Group_1201731" data-name="Group 1201731" transform="translate(1.109 2.1)">
        <g id="Group_1201721" data-name="Group 1201721" transform="translate(30.821 35.618)">
          <path id="Path_1247678" data-name="Path 1247678" d="M316.4,382.251h5.9a9.5,9.5,0,0,0,8.866-6.1,2.011,2.011,0,0,1,2.249-1.275l.026,0a2,2,0,0,1,1.5,2.677,13.528,13.528,0,0,1-6.547,7.264v2.814H316.4Z" transform="translate(-316.404 -374.844)" fill="#ffda8f"/>
        </g>
        <g id="Group_1201722" data-name="Group 1201722" transform="translate(33.839 35.768)">
          <g id="XMLID_1188_">
            <path id="Path_1247679" data-name="Path 1247679" d="M349.459,376.336a3.06,3.06,0,0,1,3.06,3.06v1.055a3.06,3.06,0,0,1-6.12,0V379.4A3.06,3.06,0,0,1,349.459,376.336Z" transform="translate(-346.399 -376.336)" fill="#ffd0c7"/>
          </g>
        </g>
        <g id="Group_1201723" data-name="Group 1201723" transform="translate(21.647 29.784)">
          <g id="XMLID_1186_" transform="translate(0)">
            <path id="Path_1247680" data-name="Path 1247680" d="M228.333,316.863a3.1,3.1,0,0,0-3.1,3.1v1.067a3.1,3.1,0,0,0,6.191,0v-1.067A3.1,3.1,0,0,0,228.333,316.863Z" transform="translate(-225.238 -316.863)" fill="#ffd0c7"/>
          </g>
        </g>
        <g id="Group_1201724" data-name="Group 1201724" transform="translate(11.417 27.69)">
          <path id="Path_1247681" data-name="Path 1247681" d="M148.553,296.1a2.013,2.013,0,0,0-2.352,1.6,9.491,9.491,0,0,1-18.646,0,2.012,2.012,0,0,0-3.955.749,13.5,13.5,0,0,0,7.187,9.536v8.8h12.182v-8.8a13.5,13.5,0,0,0,7.187-9.535A2.013,2.013,0,0,0,148.553,296.1Z" transform="translate(-123.565 -296.062)" fill="#66e0f7"/>
        </g>
        <g id="Group_1201728" data-name="Group 1201728" transform="translate(11.302)">
          <g id="Group_1201725" data-name="Group 1201725" transform="translate(17.517 6.113)">
            <path id="Path_1247682" data-name="Path 1247682" d="M304.325,81.622h-3.338a5.083,5.083,0,0,0-3.788,1.693,2.725,2.725,0,0,0,2.031,4.542h1.5l1.044,2.76a1.525,1.525,0,0,0-.484,2.077l1.867,3.065.174-.071a13.441,13.441,0,0,0,1-14.066Z" transform="translate(-296.505 -81.622)" fill="#a0e5a5"/>
          </g>
          <g id="Group_1201726" data-name="Group 1201726">
            <path id="Path_1247683" data-name="Path 1247683" d="M122.42,33.208c0,.283.01.564.027.843h.205a4.143,4.143,0,0,1,2.363.74l.655.455a1.3,1.3,0,0,0,2.046-1.07V33.64a1.426,1.426,0,0,1,1.426-1.426,1.426,1.426,0,0,0,1.137-.565l3.345-4.416a2.732,2.732,0,0,0-.274-3.609l-2.814-2.755A13.435,13.435,0,0,0,122.42,33.208Z" transform="translate(-122.42 -20.869)" fill="#a0e5a5"/>
          </g>
          <g id="Group_1201727" data-name="Group 1201727" transform="translate(8.706 13.996)">
            <path id="Path_1247684" data-name="Path 1247684" d="M214.113,171.6l-1.685-4.778a.906.906,0,0,0-.854-.6h-.268a.906.906,0,0,1-.673-.3l-1.094-1.214a2.333,2.333,0,0,1-.449-2.388l.32-.846a2.333,2.333,0,0,1,2.182-1.507h.991a2.855,2.855,0,0,1,2.375,1.271.905.905,0,0,0,.753.4h1.512a.906.906,0,0,1,.906.906v2.84a.906.906,0,0,1-.294.668l-.354.324a.906.906,0,0,0-.26.422l-1.3,4.608Z" transform="translate(-208.94 -159.966)" fill="#a0e5a5"/>
          </g>
        </g>
        <g id="Group_1201729" data-name="Group 1201729" transform="translate(0 35.618)">
          <path id="Path_1247685" data-name="Path 1247685" d="M28.767,382.251h-5.9a9.5,9.5,0,0,1-8.866-6.1,2.011,2.011,0,0,0-2.249-1.275l-.026,0a2,2,0,0,0-1.5,2.677,13.528,13.528,0,0,0,6.547,7.264v2.814H28.767Z" transform="translate(-10.102 -374.844)" fill="#ff7d97"/>
        </g>
        <g id="Group_1201730" data-name="Group 1201730" transform="translate(9.527 35.768)">
          <g id="XMLID_1031_">
            <path id="Path_1247686" data-name="Path 1247686" d="M107.841,376.336a3.06,3.06,0,0,0-3.06,3.06v1.055a3.06,3.06,0,0,0,6.12,0V379.4A3.06,3.06,0,0,0,107.841,376.336Z" transform="translate(-104.781 -376.336)" fill="#ffd0c7"/>
          </g>
        </g>
      </g>
      <g id="Group_1201732" data-name="Group 1201732" transform="translate(0.103 0)">
        <path id="Path_1247687" data-name="Path 1247687" d="M51.216,295.524a3,3,0,0,0-2.061-1.483l-.027-.005a3.018,3.018,0,0,0-3.376,1.9,8.486,8.486,0,0,1-3.821,4.381,4.057,4.057,0,0,0,.143-1.067V298.2a4.072,4.072,0,0,0-3.644-4.044,14.538,14.538,0,0,0,1.675-4.519,3.019,3.019,0,0,0-5.932-1.123,8.468,8.468,0,0,1-4.374,5.911,4.087,4.087,0,0,0,.154-1.107V292.25a4.1,4.1,0,0,0-8.2,0v1.067a4.089,4.089,0,0,0,.158,1.122,8.468,8.468,0,0,1-4.4-5.927,3.019,3.019,0,1,0-5.932,1.123,14.545,14.545,0,0,0,1.677,4.522A4.072,4.072,0,0,0,9.63,298.2v1.055a4.056,4.056,0,0,0,.143,1.067,8.485,8.485,0,0,1-3.821-4.38,3.017,3.017,0,0,0-3.377-1.9l-.024,0A3.007,3.007,0,0,0,.3,298.062a14.479,14.479,0,0,0,6.482,7.511v2.211a1.006,1.006,0,0,0,1.006,1.006H43.917a1.006,1.006,0,0,0,1.006-1.006v-2.211a14.479,14.479,0,0,0,6.482-7.511,3,3,0,0,0-.188-2.538ZM40.062,298.2v1.055a2.054,2.054,0,1,1-4.107,0V298.2a2.054,2.054,0,1,1,4.107,0Zm-5.512,3.19H32.936v-1.8q.515-.289,1.006-.621v.287A4.041,4.041,0,0,0,34.55,301.389ZM23.763,292.25a2.089,2.089,0,0,1,4.178,0v1.067a2.089,2.089,0,0,1-4.178,0Zm-10.055-3.742a1.006,1.006,0,0,1,1.82.379,10.5,10.5,0,0,0,20.623,0,1.006,1.006,0,0,1,1.176-.8h0a1.006,1.006,0,0,1,.8,1.176,12.414,12.414,0,0,1-6.652,8.824,1.006,1.006,0,0,0-.552.9v7.793H20.755v-7.792a1.006,1.006,0,0,0-.552-.9,12.6,12.6,0,0,1-3.383-2.488,4.117,4.117,0,0,0-.311-.332,12.412,12.412,0,0,1-2.958-6,1,1,0,0,1,.157-.754Zm4.055,10.477q.478.321.98.6v1.8H17.154a4.041,4.041,0,0,0,.608-2.136v-.269Zm-6.12-.786a2.054,2.054,0,1,1,4.107,0v1.055a2.054,2.054,0,1,1-4.107,0Zm-3.4,5.872a12.48,12.48,0,0,1-6.06-6.723.995.995,0,0,1,.745-1.332l.024,0a1.008,1.008,0,0,1,1.121.645,10.551,10.551,0,0,0,9.807,6.744h4.864v3.376H8.794v-1.808A1.006,1.006,0,0,0,8.241,304.071Zm41.281-6.723a12.48,12.48,0,0,1-6.06,6.723,1.006,1.006,0,0,0-.552.9v1.808H32.936V303.4h4.89a10.551,10.551,0,0,0,9.807-6.744,1.007,1.007,0,0,1,1.12-.645l.027.005a.995.995,0,0,1,.743,1.331Z" transform="translate(-0.103 -257.271)"/>
        <path id="Path_1247688" data-name="Path 1247688" d="M114.456,19.7a1.006,1.006,0,0,0,.63-1.276,12.336,12.336,0,0,1-.5-2,3.135,3.135,0,0,1,.856.419l.655.455a2.309,2.309,0,0,0,3.627-1.9v-.536a.42.42,0,0,1,.42-.42,2.445,2.445,0,0,0,1.939-.964l3.345-4.416a3.742,3.742,0,0,0-.375-4.938l-1.674-1.626a12.42,12.42,0,0,1,13.573,4.7h-1.532a6.1,6.1,0,0,0-4.538,2.029,3.731,3.731,0,0,0,2.78,6.219h.8l.558,1.474-.493.777a1.446,1.446,0,0,0-.014,1.537l1.9,3.122a12.463,12.463,0,0,1-5.915,3.954l.87-3.088.332-.3a1.916,1.916,0,0,0,.62-1.409v-2.84a1.914,1.914,0,0,0-1.912-1.912h-1.459a3.852,3.852,0,0,0-3.182-1.674h-.991a3.356,3.356,0,0,0-3.123,2.157l-.32.846a3.327,3.327,0,0,0,.642,3.418l1.094,1.214a1.915,1.915,0,0,0,1.42.632h.2l1.224,3.473a12.367,12.367,0,0,1-5.732-1.905,1.006,1.006,0,1,0-1.082,1.7,14.415,14.415,0,1,0-5.924-7.546,1.006,1.006,0,0,0,1.276.63Zm10.087,1.639-1.064-1.18a1.322,1.322,0,0,1-.255-1.358l.32-.846a1.334,1.334,0,0,1,1.241-.857h.991a1.844,1.844,0,0,1,1.538.823,1.908,1.908,0,0,0,1.591.851h1.411v2.7l-.321.294a1.91,1.91,0,0,0-.548.891l-1.162,4.125-.24.025-1.476-4.188a1.915,1.915,0,0,0-1.8-1.276Zm13.131-.793-1.255-2.061.576-.909a1.006,1.006,0,0,0,.091-.9l-.982-2.594a1.006,1.006,0,0,0-.941-.65h-1.5a1.719,1.719,0,0,1-1.281-2.865,4.082,4.082,0,0,1,3.038-1.358h2.709a12.407,12.407,0,0,1-.459,11.332ZM121.327,3.314l2.33,2.263a1.728,1.728,0,0,1,.173,2.28l-3.345,4.416a.422.422,0,0,1-.335.166,2.435,2.435,0,0,0-2.432,2.432v.536a.3.3,0,0,1-.466.244L116.6,15.2a5.124,5.124,0,0,0-2.162-.862,12.44,12.44,0,0,1,6.893-11.02Z" transform="translate(-101.118 0)"/>
        <circle id="Ellipse_12361" data-name="Ellipse 12361" cx="1.006" cy="1.006" r="1.006" transform="translate(14.167 21.727)"/>
      </g>
    </g>
  </g>
</svg>
