<svg xmlns="http://www.w3.org/2000/svg" xmlns:xlink="http://www.w3.org/1999/xlink" width="76.345" height="76.344" viewBox="0 0 76.345 76.344">
  <defs>
    <clipPath id="clip-path">
      <path id="path4295" d="M0-682.665H43.559v43.559H0Z" transform="translate(0 682.665)"/>
    </clipPath>
  </defs>
  <g id="Group_1201769" data-name="Group 1201769" transform="translate(-554.326 -1482.655)">
    <g id="Group_1201315" data-name="Group 1201315" transform="translate(-467.641 -1610)">
      <g id="Group_1200255" data-name="Group 1200255">
        <g id="Group_1187152" data-name="Group 1187152">
          <g id="Group_1185946" data-name="Group 1185946" transform="translate(-3.07)">
            <g id="Group_1184280" data-name="Group 1184280">
              <g id="Group_1182168" data-name="Group 1182168">
                <g id="Group_1178877" data-name="Group 1178877">
                  <g id="Group_1111311" data-name="Group 1111311">
                    <g id="Group_1098742" data-name="Group 1098742" transform="translate(1025.482 3093.101)">
                      <g id="Rectangle_400898" data-name="Rectangle 400898" transform="translate(-0.445 -0.445)" fill="#bccdb2" stroke="#5a8441" stroke-width="1" opacity="0.859">
                        <rect width="76.345" height="76.345" rx="38.172" stroke="none"/>
                        <rect x="0.5" y="0.5" width="75.345" height="75.345" rx="37.672" fill="none"/>
                      </g>
                      <g id="Rectangle_400907" data-name="Rectangle 400907" transform="translate(-0.446 -0.445)" fill="none" stroke="#5a8441" stroke-width="1">
                        <rect width="76.345" height="76.345" rx="38.172" stroke="none"/>
                        <rect x="0.5" y="0.5" width="75.345" height="75.345" rx="37.672" fill="none"/>
                      </g>
                    </g>
                  </g>
                </g>
              </g>
            </g>
          </g>
        </g>
      </g>
    </g>
    <g id="g4281" transform="translate(571.799 2181.186)">
      <g id="g4283" transform="translate(24.517 -659.915)">
        <path id="path4285" d="M-160.407-58.735v-4H-171.34v15.5h10.933V-58.735Z" transform="translate(171.34 62.739)" fill="#f9f5f3"/>
      </g>
      <g id="g4287" transform="translate(35.45 -661.782)">
        <path id="path4289" d="M0-195.958v4.007l7.258-.068v-17.295L0-207.447v11.488Z" transform="translate(0 209.314)" fill="#5c90ae"/>
      </g>
      <g id="g4291" transform="translate(0 -682.665)">
        <g id="g4293" clip-path="url(#clip-path)">
          <g id="g4299" transform="translate(0.851 19.041)">
            <path id="path4301" d="M-347.244-83.758h-1.286c-2.356,0-3.108-1.843-4.044-3.021l-.654-.823a4.933,4.933,0,0,0-3.863-1.865h-5.55l.565,3.668h-6.315a2.041,2.041,0,0,0-2.041,2.041,2.041,2.041,0,0,0,2.04,2.041h-.478a2.041,2.041,0,0,0-2.041,2.041,2.041,2.041,0,0,0,2.041,2.041h1.33a2.041,2.041,0,0,0-2.041,2.041,2.041,2.041,0,0,0,2.041,2.041h.768a2.041,2.041,0,0,0-2.04,2.041,2.041,2.041,0,0,0,2.041,2.041H-356.5a4.933,4.933,0,0,0,3.211-1.188l.667-.572a4.933,4.933,0,0,1,3.211-1.188h2.166Z" transform="translate(370.911 89.466)" fill="#ffc6ae"/>
          </g>
          <g id="g4303" transform="translate(0 18.19)">
            <path id="path4305" d="M-375.124-102.8h5.55a5.754,5.754,0,0,1,4.529,2.186l.654.823c.182.229.358.482.539.742.729,1.05,1.359,1.958,2.839,1.958h1.286a.851.851,0,0,1,.851.851V-84.9a.851.851,0,0,1-.851.851h-2.166a4.085,4.085,0,0,0-2.657.983l-.667.572a5.787,5.787,0,0,1-3.765,1.393h-10.272A2.9,2.9,0,0,1-382.146-84a2.876,2.876,0,0,1,.531-1.669,2.891,2.891,0,0,1-1.3-2.413,2.873,2.873,0,0,1,.385-1.44,2.9,2.9,0,0,1-1.715-2.641,2.888,2.888,0,0,1,1.112-2.278,2.878,2.878,0,0,1-.633-1.8,2.9,2.9,0,0,1,2.892-2.892h5.323l-.414-2.687a.851.851,0,0,1,.2-.683A.851.851,0,0,1-375.124-102.8Zm14.546,7.41h-.436c-2.37,0-3.449-1.554-4.237-2.689-.159-.229-.313-.452-.473-.654l-.654-.823a4.061,4.061,0,0,0-3.2-1.543h-4.558l.414,2.687a.851.851,0,0,1-.2.683.851.851,0,0,1-.646.3h-6.315a1.191,1.191,0,0,0-1.19,1.19,1.191,1.191,0,0,0,1.19,1.19.851.851,0,0,1,.851.851.851.851,0,0,1-.851.851h-.478a1.192,1.192,0,0,0-1.19,1.19,1.191,1.191,0,0,0,1.19,1.19h1.33a.851.851,0,0,1,.851.851.851.851,0,0,1-.851.851,1.191,1.191,0,0,0-1.19,1.19,1.191,1.191,0,0,0,1.19,1.19h.768a.851.851,0,0,1,.851.851.851.851,0,0,1-.851.851,1.192,1.192,0,0,0-1.19,1.19,1.191,1.191,0,0,0,1.19,1.19h10.272a4.085,4.085,0,0,0,2.657-.983l.667-.572a5.787,5.787,0,0,1,3.765-1.393h1.316Z" transform="translate(384.244 102.8)"/>
          </g>
          <g id="g4307" transform="translate(2.891 0.867)">
            <path id="path4309" d="M-99.7-320.474l-3.128-20.279a1.844,1.844,0,0,0-1.823-1.563,1.844,1.844,0,0,0-1.822,2.131l3.112,19.711Z" transform="translate(106.491 342.317)" fill="#f9f5f3"/>
          </g>
          <g id="g4311" transform="translate(8.78 39.035)">
            <path id="path4313" d="M-51.686,0l.223,1.672A1.754,1.754,0,0,1-53.2,3.657a1.754,1.754,0,0,1-1.741-1.538L-55.209,0Z" transform="translate(55.209)" fill="#f9f5f3"/>
          </g>
          <g id="g4315" transform="translate(2.04 0.016)">
            <path id="path4317" d="M-112.174-332.106h-3.66a.851.851,0,0,1-.84-.718l-3.112-19.711a2.691,2.691,0,0,1,.613-2.171,2.691,2.691,0,0,1,2.049-.944,2.68,2.68,0,0,1,2.663,2.284l3.128,20.279a.851.851,0,0,1-.2.684A.851.851,0,0,1-112.174-332.106Zm-2.933-1.7h1.941l-2.977-19.3a.988.988,0,0,0-.982-.842.979.979,0,0,0-.755.348.979.979,0,0,0-.226.8Z" transform="translate(119.82 355.65)"/>
          </g>
          <g id="g4319" transform="translate(7.93 38.185)">
            <path id="path4321" d="M-67.692-13.333h3.523a.851.851,0,0,1,.843.738l.223,1.672a2.605,2.605,0,0,1-.623,2.06,2.605,2.605,0,0,1-1.959.888,2.608,2.608,0,0,1-2.585-2.284l-.266-2.117a.851.851,0,0,1,.206-.669A.851.851,0,0,1-67.692-13.333Zm2.778,1.7h-1.814l.146,1.162a.9.9,0,0,0,.9.794.892.892,0,0,0,.68-.308.891.891,0,0,0,.216-.714Z" transform="translate(68.543 13.333)"/>
          </g>
          <g id="g4323" transform="translate(6.591 2.665)">
            <path id="path4325" d="M0,0H10.274L8.882,10.2H1.554Z" fill="#ff7e96"/>
          </g>
          <g id="g4327" transform="translate(15.077 5.561)">
            <path id="path4329" d="M-20.434,0H-13l-2.177,5.271,3.731,4.931H-21.827Z" transform="translate(21.827)" fill="#ff7e96"/>
          </g>
          <g id="g4331" transform="translate(5.74 1.815)">
            <path id="path4333" d="M-12.483-13.333H-2.208a.851.851,0,0,1,.641.291.851.851,0,0,1,.2.674l-1.393,10.2a.851.851,0,0,1-.843.736h-7.328a.851.851,0,0,1-.841-.723l-1.554-10.2a.851.851,0,0,1,.2-.683A.851.851,0,0,1-12.483-13.333Zm9.3,1.7h-8.309l1.295,8.5h5.854Z" transform="translate(13.333 13.333)"/>
          </g>
          <g id="g4335" transform="translate(14.226 4.71)">
            <path id="path4337" d="M-32.917-13.333h7.434a.851.851,0,0,1,.707.378.851.851,0,0,1,.079.8l-1.991,4.822,3.437,4.543a.851.851,0,0,1,.083.892.851.851,0,0,1-.762.472H-34.309a.851.851,0,0,1-.641-.291.851.851,0,0,1-.2-.674l1.393-10.2A.851.851,0,0,1-32.917-13.333Zm6.163,1.7h-5.42l-1.16,8.5h7.7l-2.7-3.567a.851.851,0,0,1-.108-.838Z" transform="translate(35.16 13.333)"/>
          </g>
          <g id="g4339" transform="translate(8.769 21.858)">
            <path id="path4341" d="M-8.514-11.632h-3.969a.851.851,0,0,1-.851-.851.851.851,0,0,1,.851-.851h3.969a.851.851,0,0,1,.851.851A.851.851,0,0,1-8.514-11.632Z" transform="translate(13.333 13.333)"/>
          </g>
          <g id="g4343" transform="translate(23.667 21.899)">
            <path id="path4345" d="M-172.889-58.875h-10.933a.851.851,0,0,1-.851-.851v-15.5a.851.851,0,0,1,.851-.851h10.933a.851.851,0,0,1,.851.851v4a.851.851,0,0,1-.851.851.851.851,0,0,1-.851-.851V-74.37h-9.231v13.794h9.231v-3.157a.851.851,0,0,1,.851-.851.851.851,0,0,1,.851.851v4.007A.851.851,0,0,1-172.889-58.875Z" transform="translate(184.673 76.072)"/>
          </g>
          <g id="g4347" transform="translate(35.45 30.498)">
            <path id="path4349"/>
          </g>
          <g id="g4351" transform="translate(34.599 20.032)">
            <path id="path4353" d="M-12.483-203.583a.851.851,0,0,1-.6-.246.851.851,0,0,1-.252-.6v-4.007a.851.851,0,0,1,.851-.851.851.851,0,0,1,.851.851v3.149l5.556-.052V-220.7l-5.556,1.43v3.344a.851.851,0,0,1-.851.851.851.851,0,0,1-.851-.851v-4a.851.851,0,0,1,.639-.824l7.258-1.867a.851.851,0,0,1,.733.152.851.851,0,0,1,.329.672V-204.5a.851.851,0,0,1-.843.851l-7.258.068Z" transform="translate(13.333 222.648)"/>
          </g>
        </g>
      </g>
    </g>
  </g>
</svg>
