<svg xmlns="http://www.w3.org/2000/svg" width="76.345" height="76.345" viewBox="0 0 76.345 76.345">
  <g id="Group_1201766" data-name="Group 1201766" transform="translate(-762.051 -638)">
    <g id="Group_1201313" data-name="Group 1201313" transform="translate(-259.916 -2454.655)">
      <g id="Group_1200255" data-name="Group 1200255">
        <g id="Group_1187152" data-name="Group 1187152">
          <g id="Group_1185946" data-name="Group 1185946" transform="translate(-3.07)">
            <g id="Group_1184280" data-name="Group 1184280">
              <g id="Group_1182168" data-name="Group 1182168">
                <g id="Group_1178877" data-name="Group 1178877">
                  <g id="Group_1111311" data-name="Group 1111311">
                    <g id="Group_1098742" data-name="Group 1098742" transform="translate(1025.482 3093.101)">
                      <g id="Rectangle_400898" data-name="Rectangle 400898" transform="translate(-0.445 -0.445)" fill="#ffe9b5" stroke="#b18c32" stroke-width="1" opacity="0.859">
                        <rect width="76.345" height="76.345" rx="38.172" stroke="none"/>
                        <rect x="0.5" y="0.5" width="75.345" height="75.345" rx="37.672" fill="none"/>
                      </g>
                      <g id="Rectangle_400907" data-name="Rectangle 400907" transform="translate(-0.446 -0.445)" fill="none" stroke="#b18c32" stroke-width="1">
                        <rect width="76.345" height="76.345" rx="38.172" stroke="none"/>
                        <rect x="0.5" y="0.5" width="75.345" height="75.345" rx="37.672" fill="none"/>
                      </g>
                    </g>
                  </g>
                </g>
              </g>
            </g>
          </g>
        </g>
      </g>
    </g>
    <g id="agil" transform="translate(774.051 650)">
      <g id="Group_1201764" data-name="Group 1201764" transform="translate(6.641 1.806)">
        <g id="Group_1201752" data-name="Group 1201752" transform="translate(36.261 9.669)">
          <path id="Path_1247757" data-name="Path 1247757" d="M57.835,14v1.612a1.616,1.616,0,0,1-1.612,1.612H54.612A1.616,1.616,0,0,1,53,15.612V14h4.835Z" transform="translate(-53 -14)" fill="#aab2bd"/>
        </g>
        <g id="Group_1201753" data-name="Group 1201753" transform="translate(33.843)">
          <path id="Path_1247758" data-name="Path 1247758" d="M54.835,11.669H52.417l-1.45-1.934a4.835,4.835,0,1,1,7.736,0l-1.45,1.934Z" transform="translate(-50 -2)" fill="#ffeaa7"/>
        </g>
        <g id="Group_1201754" data-name="Group 1201754" transform="translate(37.524 3.234)">
          <circle id="Ellipse_12364" data-name="Ellipse 12364" cx="1.378" cy="1.378" r="1.378" transform="translate(0 0)" fill="#fcd770"/>
        </g>
        <g id="Group_1201755" data-name="Group 1201755" transform="translate(0 22.014)">
          <path id="Path_1247759" data-name="Path 1247759" d="M25.212,39.384l-1.741.991a7.6,7.6,0,0,0-1.241-.516L21.7,37.926H18.475l-.532,1.934a7.6,7.6,0,0,0-1.241.516l-1.741-.991-.218.218H8v-.83a9.738,9.738,0,0,1,7.357-9.452l.7,6.994,4.029-4.029,4.029,4.029.7-6.994a9.738,9.738,0,0,1,7.357,9.444V39.6H25.429Z" transform="translate(-8 -29.32)" fill="#b4dd7f"/>
        </g>
        <g id="Group_1201756" data-name="Group 1201756" transform="translate(12.087 21.756)">
          <path id="Path_1247760" data-name="Path 1247760" d="M27.73,29.258l-.7,6.994L23,32.223,26.223,29A9.2,9.2,0,0,1,27.73,29.258Z" transform="translate(-23 -29)" fill="#a0d468"/>
        </g>
        <g id="Group_1201757" data-name="Group 1201757" transform="translate(7.357 21.756)">
          <path id="Path_1247761" data-name="Path 1247761" d="M21.86,32.223l-4.029,4.029-.7-6.994A9.2,9.2,0,0,1,18.637,29Z" transform="translate(-17.13 -29)" fill="#a0d468"/>
        </g>
        <g id="Group_1201758" data-name="Group 1201758" transform="translate(3.223 30.62)">
          <path id="Path_1247762" data-name="Path 1247762" d="M17.479,42.45a7.6,7.6,0,0,1,1.241-.516L19.252,40h3.223l.532,1.934a7.6,7.6,0,0,1,1.241.516l1.741-.991.218.218,2.063,2.063-.991,1.741a7.6,7.6,0,0,1,.516,1.241l1.934.532v3.223l-1.934.532a7.6,7.6,0,0,1-.516,1.241l.991,1.741-2.28,2.28-1.741-.991a7.6,7.6,0,0,1-1.241.516l-.532,1.934H19.252l-.532-1.934a7.6,7.6,0,0,1-1.241-.516l-1.741.991-2.28-2.28.991-1.741a7.6,7.6,0,0,1-.516-1.241L12,50.475V47.252l1.934-.532a7.6,7.6,0,0,1,.516-1.241l-.991-1.741,2.063-2.063.218-.218Zm7.413,6.414a4.029,4.029,0,1,0-4.029,4.029A4.03,4.03,0,0,0,24.893,48.864Z" transform="translate(-12 -40)" fill="#fcd770"/>
        </g>
        <g id="Group_1201759" data-name="Group 1201759" transform="translate(2.417 0)">
          <path id="Path_1247763" data-name="Path 1247763" d="M21.475,8.446H19.058a4.832,4.832,0,0,0-4.585,3.312l-.25-.089h-.806a2.407,2.407,0,0,0-1.845.854c-.113-.411-.21-.822-.29-1.241A15.934,15.934,0,0,1,11,8.317a3.953,3.953,0,0,1,3-3.844l.226-.056.564-.564A6.332,6.332,0,0,1,19.259,2h4.762a6.318,6.318,0,0,1,6.14,4.835,6.437,6.437,0,0,1,.177,1.483,15.934,15.934,0,0,1-.282,2.965l-.29,1.241a2.407,2.407,0,0,0-1.845-.854h-.806A1.616,1.616,0,0,0,25.5,10.058H24.7a4.037,4.037,0,0,1-3.223-1.612Z" transform="translate(-11 -2)" fill="#656d78"/>
        </g>
        <g id="Group_1201760" data-name="Group 1201760" transform="translate(18.533 9.669)">
          <path id="Path_1247764" data-name="Path 1247764" d="M33.651,14.854a2.419,2.419,0,0,1-1.845,3.981H31V14h.806a2.407,2.407,0,0,1,1.845.854Z" transform="translate(-31 -14)" fill="#f0d0b4"/>
        </g>
        <g id="Group_1201761" data-name="Group 1201761" transform="translate(8.864 19.21)">
          <path id="Path_1247765" data-name="Path 1247765" d="M24.939,25.84l.508,2.546-3.223,3.223L19,28.386l.508-2.546a4.549,4.549,0,0,0,1.1.129h3.223A4.549,4.549,0,0,0,24.939,25.84Z" transform="translate(-19 -25.84)" fill="#f0d0b4"/>
        </g>
        <g id="Group_1201762" data-name="Group 1201762" transform="translate(5.641 6.446)">
          <path id="Path_1247766" data-name="Path 1247766" d="M27.893,13.223v4.835a4.839,4.839,0,0,1-3.731,4.706,4.549,4.549,0,0,1-1.1.129H19.835a4.549,4.549,0,0,1-1.1-.129A4.839,4.839,0,0,1,15,18.058V14.835A4.848,4.848,0,0,1,19.835,10h2.417a4.037,4.037,0,0,0,3.223,1.612h.806a1.616,1.616,0,0,1,1.612,1.612Z" transform="translate(-15 -10)" fill="#f0d0b4"/>
        </g>
        <g id="Group_1201763" data-name="Group 1201763" transform="translate(2.417 9.669)">
          <path id="Path_1247767" data-name="Path 1247767" d="M14.473,14.089a4.789,4.789,0,0,0-.25,1.523v3.223h-.806a2.417,2.417,0,1,1,0-4.835h.806Z" transform="translate(-11 -14)" fill="#f0d0b4"/>
        </g>
      </g>
      <g id="Group_1201765" data-name="Group 1201765" transform="translate(1 1)">
        <path id="Path_1247768" data-name="Path 1247768" d="M21.835,45a4.835,4.835,0,1,0,4.835,4.835A4.84,4.84,0,0,0,21.835,45Zm0,8.058a3.223,3.223,0,1,1,3.223-3.223A3.226,3.226,0,0,1,21.835,53.058Z" transform="translate(-4.107 -9.545)"/>
        <path id="Path_1247769" data-name="Path 1247769" d="M36.691,37.024l3.459,3.459H28.4v-.37a17.8,17.8,0,0,0,.591-29.388,16.474,16.474,0,0,0,.215-2.6c0-.228-.013-.453-.034-.675h6.952L34.273,9.294l1.139,1.139,3.793-3.793L35.413,2.848,34.273,3.987l1.848,1.848h-7.3A7.128,7.128,0,0,0,22.081,1H17.314a7.074,7.074,0,0,0-5.035,2.085l-.41.41-.006,0a4.76,4.76,0,0,0-3.61,4.624,16.475,16.475,0,0,0,.215,2.6,17.8,17.8,0,0,0,.591,29.388v.37H1V42.1H9.058v1.421l2.115.579c.069.185.146.369.23.552l-1.088,1.906L13.465,49.7l1.906-1.088c.183.084.367.161.552.23l.578,2.114h4.453l.579-2.115c.185-.069.369-.146.552-.23L23.991,49.7l3.149-3.149-1.088-1.907c.084-.183.161-.367.23-.552l2.114-.578V42.1H40.15l-3.459,3.459,1.139,1.139,5.4-5.4-5.4-5.4ZM34.843,25.174a15.99,15.99,0,0,1-7.388,13.632l-1.173-.321c-.069-.185-.146-.369-.23-.552l1.088-1.907L26.017,34.9h5.6V33.267A10.5,10.5,0,0,0,22.627,22.83l-.253-1.267a5.647,5.647,0,0,0,3.542-4.45h.064A3.226,3.226,0,0,0,29.2,13.891a3.192,3.192,0,0,0-.219-1.143A16.094,16.094,0,0,1,34.843,25.174Zm-21.378,7.7-.415.415h-5.6v-.025A8.885,8.885,0,0,1,13.3,24.88l.77,7.707,4.661-4.661,4.661,4.661.77-7.707a8.887,8.887,0,0,1,5.849,8.388L24.4,33.29l-.413-.413-1.906,1.088c-.183-.084-.367-.161-.552-.23l-.578-2.114H16.5l-.578,2.115c-.185.069-.369.147-.552.23Zm8.773-8.463c.115.015.23.028.344.048l-.458,4.58-2.257-2.257Zm-1.9-4.076H17.116a4.034,4.034,0,0,1-4.029-4.029V13.087a4.034,4.034,0,0,1,4.029-4.029h2.04a4.822,4.822,0,0,0,3.6,1.612h.806a.807.807,0,0,1,.806.806V16.31A4.034,4.034,0,0,1,20.339,20.339Zm-3.223,1.612h3.223c.156,0,.309-.011.463-.023l.274,1.371-2.348,2.348L16.379,23.3l.274-1.371c.154.013.307.024.463.024Zm-1.9,2.464,2.371,2.371-2.257,2.257-.458-4.58c.114-.019.229-.032.344-.048ZM25.979,12.281a1.612,1.612,0,0,1,0,3.223ZM12.254,5.061l.439-.11.725-.725a5.474,5.474,0,0,1,3.9-1.614h4.767a5.516,5.516,0,0,1,5.509,5.51,14.9,14.9,0,0,1-.279,2.844,3.2,3.2,0,0,0-1.333-.3h-.148a2.414,2.414,0,0,0-2.269-1.612h-.806a3.226,3.226,0,0,1-3.223-3.223H17.922A4.812,4.812,0,0,0,18.2,7.446H17.116a5.642,5.642,0,0,0-5.089,3.223h-.552a3.2,3.2,0,0,0-1.333.3,14.9,14.9,0,0,1-.279-2.844,3.15,3.15,0,0,1,2.39-3.06Zm-.778,8.026V15.5a1.612,1.612,0,0,1,0-3.223h.064A5.661,5.661,0,0,0,11.475,13.087ZM2.612,25.174A16.089,16.089,0,0,1,8.471,12.75a3.188,3.188,0,0,0-.219,1.143,3.226,3.226,0,0,0,3.223,3.223h.064a5.649,5.649,0,0,0,3.542,4.45l-.254,1.267A10.5,10.5,0,0,0,5.835,33.268V34.9h5.6l-1.122,1.122L11.4,37.933c-.084.183-.161.367-.23.552L10,38.806A15.992,15.992,0,0,1,2.612,25.174ZM26.785,42.286l-1.767.483-.131.423a6.4,6.4,0,0,1-.461,1.1l-.206.392.91,1.595-1.41,1.409-1.594-.909-.391.206a6.469,6.469,0,0,1-1.106.461l-.423.131-.483,1.765H17.731l-.483-1.767-.423-.131a6.424,6.424,0,0,1-1.1-.461l-.392-.206-1.595.91-1.41-1.41.91-1.595-.206-.392a6.435,6.435,0,0,1-.461-1.1l-.131-.423-1.766-.482V40.293l1.767-.483.131-.423a6.4,6.4,0,0,1,.461-1.1l.206-.392-.91-1.595,1.41-1.41,1.595.91.392-.206a6.435,6.435,0,0,1,1.1-.461L17.249,35l.482-1.765h1.994L20.208,35l.423.131a6.431,6.431,0,0,1,1.106.461l.391.206,1.594-.909,1.41,1.409-.91,1.595.206.392a6.435,6.435,0,0,1,.461,1.1l.131.423,1.767.483v1.992Z" transform="translate(-1 -1)"/>
        <circle id="Ellipse_12365" data-name="Ellipse 12365" cx="0.918" cy="0.918" r="0.918" transform="translate(13.776 11.387)"/>
        <circle id="Ellipse_12366" data-name="Ellipse 12366" cx="0.918" cy="0.918" r="0.918" transform="translate(20.205 11.387)"/>
        <path id="Path_1247770" data-name="Path 1247770" d="M23.223,20.612H20v1.612h3.223A3.226,3.226,0,0,0,26.446,19H24.835A1.613,1.613,0,0,1,23.223,20.612Z" transform="translate(-4.69 -4.496)"/>
        <path id="Path_1247771" data-name="Path 1247771" d="M54.641,1a5.641,5.641,0,0,0-4.512,9.025l1.289,1.719v1.343A2.42,2.42,0,0,0,53.835,15.5h1.612a2.42,2.42,0,0,0,2.417-2.417V11.744l1.289-1.719A5.641,5.641,0,0,0,54.641,1Zm.806,12.893H53.835a.807.807,0,0,1-.806-.806v-.806h3.223v.806A.807.807,0,0,1,55.446,13.893ZM53.835,6.641a.806.806,0,1,1,.806.806A.807.807,0,0,1,53.835,6.641Zm4.029,2.417-1.209,1.612H55.446V8.91a2.417,2.417,0,1,0-1.612,0v1.76H52.626L51.417,9.058a4.029,4.029,0,1,1,6.446,0Z" transform="translate(-10.322 -1)"/>
      </g>
    </g>
  </g>
</svg>
