<svg xmlns="http://www.w3.org/2000/svg" xmlns:xlink="http://www.w3.org/1999/xlink" width="410" height="213" viewBox="0 0 410 213">
  <defs>
    <clipPath id="clip-path">
      <rect id="Rectangle_410902" data-name="Rectangle 410902" width="355.278" height="186.027" fill="none"/>
    </clipPath>
    <clipPath id="clip-path-3">
      <rect id="Rectangle_410847" data-name="Rectangle 410847" width="39.961" height="10.123" fill="none"/>
    </clipPath>
    <clipPath id="clip-path-4">
      <rect id="Rectangle_410848" data-name="Rectangle 410848" width="48.414" height="12.264" fill="none"/>
    </clipPath>
    <clipPath id="clip-path-5">
      <rect id="Rectangle_410849" data-name="Rectangle 410849" width="64.271" height="10.74" fill="none"/>
    </clipPath>
    <clipPath id="clip-path-6">
      <rect id="Rectangle_410851" data-name="Rectangle 410851" width="127.84" height="85.012" fill="none"/>
    </clipPath>
  </defs>
  <g id="Group_1201626" data-name="Group 1201626" transform="translate(-390.051 -509)">
    <rect id="Rectangle_410727" data-name="Rectangle 410727" width="410" height="213" transform="translate(390.051 509)" fill="#bccdb2"/>
    <g id="Group_1201625" data-name="Group 1201625" transform="translate(417.412 525.406)">
      <g id="Group_1201624" data-name="Group 1201624" transform="translate(0 10.567)" clip-path="url(#clip-path)">
        <g id="Group_1201623" data-name="Group 1201623" transform="translate(0 0)">
          <g id="Group_1201622" data-name="Group 1201622" clip-path="url(#clip-path)">
            <g id="Group_1201612" data-name="Group 1201612" transform="translate(88.191 78.85)" opacity="0.5">
              <g id="Group_1201611" data-name="Group 1201611">
                <g id="Group_1201610" data-name="Group 1201610" clip-path="url(#clip-path-3)">
                  <path id="Path_1247235" data-name="Path 1247235" d="M723.994,656.812s2-5.589,6.776-4.968c0,0,6.937-9.315,14.334-1.242,0,0,7.863-2,13.686,1.732a14.642,14.642,0,0,1,5.165,5.1Z" transform="translate(-723.994 -647.31)" fill="#f8fcff"/>
                </g>
              </g>
            </g>
            <g id="Group_1201615" data-name="Group 1201615" transform="translate(59.261 57.322)" opacity="0.5">
              <g id="Group_1201614" data-name="Group 1201614">
                <g id="Group_1201613" data-name="Group 1201613" clip-path="url(#clip-path-4)">
                  <path id="Path_1247236" data-name="Path 1247236" d="M486.5,482.087s2.421-6.771,8.209-6.019c0,0,8.4-11.286,17.366-1.5,0,0,9.526-2.423,16.581,2.1,4.7,3.015,6.258,6.178,6.258,6.178Z" transform="translate(-486.5 -470.576)" fill="#f8fcff"/>
                </g>
              </g>
            </g>
            <g id="Group_1201618" data-name="Group 1201618" transform="translate(140.366 52.945)" opacity="0.5">
              <g id="Group_1201617" data-name="Group 1201617">
                <g id="Group_1201616" data-name="Group 1201616" clip-path="url(#clip-path-5)">
                  <path id="Path_1247237" data-name="Path 1247237" d="M1152.316,444.724a11.324,11.324,0,0,1,10.9-5.271s11.157-9.883,23.054-1.318c0,0,12.647-2.122,22.013,1.838,6.245,2.64,8.307,5.41,8.307,5.41Z" transform="translate(-1152.317 -434.642)" fill="#f8fcff"/>
                </g>
              </g>
            </g>
            <path id="Path_1247238" data-name="Path 1247238" d="M376.164,170.6c-.229.977-.487,1.98-.774,2.983-.259,1-.6,2.066-.975,3.128-.173.515-.374,1.033-.545,1.548-.6,1.636-1.291,3.327-2.123,5.077-.259.573-.517,1.176-.8,1.751-.072.179-.156.359-.242.538-.052.107-.107.214-.16.32H336.436l-9.982-.027H237.075l-12.629-.014h-.039l-13.306-.016H142.158l-28.741-.028H61.441s-.017-.047-.053-.14c-.009-.028-.02-.06-.034-.1l-.171-.454-.028-.057v-.028a.106.106,0,0,1-.028-.058,7.951,7.951,0,0,1-.316-.8c-.058-.144-.115-.317-.2-.488v-.058l-.028-.028c-.394-1.024-.882-2.356-1.446-3.967q-.075-.219-.155-.443c-.422-1.217-.887-2.579-1.382-4.08-1.176-3.642-2.525-8.089-3.844-13.108-.516-1.98-1.033-4.044-1.521-6.2-.287-1.242-.576-2.536-.852-3.842q-.12-.575-.237-1.149c-.507-2.446-.984-4.966-1.415-7.541-.567-3.382-1.053-6.858-1.424-10.387q-.276-2.6-.463-5.231c0-.045-.008-.093-.009-.138s-.008-.094-.011-.141c-.17-2.471-.276-4.96-.308-7.447q-.038-3,.074-6c.057-1.349.143-2.7.229-4.046.229-2.868.573-5.737,1.061-8.519.316-1.893.716-3.787,1.176-5.622A63.821,63.821,0,0,1,54.7,82.91c.717-1.405,1.463-2.782,2.3-4.131,1.864-3.069,3.757-5.938,5.68-8.634H62.7c1-1.433,2.008-2.782,3.011-4.074A106.762,106.762,0,0,1,77.132,53.393C124.316,9.249,178.414,51.845,211.89,22.214c32.727-28.942,93.969-29.372,121.361-2.668.516.517,1.061,1.033,1.578,1.606a44.5,44.5,0,0,1,9.957,16.482,47.412,47.412,0,0,1,2.365,15.887q-.014.907-.058,1.831a61.189,61.189,0,0,1-.959,8.148q-.511,2.788-1.294,5.7a94.91,94.91,0,0,1-5.391,14.629q-.346.73-.689,1.463c-7.486,15.661-1.319,25.04,8.118,33.617,5.822,5.307,12.851,10.3,18.7,16.264.774.8,1.52,1.606,2.266,2.438.286.331.567.663.845,1,.782.944,1.534,1.908,2.253,2.9q.546.772,1.055,1.57a35.135,35.135,0,0,1,2.644,4.95A32.3,32.3,0,0,1,376,151.8a31.847,31.847,0,0,1,1.057,5.228,39.907,39.907,0,0,1-.893,13.568" transform="translate(-41.717 0.003)" fill="#dde6d8"/>
            <path id="Path_1247239" data-name="Path 1247239" d="M290.189,1106.568H186.506l-43.223-.028H65.118s-.046-.079-.133-.235c-.063-.111-.148-.262-.258-.454l-.042-.056v-.028s-.042-.03-.042-.058a6.7,6.7,0,0,1-.474-.8,5.016,5.016,0,0,0-.3-.488v-.058l-.043-.028c-.592-1.024-1.327-2.357-2.174-3.968l-.232-.443c-.422-1.217-.887-2.579-1.382-4.08-1.176-3.642-2.525-8.089-3.843-13.108-.516-1.98-1.033-4.044-1.521-6.2-.287-1.242-.576-2.536-.853-3.842q-.12-.574-.237-1.149c-.507-2.446-.984-4.966-1.415-7.541-.845-5.041-1.512-10.294-1.887-15.619,33.573,1.73,98.292,6.285,146.972,17.157,68.69,15.341,85.665,17.818,114.764,20.57,16.284,1.54-2.3,11.756-21.825,20.456" transform="translate(-44.154 -920.678)" fill="#ffcf83"/>
            <path id="Path_1247240" data-name="Path 1247240" d="M1519.477,975.861l-2.434,47.608h2.434l1.1-47.608Z" transform="translate(-1332.25 -856.989)" fill="#adc8fe"/>
            <path id="Path_1247241" data-name="Path 1247241" d="M1538.61,866.844l.618,2.931,11.075-13.144Z" transform="translate(-1351.189 -752.284)" fill="#adc8fe"/>
            <path id="Path_1247242" data-name="Path 1247242" d="M1549.744,967.758l-2.988-.223,9.536,14.3Z" transform="translate(-1358.343 -849.677)" fill="#adc8fe"/>
            <path id="Path_1247243" data-name="Path 1247243" d="M1409.851,970.94l1.734-2.443-17.17.778Z" transform="translate(-1224.56 -850.522)" fill="#adc8fe"/>
            <path id="Path_1247244" data-name="Path 1247244" d="M1529.951,957.883a1.339,1.339,0,1,1,1.339,1.339,1.339,1.339,0,0,1-1.339-1.339" transform="translate(-1343.586 -840.026)" fill="#adc8fe"/>
            <path id="Path_1247245" data-name="Path 1247245" d="M542.962,1113.747s-88.857-24.365-116.869-26.819-1.177,3.281-1.177,3.281,76.043,20,93.833,28.253,24.213-4.715,24.213-4.715" transform="translate(-362.982 -953.991)" fill="#f7c274"/>
            <path id="Path_1247246" data-name="Path 1247246" d="M436.762,1137.463s-76.829-36.863-101.919-43.783-1.617,2.753-1.617,2.753,65.891,30.786,80.713,41.2,22.823-.167,22.823-.167" transform="translate(-283.881 -958.266)" fill="#f7c274"/>
            <path id="Path_1247247" data-name="Path 1247247" d="M1010.988,1049.037,1009,1088.006h1.992l.9-38.969Z" transform="translate(-886.088 -921.252)" fill="#adc8fe"/>
            <path id="Path_1247248" data-name="Path 1247248" d="M1026.648,959.806l.506,2.4,9.065-10.759Z" transform="translate(-901.591 -835.549)" fill="#adc8fe"/>
            <path id="Path_1247249" data-name="Path 1247249" d="M1035.762,1042.4l-2.446-.183,7.806,11.7Z" transform="translate(-907.446 -915.267)" fill="#adc8fe"/>
            <path id="Path_1247250" data-name="Path 1247250" d="M921.257,1045.01l1.42-2-14.054.637Z" transform="translate(-797.942 -915.96)" fill="#adc8fe"/>
            <path id="Path_1247251" data-name="Path 1247251" d="M1019.561,1034.322a1.1,1.1,0,1,1,1.1,1.1,1.1,1.1,0,0,1-1.1-1.1" transform="translate(-895.367 -907.367)" fill="#adc8fe"/>
            <path id="Path_1247252" data-name="Path 1247252" d="M405.008,1154.8q-.273,3.563-.893,7.418c-.009.058-.019.115-.03.174-.221,1.314-.469,2.661-.744,4.008-.259,1.408-.6,2.9-.975,4.384-.173.722-.374,1.448-.545,2.17-.6,2.294-1.291,4.663-2.123,7.117-.259.8-.517,1.649-.8,2.454-.072.251-.156.5-.242.755H89.3l-.171-.636-.028-.08v-.039a.176.176,0,0,1-.028-.082c-.115-.32-.2-.685-.316-1.124-.058-.2-.115-.444-.2-.685v-.082l-.028-.039c-.394-1.435-.882-3.3-1.446-5.561-.465-1.86-.981-3.98-1.537-6.341-1.176-5.106-2.525-11.337-3.844-18.374-.516-2.774-1.033-5.669-1.521-8.685-.287-1.741-.576-3.554-.852-5.385,28.356,10.772,101.281,34.979,153.36,21.442,9.359-2.432,19.685-4.61,30.52-6.557q3.631-.655,7.335-1.271c28.092-4.7,58.805-7.959,84.543-10.2h.006l.889-.077.87-.075,1.053-.091c.729-.061,1.452-.124,2.173-.184l.281-.023,1.65-.138q3.033-.254,5.949-.487l1.3-.1,1.43-.115,1.9-.149,1.16-.09,2.046-.157.992-.075,1.352-.1c.036,0,.072-.006.11-.008l2.176-.163.683-.05.03,0h.017c5.8-.43,11.017-.794,15.477-1.1.782.943,1.534,1.908,2.253,2.9q.546.773,1.055,1.57a35.145,35.145,0,0,1,2.644,4.95,32.3,32.3,0,0,1,1.358,3.77,31.856,31.856,0,0,1,1.057,5.228" transform="translate(-69.668 -997.772)" fill="#82b378"/>
            <path id="Path_1247253" data-name="Path 1247253" d="M1340.071,1247.928c-7.351,4.133-23.2,14.712-32.939,33.5-.069.13-.136.262-.2.394l-7.4-.394-2.316-.123c.223-.627,10.551-16.284,35.528-32.1q3.631-.654,7.335-1.272" transform="translate(-1139.193 -1095.916)" fill="#6e9e63"/>
            <path id="Path_1247254" data-name="Path 1247254" d="M1424.68,1266.491c.236-.66,12.246-18.93,41.918-35.462l2.335,1.826s-22.823,10.03-35.069,34.127Z" transform="translate(-1251.138 -1081.075)" fill="#6e9e63"/>
            <path id="Path_1247255" data-name="Path 1247255" d="M1600.784,1266.491c.235-.66,12.245-18.93,41.917-35.462l2.335,1.826s-22.823,10.03-35.069,34.127Z" transform="translate(-1405.79 -1081.075)" fill="#6e9e63"/>
            <path id="Path_1247256" data-name="Path 1247256" d="M1952.209,1146.988s-41.574,4.23-67.536,30.976l-16.38-4.694c.452-.66,18.236-14.516,57.841-24.188h.006c9.492-.828,18.31-1.519,26.069-2.093" transform="translate(-1640.713 -1007.271)" fill="#6e9e63"/>
            <path id="Path_1247257" data-name="Path 1247257" d="M2042.764,1179.582c-18.676,4.509-48.572,14.841-70.927,37.478h-14.312l-10.518-3.044c.667-1.032,29.171-24.88,93.114-39.384a35.142,35.142,0,0,1,2.644,4.95" transform="translate(-1709.838 -1031.548)" fill="#6e9e63"/>
            <path id="Path_1247258" data-name="Path 1247258" d="M1508.52,1428.068l.213-.055c-.086-.381-.3-8.046,2.106-12.515l-.194-.1c-2.437,4.529-2.207,12.359-2.125,12.674" transform="translate(-1324.725 -1242.982)" fill="#6e9e63"/>
            <path id="Path_1247259" data-name="Path 1247259" d="M1529.338,1382.544s.757,1.588.3,2.3-.841-1.319-.3-2.3" transform="translate(-1342.811 -1214.134)" fill="#ffcf83"/>
            <path id="Path_1247260" data-name="Path 1247260" d="M1531.943,1419.892s-.757-1.588-.3-2.3.841,1.319.3,2.3" transform="translate(-1344.944 -1244.783)" fill="#ffcf83"/>
            <path id="Path_1247261" data-name="Path 1247261" d="M1518.828,1386.525s1.4,1.061,1.321,1.9-1.354-.783-1.321-1.9" transform="translate(-1333.816 -1217.63)" fill="#ffcf83"/>
            <path id="Path_1247262" data-name="Path 1247262" d="M1538.042,1418.137s-1.4-1.061-1.321-1.9,1.354.783,1.321,1.9" transform="translate(-1349.527 -1243.513)" fill="#ffcf83"/>
            <path id="Path_1247263" data-name="Path 1247263" d="M1509.726,1395.9s1.732.309,2.042,1.1-1.562-.083-2.042-1.1" transform="translate(-1325.824 -1225.863)" fill="#ffcf83"/>
            <path id="Path_1247264" data-name="Path 1247264" d="M1541.73,1414.639s-1.732-.309-2.042-1.1,1.562.084,2.042,1.1" transform="translate(-1352.106 -1241.087)" fill="#ffcf83"/>
            <path id="Path_1247265" data-name="Path 1247265" d="M1506.781,1412.725s1.387-1.081,2.181-.785-1.106,1.106-2.181.785" transform="translate(-1323.238 -1239.904)" fill="#ffcf83"/>
            <path id="Path_1247266" data-name="Path 1247266" d="M1543.12,1406.173s-1.552.827-2.284.4,1.28-.9,2.284-.4" transform="translate(-1353.007 -1234.695)" fill="#ffcf83"/>
            <path id="Path_1247267" data-name="Path 1247267" d="M1513.06,1417.383s.863-1.533,1.71-1.566-.594,1.447-1.71,1.566" transform="translate(-1328.752 -1243.354)" fill="#ffcf83"/>
            <path id="Path_1247268" data-name="Path 1247268" d="M1541.629,1393.848s-.863,1.533-1.709,1.565.594-1.447,1.709-1.565" transform="translate(-1352.115 -1224.061)" fill="#ffcf83"/>
            <path id="Path_1247269" data-name="Path 1247269" d="M1522.38,1420.2s.113-1.755.863-2.152.091,1.562-.863,2.152" transform="translate(-1336.937 -1245.27)" fill="#ffcf83"/>
            <path id="Path_1247270" data-name="Path 1247270" d="M1537.252,1386.192s-.114,1.755-.863,2.152-.091-1.562.863-2.152" transform="translate(-1348.954 -1217.338)" fill="#ffcf83"/>
            <path id="Path_1247271" data-name="Path 1247271" d="M1506.05,1407.183s1.643-.628,2.315-.111-1.382.733-2.315.111" transform="translate(-1322.596 -1235.495)" fill="#ffcf83"/>
            <path id="Path_1247272" data-name="Path 1247272" d="M1525.609,1401.5a1.224,1.224,0,1,0-1.224,1.224,1.224,1.224,0,0,0,1.224-1.224" transform="translate(-1337.621 -1229.706)" fill="#365da4"/>
            <path id="Path_1247273" data-name="Path 1247273" d="M1512.311,1452.915a4.25,4.25,0,0,1,2.534-1.157,11.257,11.257,0,0,1,1.921,0,4.3,4.3,0,0,1-1.982,1.157,9.064,9.064,0,0,1-2.474,0" transform="translate(-1328.094 -1274.888)" fill="#6e9e63"/>
            <path id="Path_1247274" data-name="Path 1247274" d="M1489.528,1436.943c-.186-.162-.326-1.483-1.464-1.814a10.774,10.774,0,0,0-1.947-.394s.987,1.717,1.706,1.974a5.666,5.666,0,0,0,1.706.234" transform="translate(-1305.091 -1259.967)" fill="#6e9e63"/>
            <path id="Path_1247275" data-name="Path 1247275" d="M1461.216,1411.91l.251-.064c-.1-.448-.352-9.469,2.478-14.728l-.228-.123c-2.867,5.33-2.6,14.544-2.5,14.915" transform="translate(-1283.176 -1226.824)" fill="#6e9e63"/>
            <path id="Path_1247276" data-name="Path 1247276" d="M1485.715,1358.336s.891,1.868.348,2.706-.99-1.552-.348-2.706" transform="translate(-1304.46 -1192.875)" fill="#ffcf83"/>
            <path id="Path_1247277" data-name="Path 1247277" d="M1488.781,1402.289s-.891-1.869-.348-2.706.99,1.552.348,2.706" transform="translate(-1306.97 -1228.944)" fill="#ffcf83"/>
            <path id="Path_1247278" data-name="Path 1247278" d="M1473.345,1363.021s1.651,1.249,1.555,2.241-1.594-.922-1.555-2.241" transform="translate(-1293.874 -1196.989)" fill="#ffcf83"/>
            <path id="Path_1247279" data-name="Path 1247279" d="M1495.958,1400.224s-1.651-1.249-1.555-2.241,1.594.922,1.555,2.241" transform="translate(-1312.364 -1227.45)" fill="#ffcf83"/>
            <path id="Path_1247280" data-name="Path 1247280" d="M1462.634,1374.054s2.038.363,2.4,1.292-1.838-.1-2.4-1.292" transform="translate(-1284.468 -1206.678)" fill="#ffcf83"/>
            <path id="Path_1247281" data-name="Path 1247281" d="M1500.3,1396.107s-2.038-.363-2.4-1.292,1.838.1,2.4,1.292" transform="translate(-1315.399 -1224.595)" fill="#ffcf83"/>
            <path id="Path_1247282" data-name="Path 1247282" d="M1459.169,1393.854s1.633-1.273,2.567-.923-1.3,1.3-2.567.923" transform="translate(-1281.425 -1223.202)" fill="#ffcf83"/>
            <path id="Path_1247283" data-name="Path 1247283" d="M1501.933,1386.144s-1.827.973-2.687.469,1.506-1.058,2.687-.469" transform="translate(-1316.459 -1217.072)" fill="#ffcf83"/>
            <path id="Path_1247284" data-name="Path 1247284" d="M1466.558,1399.337s1.015-1.8,2.012-1.843-.7,1.7-2.012,1.843" transform="translate(-1287.914 -1227.263)" fill="#ffcf83"/>
            <path id="Path_1247285" data-name="Path 1247285" d="M1500.18,1371.639s-1.015,1.8-2.012,1.843.7-1.7,2.012-1.843" transform="translate(-1315.41 -1204.557)" fill="#ffcf83"/>
            <path id="Path_1247286" data-name="Path 1247286" d="M1477.527,1402.655s.133-2.066,1.015-2.532.107,1.838-1.015,2.532" transform="translate(-1297.547 -1229.517)" fill="#ffcf83"/>
            <path id="Path_1247287" data-name="Path 1247287" d="M1495.029,1362.63s-.134,2.066-1.015,2.532-.108-1.838,1.015-2.532" transform="translate(-1311.69 -1196.646)" fill="#ffcf83"/>
            <path id="Path_1247288" data-name="Path 1247288" d="M1458.309,1387.333s1.934-.739,2.725-.131-1.626.863-2.725.131" transform="translate(-1280.67 -1218.014)" fill="#ffcf83"/>
            <path id="Path_1247289" data-name="Path 1247289" d="M1481.328,1380.645a1.441,1.441,0,1,0-1.441,1.441,1.441,1.441,0,0,0,1.441-1.441" transform="translate(-1298.354 -1211.201)" fill="#365da4"/>
            <path id="Path_1247290" data-name="Path 1247290" d="M1462.364,1471.015a5,5,0,0,1,2.982-1.362,13.238,13.238,0,0,1,2.261,0,5.064,5.064,0,0,1-2.332,1.362,10.663,10.663,0,0,1-2.911,0" transform="translate(-1284.231 -1290.598)" fill="#6e9e63"/>
            <path id="Path_1247291" data-name="Path 1247291" d="M1435.552,1452.22c-.219-.191-.383-1.745-1.723-2.134a12.658,12.658,0,0,0-2.291-.464s1.161,2.02,2.007,2.322a6.66,6.66,0,0,0,2.007.276" transform="translate(-1257.159 -1273.041)" fill="#6e9e63"/>
            <path id="Path_1247292" data-name="Path 1247292" d="M1518.368,1454.92l.151-.039c-.061-.269-.211-5.681,1.487-8.837l-.137-.074c-1.72,3.2-1.559,8.727-1.5,8.949" transform="translate(-1333.385 -1269.834)" fill="#6e9e63"/>
            <path id="Path_1247293" data-name="Path 1247293" d="M1533.068,1422.775s.535,1.121.209,1.623-.594-.931-.209-1.623" transform="translate(-1346.156 -1249.464)" fill="#ffcf83"/>
            <path id="Path_1247294" data-name="Path 1247294" d="M1534.907,1449.147s-.535-1.121-.209-1.623.594.931.209,1.623" transform="translate(-1347.662 -1271.106)" fill="#ffcf83"/>
            <path id="Path_1247295" data-name="Path 1247295" d="M1525.646,1425.585s.991.749.933,1.345-.956-.553-.933-1.345" transform="translate(-1339.804 -1251.932)" fill="#ffcf83"/>
            <path id="Path_1247296" data-name="Path 1247296" d="M1539.214,1447.908s-.991-.749-.933-1.345.956.553.933,1.345" transform="translate(-1350.898 -1270.209)" fill="#ffcf83"/>
            <path id="Path_1247297" data-name="Path 1247297" d="M1519.219,1432.205s1.223.218,1.442.775-1.1-.059-1.442-.775" transform="translate(-1334.16 -1257.745)" fill="#ffcf83"/>
            <path id="Path_1247298" data-name="Path 1247298" d="M1541.818,1445.437s-1.223-.218-1.442-.775,1.1.059,1.442.775" transform="translate(-1352.719 -1268.496)" fill="#ffcf83"/>
            <path id="Path_1247299" data-name="Path 1247299" d="M1517.14,1444.085s.98-.764,1.54-.554-.781.781-1.54.554" transform="translate(-1332.335 -1267.66)" fill="#ffcf83"/>
            <path id="Path_1247300" data-name="Path 1247300" d="M1542.8,1439.46s-1.1.584-1.612.281.9-.635,1.612-.281" transform="translate(-1353.356 -1263.983)" fill="#ffcf83"/>
            <path id="Path_1247301" data-name="Path 1247301" d="M1521.574,1447.376s.609-1.083,1.207-1.106-.419,1.022-1.207,1.106" transform="translate(-1336.229 -1270.097)" fill="#ffcf83"/>
            <path id="Path_1247302" data-name="Path 1247302" d="M1541.747,1430.756s-.609,1.083-1.207,1.105.419-1.022,1.207-1.105" transform="translate(-1352.726 -1256.473)" fill="#ffcf83"/>
            <path id="Path_1247303" data-name="Path 1247303" d="M1528.155,1449.366s.08-1.239.609-1.519.064,1.1-.609,1.519" transform="translate(-1342.008 -1271.449)" fill="#ffcf83"/>
            <path id="Path_1247304" data-name="Path 1247304" d="M1538.656,1425.351s-.08,1.239-.609,1.519-.065-1.1.609-1.519" transform="translate(-1350.494 -1251.726)" fill="#ffcf83"/>
            <path id="Path_1247305" data-name="Path 1247305" d="M1516.625,1440.172s1.16-.443,1.635-.079-.976.518-1.635.079" transform="translate(-1331.883 -1264.546)" fill="#ffcf83"/>
            <path id="Path_1247306" data-name="Path 1247306" d="M1530.436,1436.16a.865.865,0,1,0-.865.865.865.865,0,0,0,.865-.865" transform="translate(-1342.493 -1260.459)" fill="#365da4"/>
            <path id="Path_1247307" data-name="Path 1247307" d="M1519.057,1490.385a3,3,0,0,1,1.79-.817,7.933,7.933,0,0,1,1.356,0,3.039,3.039,0,0,1-1.4.817,6.407,6.407,0,0,1-1.746,0" transform="translate(-1334.018 -1308.1)" fill="#6e9e63"/>
            <path id="Path_1247308" data-name="Path 1247308" d="M1502.969,1479.106c-.131-.115-.23-1.047-1.034-1.281a7.615,7.615,0,0,0-1.375-.278s.7,1.212,1.2,1.394a4,4,0,0,0,1.2.165" transform="translate(-1317.774 -1297.564)" fill="#6e9e63"/>
            <path id="Path_1247309" data-name="Path 1247309" d="M1586.951,1411.91l.251-.064c-.1-.448-.352-9.469,2.478-14.728l-.229-.123c-2.867,5.33-2.6,14.544-2.5,14.915" transform="translate(-1393.594 -1226.824)" fill="#6e9e63"/>
            <path id="Path_1247310" data-name="Path 1247310" d="M1611.45,1358.336s.891,1.868.348,2.706-.99-1.552-.348-2.706" transform="translate(-1414.879 -1192.875)" fill="#ffcf83"/>
            <path id="Path_1247311" data-name="Path 1247311" d="M1614.516,1402.289s-.891-1.869-.348-2.706.99,1.552.348,2.706" transform="translate(-1417.39 -1228.944)" fill="#ffcf83"/>
            <path id="Path_1247312" data-name="Path 1247312" d="M1599.08,1363.021s1.651,1.249,1.555,2.241-1.593-.922-1.555-2.241" transform="translate(-1404.293 -1196.989)" fill="#ffcf83"/>
            <path id="Path_1247313" data-name="Path 1247313" d="M1621.693,1400.224s-1.651-1.249-1.555-2.241,1.594.922,1.555,2.241" transform="translate(-1422.783 -1227.45)" fill="#ffcf83"/>
            <path id="Path_1247314" data-name="Path 1247314" d="M1588.37,1374.054s2.038.363,2.4,1.292-1.838-.1-2.4-1.292" transform="translate(-1394.888 -1206.678)" fill="#ffcf83"/>
            <path id="Path_1247315" data-name="Path 1247315" d="M1626.033,1396.107s-2.038-.363-2.4-1.292,1.838.1,2.4,1.292" transform="translate(-1425.817 -1224.595)" fill="#ffcf83"/>
            <path id="Path_1247316" data-name="Path 1247316" d="M1584.9,1393.854s1.633-1.273,2.567-.923-1.3,1.3-2.567.923" transform="translate(-1391.844 -1223.202)" fill="#ffcf83"/>
            <path id="Path_1247317" data-name="Path 1247317" d="M1627.67,1386.144s-1.827.973-2.687.469,1.506-1.058,2.688-.469" transform="translate(-1426.878 -1217.072)" fill="#ffcf83"/>
            <path id="Path_1247318" data-name="Path 1247318" d="M1592.293,1399.337s1.015-1.8,2.012-1.843-.7,1.7-2.012,1.843" transform="translate(-1398.333 -1227.263)" fill="#ffcf83"/>
            <path id="Path_1247319" data-name="Path 1247319" d="M1625.915,1371.639s-1.015,1.8-2.012,1.843.7-1.7,2.012-1.843" transform="translate(-1425.829 -1204.557)" fill="#ffcf83"/>
            <path id="Path_1247320" data-name="Path 1247320" d="M1603.262,1402.655s.133-2.066,1.015-2.532.108,1.838-1.015,2.532" transform="translate(-1407.966 -1229.517)" fill="#ffcf83"/>
            <path id="Path_1247321" data-name="Path 1247321" d="M1620.763,1362.63s-.133,2.066-1.015,2.532-.108-1.838,1.015-2.532" transform="translate(-1422.108 -1196.646)" fill="#ffcf83"/>
            <path id="Path_1247322" data-name="Path 1247322" d="M1584.044,1387.333s1.934-.739,2.725-.131-1.626.863-2.725.131" transform="translate(-1391.089 -1218.014)" fill="#ffcf83"/>
            <path id="Path_1247323" data-name="Path 1247323" d="M1607.063,1380.645a1.441,1.441,0,1,0-1.441,1.441,1.441,1.441,0,0,0,1.441-1.441" transform="translate(-1408.773 -1211.201)" fill="#365da4"/>
            <path id="Path_1247324" data-name="Path 1247324" d="M1591.413,1441.152a5,5,0,0,1,2.983-1.362,13.257,13.257,0,0,1,2.261,0,5.065,5.065,0,0,1-2.332,1.362,10.671,10.671,0,0,1-2.911,0" transform="translate(-1397.56 -1264.373)" fill="#6e9e63"/>
            <path id="Path_1247325" data-name="Path 1247325" d="M1564.6,1422.356c-.219-.19-.383-1.745-1.723-2.134a12.673,12.673,0,0,0-2.291-.464s1.161,2.02,2.007,2.323a6.66,6.66,0,0,0,2.007.275" transform="translate(-1370.488 -1246.815)" fill="#6e9e63"/>
            <path id="Path_1247326" data-name="Path 1247326" d="M1548.876,1403.1l.251-.07c-.1-.485-.351-10.244,2.478-15.934l-.228-.133c-2.868,5.766-2.6,15.736-2.5,16.137" transform="translate(-1360.157 -1218.016)" fill="#6e9e63"/>
            <path id="Path_1247327" data-name="Path 1247327" d="M1573.375,1345.14s.891,2.022.348,2.927-.99-1.679-.348-2.927" transform="translate(-1381.442 -1181.286)" fill="#ffcf83"/>
            <path id="Path_1247328" data-name="Path 1247328" d="M1576.441,1392.692s-.891-2.022-.348-2.927.99,1.679.348,2.927" transform="translate(-1383.952 -1220.309)" fill="#ffcf83"/>
            <path id="Path_1247329" data-name="Path 1247329" d="M1561.005,1350.208s1.651,1.351,1.555,2.425-1.593-1-1.555-2.425" transform="translate(-1370.856 -1185.737)" fill="#ffcf83"/>
            <path id="Path_1247330" data-name="Path 1247330" d="M1583.618,1390.459s-1.651-1.351-1.555-2.425,1.593,1,1.555,2.425" transform="translate(-1389.346 -1218.694)" fill="#ffcf83"/>
            <path id="Path_1247331" data-name="Path 1247331" d="M1550.294,1362.145s2.038.393,2.4,1.4-1.838-.106-2.4-1.4" transform="translate(-1361.45 -1196.22)" fill="#ffcf83"/>
            <path id="Path_1247332" data-name="Path 1247332" d="M1587.958,1386s-2.038-.393-2.4-1.4,1.838.106,2.4,1.4" transform="translate(-1392.38 -1215.604)" fill="#ffcf83"/>
            <path id="Path_1247333" data-name="Path 1247333" d="M1546.829,1383.567s1.633-1.377,2.567-1-1.3,1.408-2.567,1" transform="translate(-1358.407 -1214.097)" fill="#ffcf83"/>
            <path id="Path_1247334" data-name="Path 1247334" d="M1589.593,1375.225s-1.827,1.053-2.687.507,1.506-1.145,2.687-.507" transform="translate(-1393.441 -1207.465)" fill="#ffcf83"/>
            <path id="Path_1247335" data-name="Path 1247335" d="M1554.218,1389.5s1.015-1.952,2.012-1.993-.7,1.842-2.012,1.993" transform="translate(-1364.896 -1218.491)" fill="#ffcf83"/>
            <path id="Path_1247336" data-name="Path 1247336" d="M1587.839,1359.532s-1.015,1.952-2.012,1.993.7-1.842,2.012-1.993" transform="translate(-1392.392 -1193.925)" fill="#ffcf83"/>
            <path id="Path_1247337" data-name="Path 1247337" d="M1565.187,1393.089s.133-2.235,1.015-2.739.108,1.988-1.015,2.739" transform="translate(-1374.529 -1220.929)" fill="#ffcf83"/>
            <path id="Path_1247338" data-name="Path 1247338" d="M1582.688,1349.785s-.133,2.235-1.015,2.74-.108-1.988,1.015-2.74" transform="translate(-1388.672 -1185.365)" fill="#ffcf83"/>
            <path id="Path_1247339" data-name="Path 1247339" d="M1545.969,1376.511s1.934-.8,2.725-.142-1.626.933-2.725.142" transform="translate(-1357.652 -1208.483)" fill="#ffcf83"/>
            <path id="Path_1247340" data-name="Path 1247340" d="M1568.988,1369.276a1.445,1.445,0,1,0-1.441,1.559,1.5,1.5,0,0,0,1.441-1.559" transform="translate(-1375.336 -1201.113)" fill="#365da4"/>
            <path id="Path_1247341" data-name="Path 1247341" d="M1550.024,1467.05a4.878,4.878,0,0,1,2.983-1.473,12.258,12.258,0,0,1,2.261,0,5.025,5.025,0,0,1-2.332,1.473,9.876,9.876,0,0,1-2.911,0" transform="translate(-1361.213 -1287.015)" fill="#6e9e63"/>
            <path id="Path_1247342" data-name="Path 1247342" d="M1523.212,1446.714c-.219-.206-.383-1.888-1.723-2.309a11.834,11.834,0,0,0-2.291-.5s1.161,2.185,2.007,2.513a6.186,6.186,0,0,0,2.007.3" transform="translate(-1334.141 -1268.019)" fill="#6e9e63"/>
            <path id="Path_1247343" data-name="Path 1247343" d="M1598.54,1443.511l.177-.045c-.071-.317-.248-6.686,1.75-10.4l-.161-.087c-2.025,3.763-1.834,10.27-1.766,10.532" transform="translate(-1403.786 -1258.425)" fill="#6e9e63"/>
            <path id="Path_1247344" data-name="Path 1247344" d="M1615.84,1405.681s.629,1.319.246,1.911-.7-1.1-.246-1.911" transform="translate(-1418.816 -1234.452)" fill="#ffcf83"/>
            <path id="Path_1247345" data-name="Path 1247345" d="M1618,1436.717s-.629-1.32-.246-1.911.7,1.1.246,1.911" transform="translate(-1420.587 -1259.922)" fill="#ffcf83"/>
            <path id="Path_1247346" data-name="Path 1247346" d="M1607.105,1408.988s1.166.881,1.1,1.583-1.125-.651-1.1-1.583" transform="translate(-1411.341 -1237.357)" fill="#ffcf83"/>
            <path id="Path_1247347" data-name="Path 1247347" d="M1623.072,1435.258s-1.166-.881-1.1-1.583,1.125.651,1.1,1.583" transform="translate(-1424.396 -1258.866)" fill="#ffcf83"/>
            <path id="Path_1247348" data-name="Path 1247348" d="M1599.542,1416.779s1.439.257,1.7.912-1.3-.07-1.7-.912" transform="translate(-1404.699 -1244.198)" fill="#ffcf83"/>
            <path id="Path_1247349" data-name="Path 1247349" d="M1626.137,1432.352s-1.439-.256-1.7-.912,1.3.069,1.7.912" transform="translate(-1426.539 -1256.851)" fill="#ffcf83"/>
            <path id="Path_1247350" data-name="Path 1247350" d="M1597.1,1430.76s1.153-.9,1.813-.652-.92.919-1.813.652" transform="translate(-1402.551 -1255.867)" fill="#ffcf83"/>
            <path id="Path_1247351" data-name="Path 1247351" d="M1627.293,1425.315s-1.29.688-1.9.331,1.064-.748,1.9-.331" transform="translate(-1427.288 -1251.537)" fill="#ffcf83"/>
            <path id="Path_1247352" data-name="Path 1247352" d="M1602.313,1434.632s.717-1.274,1.421-1.3-.494,1.2-1.421,1.3" transform="translate(-1407.133 -1258.734)" fill="#ffcf83"/>
            <path id="Path_1247353" data-name="Path 1247353" d="M1626.054,1415.074s-.717,1.274-1.421,1.3.494-1.2,1.421-1.3" transform="translate(-1426.548 -1242.701)" fill="#ffcf83"/>
            <path id="Path_1247354" data-name="Path 1247354" d="M1610.058,1436.975s.094-1.459.717-1.788.076,1.3-.717,1.788" transform="translate(-1413.934 -1260.326)" fill="#ffcf83"/>
            <path id="Path_1247355" data-name="Path 1247355" d="M1622.416,1408.713s-.094,1.459-.717,1.788-.076-1.3.717-1.788" transform="translate(-1423.92 -1237.115)" fill="#ffcf83"/>
            <path id="Path_1247356" data-name="Path 1247356" d="M1596.488,1426.156s1.366-.522,1.924-.093-1.148.609-1.924.093" transform="translate(-1402.017 -1252.203)" fill="#ffcf83"/>
            <path id="Path_1247357" data-name="Path 1247357" d="M1612.742,1421.433a1.017,1.017,0,1,0-1.018,1.018,1.017,1.017,0,0,0,1.018-1.018" transform="translate(-1414.504 -1247.392)" fill="#365da4"/>
            <path id="Path_1247358" data-name="Path 1247358" d="M1599.351,1485.246a3.531,3.531,0,0,1,2.106-.962,9.362,9.362,0,0,1,1.6,0,3.576,3.576,0,0,1-1.647.962,7.527,7.527,0,0,1-2.055,0" transform="translate(-1404.531 -1303.457)" fill="#6e9e63"/>
            <path id="Path_1247359" data-name="Path 1247359" d="M1580.418,1471.974c-.155-.135-.271-1.232-1.217-1.507a8.972,8.972,0,0,0-1.618-.328s.82,1.427,1.417,1.64a4.7,4.7,0,0,0,1.417.194" transform="translate(-1385.415 -1291.059)" fill="#6e9e63"/>
            <path id="Path_1247360" data-name="Path 1247360" d="M1651.877,1464.772l.128-.033c-.051-.228-.179-4.814,1.26-7.488l-.116-.062c-1.458,2.71-1.32,7.394-1.271,7.583" transform="translate(-1450.635 -1279.686)" fill="#6e9e63"/>
            <path id="Path_1247361" data-name="Path 1247361" d="M1664.332,1437.535s.453.95.177,1.375-.5-.789-.177-1.375" transform="translate(-1461.455 -1262.426)" fill="#ffcf83"/>
            <path id="Path_1247362" data-name="Path 1247362" d="M1665.89,1459.881s-.453-.95-.177-1.375.5.789.177,1.375" transform="translate(-1462.731 -1280.764)" fill="#ffcf83"/>
            <path id="Path_1247363" data-name="Path 1247363" d="M1658.042,1439.916s.839.635.791,1.14-.81-.469-.791-1.14" transform="translate(-1456.073 -1264.517)" fill="#ffcf83"/>
            <path id="Path_1247364" data-name="Path 1247364" d="M1669.539,1458.83s-.84-.635-.791-1.14.81.469.791,1.14" transform="translate(-1465.474 -1280.004)" fill="#ffcf83"/>
            <path id="Path_1247365" data-name="Path 1247365" d="M1652.6,1445.525s1.036.185,1.222.657-.934-.05-1.222-.657" transform="translate(-1451.292 -1269.443)" fill="#ffcf83"/>
            <path id="Path_1247366" data-name="Path 1247366" d="M1671.746,1456.737s-1.036-.185-1.221-.657.935.05,1.221.657" transform="translate(-1467.017 -1278.552)" fill="#ffcf83"/>
            <path id="Path_1247367" data-name="Path 1247367" d="M1650.835,1455.591s.83-.647,1.305-.469-.662.662-1.305.469" transform="translate(-1449.744 -1277.844)" fill="#ffcf83"/>
            <path id="Path_1247368" data-name="Path 1247368" d="M1672.577,1451.673s-.929.495-1.366.238.766-.538,1.366-.238" transform="translate(-1467.555 -1274.728)" fill="#ffcf83"/>
            <path id="Path_1247369" data-name="Path 1247369" d="M1654.592,1458.38s.516-.917,1.023-.937-.355.866-1.023.937" transform="translate(-1453.044 -1279.909)" fill="#ffcf83"/>
            <path id="Path_1247370" data-name="Path 1247370" d="M1671.686,1444.3s-.516.917-1.023.937.355-.866,1.023-.937" transform="translate(-1467.023 -1268.365)" fill="#ffcf83"/>
            <path id="Path_1247371" data-name="Path 1247371" d="M1660.168,1460.066s.068-1.05.516-1.287.055.934-.516,1.287" transform="translate(-1457.94 -1281.054)" fill="#ffcf83"/>
            <path id="Path_1247372" data-name="Path 1247372" d="M1669.066,1439.718s-.068,1.05-.516,1.287-.055-.934.516-1.287" transform="translate(-1465.131 -1264.343)" fill="#ffcf83"/>
            <path id="Path_1247373" data-name="Path 1247373" d="M1650.4,1452.277s.983-.376,1.385-.067-.827.439-1.385.067" transform="translate(-1449.36 -1275.206)" fill="#ffcf83"/>
            <path id="Path_1247374" data-name="Path 1247374" d="M1662.1,1448.876a.733.733,0,1,0-.733.733.733.733,0,0,0,.733-.733" transform="translate(-1458.351 -1271.742)" fill="#365da4"/>
            <path id="Path_1247375" data-name="Path 1247375" d="M1654.144,1479.638a2.543,2.543,0,0,1,1.516-.692,6.738,6.738,0,0,1,1.149,0,2.574,2.574,0,0,1-1.186.692,5.434,5.434,0,0,1-1.48,0" transform="translate(-1452.65 -1298.776)" fill="#6e9e63"/>
            <path id="Path_1247376" data-name="Path 1247376" d="M1640.513,1470.082c-.111-.1-.2-.887-.876-1.085a6.44,6.44,0,0,0-1.165-.236s.59,1.027,1.02,1.181a3.391,3.391,0,0,0,1.021.14" transform="translate(-1438.887 -1289.849)" fill="#6e9e63"/>
            <path id="Path_1247377" data-name="Path 1247377" d="M1623.574,1455.1l.151-.038c-.06-.268-.21-5.665,1.483-8.812l-.137-.074c-1.716,3.189-1.554,8.7-1.5,8.924" transform="translate(-1425.775 -1270.019)" fill="#6e9e63"/>
            <path id="Path_1247378" data-name="Path 1247378" d="M1638.232,1423.052s.533,1.118.208,1.619-.592-.929-.208-1.619" transform="translate(-1438.51 -1249.707)" fill="#ffcf83"/>
            <path id="Path_1247379" data-name="Path 1247379" d="M1640.066,1449.349s-.533-1.118-.208-1.619.592.928.208,1.619" transform="translate(-1440.012 -1271.288)" fill="#ffcf83"/>
            <path id="Path_1247380" data-name="Path 1247380" d="M1630.831,1425.855s.988.747.931,1.341-.953-.552-.931-1.341" transform="translate(-1432.176 -1252.169)" fill="#ffcf83"/>
            <path id="Path_1247381" data-name="Path 1247381" d="M1644.361,1448.113s-.988-.747-.93-1.341.953.552.93,1.341" transform="translate(-1443.239 -1270.394)" fill="#ffcf83"/>
            <path id="Path_1247382" data-name="Path 1247382" d="M1624.423,1432.455s1.219.217,1.438.773-1.1-.059-1.438-.773" transform="translate(-1426.549 -1257.965)" fill="#ffcf83"/>
            <path id="Path_1247383" data-name="Path 1247383" d="M1646.957,1445.65s-1.219-.217-1.438-.773,1.1.059,1.438.773" transform="translate(-1445.054 -1268.685)" fill="#ffcf83"/>
            <path id="Path_1247384" data-name="Path 1247384" d="M1622.349,1444.3s.977-.761,1.536-.552-.779.779-1.536.552" transform="translate(-1424.728 -1267.852)" fill="#ffcf83"/>
            <path id="Path_1247385" data-name="Path 1247385" d="M1647.936,1439.688s-1.093.582-1.608.281.9-.633,1.608-.281" transform="translate(-1445.689 -1264.184)" fill="#ffcf83"/>
            <path id="Path_1247386" data-name="Path 1247386" d="M1626.77,1447.582s.607-1.079,1.2-1.1-.418,1.019-1.2,1.1" transform="translate(-1428.61 -1270.281)" fill="#ffcf83"/>
            <path id="Path_1247387" data-name="Path 1247387" d="M1646.886,1431.011s-.607,1.079-1.2,1.1.418-1.019,1.2-1.1" transform="translate(-1445.061 -1256.697)" fill="#ffcf83"/>
            <path id="Path_1247388" data-name="Path 1247388" d="M1633.333,1449.567s.08-1.236.607-1.515.065,1.1-.607,1.515" transform="translate(-1434.374 -1271.629)" fill="#ffcf83"/>
            <path id="Path_1247389" data-name="Path 1247389" d="M1643.8,1425.62s-.08,1.236-.607,1.515-.065-1.1.607-1.515" transform="translate(-1442.835 -1251.962)" fill="#ffcf83"/>
            <path id="Path_1247390" data-name="Path 1247390" d="M1621.834,1440.4s1.157-.442,1.63-.078-.973.516-1.63.078" transform="translate(-1424.276 -1264.747)" fill="#ffcf83"/>
            <path id="Path_1247391" data-name="Path 1247391" d="M1635.607,1436.4a.862.862,0,1,0-.862.862.862.862,0,0,0,.862-.862" transform="translate(-1434.857 -1260.671)" fill="#365da4"/>
            <path id="Path_1247392" data-name="Path 1247392" d="M1624.26,1490.468a2.993,2.993,0,0,1,1.785-.815,7.961,7.961,0,0,1,1.353,0,3.03,3.03,0,0,1-1.4.815,6.39,6.39,0,0,1-1.742,0" transform="translate(-1426.406 -1308.175)" fill="#6e9e63"/>
            <path id="Path_1247393" data-name="Path 1247393" d="M1608.219,1479.221c-.131-.114-.229-1.044-1.031-1.277a7.6,7.6,0,0,0-1.371-.278s.695,1.209,1.2,1.39a3.981,3.981,0,0,0,1.2.165" transform="translate(-1410.21 -1297.67)" fill="#6e9e63"/>
            <path id="Path_1247394" data-name="Path 1247394" d="M1657.769,1480.838l.09-.023a12.043,12.043,0,0,1,.89-5.287l-.082-.044a12.248,12.248,0,0,0-.9,5.354" transform="translate(-1455.816 -1295.752)" fill="#6e9e63"/>
            <path id="Path_1247395" data-name="Path 1247395" d="M1666.563,1461.6s.32.671.125.971-.355-.557-.125-.971" transform="translate(-1463.457 -1283.564)" fill="#ffcf83"/>
            <path id="Path_1247396" data-name="Path 1247396" d="M1667.664,1477.383s-.32-.671-.125-.972.356.557.125.972" transform="translate(-1464.358 -1296.512)" fill="#ffcf83"/>
            <path id="Path_1247397" data-name="Path 1247397" d="M1662.123,1463.286s.593.448.558.8-.572-.331-.558-.8" transform="translate(-1459.657 -1285.04)" fill="#ffcf83"/>
            <path id="Path_1247398" data-name="Path 1247398" d="M1670.24,1476.642s-.593-.448-.558-.8.572.331.558.8" transform="translate(-1466.294 -1295.976)" fill="#ffcf83"/>
            <path id="Path_1247399" data-name="Path 1247399" d="M1658.278,1467.247s.732.13.863.464-.66-.035-.863-.464" transform="translate(-1456.281 -1288.519)" fill="#ffcf83"/>
            <path id="Path_1247400" data-name="Path 1247400" d="M1671.8,1475.164s-.732-.13-.863-.464.66.035.863.464" transform="translate(-1467.384 -1294.951)" fill="#ffcf83"/>
            <path id="Path_1247401" data-name="Path 1247401" d="M1657.034,1474.355s.586-.457.921-.331-.467.467-.921.331" transform="translate(-1455.188 -1294.451)" fill="#ffcf83"/>
            <path id="Path_1247402" data-name="Path 1247402" d="M1672.386,1471.588s-.656.349-.965.168.541-.38.965-.168" transform="translate(-1467.764 -1292.251)" fill="#ffcf83"/>
            <path id="Path_1247403" data-name="Path 1247403" d="M1659.686,1476.323s.364-.648.722-.662-.251.612-.722.662" transform="translate(-1457.517 -1295.908)" fill="#ffcf83"/>
            <path id="Path_1247404" data-name="Path 1247404" d="M1671.756,1466.38s-.364.648-.722.661.251-.612.722-.661" transform="translate(-1467.387 -1287.758)" fill="#ffcf83"/>
            <path id="Path_1247405" data-name="Path 1247405" d="M1663.624,1477.515s.048-.742.364-.909.039.66-.364.909" transform="translate(-1460.975 -1296.718)" fill="#ffcf83"/>
            <path id="Path_1247406" data-name="Path 1247406" d="M1669.906,1463.146s-.047.742-.364.909-.039-.66.364-.909" transform="translate(-1466.052 -1284.917)" fill="#ffcf83"/>
            <path id="Path_1247407" data-name="Path 1247407" d="M1656.725,1472.014s.694-.265.978-.047-.584.31-.978.047" transform="translate(-1454.917 -1292.589)" fill="#ffcf83"/>
            <path id="Path_1247408" data-name="Path 1247408" d="M1664.988,1469.613a.517.517,0,1,0-.517.517.517.517,0,0,0,.517-.517" transform="translate(-1461.265 -1290.143)" fill="#365da4"/>
            <path id="Path_1247409" data-name="Path 1247409" d="M1658.18,1502.055a1.8,1.8,0,0,1,1.071-.489,4.745,4.745,0,0,1,.812,0,1.818,1.818,0,0,1-.837.489,3.83,3.83,0,0,1-1.045,0" transform="translate(-1456.194 -1318.646)" fill="#6e9e63"/>
            <path id="Path_1247410" data-name="Path 1247410" d="M1648.555,1495.308c-.078-.068-.137-.627-.619-.766a4.541,4.541,0,0,0-.823-.166s.417.725.721.834a2.391,2.391,0,0,0,.72.1" transform="translate(-1446.476 -1312.343)" fill="#6e9e63"/>
            <path id="Path_1247411" data-name="Path 1247411" d="M1698.8,1455.1l.15-.038c-.06-.268-.21-5.665,1.483-8.812l-.137-.074c-1.716,3.189-1.554,8.7-1.5,8.924" transform="translate(-1491.839 -1270.019)" fill="#6e9e63"/>
            <path id="Path_1247412" data-name="Path 1247412" d="M1713.459,1423.052s.533,1.118.208,1.619-.592-.929-.208-1.619" transform="translate(-1504.574 -1249.707)" fill="#ffcf83"/>
            <path id="Path_1247413" data-name="Path 1247413" d="M1715.293,1449.349s-.533-1.118-.208-1.619.592.928.208,1.619" transform="translate(-1506.075 -1271.288)" fill="#ffcf83"/>
            <path id="Path_1247414" data-name="Path 1247414" d="M1706.058,1425.855s.988.747.931,1.341-.953-.552-.931-1.341" transform="translate(-1498.24 -1252.169)" fill="#ffcf83"/>
            <path id="Path_1247415" data-name="Path 1247415" d="M1719.587,1448.113s-.988-.747-.93-1.341.953.552.93,1.341" transform="translate(-1509.302 -1270.394)" fill="#ffcf83"/>
            <path id="Path_1247416" data-name="Path 1247416" d="M1699.65,1432.455s1.219.217,1.438.773-1.1-.059-1.438-.773" transform="translate(-1492.613 -1257.965)" fill="#ffcf83"/>
            <path id="Path_1247417" data-name="Path 1247417" d="M1722.184,1445.65s-1.219-.217-1.437-.773,1.1.059,1.438.773" transform="translate(-1511.118 -1268.685)" fill="#ffcf83"/>
            <path id="Path_1247418" data-name="Path 1247418" d="M1697.577,1444.3s.977-.761,1.536-.552-.779.779-1.536.552" transform="translate(-1490.792 -1267.852)" fill="#ffcf83"/>
            <path id="Path_1247419" data-name="Path 1247419" d="M1723.162,1439.688s-1.093.582-1.608.281.9-.633,1.608-.281" transform="translate(-1511.752 -1264.184)" fill="#ffcf83"/>
            <path id="Path_1247420" data-name="Path 1247420" d="M1702,1447.582s.607-1.079,1.2-1.1-.418,1.019-1.2,1.1" transform="translate(-1494.675 -1270.281)" fill="#ffcf83"/>
            <path id="Path_1247421" data-name="Path 1247421" d="M1722.113,1431.011s-.607,1.079-1.2,1.1.418-1.019,1.2-1.1" transform="translate(-1511.125 -1256.697)" fill="#ffcf83"/>
            <path id="Path_1247422" data-name="Path 1247422" d="M1708.56,1449.567s.08-1.236.607-1.515.064,1.1-.607,1.515" transform="translate(-1500.438 -1271.629)" fill="#ffcf83"/>
            <path id="Path_1247423" data-name="Path 1247423" d="M1719.031,1425.62s-.08,1.236-.607,1.515-.065-1.1.607-1.515" transform="translate(-1508.899 -1251.962)" fill="#ffcf83"/>
            <path id="Path_1247424" data-name="Path 1247424" d="M1697.062,1440.4s1.157-.442,1.63-.078-.973.516-1.63.078" transform="translate(-1490.34 -1264.747)" fill="#ffcf83"/>
            <path id="Path_1247425" data-name="Path 1247425" d="M1710.834,1436.4a.862.862,0,1,0-.862.862.862.862,0,0,0,.862-.862" transform="translate(-1500.921 -1260.671)" fill="#365da4"/>
            <path id="Path_1247426" data-name="Path 1247426" d="M1701.47,1472.6a2.99,2.99,0,0,1,1.784-.814,7.886,7.886,0,0,1,1.353,0,3.029,3.029,0,0,1-1.4.814,6.367,6.367,0,0,1-1.742,0" transform="translate(-1494.211 -1292.485)" fill="#6e9e63"/>
            <path id="Path_1247427" data-name="Path 1247427" d="M1685.429,1461.354c-.131-.114-.229-1.044-1.031-1.277a7.6,7.6,0,0,0-1.371-.278s.695,1.209,1.2,1.39a3.987,3.987,0,0,0,1.2.165" transform="translate(-1478.015 -1281.979)" fill="#6e9e63"/>
            <path id="Path_1247428" data-name="Path 1247428" d="M1676.021,1449.835l.15-.042c-.06-.29-.21-6.129,1.483-9.533l-.137-.08c-1.716,3.45-1.554,9.415-1.5,9.655" transform="translate(-1471.833 -1264.749)" fill="#6e9e63"/>
            <path id="Path_1247429" data-name="Path 1247429" d="M1690.679,1415.156s.533,1.21.208,1.751-.592-1-.208-1.751" transform="translate(-1484.569 -1242.773)" fill="#ffcf83"/>
            <path id="Path_1247430" data-name="Path 1247430" d="M1692.513,1443.607s-.533-1.209-.208-1.751.592,1,.208,1.751" transform="translate(-1486.07 -1266.122)" fill="#ffcf83"/>
            <path id="Path_1247431" data-name="Path 1247431" d="M1683.278,1418.189s.988.808.93,1.451-.953-.6-.93-1.451" transform="translate(-1478.234 -1245.437)" fill="#ffcf83"/>
            <path id="Path_1247432" data-name="Path 1247432" d="M1696.807,1442.271s-.988-.808-.93-1.451.953.6.93,1.451" transform="translate(-1489.297 -1265.155)" fill="#ffcf83"/>
            <path id="Path_1247433" data-name="Path 1247433" d="M1676.87,1425.33s1.219.235,1.438.836-1.1-.063-1.438-.836" transform="translate(-1472.608 -1251.708)" fill="#ffcf83"/>
            <path id="Path_1247434" data-name="Path 1247434" d="M1699.4,1439.606s-1.219-.235-1.437-.836,1.1.064,1.438.836" transform="translate(-1491.113 -1263.306)" fill="#ffcf83"/>
            <path id="Path_1247435" data-name="Path 1247435" d="M1674.8,1438.147s.977-.824,1.536-.6-.779.842-1.536.6" transform="translate(-1470.787 -1262.404)" fill="#ffcf83"/>
            <path id="Path_1247436" data-name="Path 1247436" d="M1700.382,1433.156s-1.093.63-1.608.3.9-.685,1.608-.3" transform="translate(-1491.747 -1258.437)" fill="#ffcf83"/>
            <path id="Path_1247437" data-name="Path 1247437" d="M1679.217,1441.7s.607-1.168,1.2-1.193-.418,1.1-1.2,1.193" transform="translate(-1474.669 -1265.033)" fill="#ffcf83"/>
            <path id="Path_1247438" data-name="Path 1247438" d="M1699.333,1423.767s-.607,1.168-1.2,1.193.418-1.1,1.2-1.193" transform="translate(-1491.12 -1250.335)" fill="#ffcf83"/>
            <path id="Path_1247439" data-name="Path 1247439" d="M1685.78,1443.844s.08-1.337.607-1.639.065,1.19-.607,1.639" transform="translate(-1480.432 -1266.492)" fill="#ffcf83"/>
            <path id="Path_1247440" data-name="Path 1247440" d="M1696.251,1417.936s-.08,1.337-.607,1.639-.064-1.189.607-1.639" transform="translate(-1488.894 -1245.215)" fill="#ffcf83"/>
            <path id="Path_1247441" data-name="Path 1247441" d="M1674.282,1433.926s1.157-.478,1.63-.085-.973.559-1.63.085" transform="translate(-1470.335 -1259.046)" fill="#ffcf83"/>
            <path id="Path_1247442" data-name="Path 1247442" d="M1688.054,1429.6a.865.865,0,1,0-.862.933.9.9,0,0,0,.862-.933" transform="translate(-1480.916 -1254.636)" fill="#365da4"/>
            <path id="Path_1247443" data-name="Path 1247443" d="M1676.708,1488.095a2.918,2.918,0,0,1,1.785-.881,7.34,7.34,0,0,1,1.353,0,3.009,3.009,0,0,1-1.4.881,5.9,5.9,0,0,1-1.742,0" transform="translate(-1472.465 -1306.031)" fill="#6e9e63"/>
            <path id="Path_1247444" data-name="Path 1247444" d="M1660.666,1475.928c-.131-.123-.229-1.13-1.031-1.381a7.082,7.082,0,0,0-1.371-.3s.695,1.308,1.2,1.5a3.7,3.7,0,0,0,1.2.178" transform="translate(-1456.268 -1294.666)" fill="#6e9e63"/>
            <path id="Path_1247445" data-name="Path 1247445" d="M1705.735,1474.011l.106-.027c-.043-.189-.149-4,1.047-6.222l-.1-.052c-1.212,2.252-1.1,6.145-1.057,6.3" transform="translate(-1497.937 -1288.925)" fill="#6e9e63"/>
            <path id="Path_1247446" data-name="Path 1247446" d="M1716.085,1451.378s.376.789.147,1.143-.418-.656-.147-1.143" transform="translate(-1506.928 -1274.583)" fill="#ffcf83"/>
            <path id="Path_1247447" data-name="Path 1247447" d="M1717.38,1469.947s-.376-.789-.147-1.143.418.656.147,1.143" transform="translate(-1507.989 -1289.821)" fill="#ffcf83"/>
            <path id="Path_1247448" data-name="Path 1247448" d="M1710.86,1453.357s.7.527.657.947-.673-.389-.657-.947" transform="translate(-1502.457 -1276.321)" fill="#ffcf83"/>
            <path id="Path_1247449" data-name="Path 1247449" d="M1720.413,1469.074s-.7-.527-.657-.947.673.389.657.947" transform="translate(-1510.268 -1289.189)" fill="#ffcf83"/>
            <path id="Path_1247450" data-name="Path 1247450" d="M1706.334,1458.018s.861.153,1.015.546-.777-.042-1.015-.546" transform="translate(-1498.483 -1280.414)" fill="#ffcf83"/>
            <path id="Path_1247451" data-name="Path 1247451" d="M1722.246,1467.335s-.861-.153-1.015-.546.777.041,1.015.546" transform="translate(-1511.55 -1287.983)" fill="#ffcf83"/>
            <path id="Path_1247452" data-name="Path 1247452" d="M1704.87,1466.383s.69-.538,1.084-.39-.55.55-1.084.39" transform="translate(-1497.197 -1287.395)" fill="#ffcf83"/>
            <path id="Path_1247453" data-name="Path 1247453" d="M1722.937,1463.126s-.772.411-1.135.2.636-.447,1.135-.2" transform="translate(-1511.998 -1284.806)" fill="#ffcf83"/>
            <path id="Path_1247454" data-name="Path 1247454" d="M1707.992,1468.7s.429-.762.85-.778-.3.719-.85.778" transform="translate(-1499.939 -1289.111)" fill="#ffcf83"/>
            <path id="Path_1247455" data-name="Path 1247455" d="M1722.2,1457s-.429.762-.85.779.3-.72.85-.779" transform="translate(-1511.554 -1279.517)" fill="#ffcf83"/>
            <path id="Path_1247456" data-name="Path 1247456" d="M1712.625,1470.1s.057-.873.429-1.07.046.776-.429,1.07" transform="translate(-1504.007 -1290.063)" fill="#ffcf83"/>
            <path id="Path_1247457" data-name="Path 1247457" d="M1720.02,1453.192s-.056.873-.429,1.07-.046-.776.429-1.07" transform="translate(-1509.983 -1276.176)" fill="#ffcf83"/>
            <path id="Path_1247458" data-name="Path 1247458" d="M1704.507,1463.628s.817-.312,1.151-.055-.687.365-1.151.055" transform="translate(-1496.878 -1285.203)" fill="#ffcf83"/>
            <path id="Path_1247459" data-name="Path 1247459" d="M1714.232,1460.8a.609.609,0,1,0-.609.609.609.609,0,0,0,.609-.609" transform="translate(-1504.349 -1282.325)" fill="#365da4"/>
            <path id="Path_1247460" data-name="Path 1247460" d="M1706.219,1498.982a2.113,2.113,0,0,1,1.26-.575,5.6,5.6,0,0,1,.955,0,2.139,2.139,0,0,1-.985.575,4.511,4.511,0,0,1-1.23,0" transform="translate(-1498.382 -1315.868)" fill="#6e9e63"/>
            <path id="Path_1247461" data-name="Path 1247461" d="M1694.893,1491.041c-.093-.081-.162-.737-.728-.9a5.34,5.34,0,0,0-.968-.2s.49.854.848.981a2.813,2.813,0,0,0,.848.116" transform="translate(-1486.946 -1308.45)" fill="#6e9e63"/>
            <path id="Path_1247462" data-name="Path 1247462" d="M76.506,1047.25V1105.4H63.677c-.006-.017-.013-.038-.02-.058l-.014-.038-.171-.454-.028-.057v-.028a.106.106,0,0,1-.028-.058,7.956,7.956,0,0,1-.316-.8c-.058-.144-.115-.317-.2-.488v-.058l-.028-.028c-.394-1.024-.883-2.357-1.446-3.967q-.075-.219-.155-.443c-.422-1.217-.887-2.579-1.382-4.08q-.342-1.057-.7-2.206c-1-3.181-2.079-6.855-3.142-10.9-.517-1.98-1.033-4.044-1.522-6.2-.287-1.242-.576-2.536-.853-3.842q-.12-.574-.237-1.149c-.507-2.446-.984-4.966-1.415-7.541-.567-3.382-1.054-6.858-1.424-10.387q-.276-2.6-.463-5.231c0-.045-.008-.093-.01-.138Z" transform="translate(-44.015 -919.683)" fill="#fff3e9"/>
            <path id="Path_1247463" data-name="Path 1247463" d="M180.173,848.918l13.59,27.977h41.288L213.526,849.02Z" transform="translate(-158.226 -745.51)" fill="#ed9f4a"/>
            <path id="Path_1247464" data-name="Path 1247464" d="M221.675,876.895l-1.227-1.589-20.3-26.285-33.353-.1,12.173,25.058v57.251h41.478V876.895Z" transform="translate(-146.48 -745.51)" fill="#f9ddbf"/>
            <path id="Path_1247465" data-name="Path 1247465" d="M400.352,963.754h.868a5.334,5.334,0,0,1,5.333,5.333V982.64H395.192V968.914a5.16,5.16,0,0,1,5.16-5.16" transform="translate(-347.053 -846.357)" fill="#efcdaf"/>
            <path id="Path_1247466" data-name="Path 1247466" d="M97.126,848.914l-.093.124-.8,1.071-19.414,25.88-1.84,2.454H48.294q-.276-2.6-.463-5.231c0-.045-.008-.093-.009-.138s-.008-.094-.011-.141c-.17-2.471-.276-4.96-.308-7.447L60.294,848.92h5.422l18.94,0Z" transform="translate(-41.717 -745.506)" fill="#ed9f4a"/>
            <path id="Path_1247467" data-name="Path 1247467" d="M477.548,1142.737l9.676,19.918h29.395l-15.325-19.845Z" transform="translate(-419.377 -1003.538)" fill="#ed9f4a"/>
            <path id="Path_1247468" data-name="Path 1247468" d="M509.387,1162.654l-15.325-19.845-23.745-.073,9.676,19.918h.064V1189.2l29.33.057v-26.6Z" transform="translate(-413.027 -1003.537)" fill="#f9ddbf"/>
            <rect id="Rectangle_410850" data-name="Rectangle 410850" width="24.837" height="26.546" transform="translate(42.193 159.117)" fill="#fff3e9"/>
            <path id="Path_1247469" data-name="Path 1247469" d="M323.972,1164.353h26.681l15.771-21.024-7.948,0-18.275,0Z" transform="translate(-284.509 -1004.058)" fill="#ed9f4a"/>
            <path id="Path_1247470" data-name="Path 1247470" d="M621.758,1298.748v22.182h12.357v-21.978a6.281,6.281,0,0,0-6.28-6.28,6.078,6.078,0,0,0-6.076,6.076" transform="translate(-546.021 -1135.209)" fill="#efcdaf"/>
            <path id="Path_1247471" data-name="Path 1247471" d="M663.87,1224.113a1.387,1.387,0,1,0-1.387,1.386,1.387,1.387,0,0,0,1.387-1.386" transform="translate(-580.568 -1073.783)" fill="#efcdaf"/>
            <path id="Path_1247472" data-name="Path 1247472" d="M323.972,1164.363h5.064l29.441-21.022-18.275,0Z" transform="translate(-284.509 -1004.068)" fill="#e58638"/>
            <path id="Path_1247473" data-name="Path 1247473" d="M109.976,896.228H85.591l12.864-15.776h24.385Z" transform="translate(-75.165 -773.202)" fill="#2b478b"/>
            <path id="Path_1247474" data-name="Path 1247474" d="M188.313,913.228H163.928l.151-.186h24.385Z" transform="translate(-143.959 -801.823)" fill="#aec3ff"/>
            <path id="Path_1247475" data-name="Path 1247475" d="M144.172,880.45l-12.864,15.776h-.186l12.864-15.776Z" transform="translate(-115.15 -773.201)" fill="#aec3ff"/>
            <path id="Path_1247476" data-name="Path 1247476" d="M197.211,880.45l-12.864,15.776h-.186l12.864-15.776Z" transform="translate(-161.729 -773.201)" fill="#aec3ff"/>
            <path id="Path_1247477" data-name="Path 1247477" d="M248.248,880.45l-12.864,15.776H235.2l12.864-15.776Z" transform="translate(-206.549 -773.201)" fill="#aec3ff"/>
            <path id="Path_1247478" data-name="Path 1247478" d="M162.156,944.632H137.771l.151-.186h24.385Z" transform="translate(-120.989 -829.402)" fill="#aec3ff"/>
            <path id="Path_1247479" data-name="Path 1247479" d="M134.533,978.509H110.148l.151-.186h24.385Z" transform="translate(-96.731 -859.152)" fill="#aec3ff"/>
            <path id="Path_1247480" data-name="Path 1247480" d="M203.917,909.191l-.14-.76,1.379-.76.14.76Z" transform="translate(-178.954 -797.106)" fill="#aec3ff"/>
            <path id="Path_1247481" data-name="Path 1247481" d="M256.385,909.191l-.14-.76,1.379-.76.14.76Z" transform="translate(-225.031 -797.106)" fill="#aec3ff"/>
            <path id="Path_1247482" data-name="Path 1247482" d="M308.184,909.191l-.14-.76,1.379-.76.14.76Z" transform="translate(-270.52 -797.106)" fill="#aec3ff"/>
            <path id="Path_1247483" data-name="Path 1247483" d="M178.4,940.49l-.14-.76,1.379-.76.14.76Z" transform="translate(-156.542 -824.592)" fill="#aec3ff"/>
            <path id="Path_1247484" data-name="Path 1247484" d="M230.865,940.49l-.14-.76,1.379-.76.14.76Z" transform="translate(-202.62 -824.592)" fill="#aec3ff"/>
            <path id="Path_1247485" data-name="Path 1247485" d="M282.664,940.49l-.14-.76,1.379-.76.14.76Z" transform="translate(-248.109 -824.592)" fill="#aec3ff"/>
            <path id="Path_1247486" data-name="Path 1247486" d="M150.774,974.366l-.14-.76,1.379-.76.14.76Z" transform="translate(-132.285 -854.342)" fill="#aec3ff"/>
            <path id="Path_1247487" data-name="Path 1247487" d="M203.242,974.366l-.14-.76,1.379-.76.14.76Z" transform="translate(-178.362 -854.342)" fill="#aec3ff"/>
            <path id="Path_1247488" data-name="Path 1247488" d="M255.041,974.366l-.14-.76,1.379-.76.14.76Z" transform="translate(-223.85 -854.342)" fill="#aec3ff"/>
            <path id="Path_1247489" data-name="Path 1247489" d="M2225.056,407.838q-.014.907-.058,1.831a61.16,61.16,0,0,1-.959,8.148l-38.15-.5s3.453-8.15,11.711-7.244c0,0,11.989-13.586,24.772-1.812,0,0,1.011-.217,2.685-.422" transform="translate(-1919.622 -354.313)" fill="#f8fcff"/>
            <path id="Path_1247490" data-name="Path 1247490" d="M1488.845,174.317s1.788-4.3,6.064-3.826c0,0,6.208-7.173,12.828-.956,0,0,7.037-1.54,12.248,1.334a12.181,12.181,0,0,1,4.622,3.926Z" transform="translate(-1307.486 -146.657)" fill="#f8fcff"/>
            <path id="Path_1247491" data-name="Path 1247491" d="M308.086,683.81s1.911-4.6,6.479-4.087c0,0,6.632-7.664,13.705-1.022,0,0,7.518-1.646,13.086,1.425a13.014,13.014,0,0,1,4.939,4.2Z" transform="translate(-270.558 -593.648)" fill="#f8fcff"/>
            <path id="Path_1247492" data-name="Path 1247492" d="M226.358,581.552s1.462-3.519,4.958-3.128c0,0,5.076-5.865,10.488-.782,0,0,5.754-1.259,10.014,1.09a9.96,9.96,0,0,1,3.779,3.211Z" transform="translate(-198.785 -505.458)" fill="#f8fcff"/>
            <path id="Path_1247493" data-name="Path 1247493" d="M2351.543,1353.763a45.922,45.922,0,0,1-.934,5.7c-.009.041-.019.082-.03.124a130.907,130.907,0,0,0-29.735,14.9H2295.82c3.626-2.333,21.3-12.121,55.723-20.721" transform="translate(-2016.162 -1188.859)" fill="#6e9e63"/>
            <path id="Path_1247494" data-name="Path 1247494" d="M2286.658,1304.648s19.2-1.683,24.423,0,7.831,9.514,7.085,15.231-2.486,10.565-5.842,10.44-27.1,0-27.1,0Z" transform="translate(-2006.861 -1145.069)" fill="#edbd77"/>
            <path id="Path_1247495" data-name="Path 1247495" d="M2329.155,1299.909s4.064-.757,6.83-1.037a14.349,14.349,0,0,0-2.444.673s5.9-.891,8.058-.673,5.106.582,5.106.582l3.284-.22s-2.735.331-2.589.373a13.926,13.926,0,0,1,3.48.87,15.2,15.2,0,0,1,3.045,1.264,9.053,9.053,0,0,0-2.8-.953s4.554,3.159,4.566,6.168-19.584-4.531-19.584-4.531Z" transform="translate(-2045.437 -1140.624)" fill="#edbd77"/>
            <path id="Path_1247496" data-name="Path 1247496" d="M2213.809,1308.7s-7.644-.581-12.491,5.571-.932,20.4,5.406,20.452,14.146-.919,15.835-9.194-1.853-16.62-8.751-16.829" transform="translate(-1931.266 -1149.269)" fill="#ffcf83"/>
            <path id="Path_1247497" data-name="Path 1247497" d="M2191.017,1380.6a28.508,28.508,0,0,0,3.024-4.019l.415.87Z" transform="translate(-1924.126 -1208.896)" fill="#ffcf83"/>
            <path id="Path_1247498" data-name="Path 1247498" d="M2207.218,1349.056s.346-2.257,1.341-3.086a4.82,4.82,0,0,0-.671,2.776c.234,1.262-.67.31-.67.31" transform="translate(-1938.353 -1182.015)" fill="#ffcf83"/>
            <path id="Path_1247499" data-name="Path 1247499" d="M2210.486,1466.8c.05.121-1.471-4.133-.974-4.941l.289,0a25.044,25.044,0,0,0,.684,4.938" transform="translate(-1940.28 -1283.791)" fill="#ffcf83"/>
            <path id="Path_1247500" data-name="Path 1247500" d="M2195.35,1455.822a2.712,2.712,0,0,0-1.782,0,1.927,1.927,0,0,1,1.7.331c.643.627.083-.331.083-.331" transform="translate(-1926.366 -1278.34)" fill="#ffcf83"/>
            <path id="Path_1247501" data-name="Path 1247501" d="M2222.935,1355.837a10.93,10.93,0,0,1-5.679-1.4,8.463,8.463,0,0,1-3.79-5.725c-.958-4.434-.487-8.071,1.4-10.812,1.763-2.562,4.741-4.23,8.611-4.825a6.781,6.781,0,0,1,6.54,2.441c2.408,2.888,3.1,7.765,1.683,11.861-1,2.894-3.676,4.682-7.154,4.783q-.149,0-.3,0c-3.5,0-6.662-1.791-7.747-4.423a8.241,8.241,0,0,1,.161-7.391,8.479,8.479,0,0,1,6.531-3.874,4.75,4.75,0,0,1,4.9,2.026,8.02,8.02,0,0,1,.471,7.338,6.842,6.842,0,0,1-5.739,2.8,3.773,3.773,0,0,1-3.467-2.1,4.693,4.693,0,0,1,.144-4.729,3.518,3.518,0,0,1,2.957-1.674,1.992,1.992,0,0,1,1.84,1.965c.067.761-.193,1.609-.818,1.755-1.163.271-1.576-.364-1.593-.391,0,0-.628-1.037.153-1.186.9-.171.66.524.66.524.013.019-.221.958.707.741.383-.089.634-.711.572-1.415a1.665,1.665,0,0,0-1.539-1.673,3.187,3.187,0,0,0-2.673,1.532,4.381,4.381,0,0,0-.122,4.413,3.463,3.463,0,0,0,3.19,1.921,6.5,6.5,0,0,0,5.45-2.643,7.662,7.662,0,0,0-.459-7,4.479,4.479,0,0,0-4.6-1.886,8.17,8.17,0,0,0-6.3,3.717,7.932,7.932,0,0,0-.142,7.109c1.066,2.586,4.25,4.322,7.739,4.221,3.34-.1,5.9-1.8,6.861-4.568,1.382-4,.714-8.746-1.626-11.552a6.48,6.48,0,0,0-6.246-2.33c-3.781.581-6.684,2.2-8.4,4.69-1.834,2.665-2.288,6.219-1.35,10.563a8.157,8.157,0,0,0,3.645,5.52c3.788,2.318,9.763.915,9.815.9l-.676.365a15.887,15.887,0,0,1-3.627.41" transform="translate(-1943.417 -1170.602)" fill="#edbd77"/>
            <path id="Path_1247502" data-name="Path 1247502" d="M2526.984,1229.58s25.822-2.264,32.841,0,10.529,12.793,9.526,20.48-3.343,14.206-7.855,14.039-36.434,0-36.434,0Z" transform="translate(-2217.481 -1078.919)" fill="#edbd77"/>
            <path id="Path_1247503" data-name="Path 1247503" d="M2584.128,1223.207s5.465-1.018,9.184-1.394a19.317,19.317,0,0,0-3.287.905s7.939-1.2,10.835-.905,6.866.783,6.866.783l4.415-.3s-3.677.446-3.482.5,3.593.473,4.68,1.17a20.4,20.4,0,0,1,4.094,1.7s-2.7-1.365-3.76-1.281c0,0,6.123,4.247,6.139,8.293s-26.334-6.093-26.334-6.093Z" transform="translate(-2269.351 -1072.942)" fill="#edbd77"/>
            <path id="Path_1247504" data-name="Path 1247504" d="M2429.028,1235.023s-10.278-.781-16.8,7.491-1.253,27.428,7.27,27.5,19.021-1.236,21.292-12.364-2.492-22.349-11.767-22.629" transform="translate(-2115.831 -1084.565)" fill="#ffcf83"/>
            <path id="Path_1247505" data-name="Path 1247505" d="M2398.381,1331.708s3.677-4.234,4.067-5.4l.557,1.17Z" transform="translate(-2106.231 -1164.744)" fill="#ffcf83"/>
            <path id="Path_1247506" data-name="Path 1247506" d="M2420.167,1289.292s.466-3.035,1.8-4.15a6.485,6.485,0,0,0-.9,3.733c.314,1.7-.9.417-.9.417" transform="translate(-2125.362 -1128.597)" fill="#ffcf83"/>
            <path id="Path_1247507" data-name="Path 1247507" d="M2424.56,1447.624c.067.163-1.978-5.557-1.309-6.643l.389,0s.266,5.052.92,6.64" transform="translate(-2127.952 -1265.452)" fill="#ffcf83"/>
            <path id="Path_1247508" data-name="Path 1247508" d="M2404.207,1432.858a3.646,3.646,0,0,0-2.4,0,2.591,2.591,0,0,1,2.284.446c.865.843.112-.446.112-.446" transform="translate(-2109.243 -1258.123)" fill="#ffcf83"/>
            <path id="Path_1247509" data-name="Path 1247509" d="M2441.3,1298.411a14.7,14.7,0,0,1-7.636-1.887,11.379,11.379,0,0,1-5.1-7.7c-1.288-5.962-.656-10.853,1.88-14.538,2.372-3.445,6.375-5.689,11.579-6.488a9.119,9.119,0,0,1,8.793,3.282c3.237,3.883,4.168,10.441,2.262,15.949-1.346,3.892-4.942,6.3-9.62,6.432-.133,0-.266.006-.4.006-4.711,0-8.958-2.408-10.417-5.948-1.486-3.608-1.409-7.138.217-9.938,1.652-2.844,4.771-4.694,8.782-5.209a6.386,6.386,0,0,1,6.594,2.724c1.936,2.895,1.931,7.6.634,9.867-1.25,2.187-4.711,3.875-7.716,3.77a5.075,5.075,0,0,1-4.662-2.826,6.311,6.311,0,0,1,.194-6.359,4.728,4.728,0,0,1,3.975-2.251,2.677,2.677,0,0,1,2.474,2.642c.09,1.024-.259,2.163-1.1,2.359-1.564.365-2.118-.489-2.141-.525,0,0-.844-1.394.206-1.594,1.2-.229.887.7.887.7.017.026-.3,1.288.951,1,.514-.12.852-.956.769-1.9a2.239,2.239,0,0,0-2.07-2.25,4.284,4.284,0,0,0-3.595,2.061,5.892,5.892,0,0,0-.164,5.934,4.656,4.656,0,0,0,4.29,2.583c2.861.1,6.149-1.492,7.328-3.554a10.3,10.3,0,0,0-.618-9.415,6.022,6.022,0,0,0-6.183-2.537c-3.876.5-6.883,2.273-8.465,5-1.558,2.682-1.626,6.077-.191,9.559s5.715,5.812,10.406,5.676c4.491-.13,7.94-2.426,9.226-6.142,1.859-5.373.96-11.761-2.186-15.534a8.713,8.713,0,0,0-8.4-3.132c-5.084.781-8.988,2.961-11.29,6.307-2.467,3.584-3.077,8.362-1.815,14.2a10.967,10.967,0,0,0,4.9,7.423c5.093,3.117,13.128,1.23,13.2,1.212l-.909.491a21.363,21.363,0,0,1-4.877.551" transform="translate(-2132.17 -1113.252)" fill="#edbd77"/>
            <path id="Path_1247510" data-name="Path 1247510" d="M941.988,1309.209s-4.431,17.1-4.034,18.451,2.623,5.944,2.623,5.944h-2.142a1.615,1.615,0,0,1-.83-1.484c.035-1.06-2.968-5.193-2.968-5.193s1.178-6.564,0-9.15c-5.073-11.136,3.424-11.03,7.35-8.567" transform="translate(-819.408 -1148.547)" fill="#cca283"/>
            <path id="Path_1247511" data-name="Path 1247511" d="M1154.951,1367.514s-1.272,9.186-1.342,9.751-.671,1.272-.636,2.19.353,4.028,1.343,4.8a2.815,2.815,0,0,1,1.1,1.731h-2.685a3.588,3.588,0,0,1-.389-1.555c.071-.636-.742-1.307-.777-2.614a20.032,20.032,0,0,0-.353-4.593c-.353-.848-.247-6.677-1.413-7.984s5.158-1.731,5.158-1.731" transform="translate(-1009.609 -1200.935)" fill="#cca283"/>
            <path id="Path_1247512" data-name="Path 1247512" d="M939.623,1265.247c-.029.424-.044.818-.044,1.212.073,9.944,9.915,6.966,10.266,6.7a2.108,2.108,0,0,1,1.066-.234c4.921,1.957,11.813.16,13.245-.423s5.242.862,7.009.73c.715-.058,1.314-.8,1.767-1.737a13.168,13.168,0,0,0,1.066-3.636,23.046,23.046,0,0,1,1.1-3.2c.248-.614.526-1.285.818-1.972.058-.117.1-.248.161-.365-.146-.161-.277-.336-.409-.511a21.479,21.479,0,0,1-1.913-3.417,17.139,17.139,0,0,0-2.249-3.694c-1.446-.453-3.169.365-3.884.321a19.857,19.857,0,0,1-2.395-.292c-.307-.058-.584-.1-.847-.146-1.46-.219-10.309.92-16.559,1.1-1.285.044-2.453.029-3.432-.029-.073,0-.146-.015-.219-.015a14.4,14.4,0,0,0-4.731.248c-.8.248-.818.555-.818.555-2.5,2.439,1.008,8.806,1.008,8.806" transform="translate(-823.493 -1101.739)" fill="#efcdaf"/>
            <path id="Path_1247513" data-name="Path 1247513" d="M1181.365,1367.514s-1.272,9.186-1.343,9.751-.671,1.272-.636,2.19.353,4.028,1.343,4.8a2.815,2.815,0,0,1,1.1,1.731h-2.685a3.588,3.588,0,0,1-.389-1.555c.071-.636-.742-1.307-.777-2.614a20.053,20.053,0,0,0-.353-4.593c-.353-.848-.247-6.677-1.413-7.984s5.158-1.731,5.158-1.731" transform="translate(-1032.805 -1200.935)" fill="#efcdaf"/>
            <path id="Path_1247514" data-name="Path 1247514" d="M965.49,1345.1s-3.577,13.274-3.18,14.626,2.623,5.944,2.623,5.944h-2.141a1.615,1.615,0,0,1-.83-1.484c.035-1.06-2.968-5.193-2.968-5.193s-.243-7.493-2.009-9.719,4.579-6.636,8.5-4.173" transform="translate(-840.146 -1180.615)" fill="#efcdaf"/>
            <path id="Path_1247515" data-name="Path 1247515" d="M1325.18,1369.613c.145.194.272.333.272.333a5.561,5.561,0,0,0,.636.032,1.728,1.728,0,0,0,.856-.233,1.077,1.077,0,0,0,.419-.5s-.121-.313-.758-.4c-.469-.061-.929-.386-1.321-.427h0a.566.566,0,0,0-.4.094c-.3.208.027.745.292,1.1" transform="translate(-1163.398 -1201.728)" fill="#efcdaf"/>
            <path id="Path_1247516" data-name="Path 1247516" d="M1328.782,1377.384c.018-.008.242.034.533.033a1.383,1.383,0,0,0,1.38-.734s-.121-.313-.758-.4a.665.665,0,0,1-.067-.011c-.409-.073-.812-.33-1.165-.4a.6.6,0,0,0-.486.078.265.265,0,0,0-.114.193c-.058.439.677,1.239.677,1.239" transform="translate(-1166.324 -1208.26)" fill="#efcdaf"/>
            <path id="Path_1247517" data-name="Path 1247517" d="M1213.894,1258.494c.175,4.556,1.022,13.274,1.548,14.048a20.4,20.4,0,0,1,3.169.35c2.628.54,3.359,1.533,3.607,2a11.8,11.8,0,0,0,3.037,3.14c.394.073.628.584,1.037,1.416a1.9,1.9,0,0,0,1.84.934,1.457,1.457,0,0,0,1.212-.949,5.87,5.87,0,0,1-.277-1.636c.044-.818-.482-3.256-.044-3.913a3.054,3.054,0,0,0-.029-1.942c-.088-.365-.175-.613-.175-.613a1.634,1.634,0,0,0-.131-.292c-.088-.19-.19-.409-.307-.643-.131-.278-.307-.584-.5-.92a37.957,37.957,0,0,0-3.519-5.14,34.846,34.846,0,0,0-5.695-5.666,25.289,25.289,0,0,0-4.658-2.92,7.8,7.8,0,0,0-.117,2.745" transform="translate(-1066.003 -1102.784)" fill="#efcdaf"/>
            <path id="Path_1247518" data-name="Path 1247518" d="M1061.224,1292.174c-.092-.235-.045-4.232-2.93-5.054s-4.465.442-8.065-1.011-7.391-2.653-7.77-1.074.316,6,0,8.023,6.52,2.738,9.324,1.5,10.455.211,9.441-2.38" transform="translate(-915.372 -1127.848)" fill="#2b478b"/>
            <path id="Path_1247519" data-name="Path 1247519" d="M928.827,1270.062a7.248,7.248,0,0,0-2.185,4.438c-.316,2.843.569,15.332.569,15.332l.721-.04.774-13.818Z" transform="translate(-813.707 -1115.353)" fill="#2b478b"/>
            <path id="Path_1247520" data-name="Path 1247520" d="M932.178,1430.041s-1.558-1.677-.59-2.056.59.758.59,1.2Z" transform="translate(-817.832 -1253.972)" fill="#2b478b"/>
            <path id="Path_1247521" data-name="Path 1247521" d="M951.8,1255.886a15.231,15.231,0,0,0,4.994,1.738c2.585.044,8.864-1.446,11.419-1.607s12.909,2.234,15.347,1.46a.4.4,0,0,1,.19-.029,4.86,4.86,0,0,1,2.366.949c.57.365,1.2.8,1.855,1.3a119.01,119.01,0,0,1,9.769,8.732,37.96,37.96,0,0,0-3.519-5.14,34.851,34.851,0,0,0-5.7-5.666,25.294,25.294,0,0,0-4.658-2.921c-1.446-.453-3.169.365-3.884.321a19.905,19.905,0,0,1-2.395-.292c-.307-.058-.584-.1-.847-.146-1.46-.219-10.31.92-16.559,1.1-1.285.044-2.453.029-3.432-.029-.073,0-.146-.015-.219-.015a14.4,14.4,0,0,0-4.731.248" transform="translate(-835.861 -1101.739)" fill="#ffe7d7"/>
            <path id="Path_1247522" data-name="Path 1247522" d="M1020.631,1255.721c1.13.922,3.3,1.289,6.362.718,3.727-.695,4.611.948,7.707,1.074a3.081,3.081,0,0,0,3.333-2.743c-.3-.05-.586-.1-.85-.138-1.451-.22-10.308.91-16.551,1.089" transform="translate(-896.306 -1101.779)" fill="#2b478b"/>
            <path id="Path_1247523" data-name="Path 1247523" d="M1248.371,1283.916a6.57,6.57,0,0,0,.248.877,7.262,7.262,0,0,0,.482.949c1.65,2.629.088,5.783-.292,8.207,2.629.54,3.359,1.533,3.607,2a11.809,11.809,0,0,0,3.037,3.14c.394.073.628.584,1.037,1.417a1.9,1.9,0,0,0,1.84.934,1.457,1.457,0,0,0,1.212-.949,5.87,5.87,0,0,1-.277-1.636c.044-.818-.482-3.256-.044-3.913a3.052,3.052,0,0,0-.029-1.942,1.4,1.4,0,0,0,1.387-.73s-.131-.321-.759-.409h-.073a1.145,1.145,0,0,0,.423-.511s-.131-.306-.759-.394c-.467-.058-.935-.38-1.329-.423a37.957,37.957,0,0,0-3.519-5.14,34.818,34.818,0,0,0-5.695-5.666,8.725,8.725,0,0,0-.555,2.073,6.47,6.47,0,0,0,.059,2.117" transform="translate(-1096.201 -1123.839)" fill="#2b478b"/>
            <path id="Path_1247524" data-name="Path 1247524" d="M939.623,1272.605c-.028.424-.039.827-.037,1.211,3.207,2.378,8.831,1.178,9.253-1.683.487-3.3-3.943-3.761-3.618-6.477a3.175,3.175,0,0,0-1.054-2.657c-5.5-.326-5.551.808-5.551.808-2.49,2.438,1.007,8.8,1.007,8.8" transform="translate(-823.496 -1109.1)" fill="#2b478b"/>
            <g id="Group_1201621" data-name="Group 1201621" transform="translate(80.357 38.421)" opacity="0.6">
              <g id="Group_1201620" data-name="Group 1201620">
                <g id="Group_1201619" data-name="Group 1201619" clip-path="url(#clip-path-6)">
                  <path id="Path_1247525" data-name="Path 1247525" d="M780.26,400.421H666.946a7.263,7.263,0,0,1-7.263-7.263V322.672a7.263,7.263,0,0,1,7.263-7.263H780.26a7.263,7.263,0,0,1,7.263,7.263v70.486a7.263,7.263,0,0,1-7.263,7.263" transform="translate(-659.683 -315.409)" fill="#f8fcff"/>
                </g>
              </g>
            </g>
            <path id="Path_1247526" data-name="Path 1247526" d="M778.641,410.023a18.386,18.386,0,1,1-15.012-18.082c-2.3,8.367-5.343,19.448-5.547,20.139.379-.6,11.565-5.612,19.2-8.991a18.281,18.281,0,0,1,1.355,6.934" transform="translate(-651.487 -343.924)" fill="#7fa4f4"/>
            <path id="Path_1247527" data-name="Path 1247527" d="M909.364,390.609c-6.746,2.973-17.921,7.954-18.279,8.518.194-.657,3.285-11.893,5.356-19.424a20.207,20.207,0,0,1,12.923,10.906" transform="translate(-782.54 -333.45)" fill="#f99746"/>
            <path id="Path_1247528" data-name="Path 1247528" d="M1407.782,350.1a1.528,1.528,0,1,1,1.528,1.528,1.528,1.528,0,0,1-1.528-1.528" transform="translate(-1236.298 -306.111)" fill="#aec3ff"/>
            <path id="Path_1247529" data-name="Path 1247529" d="M1472.911,350.1a1.529,1.529,0,1,1,1.529,1.528,1.529,1.529,0,0,1-1.529-1.528" transform="translate(-1293.493 -306.111)" fill="#aec3ff"/>
            <path id="Path_1247530" data-name="Path 1247530" d="M1540.131,350.1a1.529,1.529,0,1,1,1.529,1.528,1.529,1.529,0,0,1-1.529-1.528" transform="translate(-1352.525 -306.111)" fill="#f99746"/>
            <path id="Path_1247531" data-name="Path 1247531" d="M761.907,879.679H726.315V868.353h35.592Zm-35.155-.437H761.47V868.79H726.752Z" transform="translate(-637.841 -762.577)" fill="#aec3ff"/>
            <rect id="Rectangle_410852" data-name="Rectangle 410852" width="13.767" height="0.897" transform="translate(91.052 108.819)" fill="#aec3ff"/>
            <rect id="Rectangle_410853" data-name="Rectangle 410853" width="9.769" height="0.897" transform="translate(106.269 108.819)" fill="#aec3ff"/>
            <rect id="Rectangle_410854" data-name="Rectangle 410854" width="7.598" height="0.897" transform="translate(91.053 111.383)" fill="#aec3ff"/>
            <rect id="Rectangle_410855" data-name="Rectangle 410855" width="9.769" height="0.897" transform="translate(99.936 111.383)" fill="#aec3ff"/>
            <rect id="Rectangle_410856" data-name="Rectangle 410856" width="9.769" height="0.897" transform="translate(110.716 111.383)" fill="#aec3ff"/>
            <path id="Path_1247532" data-name="Path 1247532" d="M1258.262,873.961h-17.621v-5.607h17.621Zm-17.4-.216h17.188V868.57h-17.188Z" transform="translate(-1089.517 -762.578)" fill="#aec3ff"/>
            <rect id="Rectangle_410857" data-name="Rectangle 410857" width="6.816" height="0.444" transform="translate(152.401 107.283)" fill="#aec3ff"/>
            <rect id="Rectangle_410858" data-name="Rectangle 410858" width="4.836" height="0.444" transform="translate(159.935 107.283)" fill="#aec3ff"/>
            <rect id="Rectangle_410859" data-name="Rectangle 410859" width="3.762" height="0.444" transform="translate(152.401 108.552)" fill="#aec3ff"/>
            <rect id="Rectangle_410860" data-name="Rectangle 410860" width="4.836" height="0.444" transform="translate(156.799 108.552)" fill="#aec3ff"/>
            <rect id="Rectangle_410861" data-name="Rectangle 410861" width="4.836" height="0.444" transform="translate(162.136 108.552)" fill="#aec3ff"/>
            <path id="Path_1247533" data-name="Path 1247533" d="M1430.753,873.961h-17.621v-5.607h17.621Zm-17.4-.216h17.188V868.57h-17.188Z" transform="translate(-1240.996 -762.578)" fill="#aec3ff"/>
            <rect id="Rectangle_410862" data-name="Rectangle 410862" width="6.816" height="0.444" transform="translate(173.413 107.283)" fill="#aec3ff"/>
            <rect id="Rectangle_410863" data-name="Rectangle 410863" width="4.836" height="0.444" transform="translate(180.946 107.283)" fill="#aec3ff"/>
            <rect id="Rectangle_410864" data-name="Rectangle 410864" width="3.762" height="0.444" transform="translate(173.413 108.552)" fill="#aec3ff"/>
            <rect id="Rectangle_410865" data-name="Rectangle 410865" width="4.836" height="0.444" transform="translate(177.81 108.552)" fill="#aec3ff"/>
            <rect id="Rectangle_410866" data-name="Rectangle 410866" width="4.836" height="0.444" transform="translate(183.148 108.552)" fill="#aec3ff"/>
            <path id="Path_1247534" data-name="Path 1247534" d="M1258.262,669.23h-17.621v-5.607h17.621Zm-17.4-.216h17.188v-5.175h-17.188Z" transform="translate(-1089.517 -582.786)" fill="#aec3ff"/>
            <rect id="Rectangle_410867" data-name="Rectangle 410867" width="6.816" height="0.444" transform="translate(152.401 82.344)" fill="#aec3ff"/>
            <rect id="Rectangle_410868" data-name="Rectangle 410868" width="4.836" height="0.444" transform="translate(159.935 82.344)" fill="#aec3ff"/>
            <rect id="Rectangle_410869" data-name="Rectangle 410869" width="3.762" height="0.444" transform="translate(152.401 83.613)" fill="#aec3ff"/>
            <rect id="Rectangle_410870" data-name="Rectangle 410870" width="4.836" height="0.444" transform="translate(156.799 83.613)" fill="#aec3ff"/>
            <rect id="Rectangle_410871" data-name="Rectangle 410871" width="4.836" height="0.444" transform="translate(162.136 83.613)" fill="#aec3ff"/>
            <path id="Path_1247535" data-name="Path 1247535" d="M1430.753,669.23h-17.621v-5.607h17.621Zm-17.4-.216h17.188v-5.175h-17.188Z" transform="translate(-1240.996 -582.786)" fill="#aec3ff"/>
            <rect id="Rectangle_410872" data-name="Rectangle 410872" width="6.816" height="0.444" transform="translate(173.413 82.344)" fill="#aec3ff"/>
            <rect id="Rectangle_410873" data-name="Rectangle 410873" width="4.836" height="0.444" transform="translate(180.946 82.344)" fill="#aec3ff"/>
            <rect id="Rectangle_410874" data-name="Rectangle 410874" width="3.762" height="0.444" transform="translate(173.413 83.613)" fill="#aec3ff"/>
            <rect id="Rectangle_410875" data-name="Rectangle 410875" width="4.836" height="0.444" transform="translate(177.81 83.613)" fill="#aec3ff"/>
            <rect id="Rectangle_410876" data-name="Rectangle 410876" width="4.836" height="0.444" transform="translate(183.148 83.613)" fill="#aec3ff"/>
            <path id="Path_1247536" data-name="Path 1247536" d="M1258.262,491.015h-17.621v-5.607h17.621Zm-17.4-.216h17.188v-5.175h-17.188Z" transform="translate(-1089.517 -426.279)" fill="#aec3ff"/>
            <rect id="Rectangle_410877" data-name="Rectangle 410877" width="6.816" height="0.444" transform="translate(152.401 60.636)" fill="#aec3ff"/>
            <rect id="Rectangle_410878" data-name="Rectangle 410878" width="4.836" height="0.444" transform="translate(159.935 60.636)" fill="#aec3ff"/>
            <rect id="Rectangle_410879" data-name="Rectangle 410879" width="3.762" height="0.444" transform="translate(152.401 61.905)" fill="#aec3ff"/>
            <rect id="Rectangle_410880" data-name="Rectangle 410880" width="4.836" height="0.444" transform="translate(156.799 61.905)" fill="#aec3ff"/>
            <rect id="Rectangle_410881" data-name="Rectangle 410881" width="4.836" height="0.444" transform="translate(162.136 61.905)" fill="#aec3ff"/>
            <path id="Path_1247537" data-name="Path 1247537" d="M1430.753,491.015h-17.621v-5.607h17.621Zm-17.4-.216h17.188v-5.175h-17.188Z" transform="translate(-1240.996 -426.279)" fill="#aec3ff"/>
            <rect id="Rectangle_410882" data-name="Rectangle 410882" width="6.816" height="0.444" transform="translate(173.413 60.636)" fill="#aec3ff"/>
            <rect id="Rectangle_410883" data-name="Rectangle 410883" width="4.836" height="0.444" transform="translate(180.946 60.636)" fill="#aec3ff"/>
            <rect id="Rectangle_410884" data-name="Rectangle 410884" width="3.762" height="0.444" transform="translate(173.413 61.905)" fill="#aec3ff"/>
            <rect id="Rectangle_410885" data-name="Rectangle 410885" width="4.836" height="0.444" transform="translate(177.81 61.905)" fill="#aec3ff"/>
            <rect id="Rectangle_410886" data-name="Rectangle 410886" width="4.836" height="0.444" transform="translate(183.148 61.905)" fill="#aec3ff"/>
            <path id="Path_1247538" data-name="Path 1247538" d="M1145.346,442.281a1.993,1.993,0,1,1,1.993,1.993,1.994,1.994,0,0,1-1.993-1.993" transform="translate(-1005.829 -386.655)" fill="#f99746"/>
            <path id="Path_1247539" data-name="Path 1247539" d="M1159.168,401.293h-.194a.321.321,0,0,1-.32-.32v-3.72a.321.321,0,0,1,.32-.32h.194a.321.321,0,0,1,.319.32v3.72a.321.321,0,0,1-.319.32" transform="translate(-1017.516 -348.582)" fill="#f99746"/>
            <path id="Path_1247540" data-name="Path 1247540" d="M1159.168,486h-.194a.321.321,0,0,1-.32-.32v-3.72a.321.321,0,0,1,.32-.32h.194a.321.321,0,0,1,.319.32v3.72a.321.321,0,0,1-.319.32" transform="translate(-1017.516 -422.974)" fill="#f99746"/>
            <path id="Path_1247541" data-name="Path 1247541" d="M1180.924,470.171l.114-.157a.321.321,0,0,1,.447-.07l3.005,2.193a.321.321,0,0,1,.07.447l-.114.157a.321.321,0,0,1-.447.07l-3.005-2.193a.321.321,0,0,1-.07-.447" transform="translate(-1037.02 -412.646)" fill="#f99746"/>
            <path id="Path_1247542" data-name="Path 1247542" d="M1112.493,420.241l.114-.157a.321.321,0,0,1,.447-.07l3.005,2.193a.32.32,0,0,1,.07.446l-.114.157a.32.32,0,0,1-.447.07l-3.005-2.193a.32.32,0,0,1-.07-.447" transform="translate(-976.925 -368.798)" fill="#f99746"/>
            <path id="Path_1247543" data-name="Path 1247543" d="M1118.926,472.124l.129.145a.321.321,0,0,1-.025.451l-2.774,2.479a.321.321,0,0,1-.451-.025l-.129-.145a.32.32,0,0,1,.025-.451l2.774-2.479a.321.321,0,0,1,.451.025" transform="translate(-979.702 -414.52)" fill="#f99746"/>
            <path id="Path_1247544" data-name="Path 1247544" d="M1182.085,415.673l.129.145a.321.321,0,0,1-.025.451l-2.774,2.479a.321.321,0,0,1-.452-.025l-.129-.145a.321.321,0,0,1,.025-.451l2.774-2.479a.32.32,0,0,1,.451.025" transform="translate(-1035.168 -364.946)" fill="#f99746"/>
            <path id="Path_1247545" data-name="Path 1247545" d="M1105.454,452.948l0,.194a.321.321,0,0,1-.323.316l-3.72-.042a.321.321,0,0,1-.316-.323l0-.194a.321.321,0,0,1,.323-.316l3.72.042a.321.321,0,0,1,.316.323" transform="translate(-966.967 -397.453)" fill="#f99746"/>
            <path id="Path_1247546" data-name="Path 1247546" d="M1190.159,453.9l0,.194a.321.321,0,0,1-.323.316l-3.72-.042a.32.32,0,0,1-.316-.323l0-.194a.321.321,0,0,1,.323-.316l3.72.042a.32.32,0,0,1,.316.323" transform="translate(-1041.354 -398.291)" fill="#f99746"/>
            <path id="Path_1247547" data-name="Path 1247547" d="M1280.368,443.924h-39.727V440.7h39.727Zm-39.35-.377h38.973v-2.468h-38.973Z" transform="translate(-1089.517 -387.019)" fill="#aec3ff"/>
            <rect id="Rectangle_410887" data-name="Rectangle 410887" width="30.837" height="2.845" transform="translate(151.313 53.872)" fill="#aec3ff"/>
            <path id="Path_1247548" data-name="Path 1247548" d="M1139.449,585.841c0-2.6,3.992-7.511,3.992-7.511s3.993,4.908,3.993,7.511-1.788,4.713-3.993,4.713-3.992-2.11-3.992-4.713" transform="translate(-1000.651 -507.882)" fill="#aec3ff"/>
            <path id="Path_1247549" data-name="Path 1247549" d="M1280.368,618.507h-39.727v-3.222h39.727Zm-39.35-.377h38.973v-2.468h-38.973Z" transform="translate(-1089.517 -540.336)" fill="#f99746"/>
            <rect id="Rectangle_410888" data-name="Rectangle 410888" width="18.845" height="2.845" transform="translate(151.313 75.138)" fill="#f99746"/>
            <path id="Path_1247550" data-name="Path 1247550" d="M1160.988,775.6V765.182h-2.249V775.6a2.373,2.373,0,1,0,2.249,0" transform="translate(-1016.494 -671.974)" fill="#aec3ff"/>
            <path id="Path_1247551" data-name="Path 1247551" d="M1280.368,816.279h-39.727v-3.222h39.727Zm-39.35-.377h38.973v-2.468h-38.973Z" transform="translate(-1089.517 -714.017)" fill="#aec3ff"/>
            <rect id="Rectangle_410889" data-name="Rectangle 410889" width="25.856" height="2.845" transform="translate(151.313 99.229)" fill="#aec3ff"/>
            <path id="Path_1247552" data-name="Path 1247552" d="M1164.334,856.714a1.539,1.539,0,1,1,1.54,1.54,1.54,1.54,0,0,1-1.54-1.54" transform="translate(-1022.505 -751.004)" fill="#f99746"/>
            <rect id="Rectangle_410890" data-name="Rectangle 410890" width="0.918" height="4.822" transform="translate(142.876 100.197)" fill="#f99746"/>
            <rect id="Rectangle_410891" data-name="Rectangle 410891" width="3.712" height="5.161" transform="translate(88.692 97.158)" fill="#aec3ff"/>
            <rect id="Rectangle_410892" data-name="Rectangle 410892" width="3.712" height="8.582" transform="translate(95.051 93.737)" fill="#aec3ff"/>
            <rect id="Rectangle_410893" data-name="Rectangle 410893" width="3.712" height="11.385" transform="translate(101.409 90.934)" fill="#f99746"/>
            <rect id="Rectangle_410894" data-name="Rectangle 410894" width="3.712" height="9.11" transform="translate(107.768 93.209)" fill="#aec3ff"/>
            <rect id="Rectangle_410895" data-name="Rectangle 410895" width="3.712" height="13.958" transform="translate(114.126 88.36)" fill="#aec3ff"/>
            <rect id="Rectangle_410896" data-name="Rectangle 410896" width="3.712" height="16.449" transform="translate(120.485 85.87)" fill="#f99746"/>
            <rect id="Rectangle_410897" data-name="Rectangle 410897" width="7.832" height="0.719" transform="translate(99.935 74.231)" fill="#fff"/>
            <rect id="Rectangle_410898" data-name="Rectangle 410898" width="12.002" height="0.719" transform="translate(99.936 75.876)" fill="#fff"/>
            <rect id="Rectangle_410899" data-name="Rectangle 410899" width="7.832" height="0.719" transform="translate(113.837 52.501)" fill="#fff"/>
            <rect id="Rectangle_410900" data-name="Rectangle 410900" width="4.903" height="0.719" transform="translate(113.837 54.146)" fill="#fff"/>
            <path id="Path_1247553" data-name="Path 1247553" d="M2123.979,560.628s14.854,16.881,20.036,27.3c0,0-6.231,13.567-26.431,24.589a7.007,7.007,0,0,1-2.268-1.175c-2.137-1.527.231-2.645.7-2.948,5.125-3.32,14.079-17.619,14.338-18.86s-11.223-12.369-14.713-16.483,2.914-14.544,8.338-12.424" transform="translate(-1856.873 -492.089)" fill="#ffb27d"/>
            <path id="Path_1247554" data-name="Path 1247554" d="M1531.831,558.731s-19.441,18.508-23.936,18.018-22.08-4.737-22.08-4.737l-1.466,3.369s17.645,10.359,26.119,10.211,19.565-8.222,19.565-8.222Z" transform="translate(-1303.538 -490.671)" fill="#ffb27d"/>
            <path id="Path_1247555" data-name="Path 1247555" d="M1911.716,358.847s.1,2.081-1.151,2.488,1.286,4.9,1.087,7.932-1.541,4.251-1.541,4.251a4.976,4.976,0,0,0,.284-2.7,4.105,4.105,0,0,1-1.509,3.229c-1.567,1.082-1.146,2.019-1.146,2.019s-3.542-1.061-3.641-3.717a7,7,0,0,0-.03,1.7s-3.058-2.3-3.2-4.942,2.408-4.879,3.57-4.919,3.758-2.324,3.688-3.187,3.593-2.151,3.593-2.151" transform="translate(-1669.312 -315.135)" fill="#2c3a64"/>
            <path id="Path_1247556" data-name="Path 1247556" d="M1906.214,225.588c2.061-3.129,10.243-1.378,18.275,3.912s12.873,12.115,10.812,15.244-10.243,1.378-18.275-3.912-12.873-12.115-10.812-15.244" transform="translate(-1673.598 -196.745)" fill="#e2af64"/>
            <path id="Path_1247557" data-name="Path 1247557" d="M1832.271,1036.378c-2.228,11.807-5.1,27.868-7.31,40.433-.262,1.484-.515,2.917-.757,4.289-.055.317-.11.633-.165.942h-22.126q-.047-.473-.089-.942a164.587,164.587,0,0,1-.237-28.017c.237-3.046.551-5.853.9-8.4,1.455-15.039,1.945-21.412,2.093-23.519l.031-.465c0-.028,0-.055,0-.078l0-.071c0-.042.006-.08.008-.113l0-.093c0-.031,0-.046,0-.046l7.542,2.244,3.69,1.1.87,2.763,1.739,5.525L1831.1,1036Z" transform="translate(-1581.706 -896.014)" fill="#233862"/>
            <path id="Path_1247558" data-name="Path 1247558" d="M1885.913,1011.551c-.381,6.134-1.01,27.764-1.711,41.748q-.024.478-.047.942h-22.94q-.106-.469-.212-.942c-2.435-10.951-4.429-23.247-5.858-33.228-.251.011-2.87-17.825-9.433-25.687-.06-.071-.067-.127-.031-.169.325-.418,4.49.3,4.49.3a9.259,9.259,0,0,0,1.135.223c3.15.432,7.723-.264,12.26-1.322h0c1.226-.286,2.448-.6,3.639-.922,3.36-.912,6.47-1.914,8.689-2.668.551-.187,1.046-.359,1.476-.51.349-.123.655-.232.912-.325h0c.619-.223.964-.353.964-.353s.155.137.421.419a22.33,22.33,0,0,1,4.5,7.927,37.07,37.07,0,0,1,1.738,14.562" transform="translate(-1620.836 -868.214)" fill="#2b478b"/>
            <path id="Path_1247559" data-name="Path 1247559" d="M1946.765,183.376l14.439,21.907s1.651-3.234,3.484-2.074c2.86,1.807,9.005-4.379,7.724-13.114-.084-.571-.185-1.114-.3-1.629-2.881-4.15-6.08-8.772-8.376-12.021-6.631-4-16.975,6.931-16.975,6.931" transform="translate(-1709.627 -154.178)" fill="#2c3a64"/>
            <path id="Path_1247560" data-name="Path 1247560" d="M1894.672,427.8a24.656,24.656,0,0,0,8.046,4.8c12.75,4.832,19.308-5.608,22.241-12.987a11.42,11.42,0,0,0-4.274-1.977c-.749-.193-1.533-.367-2.239-.507a1.423,1.423,0,0,1-.912-.6c-1.216-1.835-2.447-6.485-2-13.022l-.642.082-10.761,1.428s.027,3.363-.164,6.511a32.355,32.355,0,0,1-.392,3.659,2.167,2.167,0,0,1-1.922,1.761h0a.03.03,0,0,1-.006.009,67.419,67.419,0,0,0-6.97,10.85" transform="translate(-1663.879 -354.349)" fill="#ffb27d"/>
            <path id="Path_1247561" data-name="Path 1247561" d="M1971.109,405.618s.029,3.36-.165,6.511c5.958.211,9.447-5.014,10.926-7.939Z" transform="translate(-1730.86 -354.955)" fill="#ed985f"/>
            <path id="Path_1247562" data-name="Path 1247562" d="M1927.457,270.2s14.056,1.128,14.623-7.637,2.764-14.521-6.186-15.611-10.912,2.141-11.813,5.02-.265,17.709,3.376,18.228" transform="translate(-1689.384 -216.681)" fill="#ffb27d"/>
            <path id="Path_1247563" data-name="Path 1247563" d="M1919.057,234.7c2.343-2.5,3.95-1.815,4.82-.964a9.855,9.855,0,0,1,12.518,2.828,16.776,16.776,0,0,0,4.846,10.24s-2.665,1.421-8.481-.476a10.069,10.069,0,0,1-4.579-3.61,32.888,32.888,0,0,0,5.21,7.26c-6.855-3.714-9.065-13.717-9.282-14.774a11.049,11.049,0,0,0-3.329,3.894c-.844,2.187-1.451,6.762-2.781,6.52,0,0-2.458-7.174,1.056-10.92" transform="translate(-1683.633 -204.251)" fill="#2c3a64"/>
            <path id="Path_1247564" data-name="Path 1247564" d="M1990.758,178.321s6.537-13.011-2.6-18.155-15.821-3.124-20.846,3.167Z" transform="translate(-1727.672 -138.091)" fill="#edbd77"/>
            <path id="Path_1247565" data-name="Path 1247565" d="M1813.122,539.9c.5.521.813.815.813.815,10.647-1.326,11.147-12.259,11.147-12.259s-8.334-10.99-16.115-13.408a40.855,40.855,0,0,0-4.734-1.027c-2.435,2.019-5.239,4.977-7.877,7.382-3.041,2.774-8.274,3.716-10.21-1.2-.776-1.97,1.089-6.06,1.281-6.354a.042.042,0,0,0,.006-.01l-.584.041c-.954.076-1.813.193-2.594.271-3.8.381-9.042,2.9-19.64,16.311,0,0,5.727,7.073,11.544,7.484-.233,11.2.969,29.454.969,29.454-2.541,5,35.212,16.573,36.842,11.806,2.444-3.729,0-10.868-2.107-16.34-.518-1.336-.632-2.759-1.093-3.793a12.405,12.405,0,0,1-.7-2.043,12.1,12.1,0,0,1-.122-5.366,115.518,115.518,0,0,1,3.177-11.761" transform="translate(-1549.663 -451.247)" fill="#f99746"/>
            <path id="Path_1247566" data-name="Path 1247566" d="M1891.409,195.759q-.412-.424-.849-.852v0a62.709,62.709,0,0,0-10.536-8.144,65.39,65.39,0,0,0-9.728-5.03h0q-.92-.379-1.817-.7c-7.112-2.6-12.844-2.8-14.579-.019-1.83,2.933,1.267,8.395,7.334,13.936l0,0c0-.049-.011-.1-.016-.143s-.008-.1-.013-.144-.009-.111-.014-.168c0-.041-.006-.082-.01-.124,0-.069-.008-.138-.012-.209,0-.088-.009-.176-.012-.265,0-.009,0-.02,0-.031,0-.064,0-.13-.006-.2V193.6c0-.042,0-.085,0-.129,0-.154,0-.311,0-.466,0-.055,0-.112,0-.166,0-.031,0-.063,0-.094,0-.052,0-.1.009-.154,0-.1.011-.19.019-.284s.017-.188.027-.284c0,0,0-.011,0-.016,0-.034.008-.069.011-.1s0-.044.008-.064c.009-.066.017-.132.026-.2.014-.108.031-.215.052-.322,0-.017.006-.036.009-.053.022-.127.047-.253.077-.378.012-.063.028-.126.044-.187l0-.024c-.649-1.366-.766-2.546-.237-3.394.612-.983,2.006-1.38,3.9-1.256h0l.157.013h0a15.238,15.238,0,0,1,2.277.366h0c.192.044.385.091.583.143.716.188,1.468.422,2.247.7h.009a40.043,40.043,0,0,1,7.462,3.694c1.069.667,2.082,1.361,3.029,2.066h0l.281.212c4.376,3.319,7.266,6.885,7.6,9.348a2.506,2.506,0,0,1-.3,1.707,1.2,1.2,0,0,1-.077.11.128.128,0,0,1-.009.016,2.3,2.3,0,0,1-.761.655l0,0a1.409,1.409,0,0,1-.129.067s0,0,0,0a4.022,4.022,0,0,1-1.115.339h0c-.041.033-.082.064-.123.1s-.061.047-.093.069l-.091.066-.028.02c-.053.035-.1.071-.157.105-.082.053-.165.1-.247.152l-.122.069-.123.064c-.055.028-.108.055-.163.08a.511.511,0,0,1-.061.028l-.061.027,0,0-.014.006-.075.031c-.038.014-.074.03-.112.042s-.093.034-.138.049-.088.028-.13.039l-.013,0c-.036.009-.071.019-.107.027a.287.287,0,0,1-.039.011c-.033.008-.066.016-.1.022s-.082.016-.124.022c-.025,0-.051.008-.076.011s-.059.008-.089.011-.077.008-.116.01c-.016,0-.031,0-.047,0h-.019a.186.186,0,0,1-.03,0h-.011a.349.349,0,0,1-.041,0,2.425,2.425,0,0,1-.3-.019,2.211,2.211,0,0,1-.29-.058c-.047-.014-.094-.028-.14-.044s-.069-.027-.1-.041a.8.8,0,0,1-.075-.033c-.02-.009-.041-.019-.061-.03a.453.453,0,0,1-.053-.028c-.036-.019-.071-.039-.105-.061a1.715,1.715,0,0,0-.215-.116l-.069-.03-.028-.011a.866.866,0,0,0-.1-.035,1.405,1.405,0,0,0-.405-.06h-.019a.044.044,0,0,0-.014,0h-.019c-.017,0-.033,0-.05,0a.227.227,0,0,0-.033,0c-.03,0-.058.006-.086.011l-.009,0-.039.008a.461.461,0,0,0-.068.014l-.067.017a.7.7,0,0,0-.078.024l-.052.019a.781.781,0,0,0-.077.03h0l-.06.025c-.019.009-.038.017-.055.027s-.042.022-.065.033l-.061.033-.063.038-.06.038c-.02.013-.041.025-.061.039a.523.523,0,0,0-.06.042c-.039.027-.078.057-.116.088a.576.576,0,0,0-.057.045c-.019.016-.038.031-.056.049-.038.031-.074.064-.11.1s-.072.066-.107.1c-.017.017-.035.034-.052.053l-.051.052c-.02.019-.037.038-.055.057h0q1.031.426,2.03.788a36.879,36.879,0,0,0,5.952,1.658c4.2.755,7.338.264,8.546-1.67,1.608-2.58-.594-7.112-5.271-11.939" transform="translate(-1627.61 -157.193)" fill="#ffcf83"/>
            <path id="Path_1247567" data-name="Path 1247567" d="M2079.768,744.138c5.438,1.742,2.9-1.239,7.1-.936-.517-1.336-.9-2.546-1.362-3.579a12.39,12.39,0,0,1-.7-2.043,12.1,12.1,0,0,1-.122-5.366,104.538,104.538,0,0,1,3.177-11.761c-1.2-3.157-6.33,2.019-6.33,2.019a16.731,16.731,0,0,0-3.506,13.471c1.159,7.9-2.946,6.691,1.746,8.195" transform="translate(-1824.399 -631.797)" fill="#ed7d2b"/>
            <path id="Path_1247568" data-name="Path 1247568" d="M2030.1,519.472a27.913,27.913,0,0,0-11.025,17.44l-2.655-.843s1.119-8.524,11.275-17.2c0,0,.765.152,1.021.215.345.086,1.384.384,1.384.384" transform="translate(-1770.793 -455.668)" fill="#2b478b"/>
            <path id="Path_1247569" data-name="Path 1247569" d="M1874.148,533.092l2.78.183a28.2,28.2,0,0,1,6.112-19.093c-.954.076-1.818.169-2.594.271a43.31,43.31,0,0,0-6.3,18.64" transform="translate(-1645.855 -451.548)" fill="#2b478b"/>
            <path id="Path_1247570" data-name="Path 1247570" d="M1854.774,639.941c.172-.731,1.873-7.832,1.873-7.832s.392-2.22-3.509-2.44-17.742-.949-17.742-.949a4.312,4.312,0,0,0-1.914,3.474c-.028,2.336-1.911,15.7-1.911,15.7l-1.937,29.39,42.207,18.187s2.894-14.854-.347-25.208c-1.89-6.038-4.326-12.344-4.326-12.344s-15.019-6.818-12.392-17.979" transform="translate(-1606.763 -552.135)" fill="#2b478b"/>
            <path id="Path_1247571" data-name="Path 1247571" d="M2022.692,647.543a1.166,1.166,0,1,0-1.464.758,1.166,1.166,0,0,0,1.464-.758" transform="translate(-1774.304 -567.33)" fill="#ed7d2b"/>
            <path id="Path_1247572" data-name="Path 1247572" d="M2021.053,647.023a1.166,1.166,0,1,0-1.464.758,1.166,1.166,0,0,0,1.464-.758" transform="translate(-1772.865 -566.874)" fill="#f99746"/>
            <path id="Path_1247573" data-name="Path 1247573" d="M2031.839,653.848a.169.169,0,1,0-.169.17.17.17,0,0,0,.169-.17" transform="translate(-1784.04 -574.053)" fill="#2b478b"/>
            <path id="Path_1247574" data-name="Path 1247574" d="M2022.757,653.864a.169.169,0,1,0-.169.17.169.169,0,0,0,.169-.17" transform="translate(-1776.064 -574.067)" fill="#2b478b"/>
            <path id="Path_1247575" data-name="Path 1247575" d="M1881.806,635.383a1.166,1.166,0,1,0-1.464.758,1.166,1.166,0,0,0,1.464-.758" transform="translate(-1650.58 -556.652)" fill="#ed7d2b"/>
            <path id="Path_1247576" data-name="Path 1247576" d="M1880.167,634.863a1.166,1.166,0,1,0-1.464.758,1.165,1.165,0,0,0,1.464-.758" transform="translate(-1649.14 -556.195)" fill="#f99746"/>
            <path id="Path_1247577" data-name="Path 1247577" d="M1890.953,641.688a.169.169,0,1,0-.169.17.169.169,0,0,0,.169-.17" transform="translate(-1660.315 -563.374)" fill="#2b478b"/>
            <path id="Path_1247578" data-name="Path 1247578" d="M1881.87,641.7a.169.169,0,1,0-.169.17.169.169,0,0,0,.169-.17" transform="translate(-1652.339 -563.387)" fill="#2b478b"/>
            <path id="Path_1247579" data-name="Path 1247579" d="M2065.563,372.554s.1,2.081-1.152,2.488,1.286,4.9,1.087,7.932-1.541,4.251-1.541,4.251a4.979,4.979,0,0,0,.284-2.7,4.105,4.105,0,0,1-1.509,3.229c-1.567,1.083-1.146,2.019-1.146,2.019s-3.542-1.061-3.641-3.717a7.005,7.005,0,0,0-.03,1.7s-3.058-2.3-3.2-4.942,2.408-4.879,3.571-4.919,3.758-2.324,3.688-3.187,3.594-2.151,3.594-2.151" transform="translate(-1804.418 -327.172)" fill="#2c3a64"/>
            <path id="Path_1247580" data-name="Path 1247580" d="M1947.718,392.853a7.545,7.545,0,0,1-3.585,1.122c-1.476-.146-2.28-1.927-2.28-1.927a12.379,12.379,0,0,1,5.866.8" transform="translate(-1705.312 -344.23)" fill="#fff2e9"/>
            <path id="Path_1247581" data-name="Path 1247581" d="M1821.578,863.437h-28.209a3.57,3.57,0,0,1-3.007-2.138l-7.1-17.482c-.48-1.181.089-2.138,1.27-2.138h28.209a3.57,3.57,0,0,1,3.007,2.138l7.1,17.482c.479,1.181-.089,2.138-1.27,2.138" transform="translate(-1565.889 -739.152)" fill="#a4c9ff"/>
            <path id="Path_1247582" data-name="Path 1247582" d="M1807.759,863.437H1779.55a3.57,3.57,0,0,1-3.007-2.138l-7.1-17.482c-.48-1.181.089-2.138,1.27-2.138h28.209a3.57,3.57,0,0,1,3.007,2.138l7.1,17.482c.48,1.181-.089,2.138-1.27,2.138" transform="translate(-1553.754 -739.152)" fill="#71a4ff"/>
            <path id="Path_1247583" data-name="Path 1247583" d="M1789.062,852.686h0a1.636,1.636,0,0,1,1.373.977c.218.537-.043.976-.58.976a1.636,1.636,0,0,1-1.373-.976c-.218-.537.043-.977.58-.977" transform="translate(-1570.557 -748.819)" fill="#2b478b"/>
            <path id="Path_1247584" data-name="Path 1247584" d="M1816.487,856.025h0a.955.955,0,0,1,.8.57c.127.313-.025.57-.338.57a.954.954,0,0,1-.8-.57c-.128-.313.025-.57.338-.57" transform="translate(-1594.882 -751.751)" fill="#2b478b"/>
            <path id="Path_1247585" data-name="Path 1247585" d="M1908.643,911.317c-.471-1.159.087-2.1,1.246-2.1a3.5,3.5,0,0,1,2.95,2.1c.471,1.159-.087,2.1-1.246,2.1a3.5,3.5,0,0,1-2.951-2.1" transform="translate(-1676.001 -798.465)" fill="#a4c9ff"/>
            <path id="Path_1247586" data-name="Path 1247586" d="M2087.51,931.439a33.282,33.282,0,0,1-4.814-3.234c-.6-.66-.64.189-.6.427a3.267,3.267,0,0,0,1.253,2.328c1.589,1.3,4.162.479,4.162.479" transform="translate(-1828.462 -814.922)" fill="#ffb27d"/>
            <path id="Path_1247587" data-name="Path 1247587" d="M2023.967,942.609s-7-2.1-8.608-1.919a23.038,23.038,0,0,0-5.588,1.628c-.3.3.97.615,1.934.333a8.247,8.247,0,0,1,3.18.045,49.2,49.2,0,0,0-4.9,1.283.144.144,0,0,0-.032.244,2.536,2.536,0,0,0,1.707.182,29.94,29.94,0,0,1,3.432-.142l-4.459.969a.119.119,0,0,0-.1.118c.007.212.363.439,1.405.486a34.146,34.146,0,0,0,3.522-.365l-2.422,1.278a2.106,2.106,0,0,0,1.823.012,15.843,15.843,0,0,1,3.963-.791c.584.123,3.5,1.153,4.876.977a7.887,7.887,0,0,0,1.928-.426Z" transform="translate(-1764.919 -826.093)" fill="#ffb27d"/>
            <path id="Path_1247588" data-name="Path 1247588" d="M1419.28,628.671s-3.51-3.75-4.8-4.2-5.895-1.224-5.895-1.224.019,1.1,2.079,1.862,2.492,4.334,3.711,5.346a16.219,16.219,0,0,0,4.441,1.886Z" transform="translate(-1237.003 -547.33)" fill="#ffb27d"/>
            <path id="Path_1247589" data-name="Path 1247589" d="M1432.824,671.608s-3.42-.149-4.531-.848-2.921-1.611-2.572-2.166,4.12-.136,4.12-.136Z" transform="translate(-1252.013 -586.898)" fill="#ffb27d"/>
            <path id="Path_1247590" data-name="Path 1247590" d="M1419.741,616.1c-.179-.08-4.74-3.13-4.74-3.13s-.384,1.445.288,1.72,4.452,1.41,4.452,1.41" transform="translate(-1242.541 -538.307)" fill="#ffb27d"/>
            <path id="Path_1247591" data-name="Path 1247591" d="M2135.368,880.569a76.254,76.254,0,0,1-17.782,13.165,7,7,0,0,1-2.269-1.176c-2.137-1.526.231-2.644.7-2.947,2.322-1.5,5.433-5.264,8.163-9.042Z" transform="translate(-1856.875 -773.305)" fill="#ffb27d"/>
            <path id="Path_1247592" data-name="Path 1247592" d="M163.186,1425.177H129.008l-.014-.038c-.043-.111-.1-.262-.171-.454l-.028-.057v-.028a.105.105,0,0,1-.028-.058,8.008,8.008,0,0,1-.316-.8c-.058-.145-.115-.317-.2-.489v-.058l-.028-.028c-.394-1.024-.882-2.356-1.446-3.968q-.075-.219-.155-.443c-.422-1.217-.887-2.58-1.382-4.08q-.341-1.057-.7-2.206c3.377-.941,7.793-1.589,11.725-.312a14.852,14.852,0,0,1,5.6,3.261c2.705,2.462,3.823,4.9,6.973,3.948a11.333,11.333,0,0,1,2.729-.419c5.07-.228,12.081,1.912,11.627,6.23" transform="translate(-109.366 -1239.514)" fill="#82b378"/>
            <path id="Path_1247593" data-name="Path 1247593" d="M355.278,1519.839v.137a.4.4,0,0,1-.4.4H.4a.4.4,0,0,1-.4-.4v-.137a.4.4,0,0,1,.4-.4H354.876a.4.4,0,0,1,.4.4" transform="translate(0 -1334.351)" fill="#2e3552"/>
          </g>
        </g>
      </g>
    </g>
  </g>
</svg>
