<svg xmlns="http://www.w3.org/2000/svg" width="75.093" height="75.066" viewBox="0 0 75.093 75.066">
  <g id="ground_7555233" transform="translate(-5.249 -5.29)">
    <g id="Group_1201012" data-name="Group 1201012" transform="translate(6.368 6.383)">
      <g id="Group_1201010" data-name="Group 1201010" transform="translate(40.901)">
        <rect id="Rectangle_410709" data-name="Rectangle 410709" width="4.474" height="11.113" transform="translate(9.906 29.788)" fill="#fc9f02"/>
        <path id="Path_1244015" data-name="Path 1244015" d="M90.687,40.032l4.6,6.179a27.03,27.03,0,0,1-12.143,2.58A27.03,27.03,0,0,1,71,46.211l4.6-6.175Z" transform="translate(-71 -18.922)" fill="#70d940"/>
        <path id="Path_1244016" data-name="Path 1244016" d="M90.04,28.4l4.626,6.212a23.873,23.873,0,0,1-10.719,2.274,23.846,23.846,0,0,1-10.719-2.278L77.853,28.4Z" transform="translate(-71.804 -14.722)" fill="#55c225"/>
        <path id="Path_1244017" data-name="Path 1244017" d="M94.045,19.484a20.675,20.675,0,0,1-9.3,1.975,20.679,20.679,0,0,1-9.3-1.975L84.75,7Z" transform="translate(-72.608 -7)" fill="#70d940"/>
      </g>
      <g id="Group_1201011" data-name="Group 1201011" transform="translate(7.669)">
        <rect id="Rectangle_410710" data-name="Rectangle 410710" width="4.474" height="11.113" transform="translate(9.906 29.788)" fill="#fc9f02"/>
        <path id="Path_1244018" data-name="Path 1244018" d="M38.687,40.032l4.6,6.179a27.03,27.03,0,0,1-12.142,2.58A27.03,27.03,0,0,1,19,46.211l4.6-6.175Z" transform="translate(-19 -18.922)" fill="#70d940"/>
        <path id="Path_1244019" data-name="Path 1244019" d="M38.04,28.4l4.626,6.212a23.873,23.873,0,0,1-10.719,2.274,23.846,23.846,0,0,1-10.719-2.278L25.853,28.4Z" transform="translate(-19.804 -14.722)" fill="#55c225"/>
        <path id="Path_1244020" data-name="Path 1244020" d="M42.045,19.484a20.675,20.675,0,0,1-9.3,1.975,20.679,20.679,0,0,1-9.3-1.975L32.75,7Z" transform="translate(-20.608 -7)" fill="#70d940"/>
      </g>
      <rect id="Rectangle_410711" data-name="Rectangle 410711" width="72.855" height="24.285" transform="translate(0 48.57)" fill="#ba7401"/>
      <rect id="Rectangle_410712" data-name="Rectangle 410712" width="72.855" height="7.669" transform="translate(0 40.901)" fill="#70d940"/>
    </g>
    <g id="Group_1201013" data-name="Group 1201013" transform="translate(5.249 5.29)">
      <circle id="Ellipse_12352" data-name="Ellipse 12352" cx="1.278" cy="1.278" r="1.278" transform="translate(21.25 66.309)"/>
      <circle id="Ellipse_12353" data-name="Ellipse 12353" cx="1.278" cy="1.278" r="1.278" transform="translate(45.27 56.693)"/>
      <circle id="Ellipse_12354" data-name="Ellipse 12354" cx="1.278" cy="1.278" r="1.278" transform="translate(49.637 66.785)"/>
      <circle id="Ellipse_12355" data-name="Ellipse 12355" cx="1.278" cy="1.278" r="1.278" transform="translate(7.433 54.163)"/>
      <circle id="Ellipse_12356" data-name="Ellipse 12356" cx="1.278" cy="1.278" r="1.278" transform="translate(27.808 55.441)"/>
      <circle id="Ellipse_12357" data-name="Ellipse 12357" cx="1.278" cy="1.278" r="1.278" transform="translate(67.815 65.031)"/>
      <path id="Path_1244021" data-name="Path 1244021" d="M114.059,119.25H102.888a1.118,1.118,0,0,0,0,2.237h11.171a1.118,1.118,0,1,0,0-2.237Z" transform="translate(-40.086 -46.42)"/>
      <path id="Path_1244022" data-name="Path 1244022" d="M91.979,119.25H88.8a1.118,1.118,0,1,0,0,2.237h3.177a1.118,1.118,0,1,0,0-2.237Z" transform="translate(-35.002 -46.42)"/>
      <path id="Path_1244023" data-name="Path 1244023" d="M79.223,81.25H6.368a1.118,1.118,0,0,0,0,2.237H48l-4,3.953a1.109,1.109,0,0,0-.252.38L41.582,93.21l-5.913,2.542a1.118,1.118,0,0,0,.442,2.146,1.1,1.1,0,0,0,.441-.091l5.519-2.372,3.8,5.193-.3,4.907H6.368a1.118,1.118,0,0,0,0,2.237H53.224a1.118,1.118,0,0,0,0-2.237H47.818l.312-5.177a1.12,1.12,0,0,0-.214-.728l-4.2-5.736,2.014-5.028,5.451-5.379H79.223a1.118,1.118,0,1,0,0-2.237Z" transform="translate(-5.25 -32.705)"/>
      <path id="Path_1244024" data-name="Path 1244024" d="M6.368,48.4H79.223a1.118,1.118,0,1,0,0-2.237H62.767V37.193A26.255,26.255,0,0,0,72.1,34.648,1.118,1.118,0,0,0,72.452,33l-3.67-4.93a15,15,0,0,0,1.892-.824,1.119,1.119,0,0,0,.355-1.647l-3.682-4.945a13.826,13.826,0,0,0,1.9-.81,1.118,1.118,0,0,0,.355-1.646l-9.3-12.484a1.158,1.158,0,0,0-1.793,0L49.219,18.2a1.118,1.118,0,0,0,.355,1.646,13.826,13.826,0,0,0,1.9.81L47.8,25.6a1.119,1.119,0,0,0,.355,1.647,15,15,0,0,0,1.892.824L46.375,33a1.118,1.118,0,0,0,.355,1.647,26.255,26.255,0,0,0,9.331,2.545v8.973H29.535V37.193a26.254,26.254,0,0,0,9.331-2.545A1.118,1.118,0,0,0,39.22,33l-3.672-4.93a15,15,0,0,0,1.892-.824A1.119,1.119,0,0,0,37.8,25.6l-3.682-4.945a13.826,13.826,0,0,0,1.9-.81,1.118,1.118,0,0,0,.355-1.646l-2.906-3.9a1.118,1.118,0,1,0-1.793,1.336l2.067,2.775a21.56,21.56,0,0,1-7.56,1.313,21.562,21.562,0,0,1-7.56-1.316L26.18,8.255l2,2.684A1.118,1.118,0,1,0,29.97,9.6l-2.9-3.889a1.158,1.158,0,0,0-1.793,0L15.987,18.2a1.118,1.118,0,0,0,.355,1.646,13.827,13.827,0,0,0,1.9.81L14.564,25.6a1.119,1.119,0,0,0,.355,1.647,15,15,0,0,0,1.892.824L13.143,33a1.118,1.118,0,0,0,.355,1.647,27.973,27.973,0,0,0,12.684,2.719c.383,0,.751-.011,1.118-.023v8.819H25.063V42a1.118,1.118,0,0,0-2.237,0v4.168H6.368a1.118,1.118,0,1,0,0,2.237Zm14.168-27.08a24.816,24.816,0,0,0,5.643.639,24.815,24.815,0,0,0,5.643-.639l3.348,4.5a24.766,24.766,0,0,1-8.991,1.607,24.908,24.908,0,0,1-8.989-1.609Zm-4.774,11.9,3.314-4.451a28.81,28.81,0,0,0,14.208,0L36.6,33.224A28.208,28.208,0,0,1,26.18,35.13a28.213,28.213,0,0,1-10.417-1.906ZM59.412,8.255l7.56,10.152a21.575,21.575,0,0,1-7.56,1.316,21.562,21.562,0,0,1-7.56-1.316ZM53.769,21.322a24.816,24.816,0,0,0,5.643.639,24.816,24.816,0,0,0,5.643-.639l3.348,4.5a24.766,24.766,0,0,1-8.991,1.607,24.908,24.908,0,0,1-8.989-1.609Zm-1.462,7.452a28.835,28.835,0,0,0,14.209,0l3.312,4.449a29.439,29.439,0,0,1-20.834,0Zm5.986,8.569c.367.012.736.023,1.118.023s.751-.011,1.118-.023v8.819H58.294Z" transform="translate(-5.25 -5.29)"/>
      <path id="Path_1244025" data-name="Path 1244025" d="M5.294,97.731a1.12,1.12,0,0,0,.762,1.387l10,2.91,2.015,4.929a1.118,1.118,0,1,0,2.071-.846l-1.882-4.6,4.474-3.141a1.118,1.118,0,1,0-1.286-1.83l-4.762,3.346-10-2.914A1.121,1.121,0,0,0,5.294,97.731Z" transform="translate(-5.249 -38.15)"/>
      <path id="Path_1244026" data-name="Path 1244026" d="M110.122,95.284a1.119,1.119,0,1,0-.813-2.085L99.231,97.129l-7.9-3.542a1.118,1.118,0,1,0-.915,2.041l7.207,3.233-2.795,4.992a1.119,1.119,0,1,0,1.952,1.092l3.2-5.708Z" transform="translate(-35.742 -36.99)"/>
    </g>
  </g>
</svg>
