<svg xmlns="http://www.w3.org/2000/svg" width="76.345" height="76.345" viewBox="0 0 76.345 76.345">
  <g id="Group_1201804" data-name="Group 1201804" transform="translate(-867.051 -5219)">
    <g id="Group_1201378" data-name="Group 1201378" transform="translate(-154.916 2126.345)">
      <g id="Group_1200255" data-name="Group 1200255">
        <g id="Group_1187152" data-name="Group 1187152">
          <g id="Group_1185946" data-name="Group 1185946" transform="translate(-3.07)">
            <g id="Group_1184280" data-name="Group 1184280">
              <g id="Group_1182168" data-name="Group 1182168">
                <g id="Group_1178877" data-name="Group 1178877">
                  <g id="Group_1111311" data-name="Group 1111311">
                    <g id="Group_1098742" data-name="Group 1098742" transform="translate(1025.482 3093.101)">
                      <g id="Rectangle_400898" data-name="Rectangle 400898" transform="translate(-0.445 -0.445)" fill="#ffe9b5" stroke="#b18c32" stroke-width="1" opacity="0.859">
                        <rect width="76.345" height="76.345" rx="38.172" stroke="none"/>
                        <rect x="0.5" y="0.5" width="75.345" height="75.345" rx="37.672" fill="none"/>
                      </g>
                      <g id="Rectangle_400907" data-name="Rectangle 400907" transform="translate(-0.446 -0.445)" fill="none" stroke="#b18c32" stroke-width="1">
                        <rect width="76.345" height="76.345" rx="38.172" stroke="none"/>
                        <rect x="0.5" y="0.5" width="75.345" height="75.345" rx="37.672" fill="none"/>
                      </g>
                    </g>
                  </g>
                </g>
              </g>
            </g>
          </g>
        </g>
      </g>
    </g>
    <g id="equipo" transform="translate(880.051 5232)">
      <path id="Path_1247899" data-name="Path 1247899" d="M148.4,14.141l-3.39-3.39-2.367,1.541a12.67,12.67,0,0,0-3.691-1.531L138.37,8h-4.794l-.584,2.761a12.67,12.67,0,0,0-3.691,1.531l-2.367-1.541-3.39,3.39,1.227,2.927.117,6.112h1.5a9.588,9.588,0,1,1,19.175,0h1.6l-.006-6.112Zm0,0" transform="translate(-111.205 -7.201)" fill="#fcd770"/>
      <path id="Path_1247900" data-name="Path 1247900" d="M128.184,80.543l.765,1.823.016,6.112h1.6a9.53,9.53,0,0,1,1.76-5.524A6.358,6.358,0,0,0,128.184,80.543Zm0,0" transform="translate(-115.382 -72.499)" fill="#ffc729"/>
      <path id="Path_1247901" data-name="Path 1247901" d="M330.187,80.6a6.389,6.389,0,0,0-4.163,2.357,9.541,9.541,0,0,1,1.8,5.573h1.6l-.006-6.112Zm0,0" transform="translate(-293.463 -72.552)" fill="#ffc729"/>
      <path id="Path_1247902" data-name="Path 1247902" d="M305.577,115.975v-3.9a3.2,3.2,0,0,0-2.421-3.1l-3.971-.992,0-1.445a4.788,4.788,0,0,0,2.4-4.148V101A4.928,4.928,0,0,0,296.937,96a4.794,4.794,0,0,0-4.942,4.792v1.6a4.787,4.787,0,0,0,2.4,4.147v1.445l-3.971.993a3.2,3.2,0,0,0-2.421,3.1v3.9Zm0,0" transform="translate(-259.237 -86.413)" fill="#ccd1d9"/>
      <path id="Path_1247903" data-name="Path 1247903" d="M294.392,223.968a4.775,4.775,0,0,0-1.719-3.663l-2.252.563a3.2,3.2,0,0,0-2.421,3.1v3.9h6.392Zm0,0" transform="translate(-259.237 -198.302)" fill="#aab2bd"/>
      <path id="Path_1247904" data-name="Path 1247904" d="M49.577,115.975v-3.9a3.2,3.2,0,0,0-2.421-3.1l-3.971-.992,0-1.445a4.788,4.788,0,0,0,2.4-4.148V101A4.928,4.928,0,0,0,40.937,96a4.794,4.794,0,0,0-4.942,4.792v1.6a4.787,4.787,0,0,0,2.4,4.147v1.445l-3.971.993a3.2,3.2,0,0,0-2.421,3.1v3.9Zm0,0" transform="translate(-28.804 -86.413)" fill="#ccd1d9"/>
      <path id="Path_1247905" data-name="Path 1247905" d="M150.392,223.961a3.2,3.2,0,0,0-2.421-3.1l-2.252-.563A4.779,4.779,0,0,0,144,223.961v3.9h6.392Zm0,0" transform="translate(-129.618 -198.295)" fill="#aab2bd"/>
      <path id="Path_1247906" data-name="Path 1247906" d="M177.577,115.975v-3.9a3.2,3.2,0,0,0-2.421-3.1l-3.971-.992,0-1.445a4.788,4.788,0,0,0,2.4-4.148V101A4.928,4.928,0,0,0,168.937,96a4.794,4.794,0,0,0-4.942,4.792v1.6a4.787,4.787,0,0,0,2.4,4.147v1.445l-3.971.993a3.2,3.2,0,0,0-2.421,3.1v3.9Zm0,0" transform="translate(-144.021 -86.413)" fill="#ccd1d9"/>
      <g id="Group_1201803" data-name="Group 1201803" transform="translate(3.196 21.796)">
        <path id="Path_1247907" data-name="Path 1247907" d="M305.577,227.055a3.2,3.2,0,0,0-2.421-3.1l-.881-.22L291.6,229.354h-.181L288,228.377v2.574h17.577Zm0,0" transform="translate(-262.433 -223.185)" fill="#aab2bd"/>
        <path id="Path_1247908" data-name="Path 1247908" d="M177.577,250.568l-1.194.628H176.2l-4.806-1.372a5.806,5.806,0,0,0-1.287-.2l-3.49-1.116a10.628,10.628,0,0,0-5.551-.249l-1.035.24a3.047,3.047,0,0,0-.034.4v3.9h17.577Zm0,0" transform="translate(-147.216 -245.028)" fill="#aab2bd"/>
        <path id="Path_1247909" data-name="Path 1247909" d="M45.853,221.466l-3.467.8v-1.178L37.5,218.238l-3.075.769a3.2,3.2,0,0,0-2.421,3.1V226H49.577v-3.9a3.179,3.179,0,0,0-.116-.811,10.285,10.285,0,0,0-3.608.169Zm0,0" transform="translate(-32 -218.238)" fill="#aab2bd"/>
      </g>
      <path id="Path_1247910" data-name="Path 1247910" d="M98.616,276.29l-6.751-6.076L90.58,265.6l-3.658-1.17a9.017,9.017,0,0,0-4.7-.213L72.8,266.4l-.8,6.392,5.633,3.54,10.247,8.545,1.235,1.09a1.633,1.633,0,0,0,1.08.408h.147a1.633,1.633,0,0,0,1.045-2.887,2.111,2.111,0,0,0,1.352.49,1.633,1.633,0,0,0,1.045-2.887l-3.062-2.551,3.194,2.662a1.635,1.635,0,0,0,1.046.379h.173a1.633,1.633,0,0,0,1.045-2.887l.126.105a1.657,1.657,0,0,0,1.061.384h.138a1.658,1.658,0,0,0,1.11-2.891Zm0,0" transform="translate(-64.809 -237.634)" fill="#ecc19c"/>
      <path id="Path_1247911" data-name="Path 1247911" d="M199.431,233.084l-6.751-6.076a2.419,2.419,0,0,0-2.862-.276l-2.974,1.785A1.877,1.877,0,0,1,184,226.907v-.159a1.877,1.877,0,0,1,1.038-1.679l4.458-2.228a4.24,4.24,0,0,1,3.066-.285l5.021,1.434h.8L213.562,216h.8v10.387l-14.382,7.191Zm0,0" transform="translate(-165.624 -194.428)" fill="#f5e0cd"/>
      <path id="Path_1247912" data-name="Path 1247912" d="M237.99,400l-1.111,1.155,4.428,3.69a3.234,3.234,0,0,0,1.3.643,1.613,1.613,0,0,0,.179-.729,1.634,1.634,0,0,0-.587-1.254Zm0,0" transform="translate(-213.221 -360.051)" fill="#dfb28b"/>
      <path id="Path_1247913" data-name="Path 1247913" d="M200,435.1a1.695,1.695,0,0,0,2.893,1.2l1.4-1.4a1.695,1.695,0,1,0-2.4-2.4l-1.4,1.4A1.7,1.7,0,0,0,200,435.1Zm0,0" transform="translate(-180.026 -388.855)" fill="#f5e0cd"/>
      <path id="Path_1247914" data-name="Path 1247914" d="M176,411.1a1.695,1.695,0,0,0,2.893,1.2l1.4-1.4a1.695,1.695,0,1,0-2.4-2.4l-1.4,1.4A1.694,1.694,0,0,0,176,411.1Zm0,0" transform="translate(-158.423 -367.252)" fill="#f5e0cd"/>
      <path id="Path_1247915" data-name="Path 1247915" d="M152,387.1a1.695,1.695,0,0,0,2.893,1.2l1.4-1.4a1.695,1.695,0,1,0-2.4-2.4l-1.4,1.4A1.7,1.7,0,0,0,152,387.1Zm0,0" transform="translate(-136.82 -345.649)" fill="#f5e0cd"/>
      <path id="Path_1247916" data-name="Path 1247916" d="M155.031,385.626a3.3,3.3,0,0,0,.825-1.44A1.675,1.675,0,0,0,155.1,384a1.694,1.694,0,0,0-1.2.5l-1.4,1.4a1.7,1.7,0,0,0-.5,1.2,1.676,1.676,0,0,0,.186.757,3.3,3.3,0,0,0,1.44-.826Zm0,0" transform="translate(-136.82 -345.649)" fill="#f0d0b4"/>
      <path id="Path_1247917" data-name="Path 1247917" d="M179.03,409.626a3.3,3.3,0,0,0,.825-1.44A1.676,1.676,0,0,0,179.1,408a1.694,1.694,0,0,0-1.2.5l-1.4,1.4a1.7,1.7,0,0,0-.5,1.2,1.676,1.676,0,0,0,.186.757,3.3,3.3,0,0,0,1.44-.826Zm0,0" transform="translate(-158.423 -367.252)" fill="#f0d0b4"/>
      <path id="Path_1247918" data-name="Path 1247918" d="M203.03,433.626a3.3,3.3,0,0,0,.826-1.44A1.676,1.676,0,0,0,203.1,432a1.694,1.694,0,0,0-1.2.5l-1.4,1.4a1.7,1.7,0,0,0-.5,1.2,1.676,1.676,0,0,0,.186.757,3.3,3.3,0,0,0,1.44-.826Zm0,0" transform="translate(-180.026 -388.855)" fill="#f0d0b4"/>
      <path id="Path_1247919" data-name="Path 1247919" d="M128,363.1a1.695,1.695,0,0,0,2.893,1.2l1.4-1.4a1.695,1.695,0,1,0-2.4-2.4l-1.4,1.4A1.7,1.7,0,0,0,128,363.1Zm0,0" transform="translate(-115.216 -324.046)" fill="#f5e0cd"/>
      <path id="Path_1247920" data-name="Path 1247920" d="M78.123,275.648,72.8,276.882l-.8,6.392,3.345,2.1Zm0,0" transform="translate(-64.809 -248.119)" fill="#dfb28b"/>
      <path id="Path_1247921" data-name="Path 1247921" d="M19.186,206.392l-3.2,11.186h-.8L8,215.181V200H9.6l9.588,5.593Zm0,0" transform="translate(-7.201 -180.026)" fill="#e6e9ed"/>
      <path id="Path_1247922" data-name="Path 1247922" d="M16.042,203.759,9.6,200H8v15.181l4.794,1.6,3.2-12.784Zm0,0" transform="translate(-7.201 -180.026)" fill="#b4dd7f"/>
      <path id="Path_1247923" data-name="Path 1247923" d="M261.99,376l-1.111,1.155,4.428,3.69a3.233,3.233,0,0,0,1.3.643,1.612,1.612,0,0,0,.179-.729,1.634,1.634,0,0,0-.587-1.254Zm0,0" transform="translate(-234.825 -338.448)" fill="#dfb28b"/>
      <path id="Path_1247924" data-name="Path 1247924" d="M49.536,20.773h-1.8l-2.676,1.408a3.972,3.972,0,0,0-.952-.392l-3.366-.842v-.383a5.611,5.611,0,0,0,2.4-4.585v-1.4a5.74,5.74,0,0,0-5.421-5.792c-.152,0-.3,0-.451.009l.873-2.043-4.231-4.23L31.42,4.151A13.515,13.515,0,0,0,28.429,2.91L27.813,0H21.724l-.616,2.911a13.5,13.5,0,0,0-2.991,1.241L15.623,2.528,11.4,6.755,12.254,8.8c-.033,0-.064-.007-.1-.008a5.6,5.6,0,0,0-5.765,5.59v1.6a5.609,5.609,0,0,0,2.4,4.584v.383l-2.2.549-3.98-2.321H0V35.731l7.86,2.62H9.391l.191-.669,2.409,1.446a2.488,2.488,0,0,0,2.4,2.41,2.487,2.487,0,0,0,2.4,2.4,2.487,2.487,0,0,0,2.4,2.4A2.485,2.485,0,0,0,23.07,48.3l.708.625a2.433,2.433,0,0,0,1.608.607h.148a2.433,2.433,0,0,0,2.428-2.4,2.43,2.43,0,0,0,2.4-2.4,2.43,2.43,0,0,0,2.4-2.4,2.457,2.457,0,0,0,2.4-2.452,2.34,2.34,0,0,0-.012-.24l14.394-7.2Zm-7.99-6.19v1.4a4.01,4.01,0,0,1-2,3.457l-.4.231,0,2.528,3.992,1-8.786,4.625V25.665a3.975,3.975,0,0,0-1.144-2.784l2.742-.685v-2.53l-.4-.231a4.006,4.006,0,0,1-2-3.456v-1.6a3.995,3.995,0,0,1,4.119-3.993A4.131,4.131,0,0,1,41.547,14.583ZM25.973,27.19l-3.617-1.156a9.867,9.867,0,0,0-5.12-.233l-.458.1v-.236a2.4,2.4,0,0,1,1.815-2.326L23.17,22.2v-2.53l-.4-.231a4.006,4.006,0,0,1-2-3.456v-1.6a3.995,3.995,0,0,1,4.119-3.993,4.131,4.131,0,0,1,3.871,4.194v1.4a4.01,4.01,0,0,1-2,3.457l-.4.231,0,2.528,4.576,1.143a2.4,2.4,0,0,1,1.815,2.326v2.994l-.2.1h-.49l-4.912-1.4A5.036,5.036,0,0,0,25.973,27.19ZM16.958,11.958a8.783,8.783,0,0,1,15.589-.064,5.557,5.557,0,0,0-.587,2.488v1.6a5.609,5.609,0,0,0,2.4,4.584v.383l-3.2.8-3.2-.8v-.383a5.611,5.611,0,0,0,2.4-4.585v-1.4A5.74,5.74,0,0,0,24.94,8.791a5.594,5.594,0,0,0-5.764,5.59v1.6a5.609,5.609,0,0,0,2.4,4.584v.383l-3.2.8-3.2-.8v-.383a5.611,5.611,0,0,0,2.4-4.585v-1.4A5.889,5.889,0,0,0,16.958,11.958ZM13.283,7.126l2.553-2.553,2.247,1.462.43-.264a11.922,11.922,0,0,1,3.46-1.435l.492-.118L23.019,1.6h3.5l.554,2.62.492.117a11.934,11.934,0,0,1,3.46,1.435l.43.264L33.7,4.573l2.549,2.55-.906,2.122a5.585,5.585,0,0,0-1.687,1.121c-.033.032-.061.066-.093.1a10.376,10.376,0,0,0-17.622.048,5.636,5.636,0,0,0-1.763-1.25Zm-2.9,15.07v-2.53l-.4-.231a4.006,4.006,0,0,1-2-3.456v-1.6a3.995,3.995,0,0,1,4.119-3.993,4.131,4.131,0,0,1,3.871,4.194v1.4a4.01,4.01,0,0,1-2,3.457l-.4.231,0,2.528,2.741.685a3.975,3.975,0,0,0-1.144,2.784v.592l-2.492.554.065-.226.03-1.477L8.57,22.65ZM1.6,20.773H2.18l5.746,3.352-2.9,11.6L1.6,34.579ZM8.119,36.753l-1.573-.524L9.363,24.963l1.822,1.063v.228l-3,10.5Zm5.463,2.3a.9.9,0,0,1,.262-.634l1.4-1.4a.9.9,0,0,1,1.267,1.267l-1.4,1.4a.9.9,0,0,1-1.529-.634Zm2.4,2.4a.9.9,0,0,1,.262-.634l1.4-1.4a.9.9,0,0,1,1.267,1.267l-1.4,1.4a.9.9,0,0,1-1.529-.634Zm2.4,2.4a.9.9,0,0,1,.262-.634l1.4-1.4a.9.9,0,0,1,1.267,1.267l-1.4,1.4a.9.9,0,0,1-1.529-.634Zm3.293,3.293a.9.9,0,0,1-.634-1.529l1.4-1.4a.9.9,0,0,1,1.267,1.267l-1.4,1.4A.9.9,0,0,1,21.669,47.139Zm3.864.8h-.148a.828.828,0,0,1-.55-.209l-.6-.527.6-.6a2.484,2.484,0,0,0,.5-.742l.726.6a.833.833,0,0,1-.534,1.473ZM32.7,40.748H32.56a.857.857,0,0,1-.55-.2l-4.333-3.611-1.024,1.228,4.207,3.506a.834.834,0,0,1-.534,1.473h-.174a.833.833,0,0,1-.533-.194l-4.34-3.616-1.024,1.228,4.207,3.506a.833.833,0,0,1-.534,1.472,1.32,1.32,0,0,1-.841-.3l-1.783-1.486a2.485,2.485,0,0,0-2.145-1.4,2.487,2.487,0,0,0-2.4-2.4,2.487,2.487,0,0,0-2.4-2.4,2.488,2.488,0,0,0-4.247-1.676l-1.4,1.4a2.462,2.462,0,0,0-.224.273L10.037,36.09l2.152-7.53,5.394-1.2a8.231,8.231,0,0,1,4.287.194l1.177.376-3.99,2a2.663,2.663,0,0,0-1.478,2.394v.158a2.676,2.676,0,0,0,4.053,2.295l2.975-1.784a1.649,1.649,0,0,1,1.916.185l6.751,6.075a.86.86,0,0,1-.575,1.5Zm15.241-9.283L34.478,38.2c-.044-.046-.089-.091-.137-.133l-6.75-6.075a3.215,3.215,0,0,0-3.808-.368L20.807,33.4a1.078,1.078,0,0,1-1.631-.925V32.32a1.072,1.072,0,0,1,.6-.964l4.457-2.228a3.473,3.473,0,0,1,2.49-.231l5.021,1.434,1.216.03,14.983-7.886Zm0,0"/>
    </g>
  </g>
</svg>
