<svg xmlns="http://www.w3.org/2000/svg" width="76.345" height="76.345" viewBox="0 0 76.345 76.345">
  <g id="Group_1201798" data-name="Group 1201798" transform="translate(-449.326 -5218.655)">
    <g id="Group_1201376" data-name="Group 1201376" transform="translate(-572.641 2126)">
      <g id="Group_1200255" data-name="Group 1200255">
        <g id="Group_1187152" data-name="Group 1187152">
          <g id="Group_1185946" data-name="Group 1185946" transform="translate(-3.07)">
            <g id="Group_1184280" data-name="Group 1184280">
              <g id="Group_1182168" data-name="Group 1182168">
                <g id="Group_1178877" data-name="Group 1178877">
                  <g id="Group_1111311" data-name="Group 1111311">
                    <g id="Group_1098742" data-name="Group 1098742" transform="translate(1025.482 3093.101)">
                      <g id="Rectangle_400898" data-name="Rectangle 400898" transform="translate(-0.445 -0.445)" fill="#ffe9b5" stroke="#b18c32" stroke-width="1" opacity="0.859">
                        <rect width="76.345" height="76.345" rx="38.172" stroke="none"/>
                        <rect x="0.5" y="0.5" width="75.345" height="75.345" rx="37.672" fill="none"/>
                      </g>
                      <g id="Rectangle_400907" data-name="Rectangle 400907" transform="translate(-0.446 -0.445)" fill="none" stroke="#b18c32" stroke-width="1">
                        <rect width="76.345" height="76.345" rx="38.172" stroke="none"/>
                        <rect x="0.5" y="0.5" width="75.345" height="75.345" rx="37.672" fill="none"/>
                      </g>
                    </g>
                  </g>
                </g>
              </g>
            </g>
          </g>
        </g>
      </g>
    </g>
    <g id="XMLID_1215_" transform="translate(464.917 5234.131)">
      <path id="XMLID_3115_" d="M16.01,89.284a3.318,3.318,0,1,0-4.643,4.643,4.322,4.322,0,1,0,4.643-4.643Z" transform="translate(-9.148 -80.076)" fill="#cbe558"/>
      <path id="XMLID_3114_" d="M178.44,13.349a4.9,4.9,0,0,0-9.213,0,4.419,4.419,0,1,0,4.607,6.945,4.419,4.419,0,1,0,4.607-6.945Z" transform="translate(-151.253 -9.119)" fill="#cbe558"/>
      <path id="XMLID_3113_" d="M59.351,202.2a17.346,17.346,0,1,1,34.691,0c0,9.58-6.426,10.247-16.006,10.247S59.351,211.777,59.351,202.2Z" transform="translate(-54.116 -168.431)" fill="#80b6ff"/>
      <g id="Group_1201797" data-name="Group 1201797" transform="translate(5.235 20.287)">
        <path id="XMLID_3112_" d="M66.146,268.681a4.321,4.321,0,0,1,1.749-3.472,3.059,3.059,0,0,0-1.821-5.517h-3a17.272,17.272,0,0,0-3.728,10.744,8.84,8.84,0,0,0,2.428,6.644l4.367-7.895v-.5Z" transform="translate(-59.351 -256.955)" fill="#89df8f"/>
        <path id="XMLID_3111_" d="M318.166,228.715a6.942,6.942,0,0,0-.719-.039,5.29,5.29,0,0,0-2.866,9.737l1.835,1.182a3.4,3.4,0,0,1,.182,5.593,3.433,3.433,0,0,0-1.39,2.759,2.531,2.531,0,0,0,2.531,2.531,5.735,5.735,0,0,0,5.126-3.17,18.511,18.511,0,0,0,1.684-5.116c0-.012,0-.024,0-.036A17.31,17.31,0,0,0,318.166,228.715Z" transform="translate(-289.858 -228.676)" fill="#89df8f"/>
        <path id="XMLID_3110_" d="M213.516,300.711a2.872,2.872,0,0,0-2.947-.626,3.279,3.279,0,0,0-2.176,3.088v1.4a2.541,2.541,0,0,0,4.769,1.222l.891-1.624A2.872,2.872,0,0,0,213.516,300.711Z" transform="translate(-195.246 -293.634)" fill="#89df8f"/>
      </g>
      <path id="XMLID_3106_" d="M31.7,273.094v0a10.4,10.4,0,0,0-3.046-7.353,7.28,7.28,0,0,0-5.148-2.132L19.495,259.6a2.387,2.387,0,1,0-3.376,3.376l4.649,4.649.356.356-5.14-5.14a5.858,5.858,0,0,1-1.716-4.142v-5.6a2.134,2.134,0,0,0-4.268,0v5.015a13.731,13.731,0,0,0,4.022,9.709l5.27,5.27Z" transform="translate(-9.118 -228.713)" fill="#f2d2bd"/>
      <path id="XMLID_3103_" d="M256,273.094v0a10.4,10.4,0,0,1,3.046-7.353,7.28,7.28,0,0,1,5.148-2.132L268.2,259.6a2.387,2.387,0,0,1,3.376,3.376l-4.649,4.649-.356.356,5.14-5.14a5.857,5.857,0,0,0,1.716-4.142v-5.6a2.134,2.134,0,0,1,4.268,0v5.015a13.731,13.731,0,0,1-4.022,9.709l-5.27,5.27Z" transform="translate(-233.417 -228.713)" fill="#f2d2bd"/>
      <path id="XMLID_1630_" d="M392.985,89.284a3.318,3.318,0,1,1,4.643,4.643,4.322,4.322,0,1,1-4.643-4.643Z" transform="translate(-354.686 -80.076)" fill="#cbe558"/>
      <g id="XMLID_638_" transform="translate(0 0.127)">
        <path id="XMLID_665_" d="M205.008,290.928a3.735,3.735,0,0,0-3.853-.818,4.169,4.169,0,0,0-2.761,3.918v1.4a3.423,3.423,0,0,0,6.424,1.646l.891-1.624A3.758,3.758,0,0,0,205.008,290.928Zm-.845,3.675-.891,1.624a1.659,1.659,0,0,1-3.114-.8v-1.4a2.4,2.4,0,0,1,1.59-2.257,1.99,1.99,0,0,1,2.414,2.831Z" transform="translate(-180.894 -264.33)"/>
        <path id="XMLID_673_" d="M389.377,464.17l-2.464,2.464a.882.882,0,1,0,1.247,1.248l2.464-2.464a.882.882,0,1,0-1.247-1.248Z" transform="translate(-352.549 -423.003)"/>
        <path id="XMLID_682_" d="M44.087,22.079a3.016,3.016,0,0,0-4.957,2.308v1.734a18.268,18.268,0,0,0-4.478-6.012l1.566-1.987a5.171,5.171,0,0,0,2.417.6A5.229,5.229,0,0,0,43.778,14.3a4.2,4.2,0,1,0-5.932-5.931,5.2,5.2,0,0,0-3.029,8.676l-1.542,1.957a18.21,18.21,0,0,0-9.812-3.445V13.113a5.3,5.3,0,1,0,4.38-9.608,5.787,5.787,0,0,0-10.523,0,5.3,5.3,0,1,0,4.38,9.608v2.448a18.211,18.211,0,0,0-9.812,3.444l-1.542-1.957A5.2,5.2,0,0,0,7.315,8.372,4.2,4.2,0,1,0,1.384,14.3,5.229,5.229,0,0,0,6.527,18.72a5.171,5.171,0,0,0,2.417-.6l1.566,1.987a18.268,18.268,0,0,0-4.478,6.012V24.387a3.016,3.016,0,1,0-6.032,0V29.4A14.517,14.517,0,0,0,4.28,39.735l5.27,5.27A.882.882,0,1,0,10.8,43.758l-5.27-5.27A12.765,12.765,0,0,1,1.764,29.4V24.387a1.252,1.252,0,0,1,2.5,0v5.6a6.7,6.7,0,0,0,1.974,4.766l4.784,4.784.356.356a.882.882,0,0,0,1.248-1.248l-5-5a1.505,1.505,0,0,1,2.129-2.129l4.011,4.011a.882.882,0,0,0,.624.258,6.356,6.356,0,0,1,4.524,1.874A9.455,9.455,0,0,1,21.7,44.384a.882.882,0,1,0,1.764,0,9.455,9.455,0,0,1,2.787-6.729,6.356,6.356,0,0,1,4.524-1.874.882.882,0,0,0,.624-.258l4.011-4.011a1.505,1.505,0,0,1,2.129,2.129l-5,5a.882.882,0,1,0,1.247,1.248l.356-.356,4.784-4.784a6.7,6.7,0,0,0,1.974-4.766v-5.6a1.252,1.252,0,0,1,2.5,0V29.4a12.89,12.89,0,0,1-1.544,6.107.882.882,0,1,0,1.552.838A14.66,14.66,0,0,0,45.162,29.4V24.387a3.009,3.009,0,0,0-1.075-2.308Zm-5.72-11.992a.882.882,0,0,0,.639-.352,2.436,2.436,0,1,1,3.409,3.409.882.882,0,0,0-.352.639,3.439,3.439,0,1,1-3.7-3.7ZM15.514,8.517a3.531,3.531,0,0,1,2.674-3.431.882.882,0,0,0,.614-.553,4.023,4.023,0,0,1,7.556,0,.882.882,0,0,0,.614.553,3.537,3.537,0,1,1-3.341,5.954l1.6-1.6A.882.882,0,1,0,23.982,8.2l-.519.519V5.747a.882.882,0,1,0-1.764,0V9.6L20.294,8.2a.882.882,0,0,0-1.248,1.248l2,2a3.538,3.538,0,0,1-5.527-2.925ZM3.1,13.783a.882.882,0,0,0-.352-.639A2.436,2.436,0,1,1,6.156,9.736a.882.882,0,0,0,.639.352,3.439,3.439,0,1,1-3.7,3.7ZM6.522,30.128A16.315,16.315,0,0,1,9.413,23.9h2.546a2.177,2.177,0,0,1,1.3,3.926,5.222,5.222,0,0,0-1.91,2.778L11,30.264a3.273,3.273,0,0,0-4.478-.136Zm23.879,3.9A8.1,8.1,0,0,0,25,36.407,11.266,11.266,0,0,0,22.581,40a11.267,11.267,0,0,0-2.422-3.59,8.1,8.1,0,0,0-5.4-2.382l-1.849-1.849v-.164A3.453,3.453,0,0,1,14.3,29.248a3.941,3.941,0,0,0-2.346-7.108H10.948a16.389,16.389,0,0,1,20.1-2.474,6.172,6.172,0,0,0-1.569,11.1l1.834,1.182a2.519,2.519,0,0,1,.609.553Zm3.761-3.761-.984.984a4.281,4.281,0,0,0-.906-.784l-1.835-1.182a4.408,4.408,0,0,1,2.388-8.114h.328a16.435,16.435,0,0,1,5.487,8.96A3.273,3.273,0,0,0,34.161,30.264Z" transform="translate(0 -0.127)"/>
        <path id="XMLID_1075_" d="M447.289,432.1a.881.881,0,1,0,.624.258A.889.889,0,0,0,447.289,432.1Z" transform="translate(-407.031 -393.994)"/>
      </g>
    </g>
  </g>
</svg>
