<svg xmlns="http://www.w3.org/2000/svg" width="76.345" height="76.345" viewBox="0 0 76.345 76.345">
  <g id="Group_1201802" data-name="Group 1201802" transform="translate(-656.878 -5218.655)">
    <g id="Group_1201377" data-name="Group 1201377" transform="translate(-365.088 2126)">
      <g id="Group_1200255" data-name="Group 1200255">
        <g id="Group_1187152" data-name="Group 1187152">
          <g id="Group_1185946" data-name="Group 1185946" transform="translate(-3.07)">
            <g id="Group_1184280" data-name="Group 1184280">
              <g id="Group_1182168" data-name="Group 1182168">
                <g id="Group_1178877" data-name="Group 1178877">
                  <g id="Group_1111311" data-name="Group 1111311">
                    <g id="Group_1098742" data-name="Group 1098742" transform="translate(1025.482 3093.101)">
                      <g id="Rectangle_400898" data-name="Rectangle 400898" transform="translate(-0.445 -0.445)" fill="#ffe9b5" stroke="#b18c32" stroke-width="1" opacity="0.859">
                        <rect width="76.345" height="76.345" rx="38.172" stroke="none"/>
                        <rect x="0.5" y="0.5" width="75.345" height="75.345" rx="37.672" fill="none"/>
                      </g>
                      <g id="Rectangle_400907" data-name="Rectangle 400907" transform="translate(-0.446 -0.445)" fill="none" stroke="#b18c32" stroke-width="1">
                        <rect width="76.345" height="76.345" rx="38.172" stroke="none"/>
                        <rect x="0.5" y="0.5" width="75.345" height="75.345" rx="37.672" fill="none"/>
                      </g>
                    </g>
                  </g>
                </g>
              </g>
            </g>
          </g>
        </g>
      </g>
    </g>
    <g id="mision-cumplida" transform="translate(663.131 5224.813)">
      <g id="Group_1201801" data-name="Group 1201801" transform="translate(8.919 8.87)">
        <g id="Group_1201799" data-name="Group 1201799" transform="translate(0 0)">
          <path id="Path_1247890" data-name="Path 1247890" d="M40.809,19.221a16.589,16.589,0,0,1,4.858,2.014l3.156-1.4,3.72,3.72-1.4,3.155a16.588,16.588,0,0,1,2.014,4.859l3.22,1.24v5.261l-3.221,1.24a16.589,16.589,0,0,1-2.014,4.858l1.4,3.156-3.72,3.72-3.155-1.4a16.585,16.585,0,0,1-4.859,2.014l-1.24,3.22H34.308l-1.24-3.221a16.59,16.59,0,0,1-4.858-2.014l-3.156,1.4-3.72-3.72,1.4-3.155a16.589,16.589,0,0,1-2.014-4.859l-3.22-1.24V32.807l3.221-1.24a16.588,16.588,0,0,1,2.014-4.858l-1.4-3.156,3.72-3.72,3.157,1.4a16.592,16.592,0,0,1,4.858-2.014L34.308,16h5.261Z" transform="translate(-17.501 -16)" fill="#ffe177" fill-rule="evenodd"/>
          <path id="Path_1247891" data-name="Path 1247891" d="M94.428,49.64l-3.156,1.4-.486-.486,2.959-1.314Q94.081,49.449,94.428,49.64Zm12.6-30.419a16.589,16.589,0,0,1,4.858,2.014l-.9.4a21.882,21.882,0,0,0-5.541-2.412L104.206,16h1.58Zm4.859,30.42a16.585,16.585,0,0,1-4.859,2.014l-1.24,3.22h-1.58l1.24-3.22a21.874,21.874,0,0,0,5.542-2.413Zm-21.1-29.322.486-.486,3.157,1.4q-.346.191-.683.4Zm23.16,0,1.094-.486,3.72,3.72-1.4,3.155a16.588,16.588,0,0,1,2.014,4.859l3.22,1.24v5.261l-3.221,1.24a16.589,16.589,0,0,1-2.014,4.858l1.4,3.156-3.72,3.72-1.094-.486,3.234-3.234-1.4-3.156a16.589,16.589,0,0,0,2.014-4.858l3.221-1.24V32.807l-3.22-1.24a16.588,16.588,0,0,0-2.014-4.859l1.4-3.155Z" transform="translate(-83.718 -16)" fill="#ffd064" fill-rule="evenodd"/>
          <circle id="Ellipse_12381" data-name="Ellipse 12381" cx="10.307" cy="10.307" r="10.307" transform="translate(7.039 11.769) rotate(-13.3)" fill="#eceff1"/>
          <path id="Path_1247892" data-name="Path 1247892" d="M122.49,110.68a10.307,10.307,0,0,0,0,20.614q.414,0,.82-.032a10.307,10.307,0,0,1,0-20.549Q122.9,110.68,122.49,110.68Z" transform="translate(-103.052 -101.549)" fill="#d1d1d6" fill-rule="evenodd"/>
        </g>
        <g id="Group_1201800" data-name="Group 1201800" transform="translate(19.163 19.481)">
          <circle id="Ellipse_12382" data-name="Ellipse 12382" cx="12.094" cy="12.094" r="12.094" transform="translate(0 2.622)" fill="#fe646f"/>
          <path id="Path_1247893" data-name="Path 1247893" d="M337.1,245.192a12.094,12.094,0,1,1,0,24.188c-.162,0-.322,0-.482-.01a12.093,12.093,0,0,0,0-24.167C336.775,245.2,336.936,245.192,337.1,245.192Z" transform="translate(-325.003 -242.57)" fill="#fd4755" fill-rule="evenodd"/>
          <circle id="Ellipse_12383" data-name="Ellipse 12383" cx="7.772" cy="7.772" r="7.772" transform="translate(4.322 6.944)" fill="#eceff1"/>
          <path id="Path_1247894" data-name="Path 1247894" d="M268.8,290.011c.162,0,.323.006.482.015a7.771,7.771,0,0,0,0,15.513c-.16.01-.32.015-.482.015a7.772,7.772,0,1,1,0-15.543Z" transform="translate(-256.707 -283.066)" fill="#d1d1d6" fill-rule="evenodd"/>
          <circle id="Ellipse_12384" data-name="Ellipse 12384" cx="3.449" cy="3.449" r="3.449" transform="translate(7.601 12.844) rotate(-22.514)" fill="#fe646f"/>
          <path id="Path_1247895" data-name="Path 1247895" d="M309.3,334.829a3.47,3.47,0,0,1,.482.034,3.449,3.449,0,0,0,0,6.831,3.449,3.449,0,1,1-.482-6.865Z" transform="translate(-297.203 -323.562)" fill="#fd4755" fill-rule="evenodd"/>
          <path id="Path_1247896" data-name="Path 1247896" d="M409.87,222.616l-4.322,4.322a.282.282,0,0,1-.266.078l-3.391-.731a.284.284,0,0,1-.222-.222l-.731-3.391a.282.282,0,0,1,.078-.265l4.322-4.322a.289.289,0,0,1,.487.144l.652,3.025a.284.284,0,0,0,.222.222l3.025.652a.289.289,0,0,1,.144.487Z" transform="translate(-383.117 -218.001)" fill="#e3a76f" fill-rule="evenodd"/>
          <path id="Path_1247897" data-name="Path 1247897" d="M416.31,261.083l-4.322,4.322a.282.282,0,0,1-.266.078l-3.391-.731a.284.284,0,0,1-.222-.222l-.05-.234,3.373.727a.282.282,0,0,0,.266-.078l4.322-4.322a.307.307,0,0,0,.041-.051l.105.023a.289.289,0,0,1,.144.487Z" transform="translate(-389.557 -256.467)" fill="#c48958" fill-rule="evenodd"/>
        </g>
      </g>
      <path id="Path_1247898" data-name="Path 1247898" d="M53.518,33.036l-1.933-.416-3.51,3.511,1.932.416ZM31.021,8.109a.772.772,0,0,1,.541.474l1.1,2.847a17.324,17.324,0,0,1,4.334,1.8l2.79-1.239a.772.772,0,0,1,.859.16l3.72,3.72a.772.772,0,0,1,.16.858l-1.239,2.789a17.32,17.32,0,0,1,1.8,4.336l2.847,1.1a.772.772,0,0,1,.494.72v1.177a.772.772,0,1,1-1.543,0V26.2l-2.725-1.05a.768.768,0,0,1-.474-.541,15.782,15.782,0,0,0-1.921-4.633.772.772,0,0,1-.048-.718L42.9,16.583l-2.971-2.971L37.252,14.8a.772.772,0,0,1-.718-.048,15.778,15.778,0,0,0-4.632-1.92.769.769,0,0,1-.541-.474L30.311,9.631h-4.2l-1.05,2.727a.773.773,0,0,1-.541.474,15.782,15.782,0,0,0-4.632,1.92.772.772,0,0,1-.718.048L16.5,13.613l-2.971,2.971,1.187,2.672a.774.774,0,0,1-.048.718,15.765,15.765,0,0,0-1.92,4.632.774.774,0,0,1-.474.541L9.546,26.2v4.2l2.726,1.049a.772.772,0,0,1,.474.541,15.773,15.773,0,0,0,1.921,4.633.773.773,0,0,1,.048.718L13.527,40.01,16.5,42.981l2.672-1.187a.772.772,0,0,1,.718.048,15.782,15.782,0,0,0,4.632,1.92.772.772,0,0,1,.541.474l1.083,2.812a.772.772,0,0,1-.354,1.457h-.209a.77.77,0,0,1-.72-.494l-1.1-2.847a17.308,17.308,0,0,1-4.334-1.8L16.64,44.606a.77.77,0,0,1-.858-.16l-3.721-3.72a.771.771,0,0,1-.159-.858l1.239-2.789a17.293,17.293,0,0,1-1.8-4.336L8.5,31.648A.77.77,0,0,1,8,30.928V25.667a.771.771,0,0,1,.493-.72l2.847-1.1a17.294,17.294,0,0,1,1.8-4.335L11.9,16.726a.771.771,0,0,1,.159-.858l3.721-3.72a.77.77,0,0,1,.858-.16l2.791,1.239a17.312,17.312,0,0,1,4.334-1.8l1.1-2.847a.77.77,0,0,1,.541-.474h5.619ZM51.353,43.056a11.318,11.318,0,1,1-6.4-10.2.8.8,0,0,0,.016.163l.715,3.316-.172.172A8.546,8.546,0,1,0,46.6,37.6l.175-.174,3.315.715a.757.757,0,0,0,.149.017,11.344,11.344,0,0,1,1.111,4.9Zm-6.936-5.45A7.011,7.011,0,1,0,45.5,38.7L43.52,40.685a4.228,4.228,0,1,1-1.086-1.1Zm-2.018,4.2L40.59,43.616A.772.772,0,1,1,39.5,42.525l1.817-1.817a2.678,2.678,0,1,0,1.083,1.1Zm4.169-8.7,3.51-3.511.417,1.932L46.984,35.04Zm9.042.019L51.5,37.232a12.864,12.864,0,1,1-5.613-5.63l4.1-4.1a.772.772,0,0,1,1.3.383l.5,2.343.24-.24a.772.772,0,1,1,1.091,1.091l-.24.24,2.343.5a.771.771,0,0,1,.383,1.3Zm-27.913-.9,5.574-6.892a.772.772,0,1,0-1.2-.97l-5.035,6.225L24.3,27.853a.771.771,0,1,0-1.091,1.091l3.345,3.345a.773.773,0,0,0,.546.226h.041a.773.773,0,0,0,.559-.285Zm-1.71,5.343a9.536,9.536,0,1,1,11.758-9.415.771.771,0,0,0,.771.76h.011a.77.77,0,0,0,.76-.782,11.078,11.078,0,1,0-19.735,7.075,11.133,11.133,0,0,0,6.076,3.863.764.764,0,0,0,.18.021.772.772,0,0,0,.179-1.522Z" fill="#242222" fill-rule="evenodd"/>
    </g>
  </g>
</svg>
