<svg xmlns="http://www.w3.org/2000/svg" width="76.345" height="76.345" viewBox="0 0 76.345 76.345">
  <g id="Group_1201806" data-name="Group 1201806" transform="translate(-1077.051 -5219)">
    <g id="Group_1201379" data-name="Group 1201379" transform="translate(55.084 2126.345)">
      <g id="Group_1200255" data-name="Group 1200255">
        <g id="Group_1187152" data-name="Group 1187152">
          <g id="Group_1185946" data-name="Group 1185946" transform="translate(-3.07)">
            <g id="Group_1184280" data-name="Group 1184280">
              <g id="Group_1182168" data-name="Group 1182168">
                <g id="Group_1178877" data-name="Group 1178877">
                  <g id="Group_1111311" data-name="Group 1111311">
                    <g id="Group_1098742" data-name="Group 1098742" transform="translate(1025.482 3093.101)">
                      <g id="Rectangle_400898" data-name="Rectangle 400898" transform="translate(-0.445 -0.445)" fill="#ffe9b5" stroke="#b18c32" stroke-width="1" opacity="0.859">
                        <rect width="76.345" height="76.345" rx="38.172" stroke="none"/>
                        <rect x="0.5" y="0.5" width="75.345" height="75.345" rx="37.672" fill="none"/>
                      </g>
                      <g id="Rectangle_400907" data-name="Rectangle 400907" transform="translate(-0.446 -0.445)" fill="none" stroke="#b18c32" stroke-width="1">
                        <rect width="76.345" height="76.345" rx="38.172" stroke="none"/>
                        <rect x="0.5" y="0.5" width="75.345" height="75.345" rx="37.672" fill="none"/>
                      </g>
                    </g>
                  </g>
                </g>
              </g>
            </g>
          </g>
        </g>
      </g>
    </g>
    <g id="gestion-de-proyectos" transform="translate(1094.051 5223.195)">
      <path id="Path_1247925" data-name="Path 1247925" d="M7.5,117.944V147.9a1.263,1.263,0,0,0,1.263,1.263H47.857A1.263,1.263,0,0,0,49.12,147.9V117.944Z" transform="translate(-6.872 -95.418)" fill="#f1f4f6"/>
      <g id="Group_1201805" data-name="Group 1201805" transform="translate(4.096 14.433)">
        <path id="Path_1247926" data-name="Path 1247926" d="M51.139,25.93H49.007a.09.09,0,0,1-.09-.09V21.4a.09.09,0,0,1,.09-.09h2.132a.09.09,0,0,1,.09.09V25.84A.09.09,0,0,1,51.139,25.93Z" transform="translate(-48.917 -21.306)" fill="#d0e2e7"/>
        <path id="Path_1247927" data-name="Path 1247927" d="M147.778,25.93h-2.132a.09.09,0,0,1-.09-.09V21.4a.09.09,0,0,1,.09-.09h2.132a.09.09,0,0,1,.09.09V25.84A.09.09,0,0,1,147.778,25.93Z" transform="translate(-137.463 -21.306)" fill="#d0e2e7"/>
        <path id="Path_1247928" data-name="Path 1247928" d="M244.417,25.93h-2.132a.09.09,0,0,1-.09-.09V21.4a.09.09,0,0,1,.09-.09h2.132a.09.09,0,0,1,.09.09V25.84A.09.09,0,0,1,244.417,25.93Z" transform="translate(-226.009 -21.306)" fill="#d0e2e7"/>
        <path id="Path_1247929" data-name="Path 1247929" d="M341.055,25.93h-2.132a.09.09,0,0,1-.09-.09V21.4a.09.09,0,0,1,.09-.09h2.132a.09.09,0,0,1,.09.09V25.84A.09.09,0,0,1,341.055,25.93Z" transform="translate(-314.555 -21.306)" fill="#d0e2e7"/>
        <path id="Path_1247930" data-name="Path 1247930" d="M437.694,25.93h-2.132a.09.09,0,0,1-.09-.09V21.4a.09.09,0,0,1,.09-.09h2.132a.09.09,0,0,1,.09.09V25.84A.09.09,0,0,1,437.694,25.93Z" transform="translate(-403.101 -21.306)" fill="#d0e2e7"/>
      </g>
      <path id="Path_1247931" data-name="Path 1247931" d="M47.857,48.917H45.652v2.222a.09.09,0,0,1-.09.09H43.429a.09.09,0,0,1-.09-.09V48.917H37.559v2.222a.09.09,0,0,1-.09.09H35.337a.09.09,0,0,1-.09-.09V48.917H29.466v2.222a.09.09,0,0,1-.09.09H27.244a.09.09,0,0,1-.09-.09V48.917H21.373v2.222a.09.09,0,0,1-.09.09H19.151a.09.09,0,0,1-.09-.09V48.917H13.281v2.222a.09.09,0,0,1-.09.09H11.058a.09.09,0,0,1-.09-.09V48.917H8.763A1.263,1.263,0,0,0,7.5,50.18V54.7H49.12V50.18a1.263,1.263,0,0,0-1.263-1.263Z" transform="translate(-6.872 -32.172)" fill="#dd636e"/>
      <path id="Path_1247932" data-name="Path 1247932" d="M45.77,117.944v23.149a6.391,6.391,0,0,1-6.391,6.391H7.5v.412a1.263,1.263,0,0,0,1.263,1.263H47.857A1.263,1.263,0,0,0,49.12,147.9V117.944Z" transform="translate(-6.872 -95.418)" fill="#dfeaef"/>
      <path id="Path_1247933" data-name="Path 1247933" d="M43.122,162.832H35.211a.091.091,0,0,1-.091-.091v-3.286a.091.091,0,0,1,.091-.091h7.911a.091.091,0,0,1,.091.091v3.286a.091.091,0,0,1-.091.091Z" transform="translate(-32.179 -133.369)" fill="#9bd069"/>
      <path id="Path_1247934" data-name="Path 1247934" d="M71.888,204.247H62.821a.091.091,0,0,1-.091-.091V200.87a.091.091,0,0,1,.091-.091h9.067a.091.091,0,0,1,.091.091v3.286A.091.091,0,0,1,71.888,204.247Z" transform="translate(-57.477 -171.316)" fill="#8bc852"/>
      <path id="Path_1247935" data-name="Path 1247935" d="M100.654,245.662H90.431a.091.091,0,0,1-.091-.091v-3.286a.091.091,0,0,1,.091-.091h10.223a.091.091,0,0,1,.091.091v3.286A.091.091,0,0,1,100.654,245.662Z" transform="translate(-82.775 -209.263)" fill="#9bd069"/>
      <path id="Path_1247936" data-name="Path 1247936" d="M228.367,287.076H214.585V283.7a.091.091,0,0,1,.091-.091h13.691a.091.091,0,0,1,.091.091v3.286A.091.091,0,0,1,228.367,287.076Z" transform="translate(-196.615 -247.209)" fill="#4073c8"/>
      <path id="Path_1247937" data-name="Path 1247937" d="M221.431,328.491h-6.755a.091.091,0,0,1-.091-.091v-3.377h6.936V328.4A.091.091,0,0,1,221.431,328.491Z" transform="translate(-196.615 -285.156)" fill="#3b66c1"/>
      <path id="Path_1247938" data-name="Path 1247938" d="M374.532,369.907h-8a.091.091,0,0,1-.091-.091V366.53a.091.091,0,0,1,.091-.091h7.911a.091.091,0,0,1,.091.091v3.377Z" transform="translate(-335.753 -323.104)" fill="#e28424"/>
      <path id="Path_1247939" data-name="Path 1247939" d="M399.74,411.321h-5.6a.091.091,0,0,1-.091-.091v-3.377h5.78v3.377A.091.091,0,0,1,399.74,411.321Z" transform="translate(-361.052 -361.049)" fill="#dd6938"/>
      <path id="Path_1247940" data-name="Path 1247940" d="M443.034,412.389v-3.271a6.379,6.379,0,0,1-1.832,3.362h1.741A.091.091,0,0,0,443.034,412.389Z" transform="translate(-404.255 -362.208)" fill="#dd542e"/>
      <path id="Path_1247941" data-name="Path 1247941" d="M40.985,16.117H39.408V14.523a.719.719,0,0,0-.718-.718H36.558a.719.719,0,0,0-.718.718v1.594H31.315V14.523A.719.719,0,0,0,30.6,13.8H28.465a.719.719,0,0,0-.718.718v1.594H23.222V14.523A.719.719,0,0,0,22.5,13.8H20.372a.719.719,0,0,0-.718.718v1.594H15.13V14.523a.719.719,0,0,0-.718-.718H12.279a.719.719,0,0,0-.718.718v1.594H7.037V14.523a.719.719,0,0,0-.718-.718H4.187a.719.719,0,0,0-.718.718v1.594H1.891A1.893,1.893,0,0,0,0,18.008v34.47a1.893,1.893,0,0,0,1.891,1.891h8.524a.628.628,0,1,0,0-1.256H8.194V37.027h5.68V53.113h-.528a.628.628,0,1,0,0,1.256h27.64a1.893,1.893,0,0,0,1.891-1.891V18.008a1.893,1.893,0,0,0-1.891-1.891ZM37.1,15.061h1.056V18.43H37.1Zm-8.093,0h1.056V18.43H29Zm-8.093,0h1.056V18.43H20.91Zm-8.093,0h1.056V18.43H12.817Zm-8.093,0H5.781V18.43H4.724ZM1.891,17.373H3.468v1.594a.719.719,0,0,0,.718.718H6.319a.719.719,0,0,0,.718-.718V17.373h4.524v1.594a.719.719,0,0,0,.718.718h2.132a.719.719,0,0,0,.718-.718V17.373h4.524v1.594a.719.719,0,0,0,.718.718H22.5a.719.719,0,0,0,.718-.718V17.373h4.524v1.594a.719.719,0,0,0,.718.718H30.6a.719.719,0,0,0,.718-.718V17.373h4.524v1.594a.719.719,0,0,0,.718.718H38.69a.719.719,0,0,0,.718-.718V17.373h1.577a.635.635,0,0,1,.635.635V21.9H11.88a.628.628,0,1,0,0,1.256h1.994v5.681H11.662V26.085a.72.72,0,0,0-.719-.719H8.194V23.154h.755a.628.628,0,1,0,0-1.256H1.256v-3.89a.635.635,0,0,1,.635-.635Zm31.736,32.27V47.432h4.524v2.212Zm4.524-3.468H31.315V43.963h6.836Zm-7.374-3.468a.72.72,0,0,0-.719.719v3.286a.72.72,0,0,0,.719.719h1.593v2.749a.72.72,0,0,0,.719.719h1.594v2.213H29V40.5h2.749a.72.72,0,0,0,.719-.719V36.49a.72.72,0,0,0-.719-.719H29V23.154h5.68V42.707ZM8.193,35.771V33.559h9.148v2.212Zm2.212-9.148v2.212H3.569V26.622ZM5.881,30.091h7.992V32.3H5.881ZM20.81,23.154V35.771H18.6V33.022a.72.72,0,0,0-.719-.719H15.13V23.154Zm5.481,12.617a.628.628,0,1,0,0,1.256h4.923v2.212H18.6V37.027h4.763a.628.628,0,1,0,0-1.256H22.067V23.154h5.68V35.771ZM18.6,40.5h5.68v2.212H18.6Zm6.217,3.468a.72.72,0,0,0,.719-.719V40.5h2.212V53.113h-5.68V43.963ZM1.891,53.113a.635.635,0,0,1-.635-.635V23.154H6.938v2.212H3.032a.72.72,0,0,0-.719.719v3.286a.72.72,0,0,0,.719.719H4.625V32.84a.72.72,0,0,0,.719.719H6.937c0,3.429,0,5.672,0,19.554ZM15.13,37.027h2.212v6.217a.72.72,0,0,0,.719.719h2.75v9.149H15.13V37.027ZM41.62,52.478a.635.635,0,0,1-.635.635H35.939V50.9h2.749a.72.72,0,0,0,.719-.719V43.426a.72.72,0,0,0-.719-.719H35.939V23.154H41.62Z" transform="translate(0 0)"/>
    </g>
  </g>
</svg>
