<svg xmlns="http://www.w3.org/2000/svg" xmlns:xlink="http://www.w3.org/1999/xlink" width="210" height="144" viewBox="0 0 210 144">
  <defs>
    <clipPath id="clip-path">
      <path id="path477" d="M0-682.665H90.212v90.212H0Z" transform="translate(0 682.665)"/>
    </clipPath>
  </defs>
  <g id="Group_1201807" data-name="Group 1201807" transform="translate(-1210.051 -3331)">
    <rect id="Rectangle_410806" data-name="Rectangle 410806" width="210" height="144" transform="translate(1210.051 3331)" fill="#e5e2d3"/>
    <g id="g471" transform="translate(1268.504 4039.453)">
      <g id="g473" transform="translate(0 -682.665)">
        <g id="g475" transform="translate(0 0)" clip-path="url(#clip-path)">
          <g id="g481" transform="translate(18.535 3.386)">
            <path id="path483" d="M-62.41-35.651a26.78,26.78,0,0,0-9.5,13.464,21.756,21.756,0,0,1,11.338,5.129,27.016,27.016,0,0,0,34.047,1.23A26.968,26.968,0,0,0-20.4-22.272a27.109,27.109,0,0,0-4.109-7.983,27.043,27.043,0,0,0-37.9-5.4" transform="translate(71.913 41.079)" fill="#d6eb7d"/>
          </g>
          <g id="g485" transform="translate(16.773 1.64)">
            <path id="path487" d="M-12.216-62.819a28.7,28.7,0,0,1-18.946-7.086,19.931,19.931,0,0,0-10.421-4.709,1.762,1.762,0,0,1-1.245-.8,1.762,1.762,0,0,1-.192-1.469,28.671,28.671,0,0,1,4.191-8.332,1.762,1.762,0,0,1,2.462-.386,1.762,1.762,0,0,1,.386,2.462,25.067,25.067,0,0,0-3,5.428,23.275,23.275,0,0,1,10.146,5.159A25.333,25.333,0,0,0,2.985-71.407a25.228,25.228,0,0,0,5.231-5.318,25.412,25.412,0,0,0-3.568-6.65,25.378,25.378,0,0,0-28.91-8.58A1.762,1.762,0,0,1-26.522-93a1.762,1.762,0,0,1,1.05-2.26A28.923,28.923,0,0,1,7.475-85.479a28.86,28.86,0,0,1,4.375,8.5,1.762,1.762,0,0,1-.219,1.52,28.718,28.718,0,0,1-6.523,6.864A28.73,28.73,0,0,1-12.216-62.819Z" transform="translate(43.1 96.998)"/>
          </g>
          <g id="g489" transform="translate(33.602 12.036)">
            <path id="path491" d="M-281.861-109.242a1.759,1.759,0,0,1-1.413-.708,35.583,35.583,0,0,0-28.759-14.433,35.888,35.888,0,0,0-10.471,1.552A1.762,1.762,0,0,1-324.7-124a1.762,1.762,0,0,1,1.172-2.2,39.409,39.409,0,0,1,11.5-1.705,39.076,39.076,0,0,1,31.583,15.848,1.762,1.762,0,0,1-.358,2.466A1.754,1.754,0,0,1-281.861-109.242Z" transform="translate(324.781 127.906)"/>
          </g>
          <g id="g493" transform="translate(50.514 14.231)">
            <path id="path495" d="M-11.571-46.259a1.758,1.758,0,0,1-1.363-.645,1.762,1.762,0,0,1,.245-2.48l6.767-5.55a1.762,1.762,0,0,1,2.48.245,1.762,1.762,0,0,1-.245,2.48l-6.767,5.55A1.755,1.755,0,0,1-11.571-46.259Z" transform="translate(13.334 55.334)"/>
          </g>
          <g id="g497" transform="translate(40.971 8.095)">
            <path id="path499" d="M-41.009-35.762a1.755,1.755,0,0,1-1.165-.44l-4.482-3.952a1.762,1.762,0,0,1-.156-2.487,1.762,1.762,0,0,1,2.487-.156l4.482,3.952a1.762,1.762,0,0,1,.156,2.487A1.758,1.758,0,0,1-41.009-35.762Z" transform="translate(47.252 43.237)"/>
          </g>
          <g id="g501" transform="translate(1.762 40.937)">
            <path id="path503" d="M-108.178-282.838a26.78,26.78,0,0,0,16.412,1.5,21.753,21.753,0,0,1-1.228-12.383,27.016,27.016,0,0,0-15.958-30.1,26.972,26.972,0,0,0-8.642-2.082,27.113,27.113,0,0,0-4.859,7.55,27.043,27.043,0,0,0,14.276,35.517" transform="translate(124.65 325.906)" fill="#d6eb7d"/>
          </g>
          <g id="g505" transform="translate(-0.009 39.175)">
            <path id="path507" d="M-109.306-290.5h0a28.364,28.364,0,0,1-11.2-2.294,28.686,28.686,0,0,1-15.481-15.849,28.471,28.471,0,0,1,.279-21.987,28.859,28.859,0,0,1,5.175-8.039,1.762,1.762,0,0,1,1.426-.57,28.718,28.718,0,0,1,9.206,2.217,28.871,28.871,0,0,1,17,32.066,19.929,19.929,0,0,0,1.133,11.379,1.762,1.762,0,0,1-.073,1.479,1.762,1.762,0,0,1-1.176.9A28.884,28.884,0,0,1-109.306-290.5Zm-19.188-45.149a25.411,25.411,0,0,0-3.975,6.415,24.971,24.971,0,0,0-.242,19.284,25.185,25.185,0,0,0,13.592,13.915,24.859,24.859,0,0,0,9.813,2.011,25.211,25.211,0,0,0,3.557-.253,23.271,23.271,0,0,1-.605-11.366,25.333,25.333,0,0,0-14.918-28.135A25.227,25.227,0,0,0-128.494-335.644Z" transform="translate(138.054 339.239)"/>
          </g>
          <g id="g509" transform="translate(6.554 30.194)">
            <path id="path511" d="M-23.084,32.586a1.756,1.756,0,0,1-1.2-.474,39.406,39.406,0,0,1-7.226-9.105A39.076,39.076,0,0,1-33.579-12.27a1.762,1.762,0,0,1,2.315-.923,1.762,1.762,0,0,1,.923,2.315,35.583,35.583,0,0,0,1.881,32.123,35.885,35.885,0,0,0,6.58,8.292,1.762,1.762,0,0,1,.085,2.49A1.757,1.757,0,0,1-23.084,32.586Z" transform="translate(36.827 13.337)"/>
          </g>
          <g id="g513" transform="translate(7.186 51.801)">
            <path id="path515" d="M-65.363-30.078a1.758,1.758,0,0,1-.621-.114l-8.19-3.086a1.762,1.762,0,0,1-1.028-2.27,1.762,1.762,0,0,1,2.27-1.028l8.19,3.086a1.762,1.762,0,0,1,1.028,2.27A1.763,1.763,0,0,1-65.363-30.078Z" transform="translate(75.315 36.689)"/>
          </g>
          <g id="g517" transform="translate(10.027 63.138)">
            <path id="path519" d="M-20.509-3.954a1.77,1.77,0,0,1-.35-.035,1.762,1.762,0,0,1-1.379-2.075l1.181-5.858A1.762,1.762,0,0,1-18.982-13.3,1.762,1.762,0,0,1-17.6-11.225l-1.181,5.858A1.763,1.763,0,0,1-20.509-3.954Z" transform="translate(22.273 13.336)"/>
          </g>
          <g id="g521" transform="translate(52.939 39.939)">
            <path id="path523" d="M-231.914-98.26a26.779,26.779,0,0,0-6.909-14.962,21.755,21.755,0,0,1-10.11,7.254A27.016,27.016,0,0,0-267.022-77.1a26.968,26.968,0,0,0,2.518,8.525,27.117,27.117,0,0,0,8.968.433A27.043,27.043,0,0,0-231.914-98.26" transform="translate(267.228 113.222)" fill="#d6eb7d"/>
          </g>
          <g id="g525" transform="translate(51.181 38.177)">
            <path id="path527" d="M-250.367-126.556a1.762,1.762,0,0,1,1.3.569,28.461,28.461,0,0,1,7.361,15.944,28.685,28.685,0,0,1-5.985,21.331A28.471,28.471,0,0,1-266.875-77.96a29.557,29.557,0,0,1-3.414.2,28.7,28.7,0,0,1-6.135-.662,1.762,1.762,0,0,1-1.207-.95,28.714,28.714,0,0,1-2.683-9.081,28.871,28.871,0,0,1,19.271-30.754,19.931,19.931,0,0,0,9.288-6.67,1.762,1.762,0,0,1,1.318-.676ZM-270.29-81.284a26.017,26.017,0,0,0,3.006-.176,24.971,24.971,0,0,0,16.822-9.432,25.185,25.185,0,0,0,5.255-18.728,24.911,24.911,0,0,0-5.162-12.458,23.274,23.274,0,0,1-9.541,6.208,25.333,25.333,0,0,0-16.907,26.987,25.224,25.224,0,0,0,1.99,7.189A25.229,25.229,0,0,0-270.29-81.284Z" transform="translate(280.53 126.556)"/>
          </g>
          <g id="g529" transform="translate(44.822 56.176)">
            <path id="path531" d="M-11.575-199.521a1.762,1.762,0,0,1-1.748-1.555,1.762,1.762,0,0,1,1.543-1.957A35.584,35.584,0,0,0,15.1-220.723a35.884,35.884,0,0,0,3.891-9.845,1.762,1.762,0,0,1,2.114-1.319,1.762,1.762,0,0,1,1.319,2.114,39.4,39.4,0,0,1-4.272,10.811,39.077,39.077,0,0,1-29.517,19.428A1.781,1.781,0,0,1-11.575-199.521Z" transform="translate(13.335 231.932)"/>
          </g>
          <g id="g533" transform="translate(63.348 67.764)">
            <path id="path535" d="M-10.152-1.175a1.762,1.762,0,0,1-1.736-1.476l-1.423-8.636a1.762,1.762,0,0,1,1.452-2.025A1.762,1.762,0,0,1-9.835-11.86l1.423,8.636A1.762,1.762,0,0,1-9.864-1.2,1.775,1.775,0,0,1-10.152-1.175Z" transform="translate(13.335 13.335)"/>
          </g>
          <g id="g537" transform="translate(72.577 65.343)">
            <path id="path539" d="M-11.575-22.33a1.763,1.763,0,0,1-1.67-1.2,1.762,1.762,0,0,1,1.108-2.232l5.664-1.906A1.762,1.762,0,0,1-4.241-26.56a1.762,1.762,0,0,1-1.108,2.232l-5.664,1.906A1.76,1.76,0,0,1-11.575-22.33Z" transform="translate(13.337 27.761)"/>
          </g>
          <g id="g541" transform="translate(28.038 8.815)">
            <path id="path543" transform="translate(0 0)"/>
          </g>
        </g>
      </g>
    </g>
  </g>
</svg>
