<svg xmlns="http://www.w3.org/2000/svg" width="87.539" height="87.539" viewBox="0 0 87.539 87.539">
  <g id="Group_1201734" data-name="Group 1201734" transform="translate(-408.051 -1843)">
    <g id="Group_1200255" data-name="Group 1200255" transform="translate(408.051 1843)">
      <g id="Group_1187152" data-name="Group 1187152">
        <g id="Group_1185946" data-name="Group 1185946">
          <g id="Group_1184280" data-name="Group 1184280">
            <g id="Group_1182168" data-name="Group 1182168">
              <g id="Group_1178877" data-name="Group 1178877">
                <g id="Group_1111311" data-name="Group 1111311">
                  <g id="Group_1098742" data-name="Group 1098742" transform="translate(0 0)">
                    <g id="Rectangle_400898" data-name="Rectangle 400898" transform="translate(0.001 0)" fill="#ffe9b5" stroke="#b18c32" stroke-width="1" opacity="0.859">
                      <rect width="87.539" height="87.539" rx="43.769" stroke="none"/>
                      <rect x="0.5" y="0.5" width="86.539" height="86.539" rx="43.269" fill="none"/>
                    </g>
                    <g id="Rectangle_400907" data-name="Rectangle 400907" transform="translate(0 0)" fill="none" stroke="#b18c32" stroke-width="1">
                      <rect width="87.539" height="87.539" rx="43.769" stroke="none"/>
                      <rect x="0.5" y="0.5" width="86.539" height="86.539" rx="43.269" fill="none"/>
                    </g>
                  </g>
                </g>
              </g>
            </g>
          </g>
        </g>
      </g>
    </g>
    <g id="documentacion" transform="translate(381.581 1858)">
      <g id="Group_1201632" data-name="Group 1201632" transform="translate(47.319 0.849)">
        <path id="Path_1247594" data-name="Path 1247594" d="M154.746,121.084H120.9a2.287,2.287,0,0,1-2.287-2.287V74.438a2.287,2.287,0,0,1,2.287-2.287h33.841a2.287,2.287,0,0,1,2.287,2.287V118.8A2.286,2.286,0,0,1,154.746,121.084Z" transform="translate(-111.301 -64.834)" fill="#8ac9fe"/>
        <path id="Path_1247595" data-name="Path 1247595" d="M122.421,88.758H88.58a2.287,2.287,0,0,1-2.287-2.287V42.112a2.287,2.287,0,0,1,2.287-2.287h33.841a2.287,2.287,0,0,1,2.287,2.287V86.471A2.287,2.287,0,0,1,122.421,88.758Z" transform="translate(-82.635 -36.167)" fill="#b3dafe"/>
        <path id="Path_1247596" data-name="Path 1247596" d="M90.1,56.433H56.255a2.287,2.287,0,0,1-2.287-2.287V9.787A2.287,2.287,0,0,1,56.255,7.5H90.1a2.287,2.287,0,0,1,2.287,2.287V54.146A2.287,2.287,0,0,1,90.1,56.433Z" transform="translate(-53.968 -7.5)" fill="#eaf6ff"/>
        <path id="Path_1247597" data-name="Path 1247597" d="M348.1,7.5h-3.2a2.286,2.286,0,0,1,2.287,2.287V54.146a2.287,2.287,0,0,1-2.287,2.287h3.2a2.287,2.287,0,0,0,2.287-2.287V9.787A2.287,2.287,0,0,0,348.1,7.5Z" transform="translate(-311.967 -7.5)" fill="#d8ecfe"/>
        <g id="Group_1201629" data-name="Group 1201629" transform="translate(3.658 10.976)">
          <circle id="Ellipse_12358" data-name="Ellipse 12358" cx="2.352" cy="2.352" r="2.352" transform="translate(1.508)" fill="#fed2a4"/>
          <path id="Path_1247598" data-name="Path 1247598" d="M90.153,146.037a3.86,3.86,0,0,0-3.86,3.859v1.287a1.126,1.126,0,0,0,1.126,1.126h5.468a1.126,1.126,0,0,0,1.126-1.126V149.9A3.859,3.859,0,0,0,90.153,146.037Z" transform="translate(-86.293 -141.333)" fill="#fd8087"/>
          <path id="Path_1247599" data-name="Path 1247599" d="M112.719,146.037a3.865,3.865,0,0,0-.98.126,3.86,3.86,0,0,1,2.88,3.733v1.287a1.126,1.126,0,0,1-1.126,1.126h1.96a1.126,1.126,0,0,0,1.126-1.126V149.9A3.859,3.859,0,0,0,112.719,146.037Z" transform="translate(-108.859 -141.333)" fill="#fe646f"/>
        </g>
        <g id="Group_1201631" data-name="Group 1201631" transform="translate(9.947 26.753)">
          <circle id="Ellipse_12359" data-name="Ellipse 12359" cx="9.261" cy="9.261" r="9.261" fill="#00f2a6"/>
          <path id="Path_1247600" data-name="Path 1247600" d="M165.118,262.982a9.259,9.259,0,0,1-14.177,11.339,9.26,9.26,0,1,0,14.177-11.339Z" transform="translate(-149.912 -260.82)" fill="#0ed290"/>
          <g id="Group_1201630" data-name="Group 1201630" transform="translate(3.955 5.706)">
            <path id="Path_1247601" data-name="Path 1247601" d="M179.921,296.608l1.293,1.294,3.072-3.072a1.829,1.829,0,0,1,2.587,0h0a1.829,1.829,0,0,1,0,2.587l-4.366,4.366a1.829,1.829,0,0,1-2.587,0l-2.587-2.587a1.829,1.829,0,0,1,0-2.587h0A1.829,1.829,0,0,1,179.921,296.608Z" transform="translate(-176.798 -294.294)" fill="#eaf6ff"/>
          </g>
        </g>
        <path id="Path_1247602" data-name="Path 1247602" d="M116.476,43.484H87.208a.915.915,0,0,1-.915-.915V40.741a.915.915,0,0,1,.915-.915h29.268a.915.915,0,0,1,.915.915V42.57A.915.915,0,0,1,116.476,43.484Z" transform="translate(-82.635 -36.167)" fill="#60b7ff"/>
        <path id="Path_1247603" data-name="Path 1247603" d="M329.685,39.825h-2.972a.915.915,0,0,1,.915.915v1.829a.915.915,0,0,1-.915.915h2.972a.915.915,0,0,0,.915-.915V40.74A.915.915,0,0,0,329.685,39.825Z" transform="translate(-295.843 -36.167)" fill="#26a6fe"/>
      </g>
      <g id="Group_1201634" data-name="Group 1201634" transform="translate(46.47 0)">
        <path id="Trazado_1247604" data-name="Trazado 1247604" d="M148.1,456.884H114.255a3.139,3.139,0,0,1-3.135-3.135v-1.373a.849.849,0,1,1,1.7,0v1.373a1.439,1.439,0,0,0,1.437,1.437H148.1a1.439,1.439,0,0,0,1.437-1.437V450.7a.849.849,0,1,1,1.7,0v3.05A3.139,3.139,0,0,1,148.1,456.884Z" transform="translate(-103.803 -398.937)"/>
        <path id="Trazado_1247605" data-name="Trazado 1247605" d="M422.717,105.983a.849.849,0,0,1-.849-.849V67.785a1.439,1.439,0,0,0-1.437-1.437h-1.372a.849.849,0,1,1,0-1.7h1.372a3.139,3.139,0,0,1,3.135,3.135v37.349A.849.849,0,0,1,422.717,105.983Z" transform="translate(-376.137 -57.333)"/>
        <path id="Trazado_1247606" data-name="Trazado 1247606" d="M115.766,198.807H81.926a3.139,3.139,0,0,1-3.136-3.135V194.3a.849.849,0,0,1,1.7,0v1.372a1.44,1.44,0,0,0,1.438,1.437h33.84a1.44,1.44,0,0,0,1.438-1.437v-31.86a.849.849,0,0,1,1.7,0v31.86A3.139,3.139,0,0,1,115.766,198.807Z" transform="translate(-75.132 -144.519)"/>
        <path id="Trazado_1247607" data-name="Trazado 1247607" d="M390.388,44.851a.849.849,0,0,1-.849-.849V35.465a1.44,1.44,0,0,0-1.438-1.437h-1.372a.849.849,0,0,1,0-1.7H388.1a3.139,3.139,0,0,1,3.136,3.135V44A.849.849,0,0,1,390.388,44.851Z" transform="translate(-347.466 -28.671)"/>
        <path id="Elipse_12360" data-name="Elipse 12360" d="M-4.3-7.5A3.2,3.2,0,0,1-1.1-4.3,3.2,3.2,0,0,1-4.3-1.1,3.2,3.2,0,0,1-7.5-4.3,3.2,3.2,0,0,1-4.3-7.5Zm0,4.7A1.5,1.5,0,0,0-2.8-4.3,1.5,1.5,0,0,0-4.3-5.8,1.5,1.5,0,0,0-5.8-4.3,1.5,1.5,0,0,0-4.3-2.8Z" transform="translate(12.666 18.476)"/>
        <path id="Trazado_1247608" data-name="Trazado 1247608" d="M83.5,138.537h0a4.714,4.714,0,0,1,4.709,4.708v1.287a1.977,1.977,0,0,1-1.975,1.975H80.768a1.977,1.977,0,0,1-1.975-1.975v-1.287A4.714,4.714,0,0,1,83.5,138.537Zm2.734,6.272a.277.277,0,0,0,.277-.277v-1.287a3.011,3.011,0,0,0-6.022,0v1.287a.277.277,0,0,0,.277.277Z" transform="translate(-75.135 -122.858)"/>
        <g id="Group_1201633" data-name="Group 1201633" transform="translate(20.35 10.976)">
          <path id="Línea_566" data-name="Línea 566" d="M7.754-5.8H-6.651A.849.849,0,0,1-7.5-6.651.849.849,0,0,1-6.651-7.5H7.754a.849.849,0,0,1,.849.849A.849.849,0,0,1,7.754-5.8Z" transform="translate(7.5 7.5)"/>
          <path id="Línea_567" data-name="Línea 567" d="M7.754-5.8H-6.651A.849.849,0,0,1-7.5-6.651.849.849,0,0,1-6.651-7.5H7.754a.849.849,0,0,1,.849.849A.849.849,0,0,1,7.754-5.8Z" transform="translate(7.5 11.158)"/>
          <path id="Línea_568" data-name="Línea 568" d="M7.754-5.8H-6.651A.849.849,0,0,1-7.5-6.651.849.849,0,0,1-6.651-7.5H7.754a.849.849,0,0,1,.849.849A.849.849,0,0,1,7.754-5.8Z" transform="translate(7.5 14.817)"/>
          <path id="Línea_569" data-name="Línea 569" d="M.552-5.8h-7.2A.849.849,0,0,1-7.5-6.651.849.849,0,0,1-6.651-7.5h7.2a.849.849,0,0,1,.849.849A.849.849,0,0,1,.552-5.8Z" transform="translate(7.5 18.475)"/>
        </g>
        <path id="Elipse_12361" data-name="Elipse 12361" d="M2.609-7.5A10.109,10.109,0,1,1-7.5,2.609,10.121,10.121,0,0,1,2.609-7.5Zm0,18.521A8.412,8.412,0,1,0-5.8,2.609,8.421,8.421,0,0,0,2.609,11.021Z" transform="translate(17.446 34.253)"/>
        <path id="Trazado_1247609" data-name="Trazado 1247609" d="M178.929,286.794a2.678,2.678,0,0,1,1.894,4.572l-4.366,4.366a2.678,2.678,0,0,1-3.787,0l-2.587-2.587a2.678,2.678,0,1,1,3.787-3.787l.693.693,2.472-2.472A2.661,2.661,0,0,1,178.929,286.794Zm-4.366,8.024a.974.974,0,0,0,.693-.287l4.366-4.366a.98.98,0,1,0-1.386-1.386l-3.072,3.072a.849.849,0,0,1-1.2,0l-1.294-1.294a.98.98,0,0,0-1.386,1.387l2.587,2.587A.974.974,0,0,0,174.563,294.818Z" transform="translate(-155.397 -254.335)"/>
        <path id="Línea_570" data-name="Línea 570" d="M-6.651,5.173A.849.849,0,0,1-7.5,4.324V-6.651A.849.849,0,0,1-6.651-7.5a.849.849,0,0,1,.849.849V4.324A.849.849,0,0,1-6.651,5.173Z" transform="translate(23.364 18.476)"/>
        <path id="Trazado_1247610" data-name="Trazado 1247610" d="M83.446,50.63H49.605A3.139,3.139,0,0,1,46.47,47.5V43.312a.849.849,0,0,1,1.7,0V47.5a1.439,1.439,0,0,0,1.437,1.437H83.446A1.439,1.439,0,0,0,84.884,47.5V3.135A1.439,1.439,0,0,0,83.446,1.7H49.605a1.439,1.439,0,0,0-1.437,1.437V39.351a.849.849,0,1,1-1.7,0V3.135A3.139,3.139,0,0,1,49.605,0H83.446a3.139,3.139,0,0,1,3.135,3.135V47.5A3.139,3.139,0,0,1,83.446,50.63Z" transform="translate(-46.47 0)"/>
        <path id="Trazado_1247611" data-name="Trazado 1247611" d="M109.825,37.682H80.556a1.765,1.765,0,0,1-1.763-1.763V34.089a1.765,1.765,0,0,1,1.763-1.763h29.268a1.765,1.765,0,0,1,1.763,1.763v1.829A1.765,1.765,0,0,1,109.825,37.682ZM80.556,34.024l-.066,1.895,29.334.066a.066.066,0,0,0,.066-.066V34.089Z" transform="translate(-75.135 -28.667)"/>
      </g>
    </g>
  </g>
</svg>
